<?xml version="1.0" encoding="utf-8"?>
<!-- Generator: Adobe Illustrator 21.1.0, SVG Export Plug-In . SVG Version: 6.00 Build 0)  -->
<svg version="1.1" id="Layer_1" xmlns="http://www.w3.org/2000/svg" xmlns:xlink="http://www.w3.org/1999/xlink" x="0px" y="0px"
	 viewBox="0 0 379.6 471" style="enable-background:new 0 0 379.6 471;" xml:space="preserve">
<style type="text/css">
	.st0{fill:#9ECAE1;stroke:#FFFFFF;stroke-width:0.5;}
	.st1{fill:#CCCCCC;stroke:#000000;stroke-width:0.5;}
	.st2{fill:#ECE7F2;stroke:#A3A3A3;stroke-width:0.5;}
	.st3{fill:#D1D1E6;stroke:#A3A3A3;stroke-width:0.5;}
	.st4{fill:#0571B0;stroke:#A3A3A3;stroke-width:0.5;}
	.st5{fill:#083857;stroke:#A3A3A3;stroke-width:0.5;}
	.st6{fill:#3690C0;stroke:#A3A3A3;stroke-width:0.5;}
	.st7{fill:#CCCCCC;stroke:#A3A3A3;}
	.st8{fill:#015A8D;stroke:#A3A3A3;stroke-width:0.5;}
	.st9{fill:#74A9CE;stroke:#A3A3A3;stroke-width:0.5;}
	.st10{fill:#A6BDDB;stroke:#A3A3A3;stroke-width:0.5;}
	.st11{fill:#FEF7FA;stroke:#A3A3A3;}
	.st12{fill:#FEF7FA;stroke:#A3A3A3;stroke-width:0.5;}
	.st13{fill:#FEF7FA;stroke:#FFFFFF;stroke-width:0.5;}
	.st14{fill:#ECE7F2;stroke:#FFFFFF;stroke-width:0.5;}
	.st15{fill:#D1D1E6;stroke:#FFFFFF;stroke-width:0.5;}
	.st16{fill:#A6BDDB;stroke:#FFFFFF;stroke-width:0.5;}
	.st17{fill:#74A9CE;stroke:#FFFFFF;stroke-width:0.5;}
	.st18{fill:#3690C0;stroke:#FFFFFF;stroke-width:0.5;}
	.st19{fill:#0571B0;stroke:#FFFFFF;stroke-width:0.5;}
	.st20{fill:#015A8D;stroke:#FFFFFF;stroke-width:0.5;}
	.st21{fill:#083857;stroke:#FFFFFF;stroke-width:0.5;}
	.st22{fill:none;stroke:#A3A3A3;}
	.st23{fill:#F37475;stroke:#F37475;stroke-width:0.5;stroke-miterlimit:10;}
	.st24{fill:#F37475;stroke:#F9F9FA;stroke-width:0.2;stroke-miterlimit:10;}
	.st25{fill:#CCCCCC;stroke:#FFFFFF;stroke-width:0.5;}
	.st26{fill:#EA96A2;stroke:#ED1C26;stroke-width:0.25;stroke-miterlimit:10;}
	.st27{fill:none;}
	.st28{font-family:'BerninaSans-CondensedRegular';}
	.st29{font-size:10.1722px;}
	.st30{fill:none;stroke:#EC2028;stroke-width:0.25;stroke-miterlimit:10;}
	.st31{font-family:'BerninaSans-CondensedLight';}
	.st32{font-size:6.4732px;}
	.st33{font-family:'BerninaSans-CondensedBold';}
	.st34{font-size:16.1174px;}
	.st35{font-size:11.097px;}
	.st36{fill:none;stroke:#727373;stroke-width:0.25;stroke-miterlimit:10;}
	.st37{fill:#727373;}
	.st38{opacity:0.75;}
	.st39{fill:none;stroke:#727374;stroke-width:13.65;}
	.st40{fill:#727374;}
	.st41{fill:none;stroke:#737475;stroke-width:6.1;}
	.st42{fill:#737475;}
	.st43{fill:none;stroke:#737475;stroke-width:4.9;}
	.st44{fill:none;stroke:#737476;stroke-width:4.4;}
	.st45{fill:#737476;}
	.st46{fill:none;stroke:#737476;stroke-width:2.6;}
	.st47{fill:#FFFFFF;stroke:#FFFFFF;stroke-width:0.5;}
	.st48{fill:none;stroke:#000000;stroke-width:0.5;}
	.st49{stroke:#000000;stroke-width:2;}
</style>
<g>
	<path id="PH-SUR" class="st25" d="M238.2,282.4l0.8,0.5l-1.3,0.8l1.1,1l0.8-0.8l-0.4,0.7l0.8,2.1l0.9,0.7l1.5-0.5l1-1.1l0.8,0
		l-1,4.3l0.7,0.6l0.2-0.3l2.3,2.8L246,294l0.7,0.2l-0.4,0.8l0.6,0.8l-0.4,0.1l0.3,0.2l-0.5,0.9l-1,0.2l-0.9,0.9l0,0.4l0.7,0.3
		l-1.2-0.1l-1.7,1l-0.5,0.8l0.9,0.6l-0.2,0.4l0.6,0.7l1.6,0.1l-0.7-0.6l0.5-0.2l1.7,0.6l1.4-0.4l0,0.6l0.8,0.1l0.1,1l-0.7-0.1
		l-0.3,0.9l0.5-0.1l0.1,0.4l-0.5,0.8l-0.8,0.3l0.2,0.9l1.2,0.5l-1.6,1.3l0.6,0.9l2.3-1.3l-0.6,2.8l0.5,0.3l-1,1.9l0.2,0.5l0.7-0.1
		l-1.3,0.7l-0.6,0.9l0,0l-0.2-1.9l0,0l-0.1-1.1l-0.9-0.3l1.2-1.2l-1.4,0.1l-1.8-1.3l0.3-1.1l1.4-1.2l-0.5-1.1l0.2-1.3l-0.4,0.6
		l-1.7,0.1l-1.7-0.2l-0.8-0.8l1-1.1l-1.4,0.1l-0.4-2.2l-0.6-0.3l-0.1-1.3l0.4-0.6l-1.4-3l-1-1.2l-0.4-4.1l-2.6-3.5l0,0l-0.2-1.9l0,0
		l3.5-3.6l0,0L238.2,282.4z"/>
	<path id="PH-TAR" class="st25" d="M127.7,147.6l0.9,3.6l0.9,0.9l1.2,0.3l-0.7,1.2l0.9,2.8l-0.5,1.7l0.9,0.7l-0.2,0.8l0,0l-0.6,0.1
		l-0.1-0.4l-0.9,0.5l-0.9-0.3l-1.8,0.3l-4.2,2l0,0l-1.8-2.6l-2.5-1.5l0.5-3.2l0.8-1.5l0.9-0.5l-0.2-0.4l0,0l1.5-0.7l-0.1-0.4
		l1.6-2.1l1.8,0.8l1.4-0.9l0.8-2.5L127.7,147.6z"/>
	<path id="PH-TAW" class="st25" d="M102.9,380.7l-0.3,0.8l-0.4-0.3l0.7-0.9L102.9,380.7z M111.3,379.5l0.8,0.6l-1.1,0l-0.2-0.4
		L111.3,379.5z M103.6,377.6l1.1,3.2l-1,2.5L103.6,377.6z M110.8,377.3l1,0.5l0,0.7l-1,0.2L110.8,377.3z M115.3,375.6l-0.3,1
		l-0.4,0.1l0.1-1L115.3,375.6z M110.3,375.1l-0.1,0.4l-0.7-0.1l0.1-0.4L110.3,375.1z M117.5,375.2l0.3,0.5l-0.7-0.6L117.5,375.2z
		 M119.6,375.2l-0.8,0l0.5-0.4L119.6,375.2z M111,373.3l0.1,1.2l-1.6,0.5l0.6-1.3L111,373.3z M121.4,373.2l-0.2,0.7l-0.7,0
		L121.4,373.2z M122.1,372.7l-0.2,0.6l-0.3-0.1l0-0.6L122.1,372.7z M121.4,371.7l-0.7,0.4l-0.6-0.2l0.5-1.5l0.8,0.7L121.4,371.7z
		 M122.5,370.4L122,372l-0.2-0.8L122.5,370.4z M119.3,368.5l0.1,1l0.8,0.5l-0.5,0.9l-0.1,2.3l-1.2-0.4l0.6-0.8l-0.5-0.2l-0.2,0.6
		l-0.7-0.5l-0.5,0.7l-1.2-0.6l-0.9,0.6l-0.7,1.6l-0.6-0.2l-1.5,0.8l-0.8-0.2l-0.2-1.4l0.4-0.5l2.3-0.8l0.8-1l1,0.1l3-2.3
		L119.3,368.5z M127.3,367.4l-0.5-0.2l0.2-0.5l0.6,0.5L127.3,367.4z M83.8,333.1l0.4,0.4l-0.4,0.7l0.5,0.6l-2.2-0.5l-0.5-0.7
		L83.8,333.1z"/>
	<path id="PH-ZMB" class="st25" d="M112.6,148.1l2.1,0.3l0.8-1.1l1.2,0.7l1.3-0.3l2.2,4.4l0,0l0.2,0.4l-0.9,0.5l-0.8,1.5l-0.5,3.1
		l2.5,1.5l1.8,2.6l0,0l-0.1,1.3l0.8,0.6l0.3,1.9l0.8,1.3l0,0l-0.5,1l-1.2-0.2l-0.4,0.9l0,0l-1.3,1l-1.5-1.6l-0.5,0.3l0.3,1.1
		l-0.7,1.6l-2-1l0.6-0.7l-0.6,0.2l0.1-0.8l-0.7-0.9l0.3-2.6l-1-5.4l-1.6-2.7l-1-0.9l0.6-0.4l-0.2-1l0.8,0.3l0.5-0.6l-0.7-1l0.2-0.4
		l-0.7,0.3l0.2-0.8l-0.4-0.6l0.6-1.5l-1.4-0.9l0.8-0.4L112.6,148.1z"/>
	<path id="PH-ZAN" class="st25" d="M185.6,298.1l0.9,0.2l0.3,0.7l1-0.4l-0.3,1.2l1.4,0.4l0,0l-0.1,8.5l0,0l-7.3-0.5l-0.7,5.1
		l-1.9-0.1l-2.4,1.8l-1-0.1l0,0l0,0l0,0l-3.4-0.5l-1.9,0.3l-2.3,1.1l-2.1,1.7l-2,0.9l-1.7,2.5l-1.2,3.5l0,0l0,0l0,0l-1,2l-0.5,3
		l-1.5,1.5l-3.6,0.1l0,0l1.5-2.1l1.9-1l-0.7-1.3l1.3-2.9l-0.3-0.6l0.6,0l0.9-1l-0.8-0.5l0.6-1.5l-0.4-1.1l-0.7-0.3l0.4-0.6l0.4,0.1
		l-0.1-0.9l0.4-0.1l0.4-1.1l1.4-1l0-1.1l2.5-1.6l5-0.9l1.6-1.7l0.5,0.9l0.7,0.2l4-0.7l1.7-1.4l0-0.7l-1.2-1.2l1-0.4l-0.1-1.8
		l0.6-0.3l0.5-1.3l0.7-0.5l2.5-0.4l2.4,0.3l1.1-2.4l1.3,0l0.1-0.6l-0.9-0.9L185.6,298.1z"/>
	<path id="PH-ZSI" class="st25" d="M162.2,334.2l0,0.9l-0.9-0.1l0.1,0.3l-0.8,0.6l0.5-1.4L162.2,334.2z M175.3,325l-0.4,1.5
		l-0.9-1.4l-0.7,0.3L173,327l0.5,0.2l-0.1,0.9l0.5,0.4l0.3-0.6l1.1-0.2l0.4-0.6l0.6,0.2l-0.5-0.7l1.1,0.2l-0.8-0.8L175.3,325z
		 M172.3,314.5l-1.9,0.3l-2.3,1.1l-2.1,1.7l-2,0.9l-1.7,2.5l-1.2,3.5l-1,2l-0.5,3l-1.5,1.5l-3.6,0.1l0,0l-0.1,1.4l0.8,2.4l3.5,1.6
		l0.9-0.4l0.7-0.9l0.4-2.4l1.1-0.9l-0.2-1.6l0.7-0.9l0.2-1.9l0.6-0.3l0.2,0.6l0.3-0.1l1.1-1.6l-1-0.1l0.2-1.4l1.9-1.5l0.8-0.1
		l0.4-0.9l-1.1,0.3l-0.4-0.4l1.2-0.9l-0.2-0.4l1.3-1.7l2.4-1.1l0.3,0.5l0.4-0.5l1.1,0.8l0.5-0.3l0.9,0.4l0.2,0.7l-0.4-0.3l-0.4,1.1
		l0.1,1.7l0.7,1.1l-0.2,0.4l-0.5-0.4l-0.2,1.1l0,0.3l0.4-0.4l0.4,0.2l-0.1,0.9l1.3-0.6l-0.4-0.6l1-1l1,1.4l0.5-0.2l0.4,0.6l0.9-2.5
		l-0.2-1l0.6,0l0.1-1.1l0.5,0.1l0.3-0.6l0,0l-0.3-2.2l-3.5-0.4V315L172.3,314.5z"/>
	<path id="PH-ABR" class="st25" d="M134.3,101.1l1.2,0.8l0.5,2.1l1.2-0.1l0.7,0.5l0.5,3l0,0l-0.6,0.4l0.6,1.7l-0.2,0.6l-2.3,1.5
		l-0.1,1.8L134,117l0,0l-0.4,1.2l-0.8,0.1l0,0l-1.2,0l-0.9,0.6l-1.3-0.1l-0.6-0.7l0.3-1.3l-1.4-1.2l-1.2,0.1l-0.4-1.1l1-2.6
		l-1.3-0.5l-0.9,0.4l-0.3-0.5l1.4-4.4l0,0l1-2.1l2.3-0.8l0.8-1.3l1.2-0.4l1-1l1.6,0.2L134.3,101.1z"/>
	<path id="PH-AGN" class="st25" d="M228.5,283.2l2.3-0.4l2.6,0.5l1.1,0.9l0.2,1.4l0,0l0.2,1.9l0,0l0.3,1.5l-0.4,1.9l-1.1,1.8
		l-1.2,3.7l0.7,2.3l-3.7-0.1l-1.2,0.9l-4.1,0l0,0l-0.2-4.1l0.5-0.4l-0.8-1l0.4-0.7l-0.6-2.8l0,0l0.7,1.3l0.9,0.8l1.1,0l0,0.5
		l0.2-0.4l1.8,0.3l1.9-0.8l0.2-3.7L228.5,283.2z"/>
	<path id="PH-AGS" class="st25" d="M234.8,287.5l2.6,3.5l0.4,4.1l1,1.2l1.4,3l-0.4,0.6l0.1,1.3l0.6,0.3l0.4,2.2l1.4-0.1l-1,1.1
		l0.8,0.8l1.7,0.2l1.7-0.1l0.4-0.6l-0.2,1.3l0.5,1.1l-1.4,1.2l-0.3,1.1l1.8,1.3l1.4-0.1l-1.2,1.2l0.9,0.3l0.1,1.1l0,0l-3.9,0l0,0
		l-2.4,1.4l-1-0.6l-0.4-0.7h-6.4l0,0l-6.1,0.3l0,0l0.1-1.9l-0.7-2.4l0.2-0.9l-2.1-2.8l-0.4-4.4l0,0l0-1.6l0,0l4.1,0l1.2-0.9l3.7,0.1
		l-0.7-2.3l1.2-3.7l1.1-1.8l0.4-1.9L234.8,287.5z"/>
	<path id="PH-AKL" class="st25" d="M155.7,230.6l2.5,2.1l3,0.5l1.8,1.7l1.1-0.1l-0.2,0.6l0.6-0.3l0.7,1.2l1.6,1.3l-0.3,0.2l-1.4-1.4
		l-0.6,0.2l0.7,0.6l0,0.7l0.5,0.1l0.1-0.4l0.1,1.1l0.6,0l0.3-0.9l1.7,0.9l0,0l-1.3,1.5l-2.4,0l-1.9,2.6l-2.1,0.9l0,0l-0.4-0.6
		l0.2-0.9l-1.2-1.8l0.4-1.3l-0.3-2.4l0.8-1.6l-0.3-0.8l-3.6-1.5l-1.1,0.1l-1.9,1.2l0,0l0.8-1.1l0.1-1.8L155.7,230.6z M155,229.3
		l0.4,1.3l-0.7-1L155,229.3z"/>
	<path id="PH-ALB" class="st25" d="M200.9,203.1l1.5,0.5l0.3,0.8l-3.3-0.7L200.9,203.1z M197.8,202.1l0.2,0.4l0.4-0.6l0.5,0.6
		l0.3-0.4l1.1,0.4l-1.6,0.9l-0.6-0.5l-0.9,0.1l-0.9-1.1L197.8,202.1z M195.2,200.6l1.6,0.6l-0.9,1l0.5,0.9l-0.6,0.3l-0.9-1l0.5-0.9
		l-0.5-0.4L195.2,200.6z M193.4,199.4l1.8,0.8l-0.3,0.5L193.4,199.4z M190,197.1l1.5,0.8l1.4,3.3l2.5,1.7l-0.1,0.4l-1.8-0.1
		l-0.4,1.3l0.7,1.1l-0.2,0.5l-0.5,0l0,0.5l1,0.4l1.6-2l1.3,0.5l0,0l-0.7,1.6l-1,0l-1.9,1.2l-0.7-0.8l-2.2,0.3l-1.1-0.4l-1.9,0.9l0,0
		l-1.5-1.2l-1.8,0.9l-0.8-1l0.1-2l0.8-1.1l-1.1-1.4l0,0l3.3-2.1l1.1,0l2-0.8l0.1-0.9l-0.9-1.4l1.2-0.4l0,0L190,197.1z"/>
	<path id="PH-ANT" class="st25" d="M153.3,234.3l1.9-1.2l1.1-0.1l3.6,1.5l0.3,0.8l-0.8,1.6l0.3,2.4l-0.4,1.3l1.2,1.8l-0.2,0.9
		l0.4,0.6l0,0l0,2.1l0.8,1.6l0,0l1.7,2.3l0.1,2l-2.6,2.1l-0.5,1.6l-2.1,1.4l-1.1,2.4l-0.2,1.7l0.4,0.6l0,0l-1.4,1.3l-1-0.9l0.1-1.2
		l0.9-1l0.4-2.4l-1.1-2l1.3-3.5l1.5-2.1l-0.4-3.3l0.4-1.5l-0.5-0.8l0.6-0.9l-0.1-2.6l0.7-0.7l0.3-4.3l-0.8-0.8L153.3,234.3z
		 M144.8,232.1l2,0.5l-0.3,0.4l-2.1-0.2L144.8,232.1z M147.3,230.1l0.6,1.2l-0.6,0.3l-0.3-1.2L147.3,230.1z M143.1,226.8l0.7,0.1
		l0.9,1.7l-0.8,1l-0.7-1.5l0.5-0.3l-0.8-0.4L143.1,226.8z"/>
	<path id="PH-APA" class="st25" d="M135,90.9l0.9-0.4l0.8-1.4l0.9-0.3l0.1,1.2l3.3,1.2l0.8,0.9l3.8,1.8l0.5,1.8l-0.6,3.8l-0.9,0.4
		l-2.2,4.7l1.4,0.5l1.1,1.3l0.2,1l0,0l-1.1,1.1l-2.8-0.6l-0.5,1l-2.2-1.3l0,0l-0.5-3l-0.7-0.5l-1.2,0.1l-0.5-2.1l-1.2-0.8l0,0
		l0.2-2.7l0.8-1.5l-0.7-4.4L135,90.9z"/>
	<path id="PH-AUR" class="st25" d="M162,132.8l-1.3,1.8l0.5,1l0.4-0.7l-0.4,1.4l-0.9,1.1l0.3,0.3l0.9-0.5l-0.7,1.5l-2.8,2.6l0.1,0.6
		l-0.8,0.9l-0.9,0.5l0.8-1.6l1.4-1.4l0-0.8l0.7-0.5l0-0.8l-0.8-0.1l-0.5,0.5l0.1,1.1l-1.2,0.2l-1.7,1.2l-1.4,0.1l-1.9,1.3l-0.8-0.1
		l-3.9,3.7l0,2.4l0.4,0.8l1.4,0.1l0,1l-0.6-0.1l0.1,1.3l-2.6,2.7l-0.4,2.3l-0.9,1.1l-0.6-0.4l-0.4,0.4l-0.2,1.1l1,2.1l0,0l-0.8,0.9
		l0.3,1l-1.2,1.8l0,1l0,0l-0.6-4.3l0,0l1.3-6.1l-2-6.2l0,0l3.9-3.1l0,0l7.7-6.7l4.8-5.6l1.4-0.9l0,0l2.9,0.1l0,0L162,132.8z"/>
	<path id="PH-BAN" class="st25" d="M124.5,166.9l0.8,0.4l0.6,1.5l1.1,0.2l0,0l-0.6,0.9v1.4l1.4,4.1l-0.1,1.2l-0.9,1.2l-1.5-0.2
		l0.2,0.6l-2.3-1.1l-0.3-1.4l0.4-1.3l-0.5-0.8l-1.1,0l-1.3-1.4l0.1-0.9l0.5,0l-0.8-0.5l0.8-0.4l-0.5-0.2l2.1-1.3l0,0l0.4-0.9
		l1.2,0.2L124.5,166.9z"/>
	<path id="PH-BTN" class="st25" d="M153.4,49l0.9,1l-0.6,1.1l-0.5-0.6L153.4,49z M156.7,46.1l0.7,0.5l-1.5,1.2l0.2,1l-1.2,0.4
		l0.2-1.4l0.8-0.8l-0.2-0.5L156.7,46.1z M153.8,38.4l0.4,0.5l-0.1,1.1l-1.6,1.6L152,41l1.1-2.3L153.8,38.4z"/>
	<path id="PH-BTG" class="st25" d="M137.5,195.9l0.3,0.8l-0.4,0.2l-0.8-1L137.5,195.9z M132.2,193.4l2.4,1.1l-1.5,0.1l-0.7-0.3
		L132.2,193.4z M127.3,181.9l0.5,0.2l0,0l1.3,0.4l-0.2,0.5l0.7,0.8l1.2,0.1l1.5,1.1l0.1,0.6l2.3-0.7l1.8-1.3l0,0l3.2,0.5l0.5,2.2
		l0.6,0.8l0.4-0.1l0,0.6l0,0l0.1,0.5l-0.6,0.3l0.7,1l2,0.2l1.8,1.1l0,0l-0.5,1.2l0.2,1.4l0.5,0.3l-1,0.6l-0.8-0.3l-2,1.5l-2.1-1
		l-2.2,0.5l-0.9-0.3l0.5-1.9l-1.3-1.3l-0.8,0.2l-1.5,1.9l-0.4-0.8l1.1-0.9l-0.5-1.3l0.2-1.2l-2.5-1.1l-1.7,0.1l0.2,1.7l-1.4-0.4
		l0.5,1.5l-0.4,0.4l-0.7-0.9l-0.1-3l-0.3-0.4l0.6-0.1l-0.2-3l-1.1-0.5l0.9-0.2l-0.8-0.5l0.8-0.1l-0.6-0.3L127.3,181.9z"/>
	<path id="PH-BEN" class="st25" d="M131.1,123.8l2.2,2.3l0,0l0.4,1l0.1,4l0,0l-0.4,1.9l0.2,1.6l-1,2.4l-0.8,0l-1,1.7l0.2,0.9l0,0
		l-2.4,0.3l-3-1.1l0,0l-0.9-5.6l1.9-2.1l-0.4-0.2l0.8-1.1l0,0l0.8-1.5l0.5-3.6L131.1,123.8z"/>
	<path id="PH-BIL" class="st25" d="M207.1,235.5l2.3,0.7l1,2.2l0.7,0.5l-0.2,1.2l-2.6,0.5l-0.8-0.5l-2-3.9L207.1,235.5z M205,233.2
		l0.6,0.2l-0.5,0.9l-0.7-0.6L205,233.2z"/>
	<path id="PH-BOH" class="st25" d="M194.8,278.9l0.7,0.4l0,0.5l-1.5,1.1l-1,0.1l-0.1-0.6l-0.6-0.2L194.8,278.9z M193.6,273.7
		l0.4,0.1l-0.6,0.5l-0.1-0.6L193.6,273.7z M194.6,273.3l0.8,0.1l-0.6,0.5l-0.6-0.5L194.6,273.3z M211.1,268.2l-0.6,0.9l0.3,0.5
		l-0.9-0.1l-0.2,0.8l-0.4,0l-0.2-1.3l0.6,0.1l0.1-0.4l0.4,0.5l0.1-0.6L211.1,268.2z M204.3,267.8l1,0.7l0,0.5l0.6-0.8l0.5,1l1.8,1
		l0.5-0.4l0.9,0.8l0.3,1l-0.3,0.1l0.2,1.3l-0.4,0.1l0.8,0.2l-0.4,0.8l-0.9,0.5l1.7,0.9l-0.1,1.1l-1.5,0.7l-0.7-0.8l-1.6,1.1
		l-0.2,1.2l-2.9,1.1l-1.5-0.2l-2.7,0.4l-4.3-1l-0.2-0.7l0.5-1l-0.7-0.5l-1.1,0l0.4-2l-0.4-0.6l0.6,0.2l-0.1,0.3l1.3-1.2l0.2-0.7
		l0.2,0.4l1.4-0.9l1.4-0.2l0.7-2.1l0.8,0l1.1-1.8l2.6,0L204.3,267.8z M202.1,267.7l-0.1,0.5l-0.4-0.2L202.1,267.7z M203.7,267.1
		l-0.5,0.6l-0.8-0.2L203.7,267.1z M201.8,267l0.3,0.3l-0.7,0.1L201.8,267z"/>
	<path id="PH-BUK" class="st25" d="M210,308.4l0.3-1.3l0.5-0.2l0.3-2.5l4.1,0.1l-0.1-1.1l1.1-2.5l7.8,0.3l0,0l0.4,4.4l2.1,2.8
		l-0.2,0.9l0.7,2.4l-0.1,1.9l0,0l0.8,1.5l-0.1,2l0.5,1.1l-0.2,2.3l-0.7,0.7l-3-0.5l0,1.3l0,0l-0.7-0.3l-0.1,0.4l-0.5,0l-0.8,2.2
		l-1.8,0.3l-0.4,1l-1.6,0.1l-0.9-0.7l-1,0.3l-1.3-1.7l-0.6,0.3l0.8-1.3l-0.4-1.3l0,0l-1.1-1l-0.5-1.9l-1.4-1.9l-0.6-0.2l-0.1-0.9
		l-1.4-1.9l-0.5-2.3l-0.8-1l0,0l1.4-0.4L210,308.4z"/>
	<path id="PH-BUL" class="st25" d="M134.8,160.7l1.4-0.7l2.6-0.4l2,1.5l1.5,0.1l0,0l0.6,4.3l0,0l0.1,2.2l0,0l-1.8,1.1l-1.6,0.3
		l-1.4,1.4l0,0l-1.4-0.4l-1.2,1.4l-1.1-0.4l0.5,0.9L134,172l0,0l-1.6-1.1l0-0.5l-0.5-0.3l-0.4,0.5l-2.4-0.3l0.5-0.6l0,0l0.8-2.6
		l1.8-0.2l1.3-1.1l-0.1-0.6l0.5,0.2l0.4-0.9l0.6,0l0.4-1.4l-0.9-1.1L134.8,160.7z"/>
	<path id="PH-CAG" class="st25" d="M159.4,88l0.5,0.1l-0.1,1.3l-0.8,0.5l-0.1-1.4L159.4,88z M138.4,87l1.5,0.4l4.6,3.3l10.1,4.3
		l2.3-0.6l1.9-2.1l0.6,0l0.4-2.7l1.8-0.2l0.3,1.5l1.3,1.2l0.5,1.8l-0.8,2l-0.8,1.1l-1,0.4l-1,1.5l0.4,0.5l0.1,3.4l-1.1,2.4l0.7,2.1
		l-0.1,1.9l0.6,1.4l0,0l-11.1,0.9l0,0l-3.7-3.6l-0.8,0.1l0.1-0.5l0,0l-0.2-1l-1.1-1.3l-1.4-0.5l2.2-4.7l0.9-0.4l0.6-3.8l-0.5-1.8
		l-3.8-1.8l-0.8-0.9l-3.3-1.2l-0.1-1.2l-0.9,0.3l-0.8,1.4l-0.9,0.4l0,0l0.2-2.9l0,0l1.3-0.8l0.5,0.3L138.4,87z M144.5,80.9l1.3,0.7
		l-2.8,0.7l-1.5-0.4l0.1-0.6L144.5,80.9z M154.9,78.7l0.6,0l1,1l-0.1,0.4l-2,1.6l-0.8,1.3l-0.6-1.4l0.8-0.3l-0.4-0.8l0.3-1.1
		L154.9,78.7z M140.3,75.1l0.6,1.5l0,2l-1.1-1.2L140.3,75.1z M144.3,70.2l1.6,0.6l0.8-0.5l0.4,2.5l-0.6,0.7l-2.3-0.9l-0.3-1L143,71
		L144.3,70.2z M156,66.2l0.5,0.4l0,0.9l-0.7,0.8l-1.4-1.4L156,66.2z"/>
	<path id="PH-CAN" class="st25" d="M167.5,179.4l1.8,0.7l-0.3,0.2l1.1,0.6l0-0.8l0.9,0.7l-0.5-1.2l0.4-0.1l0.6,0.1l0.2,0.6l0.6-0.4
		l0.8,0.4l-0.1,0.5l1.6,0.3l1,1.1l0,0.6l2.7,2l-0.3,1.4l1.1,1.1l0.2,1.9l-0.8,1.2l0,0l-5.6-3.8l0,0l-7.3-2.9l-1.6,1.8l-1.3-0.1
		l0-0.3l0,0l1-0.9l-0.3-1.6l0.3-0.6l0.7,0.2l-0.5-0.7l0.5-0.8l0.5,0l0.1-0.6l0.3,0.3l0.8-0.8l0.3,0.3L167.5,179.4z M176.3,177.5
		l0.7,0.6l-1.2-0.6L176.3,177.5z M176.4,176.3l-0.2,0.9l-0.9,0.1L176.4,176.3z"/>
	<path id="PH-CAS" class="st25" d="M194.5,187.3l0.4,0.1l-0.2,1.7l-0.5-1.2L194.5,187.3z M190.9,187.3l0.7,0.7l-1.1,0.8l-0.5-0.1
		l0.1-1l0.3,0.4l0.3-0.5l0.5,0.4L190.9,187.3z M184.5,184.6l0.7,1.4l-0.6,0.6l0.9-0.5l0.1,1l0.5,0.1l-0.2,0.8l0.7,0.6l0.1-1.1
		l1.1,0.6l-0.3,0.6l0.6-0.4l0.5,0.5l0-0.5l1.2,0.8l1.6,0.3l0.7-0.1l-0.1-1.3l1.4,2l1.5,0.8l0.4-0.3l0.7,0.6l0.9,0l0.1,0.9l0.4,0l0,1
		l-0.7-0.6l-0.1,0.3l-1.2-0.4l-1.5,1.1l-5-1l0.5,0.3l-0.7,1l-0.3,1.2l0.4,0.4l-0.4,0.8l1.1,0.3l0.4,0.6l0,0l-1.2,0.4l0.9,1.4
		l-0.1,0.9l-2,0.8l-1.1,0l-3.3,2.1l0,0l-1.4-1.8l-0.4-1.9l-6.3-3l-1.9-1.6l0.5,0l0.8-0.9l-0.5-0.9l-2.3-1.8l-1.5,0l-0.3-1.3
		l-1.3-0.5l0.2-0.4l-0.6,0.1l0.3-0.3l-0.4-0.3l0,0l5.1-1.4l0,0l5.6,3.8l0,0l-0.3,1.3l1.6,1.1l2.3-0.1l0.9-0.4l1-1.6l-0.9-1.5
		l0.2-0.6l-0.6-0.8l-0.7-0.1l-0.1-0.7l0.8-0.3l-0.7-0.3l1.1-0.1l-0.7-0.9l1.3,0.8l-0.2-0.7l0.8,0l-0.4-0.5L184.5,184.6z
		 M183.7,184.1l0.6,0.4l-0.2,0.5L183.7,184.1z"/>
	<path id="PH-CAM" class="st25" d="M213,287l1.4,1.1l0.6,1.7l-0.6,0.9l-2.1-0.8l-0.9-1.1l0.2-1.3L213,287z"/>
	<path id="PH-CAP" class="st25" d="M171.5,237.5l1.6,0.4l0.7-0.3l0.8,1.2l-0.2,0.5l0.5-0.2l1.1,0.6l-1.4,1.3l0.7,0.7l0.5-1.3l1.5,0
		l2.2-1.3l0,0l-1,2l0,1.1l-2.4,0.8l0.2,1.1l-1.2,0.6l0,0.8l-0.3-0.1l-0.5,1l-1.5,0.2l0-0.8l-0.4-0.2l-2.3,0.3l-0.5-0.5l0.5-0.6
		l-0.3-0.1l-0.9,0.9l-0.3-0.6l-0.6,1l-1.1,0.5l-2.2-0.3l-1.4-0.7l-1.7,1.8l0,0l-0.8-1.6l0-2.1l0,0l2.1-0.9l1.9-2.6l2.4,0l1.3-1.5
		l0,0l0.3,0.7l0.8,0l0.6-0.4l-0.5-0.2l0.3-0.6l0.2,0.7l1.3-0.8L171.5,237.5z"/>
	<path id="PH-CAT" class="st25" d="M205.2,187.4l0.4,0.5L205,188l-0.4-0.8L205.2,187.4z M202.6,184.7l1.3,1.8l0.3,1.6l0.6,0.2
		l-0.1,0.8l0.9-1l0.1,0.7l0.7,0.7l0.1-0.6l0.4,0.7l-0.3,0.1l0.5,0.3l-0.5,0.2l0.6,0.8l-0.7,0.4l0.3,0.6l-0.5,0.8l0.7,1.1l-1.5,0.5
		l0.2,0.9l-0.5,0.8l-0.2,0.1l-0.5-1.1l-1.7,0.8l-0.1,1l-2.1-1.6l-1.3-0.2l0.3-0.3l-0.8-1l1.5-0.9l0.8-1.9l-0.2-1.9l0.4-0.9l-0.5-2.9
		l0.9,0.2L202.6,184.7z"/>
	<path id="PH-CAV" class="st25" d="M133.9,176.1l-0.5,1l1.7-0.5l0,0l0.9,2.7l0,0l-0.1,0.8l1.3-0.4l-0.7,1.7l0.4,0.1l-0.4,0.8
		l0.2,1.1l0,0l-1.8,1.3l-2.3,0.7l-0.1-0.6l-1.5-1.1l-1.2-0.1l-0.7-0.8l0.2-0.5l-1.3-0.4l0,0l0-1l1.5-0.3l1.6-1.1L133.9,176.1z"/>
	<path id="PH-CEB" class="st25" d="M199.8,265.4l-0.6,1l-0.2-0.3L199.8,265.4z M198,264.4l0.4,0.5l0.8-0.4l-1.3,1.6l-0.8,0.3
		l-0.2-0.3l0.5-0.4l-0.6,0l0.1-0.6L198,264.4z M207.4,256.3l1.5,0.8l0.1,0.5l-1.5,0.6l-1.2-0.4l-0.1,0.4l-1.4,0.8L204,259l0.8-2.5
		l1.2,0.4l0.2,0.9L207.4,256.3z M210,254.3l-0.4,1.2l-0.9,0.6l-0.1-0.6L210,254.3z M199.5,244.5l-0.6,2.8l-1.1,1.6l0.3,0.5l0.9-0.1
		l-0.3,2.6l0.5,1l-1,2.6l0.7,4.3l-0.8,2.9l0.5,0.6l-1.2,1.2l-1.7,0.8l-0.4,0.9l-2,0.5l-1.7,2.1l-0.1,0.9l-0.8,0l-0.7,4.4l-1.5,1.5
		l0,1l-0.6,0.6l-0.9,3.4l-2.4,3.1l-1,0.1l0.9-7.7l1.2-2.5l-0.2-0.7l-0.6-0.2l0.1-0.9l0.7,0.3l0.2-1.6l0.7-0.3l1.5-1.9l1.4-2.3l0-1.4
		l1.8-1.8l1-1.8l-0.2-1l0.8-1.9l1.2-1.9l0.6-0.3l2.1-5.4l-0.7-0.9l0.7-0.7l0-0.9l0.7,0.5l-0.5-2.2l1-0.9l0.2-0.9L199.5,244.5z
		 M192.6,244l1.6,3.1l-1.8,0.3l0.2-0.6l-0.9-1.3L192.6,244z"/>
	<path id="PH-COM" class="st25" d="M243.3,313.3l-0.3,0.6l3,11l0.1,3.6l-7.4,4.1l0,0l-1.2-1.1l0.2-0.8l-1.1-1.8l0.4-2l-0.5-0.3l0,0
		l0-2.1l1.1-0.5l-0.7-0.9l1.4-0.3l0.4-2.2l-0.7-0.9l0.9-1.4l-0.5-1.4l-2.5,3.6l-0.5,0l-0.2-1.5l-1.4-1.2l-0.6-4.5l0,0h6.4l0.4,0.7
		l1,0.6L243.3,313.3z"/>
	<path id="PH-DAV" class="st25" d="M233.3,335l0.7,0.5l-0.1,0.8l-0.9-1L233.3,335z M233.8,330.1l1.9,1.7l-0.4,1.8l0.4,1.9l-0.6,1
		l-0.9-1.5l-0.2-2.2l-0.7,0.1l-0.3-0.6L233.8,330.1z M233.1,313.4l0.6,4.5l1.4,1.2l0.2,1.5l0.5,0l2.5-3.6l0.5,1.4l-0.9,1.4l0.7,0.9
		l-0.4,2.2l-1.4,0.3l0.7,0.9l-1.1,0.5l0,2.1l0,0l-2.4,1.3l0,0l-0.9,0l-1.2,1.2l-2.2,0.1l-0.1-6.7l-5.2-0.1l0,0l-0.1-0.3l0,0l0-1.3
		l3,0.5l0.7-0.7l0.3-2.3l-0.5-1.1l0.1-2l-0.8-1.5l0,0L233.1,313.4z"/>
	<path id="PH-DAS" class="st25" d="M224.3,322.4l5.2,0.1l0.1,6.7l2.2-0.1l1.2-1.2l0.9,0l0,0l-1.4,1.3l0.3,2.3l-0.3,0.6l-1.5,1.5
		l-0.4-0.5l-0.7,0.4l-0.8,1l0.1,1.2l-2,2.4l-0.4,1.6l0.3,1.9l-0.5,0.7l1.7,0.5l-0.3-1.2l1.9,1.6l0,0.7l0.7-0.3l0.6,0.4l-0.2,0.4
		l0.5-0.1l-0.3,1.5l0.8,0.3l1.8,4.1l0,3.9l-0.8,2.2l-3.1,3.5l-2.1,3.7l-1.7,0.4l-0.2-0.3l0,0l-0.3-0.4l1.8-1.3l1.9-4.1l-0.2-1.2
		l1.2-4.1l-0.6-0.6l-0.1-2l-1-1.5l0.7-0.8l-0.1-1.1l-1.3-1.9l-1.5-0.4l-0.7,1l-1.5,0.7l-1.6-0.9l0,0l0.5-1.4l0,0l-0.3-1.8l-1-1.2
		l0-0.9l0.4-0.2l-0.7-0.5l0,0l-0.4-1.3l0.9-0.1l0.4-1.3l1.9-1.6l0.5-1.3l0.8-0.1l-0.6-2l-1.2-1.4l0.4-1.3l-0.4-1.9l0.8-3.3
		L224.3,322.4z"/>
	<path id="PH-DAO" class="st25" d="M247.2,313.3l0.2,1.9l0,0l0.5,1.7l0.9,0l1.6,1.9l1.4,0.4l-0.4,0.4l0,1.3l0.5,0.6l-0.4,0.6
		l0.5,0.2l0.3,1.8l-0.1,0.7l-0.9,0.3l0,0.7l0.5,0.1l-0.5,0.5l0.3,1l-0.4,0.3l0.3,0.5l0.8,0l-0.9,1.8l-0.6-0.1l-0.4,1.7l-1,0.8
		l0.2,0.5l-0.5,0.2l-0.1,0.8l0.3,0.5L247,334l-0.6,1.4l-0.6,0.2l1.3,1.5l0.1,1.2l-1.3-0.4l0.3-0.8l-1.2-1.5l-0.9-0.3l-0.3,1.6
		l1.6,2.5l-0.9,2.5l0.2,4.3l-0.6,0.8l-0.2,1.1l-1.1-1.1l0.3-0.7l-1.4-2.3l0.2-1.4l-0.5-1.2l0.5-0.6l0.1-1.1l-0.5-0.5l0.1-1.7
		l-2.1-1.8l0.3-1.7l-1-1.3l0,0l7.4-4.1l-0.1-3.6l-3-11l0.3-0.6l0,0L247.2,313.3z"/>
	<path id="PH-DIN" class="st25" d="M228.9,261.7l0.6,0.4l-0.1,0.5l-0.4-0.1L228.9,261.7z M232.4,261.5l0.8,1.7l-0.7,1.8l0.1,1.2
		l-0.6-0.4l0.8,1.5l-0.2,0.7l0.5-0.1l-0.3,1l0.8,1.3l-0.4,2l-0.5,0.3l1.1,1.2l-0.1,0.5l-0.7,0.3l-0.5-0.6l0-1.2l-1.7-1.1l0.4-0.2
		l0.2-1.6l-0.4-0.2l0.1,0.5l-0.6-0.4l-0.8,0.4l-0.8-1.5l0.5-1l0.9-0.4l-0.6-0.8l0-1.7l0.9,0l-0.2-1.3l1,0.3l0.3-1.6L232.4,261.5z"/>
	<path id="PH-EAS" class="st25" d="M239,255.1l0.2,0.6l-0.7-0.6L239,255.1z M233.5,254.1l0.7,0.6l-0.2,1.1l2,0.3l-0.1,0.7l-1.2,0.1
		l-1.7-1.2l-0.2-0.8L233.5,254.1z M232.5,250.3l0.1,0.5l-0.7-0.2L232.5,250.3z M235,249.7l1.5,2l-1.5-1.5L235,249.7z M222.2,223.2
		l0.9-1.8l2,2.3l0.6-0.4l0,0l0.3,0.2l0.4-0.8l0.5,0.1l-0.3,0.7l1.5-0.1l0.5,0.6l-0.2,0.3l0.5-0.1l0.8,0.8l-0.1,0.4l-1.2,0.1l0.4,0.3
		l-0.6,0.3l0,0.7l0.8,0l0.2,0.2l-0.4,0.1l1,0.6l-1.9,2.2l0.2,2.8l0.8,0.7l-1.3,0.7l0.6,0.4l0.5-0.4l0.2,1.6l0.4,0.2l-0.8,0.1
		l0.2,0.5l-0.5,0.6l0.2,0.5l0.5,0l-0.1,1l1,1.1l-0.4,1l0.6-0.1l0.8,1.3l0.4-0.1l1,0.9l-0.4,1.2l-1.4,0.9l-0.3,1.3l1.3,0.4l0.5-0.4
		l-0.7-0.5l0.3-0.2l1.4,0.7l2,3.5l-0.2,0.4l-0.7-0.3l-1-1.1l0.6-0.6l-0.8,0l-0.1-0.5l-1.6,0.6l-0.5-0.3l0.2-0.4l-0.8,0l-0.4,1.4
		l-1-0.9l-0.2,0.6l-0.4-0.3l-0.6,0.6l-0.1-0.4l-1.8-0.3l-0.4-0.6l-0.9,0.5l0,0l-0.1-4.2l1.2-1.7l-1.6-1l-0.5-3.3l0.3-0.7l1.3-0.9
		l-0.3-3.7l-1.3-3l-1.9,0l-0.1-3.6l0.7-0.5L222.2,223.2z"/>
	<path id="PH-GUI" class="st25" d="M171.3,261.4l0.5,0.5l-0.9,0.2L171.3,261.4z M170.3,255.6l1.3,1.3l0.1,1.6l-0.9,2.4l-1.1,1.4
		l-2.3,0.6l-0.1-0.9l-0.7-0.6l0.2-0.5l0.8-0.2l-0.3-1.4l1.1-1.7l1-0.2l0.1-0.9L170.3,255.6z"/>
	<path id="PH-IFU" class="st25" d="M133.3,126.1l0.8,0l0.7-0.6l0.7-1.6l-0.1-1.4l5.2-0.2l2.6-1.3l1.8-0.3l2.4,0.2l0,0l0.7,3.7
		l-0.9,1l-1.8,0.6l-0.5-0.2l-0.6,0.8l-0.8,0.1l-0.6,0.5l0,0.7l0,0l-0.4,1.1l-0.5,0.2l0.1,0.6l-8.1,1.4l0,0l-0.1-4L133.3,126.1z"/>
	<path id="PH-ILN" class="st25" d="M132.6,86.5l1.3,1.9l0.9,0.1l0.4-0.5l0,0l-0.2,2.9l0,0l-0.4,1.7l0.7,4.4l-0.8,1.5l-0.2,2.7l0,0
		l-0.4,0.6l-1.6-0.2l-1,1l-1.2,0.4l-0.8,1.3l-2.3,0.8l-1,2.1l0,0l-0.5-1.1l0.4-2.8l-1.8-0.4l0,0l-0.3-0.3l1.4-1.8l-0.5-0.7l-0.1-1.2
		l0.9-1l0.2-1.5l1.6-3.2l-0.8-3.2l1.3-1.2l1.9,0.4l1.2-0.3l0.2-1.7L132.6,86.5z"/>
	<path id="PH-ILS" class="st25" d="M124.2,102.8l1.8,0.4l-0.4,2.8l0.5,1.1l0,0l-1.4,4.4l0.3,0.5l0.9-0.4l1.3,0.5l-1,2.6l0.4,1.1
		l1.2-0.1l1.4,1.2l-0.3,1.3l0.6,0.7l1.3,0.1l0.9-0.7l1.2,0l0,0l-1.6,1.7l-0.1,3.8l0,0l-2.8,0.8l-0.5,3.6l-0.8,1.5l0,0l-1-1.2
		l0.4-1.2l-0.9-1.6l0.2-1.6l-0.6,0.4l-1.6-0.4l0,0l0.8-1.3l-0.4-4.2l-0.5-0.8l0.7-1.6l-0.2-1.1l0.4-0.1l0.4-1.5l-0.7-0.9l-0.2-1.2
		l-1.5-0.9l-0.2-0.6l0.7-2.3l1.2-1.1l-0.6-0.5l0.4-0.4l-0.5-0.4l1.2-0.7L124.2,102.8z"/>
	<path id="PH-ILI" class="st25" d="M180.5,247.1l-0.6,1.2l-0.2-0.8L180.5,247.1z M180.9,245.7l0.5,0l-0.4,0.6L180.9,245.7z
		 M180.9,243.8l0.6,0.4l-0.9,0.9L180.9,243.8z M182.8,240.7l0.4,0.3l-0.5,0.5l-0.2-0.7L182.8,240.7z M182.3,240.6l-0.6,0.1l-0.2-0.9
		l0.4-0.1L182.3,240.6z M181.5,239l-0.1,0.6l-0.8,0.4l0.2-0.7L181.5,239z M180.5,237.7l0.3,0.8l-0.5,1.1l-0.3-0.4l-0.5,0.2l0.9,0.6
		l-0.3,0.3l0.5-0.2l0.3,0.4l-0.8,1.1l0.5,0.5l-0.4,1l-0.7,0.3l-0.1,2.2l0.7,0.6l-0.1,0.7l-0.3,0.2l-0.9-0.6l0.1,0.4l-0.8,0l-0.4,1.6
		l-0.7,0.7l-0.5-0.1l0,0.7l-0.6-0.7l-0.4,1l-0.7-0.2l-0.4,0.9l-1.4,0.1l-0.5,0.8l0.6,1.1l-0.6,1.5l-0.7,0.9l-1.2-0.3l-0.2,0.4
		l-1.1,0.1l-0.6,1.8l-2.6,0l-5.2,1l-1.3,1.1l-1,0.2l-1.4,2.3l0,0l-0.4-0.6l0.2-1.7l1.1-2.4l2.1-1.4l0.5-1.6l2.6-2.1l-0.1-2l-1.7-2.3
		l0,0l1.7-1.8l1.4,0.7l2.2,0.3l1.1-0.5l0.6-1l0.3,0.6l0.9-0.9l0.3,0.1l-0.5,0.6l0.5,0.5l2.3-0.3l0.4,0.2l0,0.8l1.5-0.2l0.5-1
		l0.3,0.1l0-0.8l1.2-0.6l-0.2-1.1l2.4-0.8l0-1.1l1-2l0,0L180.5,237.7z M184.9,237.8l-0.5,0.5l-0.3-0.2L184.9,237.8z M184.9,236.9
		l-0.2,0.7l-0.1-0.6L184.9,236.9z"/>
	<path id="PH-ISA" class="st25" d="M160.6,110.5l0,0.9l1.2,2l-0.1,1l0.8,0.1l0.5,0.6l1.2-0.5l0.8,0.4l0.8,1.5l-0.7,1.7l0.1,1
		l1.4,0.5l0.6-0.6l0.4,1l-1.3,2.6v1.9l-0.8,1.3l0.2,0.6l-3.4,6l0,0l-2.9-0.1l0,0l-1-0.1l-6.8,3.1l-4.1-5.2l-3.1-0.3l0,0l-0.2-1
		l-1.4-1.3l0,0l0-0.7l0.6-0.5l0.8-0.1l0.6-0.8l0.5,0.2l1.8-0.6l0.9-1l-0.7-3.7l0,0l-0.1-4.5l0,0l1.1-2.5l1.5-1l-0.4-1.4l0,0
		L160.6,110.5L160.6,110.5L160.6,110.5L160.6,110.5z"/>
	<path id="PH-KAL" class="st25" d="M145,107.4l-0.1,0.5l0.8-0.1l3.7,3.6l0,0l0.4,1.4l-1.5,1l-1.1,2.5l0,0l-2.9-0.5l-1.4,0.5
		l-1.9,2.1l-1.8,0.4l-1.6-0.5l-0.6-0.9l-3-0.3l0,0l1.7-3.5l0.1-1.8l2.3-1.5l0.2-0.6l-0.6-1.7l0.6-0.4l0,0l2.2,1.3l0.5-1l2.8,0.6
		L145,107.4z"/>
	<path id="PH-LUN" class="st25" d="M123.5,124.1l1.6,0.4l0.6-0.4l-0.2,1.6l0.9,1.6l-0.4,1.2l1,1.2l0,0l-0.8,1.1l0.4,0.2l-1.9,2.1
		l0.9,5.6l0,0l-0.3,0.6l-1.7,0.1l0,0l-0.3-0.9l-1.1-0.7l-0.5-2.3l0.1-1.7l-0.5-0.7l0.3-1.5l-0.9-1l0.6,0.1l0.6-1.5l-0.1-3.3l1.3-0.9
		L123.5,124.1z"/>
	<path id="PH-LAG" class="st25" d="M145.6,174.5l1.9,3.6l1.3,0.3l0.2,2.8l-1.4,1.9l-0.9,0.5l-0.6,1.5l-1.3,0.2l-2.1,1.7l-1.4,0.5
		l0,0l0-0.6l-0.4,0.1l-0.6-0.8l-0.5-2.2l-3.2-0.5l0,0l-0.2-1.1l0.4-0.8l-0.4-0.1l0.7-1.7l-1.3,0.4l0.1-0.8l0,0l0.9-0.6l0.1-2.5
		l0.9-0.8l0,0l1.2,0.4l1.1,2.2l0.1-1.3l0.7-0.9l1.6,1.2l0.3,1.1l-0.6,2.6l1.6-1.2l-0.4-0.5l-0.2-1.9l0.3-1.3L145.6,174.5z
		 M140.8,179.3L140.8,179.3l-0.4-1.6l-0.1,1.5l0.6,1.3l0-0.8l0,0l0.3-0.4L140.8,179.3z M141.1,176L141.1,176L141.1,176L141.1,176z
		 M141.3,175.9L141.3,175.9L141.3,175.9L141.3,175.9z M141.1,175.8L141.1,175.8L141.1,175.8L141.1,175.8z"/>
	<path id="PH-LAN" class="st25" d="M203.4,306.5l4.7-0.1l1.3,0.8l0.7,1.2l0,0l-0.1,1.6l-1.4,0.4l0,0l-3.4-1.6l-0.7,0.1l-0.4,2.6
		l-1.4,1.4l-1.8,0.3l0.2,0.8l-0.6,1.3l-1.8,0.1l0.5,1.6l-0.9,2.7l-3.4-1l-0.5,0.9l0,0l-1.6-0.7l0-0.7l-1-1l-1.5-0.3l0,0l1-2.6l0,0
		l1.6-1l2.1-2.4l1.1-0.1l2.5-1.7l2.9,0.3l1.4-0.5l0.9-1.4L203.4,306.5z"/>
	<path id="PH-LAS" class="st25" d="M208.6,310.4l0.8,1l0.5,2.3l1.4,1.9l0.1,0.9l0.6,0.2l1.4,1.9l0.5,1.9l1.1,1l0,0l-2.2-0.8
		l-1.1,0.6l-0.8-0.2l-1.5-1.2l-2,0.6l0,0l0,0l0,0l-1.6,1.8l-2.4,1.2l-1.1,1.8l0,0l-1.5-0.5l0.4-0.3l-0.6-1.1l-2.2-2.8l-0.6,0.1
		l-1.5-1l-2.1-0.2l0,0l0.5-0.9l3.4,1l0.9-2.7l-0.5-1.6l1.8-0.1l0.6-1.3l-0.2-0.8l1.8-0.3l1.4-1.4l0.4-2.6l0.7-0.1L208.6,310.4z"/>
	<path id="PH-LEY" class="st25" d="M204.8,238.5l3.2,3.7l-0.1-1.2l0.3-0.2l1.2,0.6l0.3,1.8l0.7,0.7l2.6-0.1l1.9-1.4l0.3-1.2l1.3,0.5
		l1.3-0.4l0.3,0.7l0.5-0.1l-0.3,2.5l0.3,0.6l0.6,0l0,2l0.7,1.9l-0.1,2.8l-0.7,1.9l0.5,2.2l1.9,0.9l-0.2,0.5l0.9,1.1l0,0l-2,2.1
		l-2.4,0l-1,2.5l0.1,2.9l-1.1,0.2l-1.5,1.4l-0.3-0.1l0,0l0.6-2.6l-1.2-1.2l-0.3-2.3l1-1.1l0.1-1.8l0.7-0.8l-0.4-2.4l-2.1-3.4
		l-1.9-1.6l-1.2,0.8l0.3,1l-0.7,1.3l-1.7-0.5l-0.3-1.2l-0.1,0.7l-0.8-0.2l0.7-1.2l-0.1-1.1l-0.7-0.7l0.7-1l-0.6-4.1l-0.6-0.2l0-1
		l0.4-0.1l-0.6-0.3L205,242l0.5-0.2l-0.7-0.2l-0.6-1.7l0-0.9L204.8,238.5z"/>
	<path id="PH_MG" class="st25" d="M198.7,328l-0.1-0.7l1.2-0.9L198.7,328z M205.9,322.3l-2.4,1.2l-1.1,1.8l0,0l0.9,0.2l0.3,1.4
		l-0.9,0.1l0.1,2.1l-0.6-0.1l0,0.6l-0.6,0.4l0.2,0.2l-1.1,0.9l-1,0.1l-1.4,2.1l-0.9,2.7l0.4,0.9l-0.7,1l0.3,0.6l0.3-0.1l-0.1,0.5
		l0.8-0.5l0.6,0.9l0,0l4.7-0.1l0.4,0.6l4.8,0l1.4-1.5l-0.5-1.4l2.1-0.5l0.8,0.3l-0.6,1.8l1.7,0l1.1,2.8l1.8-0.1l2.5-1.3l0,0
		l-2.2-1.3l-1.1,0.3l-0.6-0.3l-0.1-4.6l-0.4-0.2l0.1-1l0.6,0l0-0.5l-0.6,0l0-0.5l-1.8-1.7l-0.3,0.9l1.1,0.9l-0.4,0l0.1,0.5l-0.4-0.4
		l-0.2,0.6l-0.4-0.3l0.7,1.7l-0.9,1.1l-1.1-0.6l-0.8,0.1l-1.1-1.4l-0.7,0.2l-1.5-1.2l1.7-3l-2,0.1l-0.9,1.3l-0.9-0.1l1.6-2.7
		l0.3,0.1l1.4-3.1l-1.1-1.6l0.1-2.8L205.9,322.3z"/>
	<path id="PH-MAD" class="st25" d="M153.9,195.9l1,0.9l0.3-0.4l1.4,0.5l0.2-0.6l0.5,0.4l-0.2,0.3l0.5,0l0.2,0.6l-0.3,0l0.9-0.1
		l0.8,0.7l-0.6,0.7l1,1.1l-2.2,2l0.1,0.8l-0.5,0.9l-1-0.2l-0.6-0.9l-1.8-0.8l-1-1.3l-0.2-2.2L153.9,195.9z"/>
	<path id="PH-MAS" class="st25" d="M182.4,216.5l3,1.3l-0.8,0.1l0.4,1.2l-0.8,0.4l0.5,0.6l0.3-0.7l0.5,0.1l-0.2-0.9l1.5-0.2l1.9,1.4
		l0.4-0.3l0.3,1.1l0.8,0.6l-0.7,0.6l1.2-0.1l1.3,0.6l1.8,2.9l0.3-1l1.1,1.1l0.4-0.6l0.5,0.3l3.3,5.1l-0.1,0.4l-1.1-1.4l-0.1,0.5
		l1.6,2.8l-0.3,1.2l0.3,1.5l-3.1-3l-4.1-1.4l-0.2-0.5l0.8-0.6l-2.3-1.8l-0.8-0.2l0.3-0.4l-1.6-2.4l-0.8-0.3l-1.5,0.5l-1.3,2
		l-1.1,0.7l-0.4,1.1l-2.9,2.5l-0.4-0.5l1.1-1.9l0.4-2.4l1.3-0.6l-0.3-0.7l0.3-0.4l-0.5-0.7l-0.7,0.6l-0.3-0.4l0.4,0l-0.2-0.6
		l0.9-1.4l-0.1-0.9l0.6-1.3l-0.8-0.4L182.4,216.5z M190.4,214.6l0.6,0.9l1.5,0.8l0.9,2.5l0.1,1.7l0.4,0.1l-0.1,1.5l-4.4-6.2l0.1-0.5
		l0.2,0.4l0.5-0.1l-0.4-0.8L190.4,214.6z M177.3,204.7l1,0.5l2.9,4.7l1.9,0.5l0.2,1.5l2,2.7l-1-0.6l-1.5-2.3l-1.3-0.2l-0.6-0.9
		l-0.7-0.2l0.2-0.3L179,209l-0.3-0.9l-1.6-0.2l-0.4-0.7l-0.4,0.3l0.3-1.2l-0.7-0.6L177.3,204.7z"/>
	<path id="PH-MNL" class="st25" d="M134,172l0.9,0.1l-0.5-0.9l1.1,0.4l1.2-1.4l1.4,0.4l0,0l0.4,0.4l-0.6,1.4l0.6,0.4l-0.6,0.7
		l0.1,2.1l0,0l-0.9,0.8l-0.1,2.5l-0.9,0.6l0,0l-0.9-2.7l0,0l0.4-0.6l-0.3-0.1l0.2-1.1l-0.9-0.7l0.4-0.9L134,172z"/>
	<path id="PH-MSC" class="st25" d="M190.2,299.3l0.6,0.6l1,0l2,2.2l1.7,4.4l-0.3,0.9l0.4,2.6l-1.6,1.2l-0.6,1.1l-1-0.1l-1.6,0.8l0,0
		l0-0.4l-1.5-0.3l-0.3-3.6l0,0l0.1-8.5l0,0l0.7-0.1l0.3-0.5l-0.5-0.2L190.2,299.3z"/>
	<path id="PH-MSR" class="st25" d="M223.3,290.5l0.6,2.8l-0.4,0.7l0.8,1l-0.5,0.4l0.2,4.1l0,0l0,1.6l0,0l-7.8-0.3l-1.1,2.5l0.1,1.1
		l-4.1-0.1l-0.3,2.5l-0.5,0.2l-0.3,1.3l0,0l-0.7-1.2l-1.3-0.8l-4.7,0.1l0,0l0.8-1.4l0-1.4l0.7-1.7l2.8-1.7l0.6,0.1L208,301l2.2,1.5
		l1.6,0.2l-0.3,0.4l0.4-0.4l0.1,0.5l0.7,0.2l0.8-0.4l0-1.4l0.6-0.8l-0.6-2.1l0.8-0.5l-0.3-1l0.5-1.2l-0.2-3.2l0.8-0.6l1.1-0.1
		l3.3,1.9l1.1,1.9l1.8-0.4l0.5-1.7l-0.3-1.7L223.3,290.5z"/>
	<path id="PH-MOU" class="st25" d="M147.2,116.3l0.1,4.5l0,0l-2.4-0.2l-1.8,0.3l-2.6,1.3l-5.2,0.2l0.1,1.4l-0.7,1.6l-0.7,0.6l-0.8,0
		l0,0l-2.2-2.3l0,0l0.1-3.8l1.6-1.7l0,0l0.8-0.1l0.4-1.2l0,0l3,0.3l0.6,0.9l1.6,0.5l1.8-0.4l1.9-2.1l1.4-0.5L147.2,116.3z"/>
	<path id="PH-NEC" class="st25" d="M181.5,250.3l1,0.1l1.5,1l1.9-0.1l1.3,0.7l0.5-0.4l0.8,2.1l0.7-0.2l0.1,1l-0.6,0.9l-0.3-0.2
		l-1.3,5l-2.2,1.7l-0.5,1.2l0,0l-1.8-0.6l-2.6,0.1l1.5,3l-3.8,5.4l-0.6,2.1l-7.1,8.6l-0.7,1.7l0,0l-1.6-1.5l-0.4-1.1l-0.8-0.5
		l-0.3-1.3l-0.5,0.1l0.3-0.8l-1.2-0.3l0.5-0.6l-0.9-0.2l0.4-2.3l-0.5-0.4l1.2-1.3l0.4-1.6l4.4,0l2.4-1.9l1,0.1l0.9-0.7l-0.6-2.7
		l0.5-3l-1.4-3.2l1.8-0.9l0.8-0.9l0.6-2.4l0.4-0.1l-0.2-3.5l1.8-0.6l0.5,0.4L181.5,250.3z"/>
	<path id="PH-NER" class="st25" d="M169.4,283.6l0.7-1.7l7.1-8.6l0.6-2.1l3.8-5.4l-1.5-3l2.6-0.1l1.8,0.6l0,0l-0.1,2.2l-1,2
		l-0.1,1.2l-3.1,6.1l0.6,2.8l-0.1,1.5l-0.7-0.5l-0.4,0.6l1.2,1.1l-0.3,0.3l-0.3-0.5l-0.4,0.8l0.7,0l0.6,1.4l0.9,0.3l0.7,1.8l1.1,1.3
		l-0.6,2.3l-1.7,2.4l-1.6,1L179,291l-1.2,0.6l-1.5-0.8l-1.3-3.1l-0.3-2.2l-1.5-0.7l-2.5-0.4L169.4,283.6z"/>
	<path id="PH-NCO" class="st25" d="M207.4,320.6l2-0.6l1.5,1.2l0.8,0.2l1.1-0.6l2.2,0.8l0,0l0.4,1.3l-0.8,1.3l0.6-0.3l1.3,1.7l1-0.3
		l0.9,0.7l1.6-0.1l0.4-1l1.8-0.3l0.8-2.2l0.5,0l0.1-0.4l0.7,0.3l0,0l0.1,0.3l0,0l0.2,1.3l-0.8,3.3l0.4,1.9l-0.4,1.3l1.2,1.4l0.6,2
		l-0.8,0.1l-0.5,1.3l-1.9,1.6l-0.4,1.3l-0.9,0.1l0.4,1.3l0,0l-2.4,0.7l0,0l-2.2-1.3l-1.1,0.3l-0.6-0.3l-0.1-4.6l-0.4-0.2l0.1-1
		l0.6,0l0-0.5l-0.6,0l0-0.5l-1.8-1.7l-0.3,0.9l1.1,0.9l-0.4,0l0.1,0.5l-0.4-0.4l-0.2,0.6l-0.4-0.3l0.7,1.7l-0.9,1.1l-1.1-0.6
		l-0.8,0.1l-1.1-1.4l-0.7,0.2l-1.5-1.2l0,0l0,0l0,0l1.7-3l-2,0.1l-0.9,1.2l-0.9-0.1l1.6-2.7l0.3,0.1l1.4-3.1l-1.1-1.6L207.4,320.6z"
		/>
	<path id="PH-NSA" class="st25" d="M200.3,223.1l0.3,0.3l-0.3,0.4l-0.3-0.5L200.3,223.1z M204,221.6l-0.7-2.1l0.7,1L204,221.6z
		 M201.2,219.1l1,1.4l-0.2,0.7l-0.9-1.1L201.2,219.1z M207.1,217l0.6,0.5l-0.3,0.2l-0.6-0.3L207.1,217z M208.5,217l0.6,0.8l-0.4,0
		l-0.6-0.8L208.5,217z M205.7,216l0.8,1l-0.7-0.3L205.7,216z M218.9,215.6l0.6,1l1.1,0.5l-0.5,0.7l0.6,0.1l0-0.9l0.8,0.3l0.7-0.5
		l2.5,2l-0.1,0.4l0.6,0.1l0.1,0.9l0.9,0.5l-0.8,0.2l0.4,0.2l-0.6,0.7l0.1,0.5l0.6,0.1l-0.7,0.5l0.1,0.3l0.9-0.5l0,0.7l-0.4,0.1l0,0
		l-0.6,0.4l-2-2.3l-0.9,1.8l0,0l-3.7,1.2l-1.4-0.5l-1,2.4l-0.5-0.8l0.2-0.9l-2.7-1.5l-1.5,1l-3.3-2l-1.1,1.1l-1.5,0l0,0l-0.5-1.4
		l0.2-0.8l-0.3,0.2l-1.4-3.7l0.4-0.7l1,1l0.6-0.1l0-0.4l0.8,0.4l0-0.6l0.6,0.8l1-0.3l0.1,0.2l0.8,0.4l4.7,0.1l1.3-0.6l1.4,0.2
		l0.3-0.7l-0.5-0.4l1.5,0.4l0.5-0.4l-0.1,0.6l0.8,0.1l0.5-0.3L218.9,215.6z M220.4,214.8l0.5,1.7l-1.2-0.4l0.5-0.4l-0.6-0.3l0-0.4
		L220.4,214.8z M205.8,214.6l0.6,0.2l0.1,0.9l-0.6-0.3L205.8,214.6z"/>
	<path id="PH-NUE" class="st25" d="M133.3,141.7l3.1-0.4l3.1,0.8l0.5,3.9l1.7,3l0,0l2,6.2l-1.3,6.1l0,0l-1.5-0.1l-2-1.5l-2.6,0.4
		l-1.4,0.7l0,0l-1.1,0.2l-0.7,0.9l-0.4-0.9l-1.3,0l-0.3-1.4l0,0l0.2-0.8l-0.9-0.7l0.5-1.7l-0.9-2.8l0.7-1.2l-1.2-0.3l-0.9-0.9
		l-0.9-3.6l0,0l2.7-0.4l1.6,1.3l0.7-0.6l1.3-3.4L133.3,141.7z"/>
	<path id="PH-NUV" class="st25" d="M142.7,127.8l1.4,1.3l0.2,1l0,0l-0.6,4.1l1.5,0.5l-0.3,1.9l-3,1.3l0.6,5.2l3,2.6l0,0l-3.9,3.1
		l0,0l-1.7-3l-0.5-3.9l-3.1-0.8l-3.1,0.4l0,0l-0.8-1.4l-1.5-0.6l0,0l-0.2-0.9l1-1.7l0.8,0l1-2.4l-0.2-1.6l0.4-1.9l0,0l8.1-1.4
		l-0.1-0.6l0.5-0.2L142.7,127.8z"/>
	<path id="PH-MDC" class="st25" d="M136.1,224.3l0.5,0.8l-0.6-0.1L136.1,224.3z M137.2,223l0.7,1.4l-0.2,0.9l0.4-0.2l0.4,0.7
		l-0.3,0.3l-0.7-0.4l-0.2-0.8l-0.8-0.3l0.1-1.4L137.2,223z M123.8,196.9l6.8,1.3l2.9-0.7l0,0l-0.2,1.9l-1.8,2.8l9.3,4.6l0,18.1l0,0
		l-0.7-0.6l-2-0.1l-0.4-0.9l0.8,0l-0.4-1.5l-1.4-0.1l-2.4-3.1l0.1-2.2l-1.5-2.2l-1.4-0.4l-0.1-1.9l-0.5-0.4l0.7-1.4l-1.2-3.2
		l-1.7-2.8l-1.7-0.8l-1,0.1l0-0.9l-0.9-0.6l-0.4-2.6L124,199l-0.9,0.3l-0.2,0.8l-0.8-0.1l-0.7-0.8l-0.2-0.5l0.6-1L123.8,196.9z
		 M121.3,193.6l2.2,0.6l0.2,0.6L121.3,193.6z M121,190.3l0.9,0.6l-0.5,0.7l-1.1-0.7L121,190.3z M116.9,189.7l2.3,1.2l0.4-0.2
		l1.4,1.8l-0.8,0.3l0.8,0.2l0.1,0.5l-0.6,0.3l-0.3-0.7l-3.2-1.7l-0.5-1.4L116.9,189.7z M115.7,188.9l0.5,0.5l-0.2,0.2l-0.6-0.4
		L115.7,188.9z"/>
	<path id="PH-MDR" class="st25" d="M135.3,198.1l1.7,1.3l2.6-0.3l0.4-0.4l1.3,1.7l0.8,0.2l1.6,2.3l1.3,0.3l0,1.8l1.4-0.1l1,0.7
		l0,0.6l-1.5,1.5l0.3,1.7l-0.5,3.5l1.5,2.2l0,0.8l-0.9,1.8l-1.4,0.7l0.2,0.8l-0.7,0.7l0.1,1l0.8,0.8l-1.4,0l0.3,1.6l-0.6-0.3l0-0.6
		l-0.4,0l-0.3,0.7l-1.2,0.2l-0.7,1.6l0,0l0-18.1l-9.3-4.6l1.8-2.8l0.2-1.9l0,0l1.3-0.1L135.3,198.1z"/>
	<path id="PH-PLW" class="st25" d="M54,311.7l0.3,3.5l-0.4,0.2l-0.1,1.1l-1,0.8l-0.4-0.2l0.1-0.7l-1.5-1.8l0.8-0.3l-0.3-1l0.4-1.2
		l0,0.8l0.7-0.6l-0.2-0.4L54,311.7z M53.1,310.6l0.7,0.9l-1,0.3l-0.6-0.6L53.1,310.6z M55.4,309.6l1,0l0.4,0.5l-1.2,0.1L55.4,309.6z
		 M54.3,308.1l0.8,0.7l-0.9,0L54.3,308.1z M59.2,306.5l0.6,0.7l-0.1,1.7l-1.1,0.7l-0.6-0.6l0.1-2l0.2-0.4L59.2,306.5z M57.3,306.8
		l0.6-0.1l0,0.5l-1.7,0.7l-0.3-0.6l0.6-0.1l0.8-1L57.3,306.8z M97.5,259.1l-0.4,0.8l-0.5,0l0.3-0.5l-0.3-0.3L97.5,259.1z
		 M111.4,257.7l1.6,1.1l1.6,0l0.4,0.7l-0.4,0.3l-0.1,0.4l-0.7,0.3l-0.1-0.4l-0.3,0.7l-0.9-1l0.8,1.4l-1.4,0l0.4,0.5l-1.4,0.4
		l-0.9-0.5l-0.3-1.9l0.3-0.3l0.6,0.4l0.9-1.4L111.4,257.7z M137.2,252.3l-0.2,0.7l0.4,0.4l-0.5,0.3l0.1,0.7l-0.9,0.2l-0.5-0.7
		l0.1-0.6L137.2,252.3z M100.2,249.9l0,1.6l-0.6-0.7l0.1-0.8L100.2,249.9z M108.9,249.2l0.3,0.6l-0.5,0L108.9,249.2z M106.3,248.3
		l0.8,0.3l0.1,1.3l-0.4,0.4l-0.2-0.6l-0.8-0.2L106.3,248.3z M108.4,247.8l0.2,0.7l-0.4,0.4l-0.2-1L108.4,247.8z M135.4,246.7
		l0.1,0.4l-0.9,0.4l-0.1-0.4L135.4,246.7z M106.7,246.3l0.5,0.1l-0.1,0.5l-1.3,0.5l-0.1-0.7L106.7,246.3z M108.6,243.6l-0.4,1.2
		l-0.4-0.8L108.6,243.6z M104.1,241.4l0.6,0.2l0.1,1.7l0.6,0.2l0.3-0.4l0.3,1l-0.6,2.5l-0.8,0.9l0.8,1.3l0.5-0.3l0.2,1.6l-1.4,0
		l-0.4,2.8l1.1,1.3l0.8-0.5l0.5,0.3l-0.5,0.8l0.5,1.2l-0.6,1.3l0.8,0l0.5-0.6l0.5,0.4l0.2,0.4l-0.9-0.1l0.4,0.5l-0.3,0.3l0.6,0.3
		l0.3,1.3l0.7,0l-0.2,0.3l0.5,0.4l-2.7,1.8l-0.3,1l-2.4-0.1l-2.8,1.3l-1.7,2.3l-1,3.2l-4.7,1.3l-1.5,0.2l0-0.3l-1.6,1.1l-1.5,0.2
		l-0.2,1.8l0.7,0.9l-0.1,1.6l-0.8-0.2l-0.1-1.2l-0.7,0.5l0.1,1.1l0.7,0.1l0.1,0.6l0.5-0.1l0,0.4l-2.2,2.4l-3.4,5.4l-1.2,0.3
		l-0.2,0.7l-0.5,0.1l-1.1,1.4l-2.8,0.2l-1.3,0.7l-0.5-0.2l-0.5,2l-0.7,0.1l0.2,0.7l-0.5,0.1l-1.2,2.7l-2.4,1.1l-3,3l-2.5,0.6
		l-1.2-0.3l-0.6,0.7l0.2,1l-1,2l-0.9-0.4l-0.5,0.6l-1.2,0l-3.4,2.8v0.6l-0.6,0l-0.1-0.8l0.8-1.3l0.1-1.9l1-1.2l-0.2-0.6l0.4,0.2
		l0.5-1.1l0.8-0.4l0.2-0.5l-0.4,0l0.8-1l1.4-0.3l-0.1-0.6l0.8-0.5l0.2-0.9l1.7-2.1l0.7-0.1l0.8-0.8l0.2-1l1.3-0.9l0.2,0.5l1-0.1
		l0.6-2l0.7-0.7l1-0.2l0.9-1.1l1,0.2l0.6-0.6l0.1,0.7l0.8,0l1.4-1.9l0.8-0.2l0-1.1l1.2-0.3l0.3-1.3l2.7-2.3l0.2-1.4l1.4-0.3l0.3-0.9
		l1.9-1.2l2-2.3l0-0.9l0.8-0.4l0.4-0.9l-0.4-0.6l1.6-0.7l0.8-2l0.3,2.3l0.7-0.1l0-0.8l0.6-0.8l-0.7-0.2l0-1.6l2.8-0.3l0.3-0.9
		l-0.3-0.3l0.5-0.1l-0.6-0.4l0.7,0.1l0.1-0.5l0.7,0l0-0.6l0.4,0.1l-0.2-0.8l-0.8,0.6l-0.2-0.5l0.4-0.8l0.8-0.2l0.8,0.6l0-0.7
		l0.9-0.2l-0.6-0.4l0.2-0.6l0.7-0.1l0,1.6l0.5,0.6l1.6-2.1l0.8-0.1l0.3-0.6l-0.8-0.7l0.8,0.2l1.1-1.1l0.5-3l-0.8-0.8l-0.7,0.2
		l-0.3-1.4l-1.1-0.4l1-0.8l-0.4-0.5l-0.6,0.1l0.4-0.6l-0.2-0.4l0.5,0.1l0,0.8l0.5-0.8l0.4,0.2l-0.1,0.9l0.4,0l-0.7,0.4l0.9,0
		l-0.5,0.5l0.6,0.4l0.1-0.4l0.3,0.8l0.5-0.2l-0.2,0.4l0.9,0.1l0.2,0.8l0.4-0.2l0.3,1l0.7-0.1l-0.6-1.6l0-0.7l0.4-0.3l-0.8-0.6
		l-1.3,0l-0.3-0.5l0.6-0.9l-1.1-0.1l-0.1-1.3l0.4-0.6l0.4,0.9l0.7-0.2l-1-0.7l0.3-0.4l-0.4,0l0.1-1.1l1,1.3l0.9,0.1l0.2-2.1
		l-0.6,0.1l-0.1-0.8l0.4-0.9l-0.1-2.2l1.3-1.1L104.1,241.4z M111.1,239.4l1.2,0.6l0,0.8l-1,1.6l-0.4-0.5l0.4-0.6l-0.8,0.1l-0.3,0.6
		l-1.3-1.5l0.3-0.3l0.9,0.9l-0.1-0.4l0.4,0l-0.5-0.4l0.3-0.4l0.5,0.9l0.2-0.4l0.5,0.3l-0.2-0.5l0.5-0.1L111.1,239.4z M117.9,234.3
		l0.7,0l0.1,0.4L117.9,234.3z M113,229.8l1.4,0.6l-0.6,0.1l0,0.6l1.7-0.4l0.1,0.3l-0.8,0.4l1.8,0.7l-1.1,0.4l0.6,0.1l-0.5,0.7
		l0.9,0.4l-0.8,0.7l0.5,0l-0.2,0.8l-1.9,1.3l-0.4-1.5l1.3-1.2l-0.8-0.3l0,0.8l-0.7,0.1l-0.5-0.7l-0.3-0.8l0.4-0.3l-1.4-2.2l0.9,0.5
		l-0.4-1L113,229.8z M120.1,229.6l0.6,1l-0.6,0.6l0.8,0l0.1,0.5l-1,0.8l-1.2-1.9L120.1,229.6z M112.8,222.3l0.6,0.2l0.1,1l1.8,0.3
		l1,1.4l0.8-0.2l0,0.5l1.3,1.2l1-0.2l0.2-1.4l0.4,0l0.1,1.4l0.6-0.3l0.2,0.6l1,0.5l0.1,2.1l-0.8,0.2l-1-0.5l-0.6,0.5l-1.1-1
		l-0.8-0.1l0.1,0.6l-0.8,0.9l-0.2-0.8l-0.7-0.4l-0.7,0.6l-0.9-0.4l-1.7-4.1l-0.9,1.1l0.5-1.6l-0.3-0.2l0.4-1.2l-0.3-0.4L112.8,222.3
		z"/>
	<path id="PH-PAM" class="st25" d="M122.7,161.8l4.2-2l1.8-0.3l0.9,0.3l0.9-0.5l0.1,0.4l0.6-0.1l0,0l0.3,1.4l1.3,0l0.4,0.9l0.7-0.9
		l1.1-0.2l0,0l-0.2,1.4l0.9,1.1l-0.4,1.4l-0.6,0l-0.4,0.9l-0.5-0.2l0.1,0.6l-1.3,1.1l-1.8,0.2l-0.8,2.6l0,0l-1.1,0.7L127,169l0,0
		l-1.1-0.2l-0.6-1.5l-0.8-0.4l0,0l-0.8-1.3l-0.3-1.9l-0.8-0.6L122.7,161.8z"/>
	<path id="PH-PAN" class="st25" d="M114.7,136.4l0.7,0.8l-0.5,0.8l0.4,0.8l-0.5,0.4l-1.6-1.7l0.7-0.7l0.3,0.6l0.1-0.8L114.7,136.4z
		 M120.2,152.1l-2.2-4.4l-1.3,0.3l-1.2-0.7l-0.8,1.1l-2.1-0.3l0,0l0.5-0.7l-1.1-2.5l-0.3-0.3l-0.7,0.3l-0.2,0.7l-0.4-0.2l-0.3,0.4
		l-0.5-1.1l0.5-1.3l-0.4-0.5l0.1-1.3l0.4-0.6l-0.6-0.8l0.6-1.5l-0.1-1.5l0.7-1.1l0.8,0l0.6-0.8l0.9,0.5l-0.2,2.7l1.3,0.4l-0.1,0.4
		l0.9,0.8l0.2-0.5l1.2,0.4l0.5,0.5l-0.5,0.8l0.5,0.6l-0.4,0.2l1,0.6l3.8-0.4l2-2.2l-0.2-1l0,0l1.7-0.1l0.3-0.6l0,0l3,1.1l2.4-0.3
		l0,0l1.5,0.6l0.8,1.4l0,0l0.9,2.7l-1.3,3.4l-0.7,0.6l-1.6-1.3l-2.7,0.4l0,0l-0.5-1.2l-0.8,2.5l-1.4,0.9l-1.8-0.8l-1.6,2.1l0.1,0.4
		L120.2,152.1z M113.6,134.7l0.6,1.2l-1-0.3l0-0.8L113.6,134.7z"/>
	<path id="PH-QUE" class="st25" d="M151.5,188l0.7,0.1l0,1.3l-1.1-0.3L151.5,188z M155.9,182.5l3.4,2.5l1.3,1.7l-0.7,0.1l-3.6-2.3
		l-1.5-1.8l0.4-0.9L155.9,182.5z M153,180.3l0.5,0.1l-0.7,1.1l-0.4-0.9L153,180.3z M165.1,171.2l0.6,0.6l-0.3,0.3l-2.4,0.2l0.6-0.8
		L165.1,171.2z M159.4,169.1l1-0.3l0.2,0.8l1.4,0.4l0,1.4l-3.1-1.7l-0.3-0.8L159.4,169.1z M157.1,168l1.3,0.8l-1.2-0.1L157.1,168z
		 M155.6,164.2l1.5,0.6l-0.2,0.5l0.8,0l0.1,0.9l-0.5-0.6l-0.4,0.1l-0.4,0.6l0.6-0.2l0,1l-1.1,0.3l0.3,1.4l0.9,0.7l0.3,2l-0.7,1
		l-1.3,0.9l-0.7-1.1l0-1l0.7,0.3l-0.6-1.9l-1.6-3.3l-0.1,0.6l-0.6-0.2l0.8-2.2l0.6,0.4L155.6,164.2z M142.9,165.5l0-1l1.2-1.8
		l-0.3-1l0.8-0.9l0,0l1.3,0.7l0.5,2.7l2.2,4.3l-0.2,0.6l2.8,2.8l-1-0.1l-1.1,0.7l-0.3-0.4l-0.3,0.7l1.2,5.5l1.4,1.5l0,1.1l0.6,0.6
		l-0.5,1.7l4.4,3.7l3.2,1.4l2.8,0.6l0.3-1l-0.9-0.4l-0.4-0.7l2.4,0.8l-0.1-0.7l0.6-0.6l-0.7,0l0-0.5l-2-1.2l-0.6-1l0-0.4l0.5,0.4
		l-0.1-0.5l0.7-0.6l0.6,0.3l0.1-1.4l0.6,0.2l-0.2,2.4l0.9-0.3l-0.2,1.2l0,0l0,0.3l1.3,0.1l1.6-1.8l7.3,2.9l0,0l-5.1,1.4l0,0
		l-0.4-0.2l-0.1,0.8l-1.6-0.1l1.6,2.3l-0.3,1l0.3,0.8l-0.7,0l-0.2,0.4l0.3,1.4l1,1.3l1.8,1.2l-0.3,0.3l-1.1-1l2.3,3.9v2.2l0.5,1.1
		l-2.2,1.3l-2-1.7l0.4-0.8l-0.1-1.5l-2.4-3.7l-1.5-0.8l-0.2-0.6l-0.9,0.3l-0.4-0.2l0.3-0.2l-0.2-0.3l-1.2,0.1l-0.1-0.8l-2.2-3.1
		l-0.9,0.2l-0.6-0.7l-1,0l-0.2-0.7l-1.7-0.5l-0.4-0.7l-1,0.1l-0.2-1.1l-0.7,0l-0.7-0.6l-1.1,0.1l0.2,0.8l-1.7,0.3l-0.2,0.4l-0.3-0.3
		l-3,1.8l0,0l-1.8-1.1l-2-0.2l-0.7-1l0.6-0.3l-0.1-0.5l0,0l1.4-0.5l2.1-1.7l1.3-0.2l0.6-1.5l0.9-0.5l1.4-1.9l-0.2-2.8l-1.3-0.3
		l-1.9-3.6l0,0l-2.5-4.4l-0.1-2.4l0,0L142.9,165.5z"/>
	<path id="PH-QUI" class="st25" d="M144.3,130.1l3.1,0.3l4.1,5.2l6.8-3.1l1,0.1l0,0l-1.4,0.9l-4.8,5.6l-7.7,6.7l0,0l-3-2.6l-0.6-5.2
		l3-1.3l0.3-1.9l-1.5-0.5L144.3,130.1z"/>
	<path id="PH-RIZ" class="st25" d="M140.8,179.7l0,0.8l-0.6-1.3l0.1-1.5l0.4,1.6l0,0l0.5,0.2L140.8,179.7z M141.3,175.9L141.3,175.9
		L141.3,175.9L141.3,175.9L141.3,175.9L141.3,175.9z M141.1,176L141.1,176L141.1,176L141.1,176L141.1,176L141.1,176z M141.1,175.8
		L141.1,175.8L141.1,175.8L141.1,175.8L141.1,175.8L141.1,175.8z M143,167.7l0.1,2.4l2.5,4.4l0,0l-2,1.2l-0.3,1.3l0.2,1.9l0.4,0.5
		l-1.6,1.2l0.6-2.6l-0.3-1.1l-1.6-1.2l-0.7,0.9l-0.1,1.3l-1.1-2.2l-1.2-0.4l0,0l-0.1-2.1l0.6-0.7l-0.6-0.4l0.6-1.4l-0.4-0.4l0,0
		l1.4-1.4l1.6-0.3L143,167.7z"/>
	<path id="PH-ROM" class="st25" d="M155.3,227.2l0.5,0.7l-0.1,0.7l-0.9-0.7L155.3,227.2z M168,218.6l2.3,0.5l0.9,1.7l-0.3,1.5
		l-1,1.3l-1.5-1l-0.4-1l-1.9-0.8l-0.5-0.8l0.8-1.1L168,218.6z M162.5,216l0.9,1.8l0,0.8l-0.5,0.6l-1.1-1.1l0.3-0.3l-0.4-0.6l0.5-0.1
		L162.5,216z M159,215l0.8,0.3l0.2,0.6l-0.7-0.1l-0.2,0.4l0.4,1.7l-0.6,0.8l-0.5,3.9l-1,1.8l0,0.8l0.5,0.2l-0.9,0.5l-0.2,1.2
		l-1.2-1.9l0.2-1.1l0.4,1l0.6-0.9l-1.1-0.5l-0.5-0.9l-0.4,0.2l-0.1-0.7l0.4-1.6l0.9-0.3l0.4-0.7l-0.1-3.3l1.6-0.5L159,215z
		 M158.4,211.5l-0.5,1.1l-0.6-0.1L158.4,211.5z M150.4,209.2l0.7,0.4l-0.4,0.7l-0.7-0.7L150.4,209.2z M158.3,208.9l0.4,0.1l-0.2,0.8
		l-0.7,0.3l-0.5-1L158.3,208.9z"/>
	<path id="PH-WSA" class="st25" d="M215.6,235.7l1.2,0.3l-0.2,1.2l-1-0.2l-0.3-1.6L215.6,235.7z M213.5,235.1l0.5,1l0.6-0.3
		l-0.3,0.5l0.8,0.5l-0.2,0.9h1.1l-0.6,1.5l-0.7-0.4l0.3-0.4l-0.8-0.2l-0.1-0.7l0.6,0l-1.4-1.3l-0.1-1.2L213.5,235.1z M213.9,234.8
		l0.6,0.3l-0.3,0.6L213.9,234.8z M211.6,231l0.5,0.2l-0.1,0.4L211.6,231z M207.6,230.8l0.4,0.8l-1-0.1l0.1-0.6L207.6,230.8z
		 M205.2,230.1l0.1,0.5l-0.6,0.8l-0.7,0.1l0-0.7L205.2,230.1z M207.1,229.5l0.1,0.7l-0.5-0.2L207.1,229.5z M202.9,227.5l0.3,0.5
		l-0.5-0.2l-0.8,0.8l-0.6-0.3l0.5-0.7L202.9,227.5z M205.7,223.3l1.5,0l1.1-1.1l3.3,2l1.5-1l2.7,1.5l-0.2,0.9l0.5,0.8l1-2.4l1.4,0.5
		l3.7-1.2l0,0l-0.2,2.1l-0.7,0.5l0.1,3.6l1.9,0l1.3,3l0.3,3.7l-1.3,0.9l-0.3,0.7l0.5,3.3l1.6,1l-1.2,1.7l0.1,4.2l0,0l-0.4,0.7
		l-0.6-0.3l-1.2-3.7l-1.7-0.2l-1.3,0.4l-0.6-0.3l-0.1-0.8l0.5-0.6l-0.8-2.1l-1.2-0.3l-0.3-0.8l0,1l-1-0.1l-0.4-0.5l0.8-1.4l0.3,0.4
		l0.5-0.1l-0.3-0.8l1.8-0.1l-0.2-0.3l0.6-0.4l-0.2-1.2l1.1-0.9l0.2-0.9l-0.9-0.4l-1.8,0.8l-0.5-0.3l-0.6-1.3l-1.7-1.1l0.5-0.5
		l-0.2-0.3l-1.1,0.2l0.1-0.7l0.5-0.2l-1.1-0.2l-0.1-0.7l-1.5-1.5l-2.3-0.2l-2.9-2.8L205.7,223.3z"/>
	<path id="PH-SAR" class="st25" d="M227.4,366.7l0.6,0.3l-0.2,1.1l-1.5,0l-0.5-0.5L227.4,366.7z M229,365.5l0.4,0.6l-0.6,1.6l-0.4-1
		l0.5-0.4l-0.4-0.2l0.6,0L229,365.5z M206.5,350.6l8.3,4.2l4.6,0.2l0.8-1.1l0,2l1,0.1l0,0l-0.6,2l-3.1,0l-6.7-2.6l-0.5-0.6l-1.2-0.2
		l-3.4-2l0,0L206.5,350.6z M222.6,345.2l1.6,0.9l1.5-0.7l0.7-1l1.5,0.4l1.3,1.9l0.1,1.1l-0.7,0.8l1,1.5l0.1,2l0.6,0.6l-1.2,4.1
		l0.2,1.2l-1.9,4.1l-1.8,1.3l0.3,0.4l0,0l-0.6-0.3l0.3-1l-0.5-1.3l-1-0.5l-0.4-1l-0.7-0.1l-0.2-0.6l0.1-0.8l0.6,0.3l0.2-1.3l1.2-0.6
		l0.4-1.2l-0.4-2.2l-0.7-0.3l0,0l-0.1-1.6l0.8-2.1l-4.1-1.5l0.8-1.7h0.6L222.6,345.2z"/>
	<path id="PH-SIG" class="st25" d="M190,286.1l0.6,0.1l1.1,1.5l-0.6,0.7l1,0.9l-0.4,0.5l-0.8-0.1l-1.1,0.7l-2.8-2.1l0.4-0.7l1.9-0.1
		l0.7-0.5L190,286.1z"/>
	<path id="PH-SOR" class="st25" d="M197.2,205.8l0.5-0.1l2.3,2.3l1-1.6l1.3,0.4l0.1,0.8l-0.5,0.3l-0.3-0.3l-0.3,1.8l-0.5,0.5
		l0.6,0.3l0.2,1.8l-0.4,3l-0.9,0.7l0.3,0.9l-0.5,0.3l0.3,0.4l-0.4,0.6l-1.9-0.2l-1.1-1.2l0-0.6l-0.4,0.2l-0.9-0.8l-0.9-3.6l0.6-1
		l1.6,0.7l0.3-0.7l1.4,0l0.5-1.1l-0.4-0.9l-1.1,0.4l-1.7-0.5l-0.6,1.7l-0.4-0.1l-0.2,0.6l-0.2-0.3L194,211l-0.7-0.5l-0.6,0.9v-1.1
		l-0.9,0.7l-0.2-1.2l-0.7,0.6l0.1,0.6l-2-1.6l-0.6,0.2l-1-1.1l0,0l1.9-0.9l1.1,0.4l2.2-0.3l0.7,0.8l1.9-1.2l1,0l0.7-1.6l0,0
		L197.2,205.8z"/>
	<path id="PH-SCO" class="st25" d="M206.5,350.6l-1.6-0.6l-0.8-1.8l5.5-0.2l1.1,0.4l1-1.7l-0.9-2.4l0.8-2.2l0.3-0.1l0.4,0.6l1.6-1.5
		l1.7,2.9l7.6-0.1l0,0l-0.5,1.4l0,0l-0.6,1l-0.6,0l-0.8,1.7l4.1,1.5l-0.8,2.1l0.1,1.6l0,0l-1.6-0.2l-1.3,3.1l0,0l-1-0.1l0-2
		l-0.8,1.1l-4.6-0.2L206.5,350.6z"/>
	<path id="PH-SLE" class="st25" d="M222.2,258.3l0.9,0.9l-0.6,0.9l0.6,1.3l-0.3,0.9l0.7,0.9l0.5-0.2l0.4,0.5l0.2,1.5l-0.3,0.8
		l-0.7,0.3l-1.8-0.6l-0.1,2.4l1.7,0.7l1.4,2.8l0.2,1.7l-0.7,0l-1.5-2.6l-1-0.5l-0.3-2.4l-0.8-0.8l-1.6-3.4l-0.8,0.2l0.2,3.4l1,2.6
		l0.1,1.7l-2.6-1.8l-0.3-0.7l-2.3-0.3l-0.4-1.2l0,0l0.3,0.1l1.5-1.4l1.1-0.2l-0.1-2.9l1-2.5l2.4,0L222.2,258.3z"/>
	<path id="PH-SUK" class="st25" d="M199.1,339.4l4.7-0.1l0.4,0.6l4.8,0l1.4-1.5l-0.5-1.4l2.1-0.5l0.8,0.3l-0.6,1.8l1.7,0l1.1,2.8
		l1.8-0.1l2.5-1.3l0,0l2.4-0.7l0,0l0.7,0.5l-0.4,0.2l0,0.9l1,1.2l0.3,1.8l0,0l-7.6,0.1l-1.7-2.9l-1.6,1.5l-0.4-0.6l-0.3,0.1
		l-0.8,2.2l0.9,2.4l-1,1.7l-1.1-0.4l-5.5,0.2l0.8,1.8l1.6,0.6l0,0l0,0l0,0l-0.9,2l0,0l-0.6,0.1l-2.9-2l-0.4-1.3l-1.3-1l-0.6-1.4
		l-0.5,0.2l-0.7-3l0.9-0.4l-0.6-0.2l0.4-1.5l-0.8-1.9L199.1,339.4z"/>
	<path id="PH-SLU" class="st25" d="M132,365l0.4,0.7l-0.6,0.5L132,365z M131.6,365.9l-0.5-0.2l0.7-0.8L131.6,365.9z M131.5,364
		l0.3,0.3l-0.2,0.7l-0.8,0.5l-0.3-0.6l0.4-0.7L131.5,364z M132.7,363.6l1.1,1l-1,1.1l-0.9-1.2L132.7,363.6z M137.3,361.6l-0.7,0.5
		l-0.6-0.5L137.3,361.6z M133,361.2l0.5,0.2l-0.6,0.5l-1.3,0l0.2-0.7L133,361.2z M134.1,360.1l0.3,0.8l-0.9,0.5l0-1L134.1,360.1z
		 M138.8,358.1l0.9,0.3l0.3,0.7l-1.4,0.3L138.8,358.1z M113.7,357.4l0.5,0.5l-0.9-0.2L113.7,357.4z M114.9,356.3l0,0.6l-0.4-0.2
		L114.9,356.3z M148,355.5l0.2,0.5l-0.6,0.4l-0.3-0.5L148,355.5z M117.5,355.9l-0.7-0.4l0.2-0.3L117.5,355.9z M147.4,354.4l-0.7,0.7
		l0.4-0.9L147.4,354.4z M144.5,353.9l0.2,0.8l-0.8,0l-0.1-0.4L144.5,353.9z M149.8,353.9l1.1,0.5l-1.3,0.9l-0.3-0.2l0.7-0.7
		L149.8,353.9z M138.1,353.1l0.9,0.3l1.1,1.7l1.5-0.5l0.8,0.4l1.6-0.2l0.7,1.1l-0.8,0.4l-0.1,0.8l-0.7-0.3l-1.4,1.3l-0.1-0.4
		l-0.9-0.3v-0.9l-0.9-0.4l-2.5,1.6l-1.1-1.1l-1.8,0.8l-1.3-0.6l-0.1-0.7l1-1.5l1.6-0.6l0.4-0.7L138.1,353.1z M151.8,353.1l2,1.5
		l1.8-0.7l-2,1.1l-1.7-1.2l-0.4-0.5L151.8,353.1z M126.1,352l0.4,0.4l-0.3,0.3L126.1,352z M153.3,351.9l0.2,0.6l-0.7,0L153.3,351.9z
		 M124.5,351.4l-0.1,0.8l-0.8-0.4L124.5,351.4z M152.8,351.3l0.3,0.6l-0.5,0.4l-0.2-0.5L152.8,351.3z M135.1,350.7l0.6,0.3l-0.1,0.3
		l-0.5,0.1L135.1,350.7z M128.6,348.3l0.2,0.9l-0.6,0.6l-0.2-0.4L128.6,348.3z M132.9,347.9l0.3,0.5l-0.7,0.2L132.9,347.9z
		 M127.4,346.8l-0.4,3l-2.1-0.1l0-0.4l0.8,0.1l0.8-2.2L127.4,346.8z M129.8,345.9l0,0.9l-0.9-0.2L129.8,345.9z"/>
	<path id="PH-SUN" class="st25" d="M232.1,277.1l0.7,0.1l-0.1,1.2l-0.5-1l-0.4,0.1L232.1,277.1z M240.5,277l0.8,0.1l0,0.4l-0.8-0.1
		l-0.5,0.6l0-0.4l-0.7,0.3l0.1-1l0.5,0.6L240.5,277z M238.7,276.5l-0.1,0.5l0.5-0.2l0.2,0.4l-0.2,0.8l0.6,0.5l-0.6,2l-0.5,0.2
		l-1.1-1.1l0.5-0.3l-0.1-0.6l0.4,0l-0.3-2.1L238.7,276.5z M232.4,275.8l0.5,0.8l-0.9-0.3L232.4,275.8z M234,275.8l0.5,0.2l-0.3,0.6
		l-0.5-0.2l-0.1-0.6H234z M229.4,275.7l0.2,0.6l1.5,0.2l-0.2,0.4l0.5,0.5l0.4,1.9l0.9,0.7l1.8,0.2l0,0.5l2.2,0.5l0.6,0.9l0.9,0.1
		l0,0l-3.5,3.6l0,0l-0.1-1.4l-1.1-0.9l-2.6-0.5l-2.3,0.4l0,0l-1.3-4.5l0.2-2.3l0.8-0.5l-0.1-0.6l0.5,0.3l-0.2,0.4L229.4,275.7z
		 M232.4,273.3l0,0.8l0.2,0.2l0.3,0.3l0.6-0.1l-2,1l0.1-0.6l-0.3,0.2l0-0.4L232.4,273.3z M229.8,273.3l0.8,1l-0.9-0.5L229.8,273.3z
		 M239.3,273.2L238,274l1.4-1.3L239.3,273.2z M241.2,270.1l1.2,3.9l-0.5,0.4l0.9,0.3l0.1,0.8l0.4,0l-1.1,1.3l-1.3-0.1l-2.1-1.7
		l0.2-0.4l0.7,0l-0.7-0.5L241.2,270.1z"/>
	<path id="PH-BAS" class="st25" d="M156.4,348.6l0,0.5l-0.7-0.1l0.1-0.4L156.4,348.6z M148.7,342.5l0.2-1.1l-1.4-1.1L148.7,342.5z
		 M157.4,348.2l-0.2-0.5l-0.2,0.4L157.4,348.2z M156.1,347.5l-0.5,0.2l0.8,0.2L156.1,347.5z M159.6,341.1l-0.2-1l-0.8,0.1l-0.7-0.8
		l-1.5,0.3l-2.2,1.7l-1.1-0.5l-0.8,1.5l1.8,1l-0.2,1.1l1.8,1.5l0,0.5l1.7-0.1l3-0.9l0.6-2.7l1.9-0.2l0.5-0.7l-0.4-0.4L159.6,341.1z"
		/>
	<path id="PH-ZAS" class="st25" d="M175.7,315l1,0.1l2.4-1.8l1.9,0.1l0.7-5.1l7.3,0.5l0,0l0.3,3.6l1.5,0.3l0,0.4l0,0l0.7,1.3l0,0
		l-1,2.6l0,0l-1.2-0.5l-3,0.8l-0.1,1l1.3,0.8l-0.1,1.2l-0.3,0.8l-1.6,0.5l0.1,1.1l-0.7-0.5l-0.4,0.5l0.9,0.4l0.3,1.6l0.3-0.2
		l0.8,0.7l-0.3,0.5l0.3,0.8l-0.8,0.3l-2.7-2.3l0.3-1.3l-1.6-0.2l-0.9,0.7l0.3,0.4l-0.4,0.4l-0.1-0.6l-1.1-0.4l-0.3-1l0.6-0.4
		l-0.7-0.5l0.5,0l0.3,0.6l1.2-0.3l-0.4-1l-1-0.5l0.2-1l-0.5-0.4l-0.4,0.6l0,0l-0.3-2.2l-3.5-0.4L175.7,315L175.7,315z"/>
</g>
<path class="st26" d="M201.7,344.6c1.3,0,2.3,1,2.3,2.3c0,1.3-1,2.3-2.3,2.3s-2.3-1-2.3-2.3C199.4,345.7,200.4,344.6,201.7,344.6
	L201.7,344.6"/>
<path class="st26" d="M142.4,144.2c1.5,0,2.6,1.4,2.2,2.9c-0.2,0.8-0.8,1.4-1.6,1.6c-1.5,0.4-2.9-0.7-2.9-2.2
	C140.1,145.3,141.1,144.2,142.4,144.2L142.4,144.2"/>
<path class="st26" d="M146.2,140.4c1.6,0,2.8,1.7,1.9,3.4c-0.2,0.3-0.4,0.6-0.7,0.7c-1.7,0.9-3.4-0.3-3.4-1.9
	C144,141.4,145,140.4,146.2,140.4L146.2,140.4"/>
<path class="st26" d="M230.3,323.6c1.2,0,2.2,1,2.2,2.2c0,1.2-1,2.2-2.2,2.2c-1.2,0-2.2-1-2.2-2.2C228,324.6,229,323.6,230.3,323.6
	L230.3,323.6"/>
<path class="st26" d="M153.7,137.3c1.2,0,2.2,1,2.2,2.2c0,1.2-1,2.2-2.2,2.2s-2.2-1-2.2-2.2C151.5,138.3,152.5,137.3,153.7,137.3
	L153.7,137.3"/>
<path class="st26" d="M202.3,269.4c1.2,0,2.2,1,2.2,2.2c0,1.2-1,2.2-2.2,2.2s-2.2-1-2.2-2.2C200.1,270.4,201.1,269.4,202.3,269.4
	L202.3,269.4"/>
<path class="st26" d="M135.4,193.9c1.2,0,2.2,1,2.2,2.2c0,1.2-1,2.2-2.2,2.2s-2.2-1-2.2-2.2C133.2,194.9,134.2,193.9,135.4,193.9
	L135.4,193.9"/>
<path class="st26" d="M181,266.1c1.2,0,2.1,0.9,2.1,2.1c0,1.2-0.9,2.1-2.1,2.1c-1.2,0-2.1-0.9-2.1-2.1
	C178.9,267.1,179.8,266.1,181,266.1L181,266.1"/>
<path class="st26" d="M165.5,250.2c1.3,0,2.3,1,2.3,2.3c0,1.3-1,2.3-2.3,2.3c-1.3,0-2.3-1-2.3-2.3
	C163.3,251.2,164.3,250.2,165.5,250.2L165.5,250.2"/>
<path class="st26" d="M136,171.5c1.1,0,1.9,0.9,1.9,1.9c0,1.1-0.9,1.9-1.9,1.9c-1.1,0-1.9-0.9-1.9-1.9
	C134.1,172.3,134.9,171.5,136,171.5L136,171.5"/>
<rect x="160.4" y="364.1" class="st27" width="25.2" height="14.5"/>
<text transform="matrix(1 0 0 1 160.3556 371.927)" class="st28 st29">1976</text>
<line class="st30" x1="201.5" y1="349.2" x2="201.5" y2="369.1"/>
<line class="st30" x1="201.6" y1="369.2" x2="181.6" y2="369.2"/>
<rect x="161.1" y="374.8" class="st27" width="116.4" height="40.3"/>
<text transform="matrix(1 0 0 1 161.1202 379.7893)"><tspan x="0" y="0" class="st31 st32">On August 16 in the Moro Gulf, the country’s </tspan><tspan x="0" y="7.8" class="st31 st32">deadliest recorded earthquake left nearly 5,000 </tspan><tspan x="0" y="15.5" class="st31 st32">dead, 2,000 missing and 10,000 injured. </tspan></text>
<line class="st30" x1="219.4" y1="148.3" x2="143.7" y2="148.3"/>
<rect x="220.2" y="143.7" class="st27" width="25.2" height="14.5"/>
<text transform="matrix(1 0 0 1 220.1564 151.5286)" class="st28 st29">1990</text>
<line class="st30" x1="212.6" y1="144.6" x2="147.9" y2="144.6"/>
<line class="st30" x1="212.6" y1="122.7" x2="212.6" y2="144.6"/>
<rect x="204" y="113.8" class="st27" width="25.2" height="14.5"/>
<text transform="matrix(1 0 0 1 203.9737 121.6292)" class="st28 st29">1645</text>
<line class="st30" x1="264.6" y1="325" x2="231.8" y2="325"/>
<rect x="265.5" y="320.3" class="st27" width="25.2" height="14.5"/>
<text transform="matrix(1 0 0 1 265.4689 328.1565)" class="st28 st29">1955</text>
<line class="st30" x1="176.3" y1="140" x2="156.2" y2="140"/>
<line class="st30" x1="176.3" y1="96.2" x2="176.3" y2="140.3"/>
<rect x="167.8" y="87.4" class="st27" width="25.2" height="14.5"/>
<text transform="matrix(1 0 0 1 167.7931 95.2742)" class="st28 st29">1968</text>
<line class="st30" x1="200.1" y1="271.9" x2="134.2" y2="271.9"/>
<rect x="116.6" y="267" class="st27" width="25.2" height="14.5"/>
<text transform="matrix(1 0 0 1 116.5851 274.8284)" class="st28 st29">2013</text>
<line class="st30" x1="133.3" y1="196.4" x2="115.7" y2="196.4"/>
<rect x="97.2" y="192.2" class="st27" width="25.2" height="14.5"/>
<text transform="matrix(1 0 0 1 97.1866 200.0437)" class="st28 st29">1994</text>
<line class="st30" x1="251.7" y1="267.4" x2="183.1" y2="267.4"/>
<rect x="252.5" y="262.9" class="st27" width="25.2" height="14.5"/>
<text transform="matrix(1 0 0 1 252.5226 270.8211)" class="st28 st29">2012</text>
<line class="st30" x1="163.8" y1="251.2" x2="134" y2="251.2"/>
<rect x="115.7" y="246.8" class="st27" width="25.2" height="14.5"/>
<text transform="matrix(1 0 0 1 115.6603 254.638)" class="st28 st29">1948</text>
<line class="st30" x1="134.9" y1="173.7" x2="103.9" y2="173.7"/>
<line class="st30" x1="103.8" y1="129.8" x2="103.8" y2="173.9"/>
<rect x="94.7" y="120.3" class="st27" width="25.2" height="14.5"/>
<text transform="matrix(1 0 0 1 94.7218 128.222)" class="st28 st29">1665</text>
<rect x="42.4" y="50" class="st27" width="282.6" height="18.4"/>
<text transform="matrix(1 0 0 1 42.379 62.4168)" class="st33 st34">Deadliest earthquakes in the Philippines </text>
<rect x="42.6" y="36.5" class="st27" width="282.6" height="10.5"/>
<text transform="matrix(1 0 0 1 42.6339 45.0794)" class="st31 st35">Map 2: Bubble Map</text>
<line class="st22" x1="43.7" y1="414.1" x2="308" y2="414.1"/>
<rect x="43.7" y="417.9" class="st27" width="340.5" height="22.2"/>
<text transform="matrix(1 0 0 1 43.7189 422.9602)"><tspan x="0" y="0" class="st31 st32">Data Source: Wikipedia’s list of earthquakes in the Philippines</tspan><tspan x="0" y="7.8" class="st31 st32">By Mariel Padilla </tspan></text>
<rect x="221" y="155.4" class="st27" width="116.4" height="40.3"/>
<text transform="matrix(1 0 0 1 220.9788 160.4512)"><tspan x="0" y="0" class="st31 st32">On July 16 on Luzon Island, the country’s second </tspan><tspan x="0" y="7.8" class="st31 st32">deadliest earthquake left about 1,600 dead, 1,000 </tspan><tspan x="0" y="15.5" class="st31 st32">missing and less than 3,000 injured. </tspan></text>
</svg>
