<?xml version="1.0" encoding="utf-8"?>
<!-- Generator: Adobe Illustrator 21.1.0, SVG Export Plug-In . SVG Version: 6.00 Build 0)  -->
<svg version="1.1" id="Layer_1" xmlns="http://www.w3.org/2000/svg" xmlns:xlink="http://www.w3.org/1999/xlink" x="0px" y="0px"
	 viewBox="0 0 683.4 471" style="enable-background:new 0 0 683.4 471;" xml:space="preserve">
<style type="text/css">
	.st0{fill:#9ECAE1;stroke:#FFFFFF;stroke-width:0.5;}
	.st1{fill:#CCCCCC;stroke:#000000;stroke-width:0.5;}
	.st2{fill:#ECE7F2;stroke:#A3A3A3;stroke-width:0.5;}
	.st3{fill:#D1D1E6;stroke:#A3A3A3;stroke-width:0.5;}
	.st4{fill:#0571B0;stroke:#A3A3A3;stroke-width:0.5;}
	.st5{fill:#083857;stroke:#A3A3A3;stroke-width:0.5;}
	.st6{fill:#3690C0;stroke:#A3A3A3;stroke-width:0.5;}
	.st7{fill:#CCCCCC;stroke:#A3A3A3;}
	.st8{fill:#015A8D;stroke:#A3A3A3;stroke-width:0.5;}
	.st9{fill:#74A9CE;stroke:#A3A3A3;stroke-width:0.5;}
	.st10{fill:#A6BDDB;stroke:#A3A3A3;stroke-width:0.5;}
	.st11{fill:#FEF7FA;stroke:#A3A3A3;}
	.st12{fill:#FEF7FA;stroke:#A3A3A3;stroke-width:0.5;}
	.st13{fill:#FEF7FA;stroke:#FFFFFF;stroke-width:0.5;}
	.st14{fill:#ECE7F2;stroke:#FFFFFF;stroke-width:0.5;}
	.st15{fill:#D1D1E6;stroke:#FFFFFF;stroke-width:0.5;}
	.st16{fill:#A6BDDB;stroke:#FFFFFF;stroke-width:0.5;}
	.st17{fill:#74A9CE;stroke:#FFFFFF;stroke-width:0.5;}
	.st18{fill:#3690C0;stroke:#FFFFFF;stroke-width:0.5;}
	.st19{fill:#0571B0;stroke:#FFFFFF;stroke-width:0.5;}
	.st20{fill:#015A8D;stroke:#FFFFFF;stroke-width:0.5;}
	.st21{fill:#083857;stroke:#FFFFFF;stroke-width:0.5;}
	.st22{fill:none;stroke:#A3A3A3;}
	.st23{fill:#F37475;stroke:#F37475;stroke-width:0.5;stroke-miterlimit:10;}
	.st24{fill:#F37475;stroke:#F9F9FA;stroke-width:0.2;stroke-miterlimit:10;}
	.st25{fill:#CCCCCC;stroke:#FFFFFF;stroke-width:0.5;}
	.st26{fill:#EA96A2;stroke:#ED1C26;stroke-width:0.25;stroke-miterlimit:10;}
	.st27{fill:none;stroke:#EC2028;stroke-width:0.25;stroke-miterlimit:10;}
	.st28{fill:none;}
	.st29{font-family:'BerninaSans-CondensedBold';}
	.st30{font-size:17.6348px;}
	.st31{font-family:'BerninaSans-CondensedLight';}
	.st32{font-size:12.1417px;}
	.st33{font-size:8px;}
	.st34{fill:none;stroke:#727373;stroke-width:0.25;stroke-miterlimit:10;}
	.st35{fill:#727373;}
	.st36{opacity:0.75;}
	.st37{fill:none;stroke:#727374;stroke-width:13.65;}
	.st38{fill:#727374;}
	.st39{font-family:'BerninaSans-CondensedRegular';}
	.st40{font-size:7px;}
	.st41{fill:none;stroke:#737475;stroke-width:6.1;}
	.st42{fill:#737475;}
	.st43{fill:none;stroke:#737475;stroke-width:4.9;}
	.st44{fill:none;stroke:#737476;stroke-width:4.4;}
	.st45{fill:#737476;}
	.st46{fill:none;stroke:#737476;stroke-width:2.6;}
	.st47{fill:#FFFFFF;stroke:#FFFFFF;stroke-width:0.5;}
	.st48{fill:none;stroke:#000000;stroke-width:0.5;}
	.st49{stroke:#000000;stroke-width:2;}
</style>
<rect x="41.4" y="64.7" class="st0" width="608.8" height="370.7"/>
<g>
	<path id="AE" class="st25" d="M402.6,288.1l0.3-0.1l0.1,0.5l1.2-0.3l1.3,0l1,0.1l1.1-1.2l1.2-1.1l1-1.1l0.3,0.6l0.2,1.4l-0.8,0
		l-0.1,1.1l0.3,0.2l-0.7,0.3l0,0.7l-0.5,0.7l0,0.7l-0.3,0.4l-4.7-0.9l-0.6-1.7L402.6,288.1z"/>
	<path id="AF" class="st25" d="M417.8,267.4l1.6,0.7l1.2-0.3l0.3-0.9l1.2-0.3l0.9-0.6l0.3-1.6l1.3-0.4l0.2-0.7l0.7,0.5l0.5,0.1
		l0.9,0l1.2,0.4l0.5,0.2l1.1-0.6l0.5,0.4l0.5-0.9l0.9,0l0.2-0.3l0.2-0.8l0.7-0.7l0.9,0.5l-0.2,0.6l0.5,0.1l-0.2,1.7l0.6,0.6l0.6-0.4
		l0.7-0.2l1-0.9l1.1,0.1h1.6l0.3,0.6l-0.9,0.2l-0.8,0.4l-1.8,0.2l-1.7,0.4l-0.9,0.9l0.4,0.8l0.2,1l-0.8,0.8l0.1,0.7l-0.4,0.7
		l-1.5-0.1l0.6,1.3l-1,0.5l-0.7,1.1l0.1,1.1L430,275l-0.6-0.2l-1.2,0.2l-0.2,0.5h-1.2l-0.9,1l-0.1,1.5l-2.1,0.7l-1.1-0.2l-0.3,0.4
		l-0.9-0.2l-1.6,0.3l-2.6-0.9l1.4-1.6l-0.1-1.2l-1.2-0.3l-0.1-1.2l-0.5-1.5l0.7-1l-0.7-0.3l0.4-1.4L417.8,267.4z"/>
	<path id="AL" class="st25" d="M353.6,254.8l-0.2,0.7l0.2,0.9l0.7,0.5l0,0.5l-0.5,0.3l-0.1,0.7l-0.7,1l-0.3-0.1l0-0.5l-0.9-0.7
		l-0.1-1l0.1-1.4l0.2-0.7l-0.3-0.3l-0.1-0.7l0.7-1.1l0.1,0.4l0.4-0.2l0.3,0.6l0.4,0.2L353.6,254.8z"/>
	<path id="AM" class="st25" d="M389.9,256.4l2.2-0.3l0.3,0.6l0.6,0.4l-0.3,0.5l0.8,0.7l-0.4,0.7l0.7,0.6l0.7,0.3l0,1.4l-0.6,0.1
		l-0.6-1.2l0-0.3l-0.7,0l-0.5-0.6l-0.3,0.1l-0.6-0.6l-1.2-0.5l0.2-1L389.9,256.4z"/>
	<path id="AO" class="st25" d="M346.9,336.6l0.4,1.2l0.5,0.9l0.4,0.5l0.6,0.8l1-0.1l0.5-0.2l0.9,0.2l0.2-0.4l0.4-0.9l1-0.1l0.1-0.3
		l0.8,0l-0.1,0.6l1.9,0l0,1l0.3,0.6l-0.2,1l0.1,1l0.5,0.6l-0.1,1.9l0.4-0.1l0.7,0l1-0.2l0.7,0.1l0.2,0.5l-0.2,0.8l0.3,0.8l-0.2,0.6
		l0.1,0.6l-3.3,0l-0.1,5.2l1.1,1.3l1,1l-2.9,0.7l-3.8-0.2l-1.1-0.8l-6.4,0.1l-0.2,0.1l-0.9-0.7l-1-0.1l-0.9,0.3l-0.8,0.3l-0.1-1
		l0.2-1.4l0.5-1.5l0.1-0.7l0.5-1.5l0.4-0.7l0.9-1.1l0.5-0.7l0.2-1.2l-0.1-0.9l-0.5-0.6l-0.4-1l-0.4-1l0.1-0.3l0.5-0.6l-0.5-1.5
		l-0.3-1.1l-0.8-1l0.2-0.3l0.7-0.2l0.5,0l0.6-0.2L346.9,336.6z M340.8,336.3l-0.4,0.2l-0.4-1.2l0.6-0.7l0.5-0.3l0.6,0.5l-0.6,0.3
		l-0.3,0.4L340.8,336.3z"/>
	<path id="AR" class="st25" d="M217.7,431.8l-1.5,0.1l-0.8-1l-1-0.1h-1.7v-6l0.6,1.2l0.8,2l2.1,1.6l2.2,0.7L217.7,431.8z
		 M218.6,362.9l0.9,1.2l0.6-1.4l1.8,0.1l0.3,0.4l2.9,2.8l1.3,0.3l1.9,1.3l1.6,0.7l0.2,0.8l-1.6,2.7l1.6,0.5l1.8,0.3l1.3-0.3l1.4-1.4
		l0.3-1.5l0.8-0.3l0.8,1l0,1.4l-1.3,1l-1.1,0.7l-1.8,1.7l-2.1,2.5l-0.4,1.5l-0.4,1.9l0,1.9l-0.3,0.4l-0.1,1.2l-0.1,1l2,1.6l-0.2,1.3
		l1,0.9l-0.1,1l-1.5,2.5l-2.3,1.1l-3.2,0.4l-1.7-0.2l0.3,1.2l-0.3,1.5l0.3,1l-0.9,0.7l-1.6,0.3l-1.5-0.8l-0.6,0.5l0.2,2.1l1.1,0.6
		l0.9-0.7l0.5,1.1l-1.5,0.7l-1.3,1.3l-0.2,2.2l-0.4,1.2l-1.5,0l-1.2,1.1l-0.5,1.7l1.6,1.7l1.5,0.5l-0.5,2.1l-1.9,1.3l-1,2.8l-1.4,1
		l-0.6,1.2l0.5,2.6l1.1,1.5l-0.7-0.1l-1.5-0.4l-3.8-0.3l-0.7-1.5l0-1.9l-1.1,0.2l-0.6-0.9l-0.1-2.6l1.2-1.1l0.5-1.5l-0.2-1.2l0.8-2
		l0.6-3l-0.2-1.3l0.7-0.4l-0.2-0.8l-0.7-0.4l0.5-0.9l-0.7-0.8l-0.4-2.5l0.6-0.4l-0.3-2.6l0.4-2.1l0.4-1.8l0.9-0.7l-0.5-1.9l0-1.8
		l1.2-1.3l0-1.6l0.9-1.9l0-1.7l-0.4-0.3l-0.7-3.2l1-1.9l-0.2-1.8l0.6-1.6l1-1.7l1.1-1.1l-0.5-0.7l0.3-0.6l-0.1-2.9l1.7-0.9l0.5-1.8
		l-0.2-0.4l1.3-1.5L218.6,362.9z"/>
	<path id="AT" class="st25" d="M347.9,240.9l-0.1,1l-0.9,0l0.3,0.5l-0.5,1.5l-0.3,0.4l-1.4,0.1l-0.8,0.5l-1.3-0.2l-2.3-0.6l-0.3-0.8
		l-1.6,0.4l-0.2,0.4l-1-0.3l-0.8-0.1l-0.7-0.4l0.2-0.6l-0.1-0.4l0.5-0.1l0.8,0.6l0.2-0.6l1.4,0.1l1.1-0.4l0.8,0.1l0.5,0.5l0.2-0.4
		l-0.2-1.5l0.6-0.3l0.6-1.1l1.2,0.8l0.9-1l0.6-0.2l1.2,0.7l0.7-0.1l0.7,0.5l-0.1,0.3L347.9,240.9z"/>
	<path id="AU" class="st25" d="M550.7,397.6l1.5,0.7l0.9-0.3l1.2-0.4l0.9,0.1l0.1,2.5l-0.5,0.7l-0.2,1.7l-0.6-0.6l-1.1,1.5l-0.3-0.1
		l-1-0.1l-1-1.8l-0.2-1.4l-0.9-1.8l0-1L550.7,397.6z M547.8,349.1l0.6,1.3l1-0.6l0.5,0.7l0.8,0.6l-0.2,0.7l0.3,1.4l0.2,0.8l0.4,0.2
		l0.4,1.4l-0.2,0.9l0.5,1.1l1.7,0.9l1.1,0.8l1.1,0.7l-0.2,0.4l0.9,1.1l0.6,1.8l0.6-0.4l0.6,0.7l0.4-0.3l0.3,1.8l1.1,1.1l0.7,0.7
		l1.2,1.4l0.4,1.4l0,1l-0.1,1.1l0.8,1.5l-0.1,1.6l-0.3,0.8l-0.4,1.6l0,1l-0.3,1.3l-0.7,1.7l-1.2,0.9l-0.6,1.5l-0.5,0.9l-0.5,1.6
		l-0.6,1l-0.4,1.5l-0.2,1.4l0.1,0.6l-0.9,0.7l-1.8,0.1l-1.5,0.8l-0.7,0.8l-1,0.9l-1.3-0.9l-1-0.4l0.2-1l-0.9,0.4l-1.4,1.5l-1.4-0.5
		l-0.9-0.3l-0.9-0.1l-1.5-0.6l-1-1.2l-0.3-1.5l-0.4-1l-0.8-0.8l-1.5-0.2l0.5-0.9l-0.4-1.4l-0.8,1.3l-1.4,0.4l0.8-1.1l0.2-1.1
		l0.6-0.9l-0.1-1.4l-1.3,1.6l-1,0.6l-0.6,1.5l-1.2-0.8l0.1-1l-1-1.4l-0.8-0.7l0.3-0.4l-2-1.1l-1.1-0.1l-1.5-0.9l-2.8,0.2l-2,0.7
		l-1.8,0.6l-1.5-0.1l-1.7,1l-1.4,0.4l-0.3,1l-0.6,0.8l-1.3,0l-1,0.2l-1.4-0.3l-1.1,0.2l-1.1,0.1l-0.9,1L509,385l-0.8,0.5l-0.8,0.6
		l-1.2-0.1h-1.1l-1.7-1.2l-0.9-0.4l0-1.1l0.8-0.3l0.3-0.4l-0.1-0.7l0.2-1.3l-0.2-1.1l-0.8-1.9l-0.3-1l0.1-1l-0.6-1.2l0-0.5l-0.7-0.7
		l-0.2-1.4l-0.9-1.4l-0.2-0.7l0.7,0.8l-0.5-1.6l0.8,0.5l0.5,0.7l0-0.9l-0.8-1.4l-0.2-0.5l-0.4-0.5l0.2-1l0.3-0.4l0.2-0.9l-0.2-1
		l0.7-1.2l0.1,1.3l0.7-1.2l1.3-0.6l0.8-0.7l1.2-0.6l0.7-0.1l0.4,0.2l1.2-0.6l1-0.2l0.2-0.4l0.4-0.2l0.9,0l1.7-0.5l0.9-0.7l0.4-0.9
		l0.9-0.8l0.1-0.7l0-0.9l1.1-1.4l0.7,1.4l0.7-0.3l-0.6-0.8l0.5-0.8l0.7,0.4l0.2-1.2l0.9-0.8l0.4-0.6l0.8-0.3l0-0.5l0.7,0.2l0-0.4
		l0.7-0.2l0.8-0.2l1.2,0.7l0.9,1l1,0l1,0.2l-0.3-0.9l0.8-1.3l0.7-0.4l-0.2-0.4l0.7-0.9l1-0.6l0.8,0.2l1.3-0.3l0-0.8l-1.2-0.5
		l0.8-0.2l1,0.4l0.8,0.7l1.3,0.4l0.5-0.2l1,0.5l0.9-0.5l0.6,0.1l0.4-0.3l0.7,0.8l-0.4,0.9l-0.6,0.7l-0.5,0.1l0.2,0.6l-0.5,0.8
		l-0.6,0.8l0.1,0.5l1.3,0.9l1.2,0.5l0.8,0.6l1.1,1h0.4l0.8,0.4l0.2,0.5l1.5,0.6l1-0.6l0.3-0.9l0.3-0.7l0.2-0.9l0.5-1.3l-0.2-0.8
		l0.1-0.5l-0.2-0.9l0.2-1.2l0.3-0.3l-0.2-0.5l0.4-0.9l0.3-0.9l0-0.5l0.6-0.6l0.4,0.8l0.1,1l0.4,0.2l0.1,0.7l0.6,0.8l0.1,0.9
		L547.8,349.1z"/>
	<path id="AZ" class="st25" d="M392.2,259.2l0.5,0.5l0.7,0l0,0.3l0.6,1.2l-1.1-0.3l-0.8-0.9l-0.2-0.8L392.2,259.2z M395.9,256.2
		l0.7,0.1l0.3-0.5l0.9-0.9l0.8,1.1l0.8,1.5l0.7,0.1l0.5,0.6l-1.3,0.2l-0.3,1.6l-0.3,0.7l-0.6,0.5l0,1l-0.4,0.1l-1-1.1l0.5-1
		l-0.5-0.6l-0.6,0.2l-1.9,1.5l0-1.4l-0.7-0.3l-0.7-0.6l0.4-0.7l-0.8-0.7l0.3-0.5l-0.6-0.4l-0.3-0.5l0.4-0.3l1.2,0.6l0.9,0.1l0.2-0.2
		l-0.8-1.1l0.4-0.3l0.4,0.1L395.9,256.2z"/>
	<path id="BA" class="st25" d="M351.1,248.3l0.6,0l-0.4,1l0.8,0.8l-0.2,1l-0.4,0.1l-0.3,0.2l-0.5,0.5l-0.2,1.2l-1.4-0.8l-0.6-0.9
		l-0.6-0.5l-0.7-0.8l-0.3-0.7l-0.8-1l0.3-0.9l0.6,0.5l0.3-0.5l0.7-0.1l1.4,0.4l1.1,0L351.1,248.3z"/>
	<path id="BD" class="st25" d="M467.4,291.9l0,1.2l-0.6-0.3l0.1,1.4l-0.5-0.9l-0.1-0.9l-0.3-0.8l-0.7-1l-1.5-0.1l0.1,0.7l-0.5,0.9
		l-0.7-0.3l-0.2,0.3l-0.4-0.2l-0.6-0.2l-0.2-1.4l-0.5-1.3l0.3-1l-1-0.5l0.3-0.6l1-0.6l-1.1-0.9l0.6-1.2l1.3,0.8l0.8,0.1l0.1,1.2
		l1.5,0.2l1.5,0l0.9,0.3l-0.7,1.5l-0.7,0.1l-0.5,1l0.9,0.9l0.3-1.1l0.4,0L467.4,291.9z"/>
	<path id="BE" class="st25" d="M326.4,233l1.2,0.2l1.5-0.5l1,1.1l0.9,0.6l-0.2,1.7l-0.4,0.1l-0.2,1.4l-1.4-1.1l-0.8,0.2l-1.1-1.2
		l-0.7-1l-0.7,0l-0.2-0.9L326.4,233z"/>
	<path id="BF" class="st25" d="M316.7,312.1l-1.1-0.4l-0.7,0.1l-0.6,0.4l-0.7-0.3l-0.3-0.5l-0.7-0.3l-0.1-0.9l0.4-0.7l0-0.5l1.3-1.3
		l0.2-1.1l0.4-0.4l0.8,0.2l0.7-0.3l0.2-0.4l1.2-0.7l0.3-0.5l1.5-0.7l0.9-0.2l0.4,0.3l1,0l-0.1,0.8l0.2,0.7l0.9,1.1l0,0.8l1.8,0.4
		l0,1.1l-0.3,0.5l-0.8,0.1l-0.3,0.7l-0.5,0.2l-1.4,0l-0.7-0.1l-0.5,0.3l-0.7-0.1l-2.7,0.1l0,0.9L316.7,312.1z"/>
	<path id="BG" class="st25" d="M356.9,249.7l0.5,0.9l0.6-0.2l1.2,0.3l2.3,0.1l0.8-0.6l1.9-0.5l1.1,0.8l0.9,0.2l-0.8,0.9l-0.6,1.5
		l0.5,1.2l-1.4-0.3l-1.6,0.7l0,1l-1.4,0.2l-1.1-0.7l-1.3,0.6l-1.2-0.1l-0.1-1.4l-0.8-0.7l0.3-0.3l-0.2-0.3l0.3-0.7l0.6-0.7l-0.8-0.9
		l-0.1-0.8L356.9,249.7z"/>
	<path id="BI" class="st25" d="M367.5,334.4l-0.1-1.9l-0.4-0.7l1,0.1l0.5-0.9l0.8,0.1l0.1,0.6l0.3,0.4l0,0.5l-0.4,0.3l-0.6,0.8
		l-0.6,0.6L367.5,334.4z"/>
	<path id="BJ" class="st25" d="M325.4,317.5l-1.3,0.2l-0.4-1.1l0.1-3.6l-0.3-0.3l-0.1-0.8l-0.6-0.6l-0.5-0.5l0.2-0.8l0.5-0.2
		l0.3-0.7l0.8-0.1l0.3-0.5l0.5-0.5l0.6,0l1.2,0.9l-0.1,0.5l0.4,0.9l-0.3,0.6l0.2,0.4l-0.8,1l-0.5,0.5l-0.3,1l0,1L325.4,317.5z"/>
	<path id="BN" class="st25" d="M501.4,320.2l0.6-0.6l1.3-0.9l-0.1,0.8l-0.1,1l-0.8-0.1l-0.3,0.5L501.4,320.2z"/>
	<path id="BO" class="st25" d="M221.9,362.8l-1.8-0.1l-0.6,1.4l-0.9-1.2l-2.1-0.4l-1.3,1.5l-1.1,0.2l-0.6-2.3l-0.8-1.9l0.5-1.6
		l-0.8-0.7l-0.2-1.2l-0.8-1.1l1-1.8l-0.7-1.4l0.4-0.5l-0.3-0.6l0.6-0.8l0-1.4l0.1-1.1l0.3-0.5l-1.4-2.6l1.2,0.1l0.8,0l0.4-0.5
		l1.4-0.6l0.8-0.6l2.1-0.3l-0.2,1.2l0.2,0.6l-0.1,1.1l1.7,1.4l1.8,0.3l0.6,0.6l1.1,0.3l0.7,0.5l1,0l0.9,0.5l0.1,0.9l0.3,0.5l0,0.7
		l-0.5,0l0.6,1.9l3,0.1l-0.2,0.9l0.2,0.6l0.9,0.5l0.4,1l-0.3,1.3l-0.4,0.7l0.2,1l-0.5,0.3l0-0.5l-1.5-0.9l-1.5,0l-2.8,0.5l-0.8,1.5
		l0,0.9l-0.6,2L221.9,362.8z"/>
	<path id="BR" class="st25" d="M230.1,377.1l2.1-2.5l1.8-1.7l1.1-0.7l1.3-1l0-1.4l-0.8-1l-0.8,0.3l0.3-1l0.2-1v-0.9l-0.6-0.3
		l-0.6,0.3l-0.6-0.1l-0.2-0.7l-0.1-1.6l-0.3-0.5l-1.1-0.5l-0.6,0.3l-1.7-0.3l0.1-2.3l-0.5-0.9l0.5-0.3l-0.2-1l0.4-0.7l0.3-1.3
		l-0.4-1l-0.9-0.5l-0.2-0.6l0.2-0.9l-3-0.1l-0.6-1.9l0.5,0l0-0.7l-0.3-0.5l-0.1-0.9l-0.9-0.5l-1,0l-0.7-0.5l-1.1-0.3l-0.6-0.6
		l-1.8-0.3l-1.7-1.4l0.1-1.1l-0.2-0.6l0.2-1.2l-2.1,0.3l-0.8,0.6l-1.4,0.6l-0.4,0.5l-0.8,0l-1.2-0.1l-0.9,0.3l-0.7-0.2l0.1-2.4
		l-1.3,0.9l-1.4,0l-0.6-0.9l-1-0.1l0.3-0.7l-0.9-1l-0.7-1.4l0.4-0.3v-0.7l1-0.5l-0.2-0.9l0.4-0.6l0.1-0.7l1.8-1.1l1.3-0.3l0.2-0.2
		l1.4,0.1l0.7-4.3l0-0.7l-0.2-0.9l-0.7-0.6l0-1.1l0.9-0.3l0.3,0.2l0.1-0.6l-0.9-0.2l0-1l3.1,0l0.5-0.5l0.4,0.5l0.3,0.9l0.3-0.2
		l0.9,0.8l1.2-0.1l0.3-0.5l1.2-0.4l0.7-0.3l0.2-0.7l1.1-0.5l-0.1-0.3l-1.3-0.1l-0.2-1l0.1-1.1l-0.7-0.4l0.3-0.1l1.2,0.2l1.3,0.4
		l0.5-0.4l1.1-0.2l1.8-0.6l0.6-0.6l-0.2-0.4l0.8-0.1l0.4,0.4l-0.2,0.7l0.5,0.2l0.4,0.7l-0.4,0.6l-0.3,1.3l0.4,0.8l0.1,0.7l1,0.7
		l0.8,0.1l0.2-0.3l0.5-0.1l0.7-0.3l0.5-0.4l0.9,0.1l0.4-0.1l0.9,0.1l0.1-0.3l-0.3-0.3l0.2-0.5l0.6,0.1l0.7-0.2l0.9,0.3l0.7,0.3
		l0.5-0.4l0.3,0.1l0.2,0.4l0.8-0.1l0.6-0.6l0.5-1.2l0.9-1.4l0.5-0.1l0.4,0.9l0.9,2.7l0.8,0.3l0,1.1l-1.2,1.3l0.5,0.5l2.8,0.2
		l0.1,1.6l1.2-1l2,0.6l2.6,1l0.8,0.9l-0.3,0.9l1.8-0.5l3.1,0.8l2.4-0.1l2.3,1.3l2,1.8l1.2,0.5l1.4,0.1l0.6,0.5l0.5,2l0.3,1l-0.6,2.6
		l-0.8,1l-2.2,2.2l-1,1.8l-1.2,1.4l-0.4,0l-0.4,1.2l0.1,3l-0.4,2.5l-0.2,1.1l-0.5,0.6l-0.3,2.2l-1.6,2.2l-0.3,1.7l-1.3,0.7l-0.4,1
		l-1.7,0l-2.5,0.7l-1.1,0.8l-1.8,0.5l-1.9,1.4l-1.3,1.7l-0.2,1.3l0.3,1l-0.3,1.8l-0.4,0.9l-1.1,1l-1.8,3.2l-1.4,1.5l-1.1,0.9
		l-0.7,1.8l-1,1.1l-0.4-1.1l0.7-0.9l-0.9-1.3l-1.2-1l-1.6-1.2l-0.6,0.1l-1.6-1.4L230.1,377.1z"/>
	<path id="BS" class="st25" d="M198.7,288.9l-0.4,0.1l-0.4-1l-0.6-0.5l0.3-1.1l0.5,0.1l0.6,1.4L198.7,288.9z M198.3,284l-1.7,0.3
		l-0.1-0.6l0.7-0.1l1,0.1L198.3,284z M199.6,284l-0.3,1.2L199,285l0-0.9l-0.7-0.7l0-0.2L199.6,284z"/>
	<path id="BT" class="st25" d="M465.9,281.9l0.6,0.6l-0.1,1.1l-1.3,0.1l-1.3-0.1l-1,0.3l-1.4-0.7l0-0.4l1-1.3l0.9-0.5l1.1,0.4l0.8,0
		L465.9,281.9z"/>
	<path id="BW" class="st25" d="M361.6,356.9l0.3,0.3l0.5,1l1.8,1.8l0.7,0.2l0,0.6l0.5,1.1l1.2,0.3l1,0.8l-2.2,1.3l-1.4,1.3l-0.5,1.1
		l-0.5,0.6l-0.9,0.1l-0.3,0.8l-0.2,0.5l-1,0.4l-1.3-0.1l-0.8-0.5l-0.7-0.2l-0.8,0.4l-0.4,0.8l-0.7,0.5l-0.8,0.8l-1.1,0.2l-0.3-0.6
		l0.1-1.1l-0.9-1.6l-0.4-0.3v-5l1.6-0.1l0-6l1.2-0.1l2.4-0.6l0.6,0.7l1-0.6l0.5,0l0.9-0.4l0.3,0.1L361.6,356.9z"/>
	<path id="BY" class="st25" d="M358.2,226.4l1.5,0l1.7-1l0.4-1.5l1.3-0.9l-0.1-1.2l1-0.5l1.7-1.1l1.7,0.7l0.2,0.7l0.8-0.3l1.5,0.7
		l0.2,1.3l-0.3,0.7l1,1.8l0.6,0.5l-0.1,0.5l1.1,0.5l0.5,0.7l-0.6,0.6l-1.3-0.1l-0.3,0.2l0.4,0.9l0.4,1.6l-1.4,0.2l-0.5,0.6l-0.1,1.3
		l-0.6-0.2l-1.4,0.1l-0.4-0.6l-0.6,0.4l-0.6-0.4l-1.2-0.1l-1.8-0.6l-1.6-0.2l-1.2,0.1l-0.9,0.7l-0.8,0.1l0-1.1l-0.5-1.2l0.9-0.5l0-1
		l-0.4-1L358.2,226.4z"/>
	<path id="BZ" class="st25" d="M180.4,298.9l0-0.2l0.2-0.1l0.3,0.2l0.6-1l0.3,0l0,0.2l0.3,0l0,0.5l-0.3,0.7l0.1,0.3l-0.2,0.6
		l0.1,0.2l-0.2,0.8l-0.3,0.4l-0.3,0.1l-0.3,0.6h-0.5l0.1-1.8L180.4,298.9z"/>
	<path id="CA" class="st25" d="M165.5,120.6l-0.1-3.3l2,0.3l0.9,0.5l1.9,2.8l-0.4,2.8l-2.3,1.6l-1.3-1.8L165.5,120.6z M173,127.7
		l0.2-0.8l-1.1-1.4l-3.2-0.1l0.4,2.1l3,0.5L173,127.7z M193.4,154.1l1.7,2.9l0.5,0.3l1.7-0.7l1.7,0.1l1.7,0.2l-0.1-1.5l-2.7-3
		l-3.6-0.6l-0.8,0.4L193.4,154.1z M156.6,118.8l-1.5,2.4l3.5,0.3l2.6,2.5l2.6,0.8l-0.6-3.2l-1.2-3.8l-4.3-3l-3.1-1.1l0.1,3.2
		L156.6,118.8z M171.2,113.1l2.9-0.1l-1.3,2.3l0,3l1.7,3.2l3.3,1l2.8-0.6l2.9-6l2.2-2.5l-1.9-2.8l-1.2-6l-2.6-1.8l-2.7-2.1l-2-5.4
		l-3.7,0.5l0.7,2.3l-1.6,0.7l-1.1,3l-1.1,4.2l1,4.1L171.2,113.1z M135.3,143.1l2.2,1.1l7.1-0.7l-3.3,2.7l0.2,1.9l2.4-0.1l4-2.6
		l5.3-0.9l1-2.9l-0.3-3.1l-1.7-0.3l-1.4,1.1l-0.6-2.3l-0.5-3.2l-1.6-0.8l-1.4,2.5l2.3,6.2l-2.8-0.5l-2.8-3.8l-4.4-2.3l-1.5,1.9
		L135.3,143.1z M148,119.4l-2.1-1.6l-0.8-0.4l-1.6,2.4l0,1.1l2.6,0L148,119.4z M147.2,126.4l0.5-2.2l-2.2-1.2l-2.3,0.8l-1.3,2.4
		l2.3,2.4L147.2,126.4z M163.5,145.1l2.6-0.6l0.7-4.6l-0.1-3.4l-1.2-3.1l-0.1,0.9l-2.2-0.4l-2.4,2.3l-1.7-0.2l0.1,5l2.6-0.5l0,3.6
		L163.5,145.1z M161.7,170.8l-2.8-2.2l-2.7-2.4l-0.5-3.5l-1-5l-1.8-2.2l-1.6-0.9l-1.4,0.8l1.1,5.4l-0.8,2.1l-1.3-5.1l-1.4-1.8
		l-1.8,2.7l-2.2-2.7l-3.5,1.6l0.8-2.5l-1.6-1.1l-4.2,3.3l-1.1,2.1l-1.3,3.8l2.8,1.3l2.4-0.1l-3.7,1.9l0.8,1.8l2.2,0.1l3.4-0.4
		l3.1,1.1l-2.1,0.8l-2.2-0.2l-2.4,0.8l-1.1,0.5l1.9,3.6l1.4-0.5l2.2,1.2l0.9,2.1l2.8-0.4l4-0.7l3-1.5l1.8-0.3l2.7,1.2l2.9,0.7
		l0.5-1.6l-1-1.7l2.6-0.4L161.7,170.8z M166.1,170.2l-1.1,2l-1.4,1.4l2.2,2l1.3-0.5l2.1,1.3l1-1.5l-1-1.7l-0.5-0.9l-0.9-0.8
		L166.1,170.2z M156.1,153.7l-1.2-1.2l-2.1,0.2l-0.5,0.8l2.5,3.8L156.1,153.7z M172.3,161.1l1.7-3.9l1.9-1l2.4-4.9l-3-1.4l-3.3-0.2
		l-1.6,1.6l-0.8,2.4l0,2.7l1,4.6L172.3,161.1z M181.9,148.1l3.2-0.1l4.5-0.9l2,0.7l2.4-1.3l1-1.6l-0.4-2.5L193,140l-2.6-0.5
		l-3.2,0.5l-2.5,1.4l-2.3-0.5l-2.1-0.3l-1-1.5l-1.8-1.5l0.4-2.5l-1.4-2.2l-3.1,0l-1.8-2.2l-3.3-0.5l-0.6,2.9l1.8,2.1l3.3,0.8
		l1.6,2.9l0.2,3.2l0.5,3.4l4.2,1.9L181.9,148.1z M131.8,137.8l2.9-2.8l1.5-0.3l1.2-2.4l0.2-5.5l-2.2,1.1l-2.4-0.1l-3.2,4.6l-2.7,5.1
		l2.1,1.4L131.8,137.8z M172.5,146.9l0.9-2.3l-0.6-1.9l-1.4-2.2l-2.3,1.7l-0.8,2.8l1.9,1.6L172.5,146.9z M167.8,153.4l-0.4-1.6
		l-2.8,0.7l-1.9-1.2l-1.9,2.7l1.7,3.5l-3.2-0.7l0,1.7l3.9,4l1.1,1.9l1.5,0.4l2.6-1.9l0.3-4.6l-2.4-2.3L167.8,153.4z M126.1,240
		l-0.7-1.3l-1.6-1l-0.8-1.2l-0.5-0.8l-1.5-0.3l-1-0.4l-1.7-0.5l-0.1,0.6l0.6,1.3l1.6,0.4l0.3,0.7l1.4,0.8l0.5,0.9l2.6,1.1L126.1,240
		z M194.7,196.2l-1.1-1.2l-1.2,0.3l-0.1-1.7l-1.8-1.1l-1.7-1.3l-0.9-1l-0.8,0.6l-0.3-1.7l-1.1-0.3l-0.5,3.5l-0.2,2.9l-1.4,1.8
		l2.1-0.3l0.5,2.1l2.2-1.8l1.6-1.9l0.9,1.6l2.5,0.9L194.7,196.2z M126.8,166.7l4.2-2.4v-2.2l2-3.6l3.9-3.8l2-1.4l-1.7-2.4l-1.5-1.7
		l-4-0.3l-2.3-1.2l-5.3,0.9l1.5,3.5l-1.4,3.6l-1.1,3.9l-0.7,2.2l3.6,2.6L126.8,166.7z M202.4,182l0.2-0.6l0-1.8l-1.2-1.2l-1.4,0.6
		l-0.7,2.3l0.4,2l1.8-0.2L202.4,182z M215.8,186.3l2.5,3.7l1.9,1.6l2.8-4.4l0.5-2.8l-2.5-0.3l-2.3-3.8l-2.5-0.9l-3.7-2.8l2.9-2
		l-1.5-4.2l-1.4-1.9l-3.8-1.9l-1.6-3.1l-2.9,1.1l-0.2-2.2l-2.2-2.4l-3.5-2.7l-1.5,2.1l-3.1,1.5l0.2-3.4l-2.7-5.7l-4,2.3l-1.5,4.3
		l-1.2-3.3l1.2-3.6l-4.1,1.5l-1.6,2.2l-1.2,4.7l0.5,5.1l2.2,0l-1.6,2.2l1.3,1.7l2.6,0.7l3.3,1.4l5.7,1l2.9-0.6l0.8-1.4l1.2,1.6
		l1.4,0.3l1.7,2.8l-1,1.1l3.2,1.5l2.4,2.1l0.6,1.4l0.4,1.8l-2,3.9l-0.6,1.9l0.5,1.4l-3.2,0.5l-3,0.1l-1,2.7l1.3,1.3l4.6-0.6l0-1.1
		l2.3,1.8l2.4,1.8l-0.6,1l1.9,1.7l3.4,2l4.3,1.3l-0.3-1.2l-1.6-2.1l-2.2-3l4,2.8l2,0.9l0.5-2.5l-1-3.5l-0.7-1l-2.1-1.7l-1.7-2.2
		l0.2-2.2L215.8,186.3z M178.7,95.3l1.3,4.1l2.8,3.3l5.5-0.6l3.6,1.1l-2.5,3.4l-1.2-1l-4.3-0.4l0.7,4.7l2.2,3.4l-0.5,2.9l-2.8,1.9
		l-1.3,3.1l2.6,1.5l2.2,4.8l-4.2-3.2l-1,0.5l0.8,5.3l-2.9,1.6l0.2,3.3l3,0.4l2.3,0.8l4.6-1l4.1,1.8l4.2-4l0-1.7l-2.7,0.3l-0.2-1.6
		l2.2-2.2l0.7-2.9l2.4-2.2l1.5-2.7l-1.3-4l1.1-1.5l-2.2-1.1l4.8-0.9l1-1.8l3.3-1.5l2.7-7.6L214,99l3.7-6.3l-3.4,0.1l1.4-2.4l3.8-2.2
		l3.9-5l0.1-3.2l-2.9-3.4l-3.4-1.6l-4.2-1l-3.4-0.8l-3.4-0.8l-4.6,2.2l-0.8-1.4l-4.8,0.6l-2.8,1.4L191,77l-1.2,6.6l-1.7-3.4l-2-0.6
		l-2.3,4.5l-3.1,1.9l-1.8,0.4l-2.3,2.2l0.3,3.7L178.7,95.3z M220.6,244.5l-0.6-1.1l-0.6,0.7l0.4,0.8l2,1l0.6-0.1l0.8-0.9l-1.5,0.1
		L220.6,244.5z M188.5,200.7l0.3,0.9l1.1,0.1l1.8-1.9l0-0.7l-2.2,0L188.5,200.7z M223.5,238.1l-1.6-1l-2.1-0.6l-0.5,0.2l1.5,1.1
		l2,0.8l0.8,0L223.5,238.1z M237.5,240.8l-0.2-1.3l-1.1,0.4l0.5-1.8l-1.6-0.7l-0.7,0.6l-1.4-0.7l0.6-0.9l-1.1-0.5l-1,0.8l1-2.2
		l0.8-1.6l0.3-0.7l-0.7-0.1l-1.4,0.9l-1,1.4l-1.6,3.9l-1.3,1.4l0.7,0.6l-1,0.8l0.2,0.7l3.1,0.1l1.7-0.1l1.5,0.6l-1.1,1.1l0.9,0.1
		l1.8-2l0.4,0.3l-0.3,1.9l1,0.4l0.7-0.1l0.7-2L237.5,240.8z M225.6,243.5L224,246l-2.6,0.3l-2-1.1l-0.5-1.7l-0.5-2.5l1.5-1.6
		l-1.4-1.2l-2.4,0.2l-3.3,2l-2.5,3.1l-1.3,0.4l1.8-2.1l2.3-3.1l2-1.1l1.3-1.8l1.6-0.2l2.4,0l3.4,0.5l2.7-0.4l2-2l2.6-0.9l1.1-0.9
		l1.1-1l-0.1-2.9l-0.6-1l-1.2-0.4l-0.6-2.3l-1-0.9l-2.5-0.7l-1.4-1.6l-2.1-1.6l0.6-1.8l-1.7-3.5l-2.1-3.9l-1.2-2.8l-1,1.5l-1.5,3.4
		l-2.3,1.7l-1.1-1.8l-1.4-0.5l-0.5-3.9l0-2.7l-2.8-0.2l-0.5-1.3l-1.9-1.9l-1.5-1.1l-1.3,0.9l-1.6-0.3l-2.7-0.9l-1.1,0.8l0.5,5.2
		l0.7,2.9l-1.9,3.2l1.9,2.3l1.1,2.5l0.1,1.9l-0.9,2l-1.8,1.9l-2.5,1.3l1.1,1.4l0.8,4.2l-0.9,2.6l-1.2,0.8l-2.3-2.4l-1.1-2.9
		l-0.5-2.7l0.3-2.4l-1.7-0.3l-2.6-0.2l-1.7-1.2l-2-0.8l-1.1-1.3l-1.6-1.1l-2.9-1.3l-2.2,0.6l-0.7-2.2l-0.7-2.8l-2.3-0.5l0.1-3.6
		l0.6-2.5l1.7-3.7l1.9-2.8l1.8-0.4l0.1-2.3l1.2-1.5l2.3-0.2l1.8-2.5l0.5-1.6l1.5-3.2l0.5-2l1.6,1.2l2.2-0.6l3.1-2.8l0.2-2l-1.1-2.2
		l1.2-2.3l-0.1-2.2l-2.1-2.2l-2.3-0.7l-2.2-0.3l-0.1,4.9l-1.1,3.7l-1.6,3l-1.5-2.8l0.5-3.2l-1.9-2.8l-2.1,3.4l0-4.5l-2.9-0.9
		l1.4-2.3l-2.1-5.4l-1.6-2.2l-2.1-0.8l-1.9,3.6l-0.1,5.3l1.8,1.9l1.7,2.8l-0.7,4.3l-1.3-0.1l-1,3.3l0-3.9l-2.4-1.5l-1.4,0.7l0.2,2.6
		l-2.3-0.1l-2.4,0.7l-2.8-1.9l-1.8,0.3l-1.6-2.3l-1.3-1l-1.3,0.4l-1.9,0.2l-1,1.5l1.6,1.8l-1.7,2.1l-1.7-2.5l-1.3,0.7L142,181
		l-2.9-0.9l2.2-2.1l-2.1-2.2l-1.5,0.3l-2.2-0.7l-3.7-1.6l-2.4-1.9l-1.9-0.3l-0.6,1.3l-1.9,0.7l-0.2-3.5l-2.1,3.1l-2.7-4.1l-1.1-0.5
		l-0.4,2.2l-1.2,1.1l-1.1-1.9l-2.6,1.2l-2.4,2l-2.3-0.6L107,174l-1.4,1.8l-1.6-0.4l-2.5-2.1l-2.9-1.1l0,15.6l0,20l1.6,0.1l1.5,0.9
		l1.1,1.4l1.4,2l1.5-1.7l1.6-1l0.8,1.6l1.1,1.3l1.4,1.4l1,2.1l1.6,3.3l2.7,1.8l0,1.8l-0.9,1.3l0,1.4l1.9,1.9l0.3,2.1l2,1.1l-0.2,1.6
		l0.9,2.2l2.9,1l1.1,1.1l3.1,2.4l0.2,0h4.5h4.7h1.6h4.8h4.7h4.7h4.7h5.4h5.4h3.3l0-0.9l0.5,0l0.3,1.3l0.5,0.4l1.1,0.1l1.6,0.4
		l1.5,0.7l1.3-0.3l1.9,0.6l0.6-0.9l0.9-0.4l0.3-0.6l0.4-0.3l1.5,0.5l1.1,0.1l0.4,0.3l0.5,1.3l1.8,0.4l-0.3,0.7l0.6,0.7l-0.3,0.9
		l0.7,0.3l-0.3,0.8l0.4,0.1l0.3-0.3l0.3,0.5l1.2,0.3l1.2,0l1.3,0.2l1.4,0.4l0.5,0.7l1,1.7l-0.5,0.7l-1.3-0.3l-0.8-1.4l0.2,1.4
		l-0.8,1.2l0.1,1l-0.1,0.6l-1,0.7l-0.7,1.2l-0.3,0.7l0.9,0.1l1.2-0.7l0.7-0.6l0.5-0.1l0.9,0.2l0.4-0.3l0.8-0.3l1.4-0.3l0,0l0,0
		l-0.1-0.6l-0.1,0l-0.5,0.1l-0.6-0.2l0.5-0.7l0.5-0.3l1.1-0.3l1.3-0.3l0.7,0.4l0.4-0.5l0.5-0.3l0.3,0.2l0,0l1.6-1.5l0.7-0.4l2.4,0
		h2.9l0.2-0.6l0.5-0.1l0.7-0.3l0.6-1l0.5-1.8l1.2-1.7l0.5,0.6l1.1-0.4l0.7,0.7v3.1l1,1.3l1.8-0.3l2.5-0.1l-2.7,1.8l0.1,1.9l1.2,0.2
		l1.8-1.6l1.6-0.9l3.5-1.3l2-1.5l-1-0.8L225.6,243.5z M195.4,203.4l0.6-1.8l-0.4-0.7l-0.6-0.1l-0.6,1l-0.1,0.2l0.4,1L195.4,203.4z
		 M115,224L115,224l0.9-1.3L115,224z M113.1,225.8l-1.5,0.2l-0.7-0.3l-0.1,0.9l0.3,1.2l0.8,0.8l0.6,1.2l1,1.2l0.6,0l-1.4-2.1
		L113.1,225.8z"/>
	<path id="CD" class="st25" d="M369.8,321.8l-0.1,1.8l0.6,0.2l-0.5,0.6l-0.6,0.4l-0.6,0.8l-0.3,0.7l-0.1,1.3l-0.4,0.6l0,1.2
		l-0.5,0.4l-0.1,0.9l-0.2,0.1l-0.1,0.9l0.4,0.7l0.1,1.9l0.3,1.4l-0.2,0.8l0.3,0.9l0.9,0.9l0.9,2l-0.6-0.2l-2.1,0.3l-0.4,0.2l-0.5,1
		l0.4,0.7l-0.3,1.9l-0.2,1.6l0.4,0.3l1.1,0.6l0.4-0.3l0.1,1.7l-1.2,0l-0.6-0.9l-0.6-0.7l-1.2-0.2l-0.4-0.8l-1,0.5l-1.3-0.2l-0.5-0.7
		l-1-0.1l-0.7,0l-0.1-0.5l-0.5,0l-0.7-0.1l-1,0.2l-0.7,0l-0.4,0.1l0.1-1.9l-0.5-0.6l-0.1-1l0.2-1l-0.3-0.6l0-1l-1.9,0l0.1-0.6
		l-0.8,0l-0.1,0.3l-1,0.1l-0.4,0.9l-0.2,0.4l-0.9-0.2l-0.5,0.2l-1,0.1l-0.6-0.8l-0.4-0.5l-0.5-0.9l-0.4-1.2l-4.7,0l-0.6,0.2l-0.5,0
		l-0.7,0.2l-0.2-0.5l0.4-0.2l0.1-0.7l0.3-0.4l0.6-0.3l0.4,0.2l0.5-0.6l0.9,0l0.1,0.4l0.6,0.3l0.9-1l0.9-0.8l0.4-0.5l-0.1-1.3
		l0.7-1.5l0.7-0.8l1-0.8l0.2-0.5l0-0.6l0.3-0.5l-0.1-0.9l0.2-1.4l0.3-1l0.5-0.8l0.1-0.9l0.1-1.1l0.6-0.8l0.8-0.5l1.3,0.5l1,0.6
		l1.2,0.2l1.2,0.3l0.5-0.9l0.2-0.1l0.7,0.2l1.8-0.8l0.6,0.3l0.5,0l0.2-0.4l0.6-0.1l1.2,0.2l1,0l0.5-0.2l1,1.3l0.7,0.2l0.4-0.3
		l0.7,0.1l0.9-0.3l0.4,0.7L369.8,321.8z"/>
	<path id="CF" class="st25" d="M345.2,315.7l1.3-0.1l0.3-0.4l0.3,0l0.4,0.4l2-0.6l0.7-0.6l0.8-0.6l-0.2-0.6l0.4-0.1l1.5,0.1l1.5-0.7
		l1.1-1.7l0.8-0.6l1-0.3l0.2,0.7l0.9,1v0.6l-0.3,0.7l0.1,0.5l0.5,0.5l1.2,0.7l0.9,0.6l0,0.5l1.1,0.8l0.7,0.7l0.4,0.9l1.2,0.6
		l0.3,0.5l-0.5,0.2l-1,0l-1.2-0.2l-0.6,0.1l-0.2,0.4l-0.5,0l-0.6-0.3l-1.8,0.8l-0.7-0.2l-0.2,0.1l-0.5,0.9l-1.2-0.3l-1.2-0.2l-1-0.6
		l-1.3-0.5l-0.8,0.5l-0.6,0.8l-0.1,1.1l-1-0.1l-1.1-0.3l-0.9,0.8l-0.8,1.5l-0.2-0.5l-0.1-0.7l-0.7-0.5l-0.6-0.8l-0.1-0.6l-0.7-0.8
		l0.1-0.5l-0.2-0.7l0.1-1.2l0.4-0.3L345.2,315.7z"/>
	<path id="CG" class="st25" d="M341.6,334.8l-0.6-0.5l-0.5,0.3l-0.6,0.7l-1.3-1.7l1.2-0.9l-0.6-1l0.5-0.4l1.1-0.2l0.1-0.7l0.8,0.8
		l1.4,0.1l0.5-0.7l0.2-1l-0.2-1.2l-0.7-0.9l0.7-1.8l-0.4-0.3l-1.2,0.1l-0.4-0.8l0.1-0.7l2,0.1l1.3,0.4l1.3,0.4l0.1-0.8l0.8-1.5
		l0.9-0.8l1.1,0.3l1,0.1l-0.1,0.9l-0.5,0.8l-0.3,1l-0.2,1.4l0.1,0.9l-0.3,0.5l0,0.6l-0.2,0.5l-1,0.8l-0.7,0.8l-0.7,1.5l0.1,1.3
		l-0.4,0.5l-0.9,0.8l-0.9,1l-0.6-0.3l-0.1-0.4l-0.9,0l-0.5,0.6L341.6,334.8z"/>
	<path id="CH" class="st25" d="M336.3,242.3l0.1,0.4l-0.2,0.6l0.7,0.4l0.8,0.1l-0.1,0.9l-0.7,0.4l-1.2-0.3l-0.3,0.9l-0.7,0.1
		l-0.3-0.4l-0.9,0.8l-0.8,0.1l-0.7-0.5l-0.5-1l-0.8,0.4l0-1l1.2-1.3l-0.1-0.6l0.7,0.2l0.4-0.4l1.3,0l0.3-0.5L336.3,242.3z"/>
	<path id="CI" class="st25" d="M316.6,319.5l-0.7,0l-1.1-0.3l-1,0l-1.9,0.3l-1.1,0.5l-1.6,0.6l-0.3,0l0.1-1.3l0.2-0.2l0-0.6
		l-0.7-0.7l-0.5-0.1l-0.5-0.4l0.3-0.7l-0.2-0.8l0.1-0.5h0.3l0.1-0.7l-0.1-0.3l0.2-0.2l0.6-0.2l-0.4-1.3l-0.4-0.7l0.1-0.5l0.3-0.1
		l0.2-0.1l0.4,0.2l1.2,0l0.3-0.5l0.3,0l0.5-0.2l0.2,0.7l0.4-0.2l0.7-0.2l0.7,0.3l0.3,0.5l0.7,0.3l0.6-0.4l0.7-0.1l1.1,0.4l0.4,2.3
		l-0.7,1.3l-0.4,1.8l0.7,1.4L316.6,319.5z"/>
	<path id="CL" class="st25" d="M212.8,424.9v6h1.7l1,0.1l-0.5,1.1l-1.4,0.9l-0.8-0.1l-0.9-0.2l-1.1-0.8l-1.7-0.4l-2-1.5l-1.6-1.4
		l-2.2-3l1.3,0.5l2.2,1.8l2.1,1l0.8-1.2l0.5-1.8l1.5-1.1L212.8,424.9z M213.4,361.9l0.6,2.3l1.1-0.2l0.2,0.4l-0.5,1.8l-1.7,0.9
		l0.1,2.9l-0.3,0.6l0.5,0.7l-1.1,1.1l-1,1.7l-0.6,1.6l0.2,1.8l-1,1.9l0.7,3.2l0.4,0.3l0,1.7l-0.9,1.9l0,1.6l-1.2,1.3l0,1.8l0.5,1.9
		l-0.9,0.7l-0.4,1.8l-0.4,2.1l0.3,2.6l-0.6,0.4l0.4,2.5l0.7,0.8l-0.5,0.9l0.7,0.4l0.2,0.8l-0.7,0.4l0.2,1.3l-0.6,3l-0.8,2l0.2,1.2
		l-0.5,1.5l-1.2,1.1l0.1,2.6l0.6,0.9l1.1-0.2l0,1.9l0.7,1.5l3.8,0.3l1.5,0.4l-1.4,0l-0.8,0.6l-1.4,0.9l-0.3,2.5l-0.7,0.1l-1.8-0.9
		l-1.8-1.8l0,0l-2-1.5l-0.5-1.6l0.4-1.5l-0.8-1.7l-0.2-4.1l0.7-2.3l1.7-1.8l-2.4-0.7l1.5-2l0.5-3.7l1.8,0.8l0.8-4.5l-1.1-0.6
		l-0.5,2.7l-1-0.3l0.5-3.1l0.5-3.9l0.7-1.4l-0.5-2l-0.1-2.2l0.7-0.1l1-3.2l1.1-3.1l0.7-2.8l-0.4-2.8l0.5-1.5l-0.2-2.2l0.9-2.2
		l0.3-3.4l0.5-3.6l0.5-3.8l-0.1-2.7l-0.3-2.3l0.8-0.4l0.4-0.8l0.8,1.1l0.2,1.2l0.8,0.7l-0.5,1.6L213.4,361.9z"/>
	<path id="CM" class="st25" d="M341.8,323.8l-0.2-0.1l-0.9,0.2l-1-0.2l-0.7,0.1l-2.6,0l0.2-1.2l-0.6-1l-0.7-0.3l-0.3-0.7l-0.4-0.2
		l0-0.4l0.4-1.1l0.7-1.5l0.5,0l0.9-0.9l0.6,0l0.9,0.6l1.1-0.5l0.1-0.7l0.4-0.6l0.2-0.8l0.8-0.7l0.3-1.1l0.3-0.4l0.2-0.8l0.4-1
		l1.3-1.2l0.1-0.5l0.2-0.3l-0.6-0.6l0.1-0.5l0.4-0.1l0.6,1l0.1,1.1l-0.1,1.1l0.9,1.4l-0.9,0l-0.4,0.1l-0.7-0.2l-0.3,0.7l0.9,0.9
		l0.7,0.3l0.2,0.7l0.5,1.1l-0.2,0.4l-0.8,1.6l-0.4,0.3l-0.1,1.2l0.2,0.7l-0.1,0.5l0.7,0.8l0.1,0.6l0.6,0.8l0.7,0.5l0.1,0.7l0.2,0.5
		l-0.1,0.8l-1.3-0.4l-1.3-0.4L341.8,323.8z"/>
	<path id="CN" class="st25" d="M495.3,297.5l-1.4,0.8l-1.3-0.5l0-1.4l0.8-0.8l1.7-0.5l0.9,0l0.4,0.6l-0.7,0.7L495.3,297.5z
		 M522.7,237l2.7,0.8l1.9,1.7l0.6,2.2h2.4l1.4-0.9l2.6-0.7l-0.8,2.1l-0.6,0.9l-0.5,2.5l-1.1,2.2l-1.9-0.4l-1.4,0.8l0.4,1.9l-0.2,2.6
		l-0.8,0.1l0,1.1l-1-1.3l-0.6,1.2l-2.4,0.9l0.2,1.1l-1.4-0.1l-0.7-0.7l-1.1,1.5l-1.7,1.1l-1.3,1.3l-2.2,0.6l-1.2,1l-1.7,0.6l0.8-0.9
		l-0.3-0.8l1.3-1.4l-0.8-1.1l-1.4,0.7l-1.8,1.4l-1,1.3l-1.5,0.1l-0.8,0.9l0.8,1.4l1.3,0.3l0.1,0.9l1.3,0.6l1.8-1.4l1.4,0.8l1,0.1
		l0.3,1l-2.2,0.5l-0.7,1.1l-1.5,1l-0.8,1.3l1.7,1l0.6,1.9l1,1.7l1.1,1.4l0,1.4l-1,0.5l0.4,1l0.9,0.6l-0.2,1.5l-0.4,1.4l-0.9,0.2
		l-1.2,1.9l-1.3,2.3l-1.5,2.1l-2.2,1.6l-2.2,1.4l-1.8,0.2l-1,0.8l-0.5-0.6l-0.9,0.8l-2.2,0.8l-1.7,0.3l-0.5,1.8l-0.9,0.1l-0.4-1.2
		l0.4-0.7l-2.1-0.5l-0.7,0.3l-1.6-0.4l-0.7-0.7l0.2-1l-1.4-0.3l-0.8-0.6l-1.3,0.9l-1.5,0.2l-1.3,0l-0.8,0.4l-0.8,0.2l0.2,1.9l-0.8,0
		l-0.1-0.4l0-0.7l-1.2,0.5l-0.7-0.3l-1.2-0.6l0.5-1.4l-1-0.3l-0.4-1.6l-1.7,0.3l0.2-2l1.5-1.5l0.1-1.4l0-1.4l-0.7-0.4l-0.5-1
		l-0.9,0.1l-1.7-0.3l0.5-0.7l-0.7-1.1l-1.1,0.8l-1.3-0.4l-1.8,1.1l-1.4,1.3l-1.3,0.2l-0.7-0.5l-0.8,0l-1.1-0.4l-0.9,0.5l-1,1.3
		l-0.1-1.4l-1,0.4l-1.8-0.2l-1.8-0.4l-1.3-0.8l-1.2-0.4l-0.5-0.9l-0.9-0.3l-1.6-1.2l-1.3-0.6l-0.7,0.4l-2.2-1.3l-1.5-1.2l-0.4-2
		l1.1,0.2l0.1-1l-0.6-1l0.2-1.5l-1.7-2.2l-2.6-0.8l-0.5-1.5l-1.2-0.9l-0.3-0.6l-0.2-1.1l0.1-0.8l-1-0.5l-0.5,0.2l-0.4-1.9l0.5-0.5
		l-0.2-0.5l1.5-1l1.1-0.4l1.7,0.3l0.6-1.3l2-0.2l0.6-0.8l2.5-1.1l0.2-0.5l-0.1-1.2l1.1-0.6l-1.4-3.8l3.1-0.9l0.8-0.5l1.1-4.1
		l3.1,0.8l0.9-1l0.1-2.4l1.3-0.2l1.2-1.6l0.6-0.2l0.4,1.7l1.3,1.3l2.3,0.9l1.1,1.9l-0.6,2.7l0.6,1l1.9,0.4l2.1,0.3l1.9,1.4l1,0.2
		l0.7,2l0.9,1.3l1.7-0.1l3.3,0.5l2.1-0.3l1.6,0.3l2.3,1.3h1.9l0.7,0.7l1.8-1.1l2.6-0.7l2.4-0.1l1.8-0.8l1.1-1.2l1.1-0.7l-0.3-0.7
		l-0.5-0.8l0.8-1.4l0.9,0.2l1.6,0.5l1.6-1.2l2.4-0.9l1.2-1.5l1.1-0.7l2.3-0.3l1.2,0.3l0.2-0.8l-1.4-1.6l-1.3-0.7l-1.2,0.9l-1.6-0.4
		l-0.9,0.3l-0.4-1l1.1-2.4l0.8-1.8l1.9,0.9l2.2-1.5l0-1.1l1.4-2.7l0.9-0.8l0-1.4l-0.9-0.6l1.3-1.3l2-0.5l2.1-0.1l2.4,0.8l1.4,1
		l1,2.6l0.6,1.1l0.6,1.5L522.7,237z"/>
	<path id="CO" class="st25" d="M202.1,327.6l-0.7-0.4l-0.8-0.5l-0.5,0.2l-1.3-0.2l-0.4-0.7l-0.3,0l-1.6-0.9l-0.2-0.5l0.6-0.1
		l-0.1-0.8l0.4-0.6l0.8-0.1l0.7-1l0.6-0.8l-0.6-0.4l0.3-0.9l-0.4-1.4l0.3-0.4l-0.2-1.3l-0.6-0.8l0.2-0.8l0.5,0.1l0.3-0.5l-0.4-0.9
		l0.2-0.2l0.8,0.1l1.2-1.1l0.6-0.2l0-0.5l0.3-1.3l0.9-0.7l1,0l0.1-0.3l1.2,0.1l1.2-0.8l0.6-0.4l0.8-0.8l0.6,0.1l0.4,0.4l-0.3,0.5
		l-1,0.3l-0.4,0.8l-0.6,0.5l-0.5,0.6l-0.2,1.1l-0.4,0.9l0.8,0.1l0.2,0.7l0.3,0.3l0.1,0.6l-0.2,0.6l0.1,0.3l0.4,0.1l0.4,0.6l2-0.2
		l0.9,0.2l1.1,1.4l0.6-0.2l1.1,0.1l0.9-0.2l0.6,0.3l-0.3,0.8l-0.3,0.5l-0.1,1.1l0.3,1l0.5,0.5l0.1,0.4l-0.8,0.8l0.6,0.3l0.4,0.6
		l0.5,1.6l-0.3,0.2l-0.3-0.9l-0.4-0.5l-0.5,0.5l-3.1,0l0,1l0.9,0.2l-0.1,0.6l-0.3-0.2l-0.9,0.3l0,1.1l0.7,0.6l0.2,0.9l0,0.7
		l-0.7,4.3l-0.8-0.8l-0.5,0l1-1.6l-1.2-0.7l-0.9,0.1l-0.6-0.3l-0.9,0.4l-1.2-0.2l-0.9-1.6l-0.7-0.4l-0.5-0.7l-1-0.7L202.1,327.6z"/>
	<path id="CR" class="st25" d="M190.1,314.4l-0.9-0.4l-0.3-0.3l0.2-0.3l-0.1-0.3l-0.4-0.4l-0.6-0.3l-0.5-0.2l-0.1-0.5l-0.4-0.3
		l0.1,0.5l-0.3,0.4l-0.4-0.4l-0.5-0.2l-0.2-0.3l0-0.5l0.2-0.5l-0.4-0.2l0.4-0.3l0.2-0.2l1,0.4l0.4-0.2l0.5,0.1l0.3,0.3l0.5,0.1
		l0.4-0.3l0.4,0.9l0.6,0.6l0.7,0.7l-0.6,0.1l0,0.6l0.3,0.2l-0.2,0.2l0.1,0.3l-0.1,0.3L190.1,314.4z"/>
	<path id="CU" class="st25" d="M191.2,289.9l1.4,0.1l1.2,0l1.5,0.6l0.6,0.6l1.5-0.2l0.6,0.4l1.3,1.1l1,0.8l0.5,0l0.9,0.3l-0.1,0.5
		l1.2,0.1l1.2,0.7l-0.2,0.4l-1.1,0.2l-1.1,0.1l-1.1-0.1l-2.3,0.2l1.1-0.9l-0.6-0.4l-1-0.1l-0.5-0.5l-0.4-1l-0.9,0.1l-1.5-0.5
		l-0.5-0.4l-2.1-0.3l-0.6-0.3l0.6-0.4l-1.5-0.1l-1.1,0.9l-0.7,0l-0.2,0.4l-0.8,0.2l-0.7-0.2l0.8-0.5l0.3-0.6l0.7-0.4l0.8-0.3
		l1.2-0.2L191.2,289.9z"/>
	<path id="CY" class="st25" d="M374.7,268.1l1.1-0.8l-1.4,0.6l-1.1,0l-0.2,0.5l-0.1,0l-0.7,0.1l0.4,0.8l0.8,0.2l1.6-0.8l-0.1-0.2
		L374.7,268.1z"/>
	<path id="CZ" class="st25" d="M347.9,239.8l-0.7-0.5l-0.7,0.1l-1.2-0.7l-0.6,0.2l-0.9,1l-1.2-0.8l-0.9-1l-0.8-0.6l-0.2-1l-0.3-0.7
		l1.1-0.5l0.6-0.6l1.1-0.5l0.4-0.5l0.4,0.3l0.7-0.3l0.7,0.8l1.2,0.2l-0.1,0.7l0.9,0.5l0.2-0.6l1.1,0.3l0.2,0.8l1.2,0.1l0.7,1.2
		l-0.5,0l-0.2,0.4l-0.4,0.1l-0.1,0.5l-0.3,0.1l0,0.2l-0.5,0.2l-0.7,0L347.9,239.8z"/>
	<path id="DE" class="st25" d="M336.8,223.5l0,1.1l1.6,0.6l0,1l1.6-0.5l0.9-0.7l1.8,1.1l0.7,0.9l0.4,1.3l-0.4,0.7l0.6,0.9l0.4,1.4
		l-0.1,0.9l0.6,1.6l-0.7,0.3l-0.4-0.3l-0.4,0.5l-1.1,0.5l-0.6,0.6l-1.1,0.5l0.3,0.7l0.2,1l0.8,0.6l0.9,1l-0.6,1.1l-0.6,0.3l0.2,1.5
		l-0.2,0.4l-0.5-0.5l-0.8-0.1l-1.1,0.4l-1.4-0.1l-0.2,0.6l-0.8-0.6l-0.5,0.1l-1.7-0.7l-0.3,0.5l-1.3,0l0.2-1.7l0.8-1.6l-2.3-0.4
		l-0.7-0.6l0.1-1.1l-0.3-0.6l0.2-1.7l-0.3-2.6h1l0.4-1l0.4-2.4l-0.3-0.9l0.3-0.6l1.3-0.1l0.3,0.6l1.1-1.3l-0.4-1l-0.1-1.5l1.2,0.4
		L336.8,223.5z"/>
	<path id="DJ" class="st25" d="M389.1,307.2l0.4,0.5l-0.1,0.7l-0.9,0.4l0.7,0.4l-0.6,0.9l-0.3-0.3l-0.4,0.1l-0.9,0l0-0.5l-0.1-0.4
		l0.5-0.7l0.6-0.7l0.7,0.1L389.1,307.2z"/>
	<path id="DK" class="st25" d="M341.2,221.7l-0.9,2.2l-1.6-1.6l-0.2-1.2l2.3-0.9L341.2,221.7z M338.4,219.3l-0.4,1.1l-0.5-0.3
		l-1.1,2l0.4,1.3l-1,0.4l-1.2-0.4l-0.6-1.5l0-2.9l0.3-0.8l0.5-0.9l1.4-0.2l0.6-0.8l1.3-0.8l-0.1,1.5l-0.5,0.9l0.2,0.8L338.4,219.3z"
		/>
	<path id="DO" class="st25" d="M207.9,295.8l0.2-0.3l1.2,0l0.9,0.4l0.4,0l0.3,0.6l0.9,0l-0.1,0.5l0.7,0.1l0.8,0.6l-0.6,0.7l-0.8-0.4
		l-0.7,0.1l-0.5-0.1l-0.3,0.3l-0.6,0.1l-0.2-0.4l-0.5,0.2l-0.6,1.1L208,299l-0.1-0.5l0-0.5l-0.4-0.5l0.4-0.3l0.1-0.6L207.9,295.8z"
		/>
	<path id="DZ" class="st25" d="M340.1,289.4l-5.4,3.2l-4.6,3.3l-2.2,0.7l-1.8,0.2l0-1.1l-0.7-0.3l-1-0.5l-0.4-0.8l-5.3-3.7l-5.3-3.7
		l-5.9-4.2l0-0.3v-0.1l0-2.1l2.6-1.3l1.6-0.3l1.3-0.5l0.6-0.9l1.8-0.7l0.1-1.4l0.9-0.2l0.7-0.7l2.1-0.3l0.3-0.7l-0.4-0.4l-0.5-2
		l-0.1-1.2l-0.6-1.2l1.5-1.1l1.7-0.3l1-0.8l1.5-0.6l2.7-0.3l2.6-0.2l0.8,0.3l1.5-0.8l1.7,0l0.6,0.5l1.1-0.1l-0.3,1l0.3,1.8l-0.4,1.6
		l-1,1.1l0.1,1.4l1.3,1.1l0,0.5l1,0.7l0.7,3.3l0.5,1.6l0.1,0.8l-0.3,1.5l0.1,0.8l-0.2,1l0.1,1.1l-0.6,0.7l0.9,1.3l0.1,0.7l0.6,1
		l0.7-0.3l1.3,0.8L340.1,289.4z"/>
	<path id="EC" class="st25" d="M194.3,332.7l0.8-1.2l-0.3-0.7l-0.6,0.7l-0.9-0.7l0.3-0.4l-0.3-1.4l0.6-0.2l0.3-1l0.6-1l-0.1-0.6
		l0.9-0.3l1.1-0.6l1.6,0.9l0.3,0l0.4,0.7l1.3,0.2l0.5-0.2l0.8,0.5l0.7,0.4l0.2,1.2l-0.5,1l-1.7,1.6l-1.9,0.6l-1,1.4l-0.3,1.1
		l-0.9,0.6l-0.7-0.8l-0.6-0.2l-0.7,0.1l0-0.6l0.5-0.4L194.3,332.7z"/>
	<path id="EE" class="st25" d="M359.5,215.5l0.2-1.8l-0.6,0.4l-1-1.1l-0.1-1.8l2-0.9l2-0.5l1.7,0.5l1.6-0.1l0.2,0.5l-1.1,1.8
		l0.5,2.8l-0.7,0.9l-1.3,0l-1.4-1.1l-0.7-0.4L359.5,215.5z"/>
	<path id="EG" class="st25" d="M376.3,278.8l-0.4,0.7l-0.3,1.4l-0.4,0.9l-0.4,0.3l-0.5-0.6l-0.7-0.8l-1.1-2.6l-0.2,0.2l0.7,1.9
		l1,1.8l1.2,2.7l0.6,0.9l0.5,1l1.4,1.9l-0.3,0.3l0.1,1.1l1.8,1.5l0.3,0.3h-6.3h-6.1h-6.3v-6.3v-6.3l-0.5-1.5l0.4-1.1l-0.2-0.8
		l0.6-0.9l2.1,0l1.5,0.5l1.6,0.5l0.7,0.3l1.2-0.6l0.6-0.5l1.4-0.2l1.1,0.2l0.4,0.9l0.4-0.6l1.3,0.4l1.2,0.1l0.8-0.5L376.3,278.8z"/>
	<path id="EH" class="st25" d="M300.5,282.1l2,0l4.9,0l0,0l0,0l-4.9,0L300.5,282.1L300.5,282.1L300.5,282.1l-1.1,1.9l-1,0.6
		l-0.6,1.1l0,0.9l-0.4,1l-0.5,0.3l-0.9,1.1l-0.5,1.2l0.1,0.6l-0.5,0.9l-0.6,0.5l-0.1,0.8l-0.1,0.7l0.3-0.6l6.2,0l-0.3-2.4l0.4-0.9
		l1.5-0.2l-0.1-4.4l5.2,0.1v-2.7l0-0.3v-0.1L300.5,282.1z"/>
	<path id="ER" class="st25" d="M388,307.5l-0.5-0.5l-0.6-0.9l-0.7-0.5l-0.4-0.6l-1.4-0.6l-1.1,0l-0.4-0.3l-0.9,0.4l-1-0.7l-0.5,1.2
		l-1.8-0.3l-0.2-0.6l0.7-2.4l0.2-1.1l0.5-0.5l1.2-0.3l0.8-0.9l0.9,1.9l0.4,1.5l0.9,0.8l2.2,1.5l0.9,0.9l0.9,0.9l0.5,0.6l0.8,0.5
		l-0.5,0.4L388,307.5z"/>
	<path id="ES" class="st25" d="M306.9,254.8l0.1-1.5l-0.6-0.9l2.2-1.6l1.9,0.4l2.1,0l1.7,0.4l1.3-0.1l2.6,0.1l0.6,0.8l2.9,1l0.6-0.5
		l1.8,1l1.8-0.3l0.1,1.2l-1.5,1.4l-2,0.4l-0.1,0.7l-1,1.1l-0.6,1.7l0.6,1.2l-0.9,0.9l-0.3,1.3l-1.2,0.4l-1.1,1.5l-2,0l-1.5,0l-1,0.7
		l-0.6,0.7l-0.8-0.2l-0.6-0.7l-0.5-1.1l-1.5-0.3l-0.1-0.7l0.6-0.7l0.2-0.5l-0.5-0.6l0.4-1.3l-0.6-1.2l0.7-0.2l0.1-1l0.3-0.3l0-1.6
		l0.7-0.6l-0.4-1.1l-0.9-0.1l-0.3,0.3l-0.9,0l-0.4-1l-0.6,0.3L306.9,254.8z"/>
	<path id="ET" class="st25" d="M381,303.6l1,0.7l0.9-0.4l0.4,0.3l1.1,0l1.4,0.6l0.4,0.6l0.7,0.5l0.6,0.9l0.5,0.5l-0.6,0.7l-0.5,0.7
		l0.1,0.4l0,0.5l0.9,0l0.4-0.1l0.3,0.3l-0.3,0.6l0.6,0.9l0.6,0.8l0.6,0.6l5.2,1.9l1.3,0l-4.5,4.7l-2.1,0.1l-1.4,1.1l-1,0l-0.4,0.5
		h-1.1l-0.6-0.5l-1.4,0.7l-0.5,0.7l-1.1-0.1l-0.3-0.2l-0.4,0l-0.5,0l-2-1.3h-1.1l-0.5-0.5v-0.9l-0.8-0.3l-0.9-1.7l-0.7-0.4l-0.3-0.6
		l-0.8-0.8l-1-0.1l0.5-0.9l0.8,0l0.2-0.5l0-1.4l0.5-1.7l0.7-0.5l0.2-0.7l0.7-1.2l1-0.8l0.6-1.6l0.3-1.4l1.8,0.3L381,303.6z"/>
	<path id="FK" class="st25" d="M224.5,422.9l1.9-1.5l1.3,0.6l0.9-1l1.3,1.1l-0.5,0.9l-2.1,0.8l-0.7-0.9l-1.3,1.2L224.5,422.9z"/>
	<path id="FI" class="st25" d="M366.3,175.1l-0.2,3l2.4,2.8l-1.5,3.1l1.8,4.5l-1.1,3.2l1.4,2.7l-0.6,2.3l2.3,2.4l-0.6,1.7l-1.5,1.9
		l-3.4,4.2l-2.9,0.3l-2.8,1.2l-2.6,0.7l-0.9-1.7l-1.5-1.1l0.3-3.2l-0.8-3l0.8-2l1.4-2.2l3.6-4l1.1-0.8l-0.2-1.6l-2.2-1.8l-0.5-1.5
		l0-6.3l-2.5-2.9l-2.1-2.1l0.9-1.2l1.8,2.3l2.1-0.2l1.7,1.1l1.5-1.9l0.8-3.3l2.4-1.6l2,1.8L366.3,175.1z"/>
	<path id="FJ" class="st25" d="M605.6,352.8l-0.2,0.8l-0.1,0.1l-1,0.4l-1,0.3l-0.2-0.6l0.8-0.3l0.5-0.1l0.9-0.5L605.6,352.8z
		 M602.4,355.2l-0.7-0.2l-0.6,0.6l0.2,0.7l0.9,0.2l1-0.2l0.3-0.9l-0.5-0.5L602.4,355.2z"/>
	<path id="FR" class="st25" d="M336.2,254.2l-0.5,1.6l-0.7-0.4l-0.4-1.4l0.3-0.8l1-0.8L336.2,254.2z M326.8,235.4l1.1,1.2l0.8-0.2
		l1.4,1.1l0.4,0.2l0.5-0.1l0.7,0.6l2.3,0.4l-0.8,1.6l-0.2,1.7l-0.4,0.4l-0.7-0.2l0.1,0.6l-1.2,1.3l0,1l0.8-0.4l0.5,1l-0.1,0.6
		l0.5,0.8l-0.5,0.7l0.4,1.7l0.9,0.3l-0.2,0.9l-1.4,1.2l-3.1-0.6l-2.3,0.7l-0.2,1.3l-1.8,0.3l-1.8-1l-0.6,0.5l-2.9-1l-0.6-0.8
		l0.8-1.3l0.3-4.4l-1.6-2.4l-1.2-1.2l-2.4-0.9l-0.2-1.7l2-0.5l2.7,0.6l-0.5-2.7l1.5,1l3.7-1.9l0.5-2l1.4-0.5l0.2,0.9l0.7,0
		L326.8,235.4z"/>
	<path id="GA" class="st25" d="M338.6,333.6L337,332l-1-1.3l-1-1.6l0.1-0.5l0.3-0.5l0.4-1.1l0.3-1.2l0.5-0.1l2.3,0l0-1.9l0.7-0.1
		l1,0.2l0.9-0.2l0.2,0.1l-0.1,0.7l0.4,0.8l1.2-0.1l0.4,0.3l-0.7,1.8l0.7,0.9l0.2,1.2l-0.2,1l-0.5,0.7l-1.4-0.1l-0.8-0.8l-0.1,0.7
		l-1.1,0.2l-0.5,0.4l0.6,1L338.6,333.6z"/>
	<path id="GB" class="st25" d="M312.2,224.6l-0.8,1.9l-1.2-0.6l-1,0l0.3-1.4l-0.3-1.5l1.3-0.1L312.2,224.6z M316.4,212.9l-1.7,3.2
		l1.6-0.4l1.7,0l-0.4,2.4l-1.4,2.6l1.6,0.2l0.1,0.3l1.4,3.3l1.1,0.4l1,3l0.5,1l1.9,0.5l-0.2,1.6l-0.8,0.7l0.6,1.3l-1.4,1.3l-2.1,0
		l-2.7,0.7l-0.7-0.5l-1,1.2l-1.5-0.3l-1.1,0.9L312,236l2.3-2.6l1.4-0.5h0l-2.5-0.4l-0.4-1l1.6-0.8l-0.9-1.4l0.3-1.7l2.3,0.2l0,0
		l0.2-1.5l-1.1-1.7l0,0l-1.9-0.5l-0.4-0.7l0.6-1.2l-0.5-0.8l-0.9,1.3l-0.1-2.7l-0.8-1.5l0.6-3l1.2-2.4l1.3,0.2L316.4,212.9z"/>
	<path id="GE" class="st25" d="M386.7,255.5l0.2-0.9l-0.4-1.4l-0.9-0.8l-0.9-0.2l-0.6-0.7l0.2-0.3l1.3,0.4l2.3,0.3l2.2,1l0.3,0.4
		l1-0.3l1.5,0.5l0.5,0.9l1,0.5l-0.4,0.3l0.8,1.1l-0.2,0.2l-0.9-0.1l-1.2-0.6l-0.4,0.3l-2.2,0.3l-1.5-1L386.7,255.5z"/>
	<path id="GF" class="st25" d="M238.1,323.4l-0.6,0.6l-0.8,0.1l-0.2-0.4l-0.4-0.1l-0.5,0.4l-0.7-0.3l0.4-0.7l0.1-0.7l0.3-0.7
		l-0.6-0.9l-0.1-1.1l0.8-1.4l0.5,0.2l1.2,0.4l1.7,1.3l0.3,0.6l-0.9,1.4L238.1,323.4z"/>
	<path id="GH" class="st25" d="M322.8,318l-2.5,0.9l-0.9,0.5l-1.4,0.5l-1.4-0.4l0.1-0.6l-0.7-1.4l0.4-1.8l0.7-1.3l-0.4-2.3l-0.2-1.2
		l0-0.9l2.7-0.1l0.7,0.1l0.5-0.3l0.7,0.1l-0.1,0.5l0.7,0.8v1.2l0.2,1.3l0.4,0.6l-0.3,1.4l0.1,0.8l0.4,1L322.8,318z"/>
	<path id="GL" class="st25" d="M247.3,79.9l5.3-7.7l5.5,0.6l2-5l5.6-1.4l12.6,1.8l9.9,10.5l-2.9,4.7l-6,0.5l-8.5,1.1l0.8,2l5.6-1.3
		l4.8,3.9l3.1-3.4l1.3,4l-1.7,6.2l4-3.9l7.7-4.3l4.7,2.1l0.9,4.6l-6.4,7.1l-0.9,2.2l-5,1.6l3.7,0.4l-1.8,6.5l-1.3,5.4l0.1,8.6
		l1.9,4.7l-2.5,0.3l-2.6,2.2l2.9,3.5l0.4,5.4l-1.7,0.6l2,5.2l-3.5,0.4l1.8,2.3l-0.5,2l-2.2,0.9l-2.2,0l2,3.6l0,2.3l-3.1-2.2
		l-0.8,1.4l2.1,1.3l2.1,3.1l0.6,3.9l-2.8,0.9l-1.2-1.8l-2-2.8l0.5,3.3l-1.8,2.5l4.2,0.2l2.2,0.3l-4.2,4l-4.3,3.5l-4.6,1.5l-1.7,0
		l-1.6,1.6l-2.2,4.3l-3.4,2.8l-1.1,0.2l-2.1,0.9l-2.3,0.9l-1.4,2.3l0,2.6l-0.8,2.3l-2.6,2.8l0.6,2.7l-0.7,2.7l-0.8,3.1l-2.2,0.2
		l-2.3-2.6l-3.2,0l-1.5-1.8l-1.1-3.3l-2.7-4.3l-0.8-2.3l-0.2-3.3l-2.2-3.5l0.6-2.9l-1.1-1.4l1.6-4.9l2.4-1.6l0.6-1.8l0.3-3.5
		l-1.8,1.6l-0.9,0.7l-1.4,0.6l-1.9-1.5l-0.1-3.1l0.6-2.5l1.5-0.1l3.2,1.3l-2.7-3.1l-1.4-1.7l-1.6,0.7L233,163l1.8-4.8l-1-2l-1.3-3.8
		l-1.9-6.1l-2-2.3l0-2.6l-4.2-3.8L221,137l-4.2,0.3l-3.9,0.5l-1.8-2.1l-2.7-4.3l4.1-2.2l3.2-0.4l-6.8-1.9l-3.6-3.1l0.2-3l6-3.9
		l5.8-4l0.6-3.2l-4.3-3.2l1.4-3.7l5.5-6.9l2.3-1.1l-0.7-4.8l3.7-3l4.9-1.8l4.9-0.1l1.7,3.5l4.2-6.4l3.8,4.4l2.2,0.9l3.3,3.6
		l-3.8-6.1L247.3,79.9z"/>
	<path id="GM" class="st25" d="M294.5,306.5l0.2-0.7l1.7-0.1l0.4-0.4l0.5,0l0.6,0.4l0.5,0l0.5-0.3l0.3,0.5l-0.7,0.4l-0.7,0l-0.7-0.3
		l-0.6,0.4l-0.3,0l-0.4,0.2L294.5,306.5z"/>
	<path id="GN" class="st25" d="M307.8,315.2l-0.4,0l-0.3,0.6l-0.5,0l-0.3-0.3l0.1-0.6l-0.7-1l-0.4,0.2l-0.3,0l-0.4,0.1l0-0.6
		l-0.3-0.4l0.1-0.5l-0.3-0.7l-0.4-0.6h-1.3l-0.4,0.3l-0.4,0l-0.3,0.3l-0.2,0.4l-0.8,0.7l-0.7-0.9l-0.6-0.6l-0.4-0.2l-0.4-0.3
		l-0.2-0.7l-0.2-0.3l-0.5-0.3l0.7-0.8l0.5,0l0.4-0.3h0.3l0.2-0.2l-0.1-0.5l0.2-0.2l0-0.5l0.8,0l1.1,0.4l0.3,0l0.1-0.2l0.9,0.1
		l0.2-0.1l0.1,0.6l0.3,0l0.4-0.2l0.3,0.1l0.4,0.4l0.7,0.1l0.4-0.3l0.5-0.2l0.4-0.2l0.3,0l0.3,0.3l0.2,0.4l0.6,0.7l-0.3,0.4l-0.1,0.5
		l0.3-0.2l0.2,0.2l-0.1,0.5l0.5,0.5l-0.3,0.1l-0.1,0.5l0.4,0.7l0.4,1.3l-0.6,0.2l-0.2,0.2l0.1,0.3l-0.1,0.7H307.8z"/>
	<path id="GQ" class="st25" d="M336.1,325.7l-0.3-0.2l0.5-1.8l2.6,0l0,1.9l-2.3,0L336.1,325.7z"/>
	<path id="GR" class="st25" d="M358.5,267.3l0.9,0.7l1.2-0.1l1.2,0.1l0,0.3l0.9-0.2l-0.2,0.6l-2.3,0.2l0-0.3l-1.9-0.4L358.5,267.3z
		 M363.1,255.5l-0.5,1.3l-0.4,0.2l-1-0.1l-0.8-0.2l-1.9,0.5l1.1,1.2l-0.8,0.3H358l-0.8-1.1l-0.3,0.5l0.4,1.2l0.8,1l-0.6,0.4l0.9,0.9
		l0.8,0.6l0,1.1l-0.8-0.6l-0.7,0.1l0.5,1l-0.5,0.1l-0.6-0.4l0.7,2.2h-0.3l-0.3-0.7l-0.3,0l-0.1,0.7l-0.3-0.2l0.1-0.4l-0.3-0.6h-0.4
		l0.1,0.5l-0.1,0.2l-0.3-0.3l-0.2-0.6l0.3-0.3l-0.2-0.4l-0.2-0.2l-0.2-0.1l-0.3-0.5l0.3-0.3l0.2-0.3l0.3,0.1l0.1-0.2l0.3-0.1
		l0.4,0.3l0.3,0.1l0.2-0.3l-0.5,0l-0.3-0.1l-0.7,0.2l-0.7,0l-0.6-0.9l-0.1-0.1l0.1-0.4l-0.8-0.6l-0.1-0.6l0.7-1l0.1-0.7l0.5-0.3
		l0-0.5l1-0.2l0.6-0.5l0.9,0l0.3-0.4l0.3-0.1l1.2,0.1l1.3-0.6l1.1,0.7l1.4-0.2l0-1L363.1,255.5z"/>
	<path id="GT" class="st25" d="M178.9,305.6l-0.8-0.3l-1,0l-0.7-0.3l-0.9-0.7l0-0.5l0.2-0.4l-0.2-0.3l0.8-1.3l2,0l0-0.6l-0.3-0.1
		l-0.2-0.4l-0.6-0.4l-0.6-0.6h0.7v-0.9h1.5l1.5,0l0,1.3l-0.1,1.8h0.5l0.5,0.3l0.1-0.2l0.5,0.2l-0.7,0.6l-0.7,0.5l-0.1,0.3l0.1,0.3
		l-0.3,0.4l-0.4,0.1l0.1,0.2l-0.3,0.2l-0.5,0.4L178.9,305.6z"/>
	<path id="GW" class="st25" d="M297.2,309.9l-0.8-0.7l-0.7-0.1l-0.4-0.5l0-0.2l-0.5-0.3l-0.1-0.3l0.8-0.3l0.5,0.1l0.4-0.2l2.9,0.1
		l0,0.5l-0.2,0.2l0.1,0.5l-0.2,0.2h-0.3l-0.4,0.3l-0.5,0L297.2,309.9z"/>
	<path id="GY" class="st25" d="M226.8,314.2l1,0.6l1,1l0,0.8l0.6,0l0.8,0.8l0.6,0.6l-0.3,1.4l-1,0.4l0.1,0.4l-0.3,0.8l0.7,1.1l0.5,0
		l0.2,0.9l1,1.4l-0.4,0.1l-0.9-0.1l-0.5,0.4l-0.7,0.3l-0.5,0.1l-0.2,0.3l-0.8-0.1l-1-0.7l-0.1-0.7l-0.4-0.8l0.3-1.3l0.4-0.6
		l-0.4-0.7l-0.5-0.2l0.2-0.7l-0.4-0.4l-0.8,0.1l-1.1-1.2l0.4-0.4l0-0.7l1-0.3l0.4-0.3l-0.5-0.6l0.1-0.6L226.8,314.2z"/>
	<path id="HN" class="st25" d="M183.3,306.8l-0.3-0.5l-0.5-0.1l0.1-0.6l-0.2-0.2l-0.3-0.1l-0.7,0.2l-0.1-0.2l-0.5-0.3l-0.3-0.3
		l-0.5-0.1l0.3-0.4l-0.1-0.3l0.1-0.3l0.7-0.5l0.7-0.6l0.2,0.1l0.3-0.3l0.5,0l0.1,0.1l0.2-0.1l0.7,0.1l0.7,0l0.5-0.2l0.2-0.2l0.5,0.1
		l0.4,0.1l0.4,0l0.3-0.1l0.7,0.2l0.3,0l0.5,0.3l0.5,0.4l0.6,0.2l0.4,0.5l-0.5,0l-0.2,0.2l-0.5,0.2h-0.4l-0.3,0.2l-0.3-0.1l-0.3-0.2
		l-0.2,0l-0.2,0.4l-0.2,0l0,0.3l-0.6,0.4l-0.3,0.2l-0.2,0.2l-0.5-0.3l-0.3,0.4l-0.3,0l-0.4,0l0,0.8l-0.2,0l-0.2,0.4L183.3,306.8z"/>
	<path id="HR" class="st25" d="M350.9,246l0.4,0.9l0.5,0.6l-0.6,0.8l-0.7-0.5l-1.1,0l-1.4-0.4l-0.7,0.1l-0.3,0.5l-0.6-0.5l-0.3,0.9
		l0.8,1l0.3,0.7l0.7,0.8l0.6,0.5l0.6,0.9l1.4,0.8l-0.2,0.4l-1.5-0.8l-0.9-0.8l-1.4-0.6l-1.3-1.6l0.3-0.2l-0.7-0.9l0-0.8l-1-0.3
		l-0.5,1l-0.5-0.7l0-0.8l0.1,0l1.1,0.1l0.3-0.4l0.5,0.4l0.6,0l0-0.6l0.5-0.2l0.2-0.9l1.3-0.6l0.5,0.3l1.2,1l1.3,0.4L350.9,246z"/>
	<path id="HT" class="st25" d="M205.6,295.4l1,0.1l1.4,0.3l0.1,0.9l-0.1,0.6l-0.4,0.3l0.4,0.5l0,0.5l-1-0.3l-0.7,0.1l-1-0.1
		l-0.7,0.3l-0.9-0.5l0.1-0.5l1.5,0.2l1.2,0.1l0.6-0.4l-0.7-0.7l0-0.6l-1-0.3L205.6,295.4z"/>
	<path id="HU" class="st25" d="M346.7,243.8l0.5-1.5l-0.3-0.5l0.9,0l0.1-1l0.8,0.6l0.6,0.3l1.3-0.3l0.1-0.5l0.6-0.1l0.8-0.4l0.2,0.2
		l0.7-0.3l0.4-0.6l0.5-0.1l1.7,0.7l0.3-0.2l0.9,0.6l0.1,0.6l-1,0.5l-0.7,1.6l-1,1.6l-1.3,0.4l-1-0.1l-1.2,0.6l-0.6,0.3l-1.3-0.4
		l-1.2-1l-0.5-0.3l-0.3-0.8L346.7,243.8z"/>
	<path id="ID" class="st25" d="M511.7,343.5l-0.7,0l-2.1-1.1l1.5-0.3l0.8,0.5l0.6,0.5L511.7,343.5z M517.6,343.3l-1.4,0.3l-0.2-0.2
		l0.1-0.5l0.7-1l1.6-0.6l0.2,0.3l0,0.5L517.6,343.3z M507.3,340.1l0.6,0.4l1-0.1l0.4,0.7l-1.8,0.3l-1.1,0.2l-0.9,0l0.5-0.9l0.9,0
		L507.3,340.1z M515.2,340.1l-0.2,0.9l-2.4,0.5l-2.1-0.2l0-0.6l1.3-0.3l1,0.5l1.1-0.1L515.2,340.1z M492.6,338l3,0.2l0.3-0.7
		l2.9,0.8l0.6,1l2.4,0.3l1.9,0.9l-1.8,0.6l-1.7-0.6l-1.4,0l-1.6-0.1l-1.5-0.3l-1.8-0.6l-1.2-0.2l-0.7,0.2l-2.9-0.7l-0.3-0.7
		l-1.4-0.1l1.1-1.5l1.9,0.1l1.3,0.6l0.7,0.1L492.6,338z M533.8,337.1l-0.8,1.1l-0.2-1.2l0.3-0.6l0.3-0.5l0.4,0.5L533.8,337.1z
		 M522,332.8l-0.6,0.5l-1.1-0.3l-0.3-0.7l1.6-0.1L522,332.8z M527.1,332.2l0.6,1.2l-1.3-0.6l-1.3-0.1l-0.9,0.1l-1.1-0.1l0.4-0.9
		l1.9-0.1L527.1,332.2z M532.9,329.1l0.4,2.5l1.6,0.9l1.3-1.7l1.8-0.9h1.4l1.4,0.5l1.2,0.6l1.7,0.3l0,5.1l0,5.2l-1.4-1.3l-1.6-0.3
		l-0.4,0.5l-2,0.1l0.7-1.3l1-0.4l-0.4-1.7l-0.8-1.3l-3.1-1.3l-1.3-0.1l-2.4-1.5l-0.5,0.8l-0.6,0.1l-0.4-0.6l0-0.7l-1.2-0.8l1.7-0.6
		l1.1,0l-0.1-0.4l-2.3,0l-0.6-0.9l-1.4-0.3l-0.7-0.8l2.1-0.4l0.8-0.5l2.5,0.6L532.9,329.1z M518.9,325.1l-1.3,1.6l-1.2,0.3l-1.5-0.3
		l-2.6,0.1l-1.4,0.2l-0.2,1.2l1.4,1.4l0.9-0.7l2.9-0.5l-0.1,0.7l-0.7-0.2l-0.7,0.9l-1.4,0.6l1.5,2l-0.3,0.5l1.4,1.8l0,1l-0.8,0.5
		l-0.6-0.6l0.8-1.3l-1.5,0.6l-0.4-0.4l0.2-0.6L512,333l0.1-1.5l-1.1,0.5l0.1,1.8l0.1,2.3l-1,0.2l-0.7-0.5l0.5-1.4l-0.2-1.5l-0.7,0
		l-0.5-1.1l0.7-1l0.2-1.2l0.8-2.4l0.3-0.6l1.3-1.2l1.2,0.5l2,0.2l1.8-0.1l1.6-1.1L518.9,325.1z M524.3,325.6l-0.1,1.4l-0.8-0.2
		l-0.2,1l0.7,0.8l-0.4,0.2l-0.6-1l-0.5-2l0.3-1.3l0.5-0.6l0.1,0.9l0.9,0.1L524.3,325.6z M507.2,324.5l1.8,1.5l-1.9,0.2l-0.5,1.1
		l0.1,1.4l-1.5,1.1l0,1.6l-0.6,2.4l-0.2-0.6l-1.8,0.7l-0.6-1l-1.1-0.1l-0.8-0.5l-1.9,0.6l-0.6-0.8l-1,0.1l-1.3-0.2l-0.2-2.1
		l-0.8-0.4l-0.8-1.3l-0.2-1.4l0.2-1.5l0.9-1l0.3,1l1.1,0.9l1-0.3l1,0.1l0.9-0.8l0.8-0.1l1.5,0.4l1.3-0.3l0.8-2.2l0.6-0.5l0.5-1.8
		h1.8l1.4,0.3l-0.9,1.4l1.2,1.5L507.2,324.5z M488.2,336.5l-1.7,0l-1.3-1.3l-2-1.3l-0.7-1l-1.2-1.3l-0.8-1.2l-1.2-2.2l-1.4-1.3
		l-0.5-1.3l-0.6-1.2l-1.4-1l-0.8-1.3l-1.2-0.9l-1.6-1.7l-0.1-0.8l1,0.1l2.4,0.3l1.4,1.5l1.2,1.1l0.9,0.7l1.5,1.7l1.6,0l1.3,1.1
		l0.9,1.3l1.2,0.7l-0.6,1.3l0.9,0.5l0.6,0l0.3,1.1l0.6,0.9l1.2,0.1l0.8,1l-0.4,2L488.2,336.5z"/>
	<path id="IE" class="st25" d="M311.3,226.5l0.3,1.9l-1.2,2.3l-2.8,1.5l-2.2-0.4l1.3-2.7l-0.8-2.7l2.1-2.1l1.2-1.3l0.3,1.5l-0.3,1.4
		l1,0L311.3,226.5z"/>
	<path id="IL" class="st25" d="M377.5,273l-0.3,0.6l-0.6-0.3l-0.3,1.2l0.4,0.2l-0.4,0.3l-0.1,0.5l0.7-0.3l0,0.7l-0.8,2.9l-1-3.1
		l0.5-0.6l-0.1-0.1l0.4-0.9l0.3-1.4l0.2-0.5l0,0h0.5l0.1-0.3l0.4,0l0,0.8L377.5,273L377.5,273z"/>
	<path id="IN" class="st25" d="M444,267.7l1.7,2.2l-0.2,1.5l0.6,1l-0.1,1l-1.1-0.2l0.4,2l1.5,1.2l2.2,1.3l-1,0.8l-0.6,1.7l1.5,0.7
		l1.5,0.9l2.1,1l2.2,0.2l0.9,0.9l1.2,0.2l1.9,0.4l1.3,0l0.2-0.7l-0.2-1.1l0.1-0.8l1-0.4l0.1,1.4l0,0.4l1.4,0.7l1-0.3l1.3,0.1
		l1.3-0.1l0.1-1.1l-0.6-0.6l1.3-0.2l1.4-1.3l1.8-1.1l1.3,0.4l1.1-0.8l0.7,1.1l-0.5,0.8l1.7,0.3l0.1,0.7l-0.6,0.3l0.1,1.1l-1.1-0.3
		l-2,1.2l0,1l-0.9,1.5l-0.1,0.8l-0.7,1.4l-1.2-0.4l-0.1,1.8l-0.4,0.6l0.2,0.7l-0.8,0.4l-0.8-2.7l-0.4,0l-0.3,1.1l-0.9-0.9l0.5-1
		l0.7-0.1l0.7-1.5l-0.9-0.3l-1.5,0l-1.5-0.2l-0.1-1.2l-0.8-0.1l-1.3-0.8l-0.6,1.2l1.1,0.9l-1,0.6l-0.3,0.6l1,0.5l-0.3,1l0.5,1.3
		l0.2,1.4l-0.2,0.6l-1.1,0l-1.9,0.3l0.1,1.3l-0.8,1l-2.3,1.1l-1.8,1.9l-1.2,1l-1.6,1.1v0.8l-0.8,0.4l-1.4,0.6l-0.7,0.1l-0.5,1.2
		l0.3,2.1l0.1,1.3l-0.7,1.5l0,2.7l-0.8,0.1l-0.7,1.2l0.5,0.5l-1.4,0.5l-0.5,1.1l-0.6,0.5l-1.5-1.5l-0.7-2.2l-0.6-1.6l-0.6-0.8
		l-0.8-1.5l-0.4-2l-0.3-1l-1.4-2.2l-0.7-3.2l-0.5-2.1l0-2l-0.3-1.6l-2.3,1l-1.1-0.2l-2.1-2l0.8-0.6l-0.5-0.7l-1.9-1.5l1.1-1.1l3.5,0
		l-0.3-1.5l-0.9-0.9l-0.2-1.3l-1-0.8l1.7-1.9l1.8,0.1l1.6-1.9l1-1.8l1.5-1.8l0-1.3l1.3-1.1l-1.3-0.9l-0.5-1.3l-0.6-1.7l0.8-0.8
		l2.4,0.5l1.8-0.3L444,267.7z"/>
	<path id="IQ" class="st25" d="M392.8,266.7l1,0.6l0.1,1.1l-0.8,0.7l-0.4,1.5l1.1,1.8l1.9,1l0.8,1.4l-0.3,1.3h0.5l0,1l0.9,1
		l-0.9-0.1l-1.1-0.2l-1.2,1.7l-2.9-0.1l-4.4-3.7l-2.4-1.3L383,274l-0.6-2.3l3.5-2l0.6-2.3l-0.2-1.4l0.9-0.5l0.8-1.2l0.7-0.3l1.8,0.3
		l0.6,0.5l0.8-0.3L392.8,266.7z"/>
	<path id="IR" class="st25" d="M406.3,264.3l1.4-0.4l1.1-1.1l1.1,0.1l0.7-0.4l1.1,0.2l1.7,1l1.3,0.2l1.8,1.7l1.2,0.1l0.1,1.6
		l-0.6,2.4l-0.4,1.4l0.7,0.3l-0.7,1l0.5,1.5l0.1,1.2l1.2,0.3l0.1,1.2l-1.4,1.6l0.8,0.9l0.6,1.1l1.5,0.8l0,1.6l0.8,0.3l0.1,0.8
		l-2.3,0.9l-0.6,2l-3-0.5l-1.7-0.4l-1.8-0.2l-0.7-2.1l-0.8-0.3l-1.2,0.3l-1.6,0.9l-1.9-0.6l-1.6-1.4l-1.5-0.5l-1.1-1.7l-1.2-2.4
		l-0.9,0.3l-1-0.6l-0.6,0.7l-0.9-1l0-1h-0.5l0.3-1.3l-0.8-1.4l-1.9-1l-1.1-1.8l0.4-1.5l0.8-0.7l-0.1-1.1l-1-0.6l-1-2.3l-0.9-1.6
		l0.3-0.6l-0.5-2.3l1.1-0.6l0.2,0.8l0.8,0.9l1.1,0.3l0.6-0.1l1.9-1.5l0.6-0.2l0.5,0.6l-0.5,1l1,1l0.4-0.1l0.5,1.5l1.5,0.4l1.1,1
		l2.2,0.3l2.5-0.5L406.3,264.3z"/>
	<path id="IS" class="st25" d="M298.2,186l-0.4,2.5l1.8,2.6l-2,2.8l-4.6,2.5l-1.4,0.6l-2.1-0.5l-4.4-1.1l1.6-1.6l-3.4-1.8l2.8-0.7
		l-0.1-1.1l-3.3-0.9l1.1-2.5l2.4-0.6l2.5,2.6l2.4-2.1l2,1.1l2.6-2.1L298.2,186z"/>
	<path id="IT" class="st25" d="M345.6,262.3l-0.6,1.6l0.2,0.6l-0.3,1l-1.2-0.7l-0.8-0.2l-2.2-1l0.2-1l1.8,0.2l1.6-0.2L345.6,262.3z
		 M335.7,256.2l0.9,1.5l-0.2,2.7l-0.7-0.1l-0.6,0.7l-0.6-0.5l-0.1-2.5l-0.4-1.2l0.9,0.1L335.7,256.2z M340.7,244l2.3,0.6l-0.2,1.1
		l0.4,1l-1.3-0.3l-1.3,0.8l0.1,1.1l-0.2,0.6l0.5,1.1l1.5,1.1l0.8,1.8l1.8,1.7l1.2,0l0.4,0.5l-0.4,0.4l1.4,0.8l1.2,0.6l1.4,1.1
		l0.2,0.4l-0.3,0.7l-0.9-1l-1.4-0.3l-0.7,1.3l1.1,0.8l-0.2,1.1l-0.7,0.1l-0.8,1.7l-0.7,0.2l0-0.6l0.3-1.1l0.3-0.4l-0.6-1.2l-0.5-1
		l-0.7-0.3l-0.5-0.9l-1-0.4l-0.7-0.8l-1.2-0.1l-1.2-0.9l-1.4-1.4l-1.1-1.2l-0.5-2.1l-0.8-0.3l-1.3-0.7l-0.7,0.3l-0.9,1l-0.7,0.2
		l0.2-0.9l-0.9-0.3l-0.4-1.7l0.5-0.7l-0.5-0.8l0.1-0.6l0.7,0.5l0.8-0.1l0.9-0.8l0.3,0.4l0.8-0.1l0.3-0.9l1.2,0.3l0.7-0.4l0.1-0.9
		l1,0.3l0.2-0.4l1.6-0.4L340.7,244z"/>
	<path id="JM" class="st25" d="M198.7,297.8l1.1,0.1l0.8,0.4l0.3,0.5l-1.1,0l-0.5,0.3l-0.9-0.3l-0.9-0.6l0.2-0.4l0.7-0.1
		L198.7,297.8z"/>
	<path id="JO" class="st25" d="M377.2,273.5l0.3-0.6l1.8,0.7l3.1-2l0.6,2.3l-0.3,0.3l-3.2,0.9l1.6,1.8l-0.5,0.3l-0.3,0.6l-1.2,0.2
		l-0.4,0.7l-0.7,0.6l-1.8-0.3l-0.1-0.3l0.8-2.9l0-0.7l0.2-0.5V273.5z"/>
	<path id="JP" class="st25" d="M533.7,270.2l0.2,0.6L533,272l-0.6-0.6l-0.8,0.4l-0.4,1.1l-1-0.5l0-0.9l0.9-1.1l0.9,0.2l0.6-0.8
		L533.7,270.2z M543.7,264.5l-0.6,1.6l0.3,1l-0.8,1.4l-2,0.9l-2.8,0.1l-2.3,2.2l-1.1-0.7l-0.1-1.4l-2.7,0.4l-1.9,0.9l-1.8,0l1.6,1.4
		l-1.1,3.2l-1,0.8l-0.8-0.7l0.4-1.7l-1-0.5l-0.6-1.3l1.5-0.6l0.8-1.2l1.6-1l1.2-1.3l3.1-0.6l1.7,0.4l1.6-3.5l1.1,0.9l2.3-2l0.9-0.8
		l1-2.5l-0.3-2.3l0.7-1.3l1.7-0.4l0.9,2.9l0,1.7l-1.5,2L543.7,264.5z M548.3,249.9l1.1,0.5l1.1-0.9l0.3,2.4l-2.3,0.6l-1.4,2.1
		l-2.5-1.5l-0.9,2.3l-1.8,0l-0.2-2.1l0.8-1.7l1.7-0.1l0.5-3l0.5-1.7l1.9,2.3L548.3,249.9z"/>
	<path id="KE" class="st25" d="M385.8,328.7l0.9,1.3l-1.1,0.6l-0.4,0.7l-0.6,0.1l-0.2,1.1l-0.5,0.6l-0.3,1l-0.6,0.5l-2.3-1.6
		l-0.1-0.9l-5.7-3.2l-0.3-0.2l0-1.7l0.5-0.6l0.8-1l0.6-1.1l-0.7-1.8l-0.2-0.8l-0.7-1.1l1-0.9l1.1-1l0.8,0.3v0.9l0.5,0.5h1.1l2,1.3
		l0.5,0l0.4,0l0.3,0.2l1.1,0.1l0.5-0.7l1.4-0.7l0.6,0.5h1.1l-1.4,1.8L385.8,328.7z"/>
	<path id="KG" class="st25" d="M433.2,254l0.4-0.9l1-0.3l2.6,0.7l0.2-1.3l0.9-0.5l2.3,0.9l0.6-0.2l2.6,0.1l2.3,0.2l0.8,0.8l1,0.3
		l-0.2,0.5l-2.5,1.1l-0.6,0.8l-2,0.2l-0.6,1.3l-1.7-0.3l-1.1,0.4l-1.5,1l0.2,0.5l-0.5,0.5l-3,0.3l-2-0.7l-1.7,0.2l0.2-1.2l1.7,0.3
		l0.6-0.6l1.2,0.2l2-1.5l-1.9-1.1l-1.1,0.5l-1.2-0.8l1.3-1.4L433.2,254z"/>
	<path id="KH" class="st25" d="M484.5,310.6l-0.6-0.8l-0.8-1.7l-0.4-1.9l1-1.3l2-0.3l1.5,0.2l1.3,0.6l0.7-1.1l1.4,0.6l0.4,1.1
		l-0.2,1.9l-2.7,1.2l0.7,1l-1.7,0.1l-1.4,0.6L484.5,310.6z"/>
	<path id="KP" class="st25" d="M527.4,253.7l0.2,0.4l-0.6-0.1l-0.7,0.7l-0.5,0.7l0.1,1.5l-0.8,0.5l-0.3,0.4l-0.6,0.6l-1.1,0.3
		l-0.7,0.6l-0.1,0.9l-0.2,0.2l0.6,0.3l0.9,0.9l-0.2,0.5l-0.7,0.1l-1.1,0.1l-0.6,0.9l-0.7-0.1l-0.1,0.2l-0.8-0.4l-0.2,0.4l-0.5,0.2
		l-0.1-0.4l-0.4-0.2l-0.4-0.3l0.4-0.9l0.4-0.2l-0.1-0.4l0.4-1.1l-0.1-0.3l-0.9-0.2l-0.7-0.5l1.3-1.3l1.7-1.1l1.1-1.5l0.7,0.7
		l1.4,0.1l-0.2-1.1l2.4-0.9l0.6-1.2L527.4,253.7z"/>
	<path id="KR" class="st25" d="M523.8,261.5l1.4,2.4l0.4,1.3l0,2.2l-0.6,1.1l-1.4,0.4l-1.3,0.8l-1.4,0.2l-0.2-1l0.3-1.4l-0.7-2
		l1.2-0.3l-1.1-1.7l0.1-0.2l0.7,0.1l0.6-0.9l1.1-0.1l0.7-0.1L523.8,261.5z"/>
	<path id="XK" class="st25" d="M353.9,254.4l-0.1,0.4l-0.2,0l-0.1-0.8l-0.4-0.2l-0.3-0.6l0.3-0.5l0.4-0.2l0.2-0.7l0.3-0.1l0.2,0.3
		l0.3,0.1l0.2,0.3l0.3,0.1l0.3,0.4l0.2,0l-0.2,0.5l-0.2,0.3l0.1,0.2l-0.4,0.1L353.9,254.4z"/>
	<path id="KW" class="st25" d="M396.9,278l0.3,0.8l-0.1,0.4l0.5,1.4l-1.1,0l-0.4-0.9l-1.4-0.2l1.2-1.7L396.9,278z"/>
	<path id="KZ" class="st25" d="M433.2,254l-0.9,0.4l-2.1,1.5l-0.7,1.5l-0.6,0l-0.4-1l-2-0.1l-0.3-1.7l-0.8,0l0.1-2.1l-1.9-1.6
		l-2.7,0.2l-1.9,0.3l-1.5-2l-1.3-0.8l-2.4-1.6l-0.3-0.2l-4.1,1.3l0.1,8l-0.8,0.1l-1.1-1.6l-1.1-0.6l-1.8,0.4L404,255l-0.1-0.5
		l0.4-0.9l-0.3-0.7l-1.8-0.7l-0.7-2l-0.9-0.6l-0.1-0.7l1.5,0.2l0.1-1.6l1.3-0.4l1.4,0.3l0.3-2.2l-0.3-1.4l-1.6,0.1l-1.3-0.6l-1.8,1
		l-1.5,0.5l-0.8-0.4l0.2-1.2l-1-1.6l-1.2,0.1l-1.3-1.6l0.9-1.8l-0.5-0.5l1.3-2.7l1.6,1.4l0.2-1.8l3.3-2.7l2.5-0.1l3.5,1.7l1.9,1
		l1.7-1.1l2.5,0l2,1.3l0.5-0.7l2.2,0.1l0.4-1.2l-2.6-1.7l1.5-1.3l-0.3-0.7l1.5-0.7l-1.1-1.8l0.7-0.9l5.9-0.9l0.8-0.7l4-1l1.4-1.1
		l2.8,0.6l0.5,2.8l1.6-0.7l2,0.9l-0.1,1.5l1.5-0.2l4-2.5l-0.6,0.8l2,2.1l3.5,6.5l0.8-1.3l2.2,1.4l2.3-0.6l0.9,0.5l0.8,1.4l1.1,0.5
		l0.7,1l2-0.3l0.8,1.5l-1.2,1.6l-1.3,0.2l-0.1,2.4l-0.9,1l-3.1-0.8l-1.1,4.1l-0.8,0.5l-3.1,0.9l1.4,3.8l-1.1,0.6l0.1,1.2l-1-0.3
		l-0.8-0.8l-2.3-0.2l-2.6-0.1l-0.6,0.2l-2.3-0.9l-0.9,0.5l-0.2,1.3l-2.6-0.7l-1,0.3L433.2,254z"/>
	<path id="LA" class="st25" d="M487.3,304.7l0.5-0.7l0.1-1.4l-1.3-1.4l-0.1-1.6l-1.2-1.3l-1.2-0.1l-0.3,0.6l-0.9,0l-0.5-0.3l-1.7,1
		l0-1.5l0.4-1.8l-1.1-0.1l-0.1-1l-0.7-0.5l0.3-0.6l1.3-1.1l0.1,0.4l0.8,0l-0.2-1.9l0.8-0.2l0.9,1.3l0.7,1.5l1.9,0l0.6,1.5l-1,0.4
		l-0.5,0.6l1.9,1l1.3,1.9l1,1.4l1.2,1.1l0.4,1.1l-0.3,1.6l-1.4-0.6l-0.7,1.1L487.3,304.7z"/>
	<path id="LB" class="st25" d="M377.7,271.9l-0.4,0l-0.1,0.3h-0.5l0.6-1.5l0.8-1.3l0-0.1l0.7,0.1l0.3,0.7l-0.9,0.7L377.7,271.9z"/>
	<path id="LK" class="st25" d="M450.3,315.5l-0.2,1.6l-0.7,0.5l-1.4,0.4l-0.8-1.3l-0.3-2.3l0.7-2.6l1.1,0.9l0.7,1.1L450.3,315.5z"/>
	<path id="LR" class="st25" d="M309,320.5l-0.4,0l-1.6-0.7l-1.4-1.2l-1.3-0.9l-1.1-1l0.4-0.5l0.1-0.5l0.7-0.9l0.7-0.7l0.3,0l0.4-0.2
		l0.7,1l-0.1,0.6l0.3,0.3l0.5,0l0.3-0.6l0.4,0l-0.1,0.5l0.2,0.8l-0.3,0.7l0.5,0.4l0.5,0.1l0.7,0.7l0,0.6l-0.2,0.2L309,320.5z"/>
	<path id="LS" class="st25" d="M366.9,374.8l0.6,0.5l-0.5,0.9l-0.3,0.6l-0.9,0.3l-0.3,0.6l-0.6,0.2l-1.2-1.4l0.8-1.1l0.9-0.7
		l0.7-0.4L366.9,374.8z"/>
	<path id="LT" class="st25" d="M357,225.2l-0.1-0.7l0.2-0.7l-0.7-0.4l-1.6-0.5l-0.3-2.3l1.8-0.9l2.6,0.2l1.6-0.3l0.2,0.6l0.8,0.2
		l1.5,1.4l0.1,1.2l-1.3,0.9l-0.4,1.5l-1.7,1l-1.5,0l-0.4-0.8L357,225.2z"/>
	<path id="LU" class="st25" d="M330.7,236.1l0.3,0.6l-0.1,1.1l-0.5,0.1l-0.4-0.2l0.2-1.4L330.7,236.1z"/>
	<path id="LV" class="st25" d="M354.4,220.5l0.1-2.1l0.8-1.8l1.5-1l1.3,2.2l1.3-0.1l0.3-2.2l1.3-0.5l0.7,0.4l1.4,1.1l1.3,0l0.8,0.7
		l0.1,1.4l0.5,1.7l-1.7,1.1l-1,0.5l-1.5-1.4l-0.8-0.2l-0.2-0.6l-1.6,0.3l-2.6-0.2L354.4,220.5z"/>
	<path id="LY" class="st25" d="M344.6,290.5l-1.1,0.6l-0.9-0.9l-2.5-0.7l-0.7-1.1l-1.3-0.8l-0.7,0.3l-0.6-1l-0.1-0.7l-0.9-1.3
		l0.6-0.7l-0.1-1.1l0.2-1l-0.1-0.8l0.3-1.5l-0.1-0.8l-0.5-1.6l0.8-0.4l0.1-0.8l-0.2-0.8l1.1-0.7l0.5-0.6l0.8-0.5l0.1-1.4l1.9,0.6
		l0.7-0.2l1.3,0.3l2.1,0.8l0.7,1.6l1.4,0.4l2.2,0.8l1.7,0.9l0.8-0.5l0.8-0.8l-0.4-1.4l0.5-0.9l1.1-0.9l1.1-0.3l2.1,0.4l0.5,0.8
		l0.6,0l0.5,0.3l1.6,0.2l0.4,0.6l-0.6,0.9l0.2,0.8l-0.4,1.1l0.5,1.5v6.3v6.3v3.4l-1.8,0l0,0.7l-6.3-3.2l-6.3-3.2L344.6,290.5z"/>
	<path id="MA" class="st25" d="M307.4,282.1l0-2.1l2.6-1.3l1.6-0.3l1.3-0.5l0.6-0.9l1.8-0.7l0.1-1.4l0.9-0.2l0.7-0.7l2.1-0.3
		l0.3-0.7l-0.4-0.4l-0.5-2l-0.1-1.2l-0.6-1.2l-0.7,0l-1.6-0.4l-1.5,0.1l-1-0.8l-1.2,0l-0.5,1.2l-1.1,2l-1.2,0.8l-1.6,0.9l-1,1.3
		l-0.2,1l-0.6,1.6l0.4,2.3l-1.3,1.5l-0.8,0.5l-1.2,1.2l-1.5,0.2l-0.7,0.6l2,0L307.4,282.1L307.4,282.1L307.4,282.1l-4.9,0l-2,0
		L307.4,282.1z"/>
	<path id="MD" class="st25" d="M363.2,240.6l0.4-0.3l1-0.2l1.2,0.7l0.6,0.1l0.7,0.6l-0.1,0.8l0.6,0.4l0.2,1l0.6,0.6l-0.1,0.3
		l0.3,0.2l-0.4,0.2l-0.9-0.1l-0.2-0.3l-0.3,0.2l0.1,0.4l-0.4,0.7l-0.3,0.8l-0.4,0.2l-0.3-1l0.2-1l-0.1-1l-0.9-1.4l-0.5-1l-0.5-0.7
		L363.2,240.6z"/>
	<path id="ME" class="st25" d="M352.4,253.5l-0.1-0.4l-0.7,1.1l0.1,0.7l-0.3-0.2l-0.4-0.7l-0.7-0.4l0.2-0.4l0.2-1.2l0.5-0.5l0.3-0.2
		l0.4,0.4l0.2,0.3l0.5,0.2l0.6,0.4l-0.1,0.2l-0.3,0.5L352.4,253.5z"/>
	<path id="MG" class="st25" d="M399.4,347l0.4,0.7l0.4,1.1l0.3,1.9l0.4,0.8l-0.2,0.8l-0.3,0.5l-0.5-1l-0.3,0.5l0.3,1.2l-0.1,0.7
		l-0.4,0.4l-0.1,1.4l-0.6,1.9l-0.8,2.3l-1,3.2l-0.6,2.4l-0.7,2l-1.3,0.4l-1.4,0.7l-0.9-0.4l-1.3-0.6l-0.4-0.9l-0.1-1.5l-0.6-1.4
		l-0.1-1.2l0.3-1.2l0.7-0.3l0-0.6l0.8-1.3l0.1-1.1l-0.4-0.8l-0.3-1l-0.1-1.5l0.6-0.9l0.2-1l0.8-0.1l0.9-0.3l0.6-0.3l0.7,0l0.9-0.9
		l1.3-1l0.5-0.8l-0.2-0.7l0.7,0.2l0.9-1.1l0-1l0.5-0.7L399.4,347z"/>
	<path id="MK" class="st25" d="M353.6,254.8l0.2,0l0.1-0.4l0.9-0.3l0.4-0.1l0.5-0.1l0.7,0l0.8,0.7l0.1,1.4l-0.3,0.1l-0.3,0.4l-0.9,0
		l-0.6,0.5l-1,0.2l-0.7-0.5l-0.2-0.9L353.6,254.8z"/>
	<path id="ML" class="st25" d="M301.9,304.1l0.5-0.3l0.3-1l0.5,0l1.1,0.5l0.9-0.3l0.6,0.1l0.2-0.4l6.3,0l0.3-1.1l-0.3-0.2l-0.8-7.1
		l-0.8-7.4l2.4,0l5.3,3.7l5.3,3.7l0.4,0.8l1,0.5l0.7,0.3l0,1.1l1.8-0.2l0,3.8l-0.9,1.1l-0.1,1l-1.4,0.3l-2.2,0.1l-0.6,0.6l-1,0.1
		l-1,0l-0.4-0.3l-0.9,0.2l-1.5,0.7l-0.3,0.5l-1.2,0.7l-0.2,0.4l-0.7,0.3l-0.8-0.2l-0.4,0.4l-0.2,1.1l-1.3,1.3l0,0.5l-0.4,0.7
		l0.1,0.9l-0.7,0.2l-0.4,0.2l-0.2-0.7l-0.5,0.2l-0.3,0l-0.3,0.5l-1.2,0l-0.4-0.2l-0.2,0.1l-0.5-0.5l0.1-0.5l-0.2-0.2l-0.3,0.2
		l0.1-0.5l0.3-0.4l-0.6-0.7l-0.2-0.4l-0.3-0.3l-0.3,0l-0.4,0.2l-0.5,0.2l-0.4,0.3l-0.7-0.1l-0.4-0.4l-0.3-0.1l-0.4,0.2l-0.3,0
		l-0.1-0.6l0.1-0.5l-0.1-0.6l-0.6-0.5l-0.3-0.9L301.9,304.1z"/>
	<path id="MM" class="st25" d="M478.3,295l-0.9,0.7l-1.1,0.1l-0.7,1.8l-0.7,0.3l0.8,1.4l1,1.2l0.6,1.1l-0.6,1.4l-0.5,0.3l0.4,0.8
		l1.1,1.3l0.2,0.9l0,0.7l0.6,1.5l-0.9,1.5l-0.8,1.6l-0.2-1.2l0.5-1.2l-0.5-0.9l0.1-1.8l-0.6-0.8l-0.5-1.9l-0.3-2.1l-0.7-1.4l-1,0.8
		l-1.8,1.2l-0.9-0.1l-1-0.4l0.5-2l-0.3-1.5l-1.2-1.9l0.2-0.6l-0.9-0.2l-1.1-1.4l-0.1-1.4l0.6,0.3l0-1.2l0.8-0.4l-0.2-0.7l0.4-0.6
		l0.1-1.8l1.2,0.4l0.7-1.4l0.1-0.8l0.9-1.5l0-1l2-1.2l1.1,0.3l-0.1-1.1l0.6-0.3l-0.1-0.7l0.9-0.1l0.5,1l0.7,0.4l0.1,1.4l-0.1,1.4
		l-1.5,1.5l-0.2,2l1.7-0.3l0.4,1.6l1,0.3l-0.5,1.4l1.2,0.6l0.7,0.3l1.2-0.5l0.1,0.7l-1.3,1.1l-0.3,0.6L478.3,295z"/>
	<path id="MN" class="st25" d="M459.7,238.1l1.7-0.4l3-2.1l2.4-1.2l1.4,0.8l1.6,0l1.1,1.2l1.6,0.1l2.3,0.6l1.5-1.7l-0.6-1.5l1.6-2.6
		l1.8,1.1l1.4,0.3l1.9,0.6l0.3,1.9l2.2,1l1.5-0.5l2-0.3l1.6,0.3l1.5,1.2l1,1.2l1.5,0l2,0.4l1.5-0.6l2.1-0.4l2.3-1.7l0.9,0.3l0.8,0.8
		l1.9-0.2l-0.8,1.8l-1.1,2.4l0.4,1l0.9-0.3l1.6,0.4l1.2-0.9l1.3,0.7l1.4,1.6l-0.2,0.8l-1.2-0.3l-2.3,0.3l-1.1,0.7l-1.2,1.5l-2.4,0.9
		l-1.6,1.2l-1.6-0.5l-0.9-0.2l-0.8,1.4l0.5,0.8l0.3,0.7l-1.1,0.7l-1.1,1.2l-1.8,0.7l-2.4,0.1l-2.6,0.7l-1.8,1.1l-0.7-0.7h-1.9
		l-2.3-1.3l-1.6-0.3l-2.1,0.3l-3.3-0.5l-1.7,0.1l-0.9-1.3l-0.7-2l-1-0.2l-1.9-1.4l-2.1-0.3l-1.9-0.4l-0.6-1l0.6-2.7l-1.1-1.9
		l-2.3-0.9l-1.3-1.3L459.7,238.1z"/>
	<path id="MR" class="st25" d="M301.9,304.1l-1-1.1l-1-1.2l-1-0.4l-0.8-0.5l-0.9,0l-0.8,0.4l-0.8-0.1l-0.5,0.5l-0.1-0.9l0.4-0.8
		l0.2-1.5l-0.2-1.6l-0.2-0.8l0.2-0.8l-0.4-0.8l-0.8-0.7l0.3-0.6l6.2,0l-0.3-2.4l0.4-0.9l1.5-0.2l-0.1-4.4l5.2,0.1v-2.7l5.9,4.2
		l-2.4,0l0.8,7.4l0.8,7.1l0.3,0.2l-0.3,1.1l-6.3,0l-0.2,0.4l-0.6-0.1l-0.9,0.3l-1.1-0.5l-0.5,0l-0.3,1L301.9,304.1z"/>
	<path id="MW" class="st25" d="M375.7,345.5l-0.4,1.2l0.4,2.1l0.6,0l0.6,0.5l0.7,1.2l0.1,2.1l-0.7,0.3l-0.5,1.1l-1-1l-0.1-1.1
		l0.3-0.8l-0.1-0.6l-0.6-0.4l-0.4,0.1l-0.9-0.8l-0.8-0.4l0.5-1.5l0.5-0.6l-0.3-1.3l0.3-1.3l0.3-0.4l-0.4-1.4l-0.7-0.7l1.5,0.3
		l0.3,0.4l0.5,0.7L375.7,345.5z"/>
	<path id="MX" class="st25" d="M167.8,285.3l-0.6,1.5l-0.3,1.2l-0.1,2.3l-0.2,0.8l0.3,0.9l0.5,0.8l0.3,1.3l1,1.2l0.4,1l0.6,0.8
		l1.7,0.4l0.7,0.7l1.4-0.5l1.2-0.2l1.2-0.3l1-0.3l1-0.7l0.4-1l0.1-1.4l0.3-0.5l1.1-0.4l1.7-0.4l1.4,0.1l1-0.1l0.4,0.4l-0.1,0.8
		l-0.9,1l-0.4,1l0.3,0.3l-0.2,0.7l-0.4,1.3l-0.4-0.4l-0.3,0l-0.3,0l-0.6,1l-0.3-0.2l-0.2,0.1l0,0.2l-1.5,0h-1.5v0.9h-0.7l0.6,0.6
		l0.6,0.4l0.2,0.4l0.3,0.1l0,0.6l-2,0l-0.8,1.3l0.2,0.3l-0.2,0.4l0,0.5l-1.8-1.8l-0.8-0.5l-1.3-0.4l-0.9,0.1l-1.3,0.6l-0.8,0.2
		l-1.1-0.4l-1.2-0.3l-1.5-0.7l-1.2-0.2l-1.8-0.8l-1.3-0.8l-0.4-0.4l-0.9-0.1l-1.6-0.5l-0.7-0.8l-1.7-0.9l-0.8-1.1l-0.4-0.8l0.5-0.2
		l-0.2-0.5l0.4-0.4l0-0.6l-0.5-0.8l-0.1-0.7l-0.5-0.9l-1.4-1.7l-1.6-1.3l-0.8-1.1l-1.4-0.7l-0.3-0.4l0.2-1.1l-0.8-0.4l-0.9-0.9
		l-0.4-1.2l-0.9-0.1l-0.9-0.9l-0.7-0.9l-0.1-0.6l-0.9-1.4l-0.6-1.4l0-0.7l-1.1-0.7l-0.5,0.1l-0.9-0.5l-0.3,0.7l0.3,0.9l0.2,1.4
		l0.5,0.7l1.2,1.2l0.3,0.4l0.2,0.1l0.2,0.6l0.3,0l0.3,1.1l0.5,0.5l0.3,0.6l1,0.9l0.5,1.6l0.5,0.8l0.4,0.8l0.1,0.9l0.8,0.1l0.6,0.8
		l0.6,0.8l0,0.3l-0.7,0.6l-0.3,0l-0.4-1l-1-1l-1.1-0.8l-0.8-0.4l0.1-1.3l-0.2-0.9l-0.8-0.5l-1.1-0.8l-0.2,0.2l-0.4-0.5l-1-0.4
		l-0.9-1l0.1-0.1l0.6,0.1l0.6-0.7l0.1-0.8l-1.2-1.3l-0.9-0.5l-0.6-1.1l-0.6-1.2l-0.7-1.5l-0.6-1.7l1.8-0.1l2-0.2l-0.1,0.4l2.4,0.9
		l3.6,1.3l3.1,0h1.3v-0.8h2.7l0.6,0.7l0.8,0.6l0.9,0.8l0.5,1l0.4,1l0.8,0.5l1.3,0.5l1-1.4l1.3,0l1.1,0.7l0.8,1.2l0.5,1l0.9,1
		l0.3,1.2l0.4,0.8l1.2,0.5l1.1,0.4L167.8,285.3z"/>
	<path id="MY" class="st25" d="M480.7,317.6l0.1,0.8l1-0.2l0.5-0.6l0.4,0.1l0.9,1l0.7,1.1l0.1,1.1l-0.2,0.7l0.2,0.5l0.1,0.9l0.6,0.4
		l0.6,1.4l0,0.5l-1.1,0.1l-1.5-1.2l-1.9-1.2l-0.2-0.8l-0.9-1.1l-0.2-1.3l-0.6-0.9l0.2-1.1l-0.3-0.7l0.3-0.3L480.7,317.6z
		 M508.4,320.3l-1.2,0.5l-1.4-0.3h-1.8l-0.5,1.8l-0.6,0.5l-0.8,2.2l-1.3,0.3l-1.5-0.4l-0.8,0.1l-0.9,0.8l-1-0.1l-1,0.3l-1.1-0.9
		l-0.3-1l1.2,0.5l1.2-0.3l0.3-1.3l0.7-0.3l1.9-0.3l1.1-1.2l0.8-1l0.7,0.8l0.3-0.5l0.8,0.1l0.1-1l0.1-0.8l1.2-1.1l0.8-1.2l0.6,0
		l0.8,0.8l0.1,0.7l1,0.4l1.3,0.5l-0.1,0.6l-1.1,0.1L508.4,320.3z"/>
	<path id="MZ" class="st25" d="M375.7,345.5l1.2-0.1l1.9,0.5l0.4-0.2l1.1,0l0.6-0.5l0.9,0l1.7-0.6l1.3-0.9l0.3,0.7l-0.1,1.6l0.2,1.4
		l0.1,2.5l0.3,0.8l-0.5,1.2l-0.6,1.1l-1,1l-1.4,0.6l-1.8,0.8l-1.8,1.8l-0.6,0.3l-1.1,1.2l-0.6,0.4l-0.1,1.2l0.7,1.3l0.3,1l0,0.5
		l0.3-0.1l0,1.7l-0.3,0.8l0.4,0.3l-0.2,0.7l-0.7,0.6l-1.3,0.6l-1.9,0.9l-0.7,0.6l0.1,0.7l0.4,0.1l-0.1,0.9l-1.2,0l-0.1-0.8l-0.2-0.8
		l-0.1-0.6l0.3-1.9l-0.4-1.2l-0.8-2.4l1.7-1.9l0.4-1.2l0.2-0.2l0.2-1l-0.3-0.5l0.1-1.2l0.3-1.1l0-2.1l-0.8-0.5l-0.8-0.1l-0.3-0.4
		l-0.7-0.3l-1.3,0l-0.1-0.6l-0.2-1.2l4.8-1.3l0.9,0.8l0.4-0.1l0.6,0.4l0.1,0.6l-0.3,0.8l0.1,1.1l1,1l0.5-1.1l0.7-0.3l-0.1-2.1
		l-0.7-1.2l-0.6-0.5l-0.6,0l-0.4-2.1L375.7,345.5z"/>
	<path id="NA" class="st25" d="M346.9,374.2l-1.2-1.3l-0.6-1.3l-0.3-1.7l-0.4-1.3l-0.5-2.7l0-2l-0.2-0.9l-0.6-0.7l-0.8-1.4l-0.8-2
		l-0.3-1l-1.3-1.6l-0.1-1.3l0.8-0.3l0.9-0.3l1,0.1l0.9,0.7l0.2-0.1l6.4-0.1l1.1,0.8l3.8,0.2l2.9-0.7l1.3-0.4l1,0.1l0.6,0.4l0,0.1
		l-0.9,0.4l-0.5,0l-1,0.6l-0.6-0.7l-2.4,0.6l-1.2,0.1l0,6l-1.6,0.1v5l0,6.5l-1.4,0.9l-0.8,0.1l-1-0.3l-0.7-0.1l-0.3-0.8l-0.6-0.5
		L346.9,374.2z"/>
	<path id="NC" class="st25" d="M582.9,361.2l1.3,1l0.8,0.8l-0.6,0.4l-0.9-0.5l-1.1-0.8l-1-0.9l-1-1.2l-0.2-0.6l0.7,0l0.9,0.6
		l0.7,0.6L582.9,361.2z"/>
	<path id="NE" class="st25" d="M324.5,308.5l0-1.1l-1.8-0.4l0-0.8l-0.9-1.1l-0.2-0.7l0.1-0.8l1-0.1l0.6-0.6l2.2-0.1l1.4-0.3l0.1-1
		l0.9-1.1l0-3.8l2.2-0.7l4.6-3.3l5.4-3.2l2.5,0.7l0.9,0.9l1.1-0.6l0.4,2.6l0.6,0.4l0,0.5l0.7,0.6l-0.3,0.7l-0.6,3.4l-0.1,2.1l-2,1.5
		l-0.7,2.1l0.7,0.6l0,1l1,0L344,307l-0.4,0.1l-0.1,0.5l-0.3,0l-1.1-1.8l-0.4-0.1l-1.2,0.9l-1.2-0.5l-0.9-0.1l-0.5,0.2l-0.9,0
		l-0.9,0.7l-0.8,0l-1.9-0.8l-0.7,0.4l-0.8,0l-0.6-0.6l-1.6-0.6l-1.7,0.2l-0.4,0.3l-0.2,0.9l-0.5,0.6l-0.1,1.4l-1.2-0.9l-0.6,0
		L324.5,308.5z"/>
	<path id="NG" class="st25" d="M334.5,319.8l-1.6,0.6l-0.6-0.1l-0.6,0.3l-1.3,0l-0.8-1l-0.5-1.1l-1.1-1l-1.2,0h-1.4l0.1-2.6l0-1
		l0.3-1l0.5-0.5l0.8-1l-0.2-0.4l0.3-0.6l-0.4-0.9l0.1-0.5l0.1-1.4l0.5-0.6l0.2-0.9l0.4-0.3l1.7-0.2l1.6,0.6l0.6,0.6l0.8,0l0.7-0.4
		l1.9,0.8l0.8,0l0.9-0.7l0.9,0l0.5-0.2l0.9,0.1l1.2,0.5l1.2-0.9l0.4,0.1l1.1,1.8l0.3,0l0.6,0.6l-0.2,0.3l-0.1,0.5l-1.3,1.2l-0.4,1
		l-0.2,0.8l-0.3,0.4l-0.3,1.1l-0.8,0.7l-0.2,0.8l-0.4,0.6l-0.1,0.7l-1.1,0.5l-0.9-0.6l-0.6,0l-0.9,0.9l-0.5,0l-0.7,1.5L334.5,319.8z
		"/>
	<path id="NI" class="st25" d="M185.8,309.8l-0.5-0.5l-0.7-0.6l-0.3-0.5l-0.7-0.5l-0.8-0.7l0.2-0.2l0.3,0.2l0.1-0.1l0.5-0.1l0.2-0.4
		l0.2,0l0-0.8l0.4,0l0.3,0l0.3-0.4l0.5,0.3l0.2-0.2l0.3-0.2l0.6-0.4l0-0.3l0.2,0l0.2-0.4l0.2,0l0.3,0.2l0.3,0.1l0.3-0.2h0.4l0.5-0.2
		l0.2-0.2l0.5,0l-0.1,0.2l-0.1,0.4l0.2,0.6l-0.4,0.6l-0.2,0.6l-0.1,0.7l0.1,0.4l0,0.7l-0.2,0.2l-0.1,0.7l0.1,0.4l-0.3,0.4l0.1,0.4
		l0.2,0.3l-0.4,0.3l-0.5-0.1l-0.3-0.3l-0.5-0.1l-0.4,0.2l-1-0.4L185.8,309.8z"/>
	<path id="NL" class="st25" d="M330.7,227.4l1.3,0.1l0.3,0.9l-0.4,2.4l-0.4,1h-1l0.3,2.6l-0.9-0.6l-1-1.1l-1.5,0.5l-1.2-0.2l0.8-0.7
		l1.4-3.8L330.7,227.4z"/>
	<path id="NO" class="st25" d="M365.6,165.3l4.9,3.5l-2,1.3l1.7,2.9l-2.7,1.8l-1.3,0.4l0.7-3.1l-2-1.8l-2.4,1.6l-0.8,3.3l-1.5,1.9
		l-1.7-1.1l-2.1,0.2l-1.8-2.3l-0.9,1.2l-1,0.2l-0.2,2.9l-3-0.7l-0.4,2.4l-1.5,0l-1,3L345,187l-2.4,5.3l0.6,1.3l-0.6,1.4L341,195
		l-1,3.3l0.1,4.5l1,1.7l-0.5,3.8l-1.3,2.1l-0.7,1.8l-1.1-1.9l-3.1,3.5l-2.1,0.7l-2.2-1.5l-0.6-3.3l-0.5-7.5l1.5-2.2l4.2-2.9l3.1-3.7
		l2.9-5.2l3.8-7.7l2.6-3.2l4.3-5.6l3.5-2l2.6,0.2l2.4-3.9l2.9,0.2L365.6,165.3z"/>
	<path id="NP" class="st25" d="M460.3,281.8l-0.1,0.8l0.2,1.1l-0.2,0.7l-1.3,0l-1.9-0.4l-1.2-0.2l-0.9-0.9l-2.2-0.2l-2.1-1l-1.5-0.9
		l-1.5-0.7l0.6-1.7l1-0.8l0.7-0.4l1.3,0.6l1.6,1.2l0.9,0.3l0.5,0.9l1.2,0.4l1.3,0.8l1.8,0.4L460.3,281.8z"/>
	<path id="NZ" class="st25" d="M594.3,397.9l0.4,0.9l1.1-0.8l0.5,0.9v0.9l-0.6,1l-1,1.6l-0.8,0.9l0.6,1l-1.2,0l-1.4,0.8l-0.4,1.4
		l-0.9,2.3l-1.2,1l-0.8,0.7l-1.5-0.1l-1-0.8l-1.7-0.2l-0.3-0.8l0.9-1.7l2-2.2l1-0.4l1.1-0.8l1.4-1.1l0.9-1.1l0.7-1.6l0.6-0.5
		l0.2-1.2l1.1-1L594.3,397.9z M596.8,388.3l1.1,2.1l0-1.3l0.7,0.5l0.2,1.5l1.3,0.6l1.1,0.2l0.9-0.8l0.8,0.2l-0.4,1.8l-0.5,1.2
		l-1.2,0l-0.4,0.6l0.1,0.9l-0.2,0.4l-0.6,1.1l-0.8,1.4l-1.2,0.8l-0.3-0.6l-0.7-0.3l0.9-1.7l-0.5-1.1l-1.7-0.8l0-0.7l1.1-0.7l0.3-1.5
		l-0.1-1.3l-0.6-1.3l0-0.3l-0.8-0.8l-1.2-1.7l-0.7-1.4l0.6-0.2l0.9,1.1l1.2,0.5L596.8,388.3z"/>
	<path id="OM" class="st25" d="M414.1,293.4l-0.6,1.1l-0.7-0.1l-0.3,0.4l-0.3,0.8l0.2,1.1l-0.1,0.2l-0.7,0l-1,0.6l-0.2,0.8l-0.4,0.3
		l-1,0l-0.6,0.4l0,0.7l-0.8,0.5l-0.9-0.2l-1.1,0.6l-0.7,0.1l-0.5-1.1l-1.2-2.7l4.7-1.7l1.1-3.4l-0.7-1.2l0-0.7l0.5-0.7l0-0.7
		l0.7-0.3l-0.3-0.2l0.1-1.1l0.8,0l0.7,1.2l0.9,0.6l1.2,0.2l0.9,0.3l0.7,1l0.4,0.6l0.6,0.2l0,0.4l-0.6,1l-0.3,0.5L414.1,293.4z
		 M410.2,285.2l-0.2,0.3l-0.3-0.6l0.5-0.6l0.2,0.2L410.2,285.2z"/>
	<path id="PA" class="st25" d="M198.2,316l-0.5-0.5l-0.3-0.9l0.4-0.4l-0.4-0.1l-0.3-0.5l-0.8-0.4l-0.7,0.1l-0.3,0.6l-0.6,0.4
		l-0.3,0.1l-0.2,0.3l0.7,0.9l-0.4,0.2l-0.2,0.2l-0.7,0.1l-0.3-0.9l-0.2,0.3l-0.5-0.1l-0.3-0.6l-0.6-0.1l-0.4-0.2h-0.7l-0.1,0.3
		l-0.2-0.2l0.1-0.3l0.1-0.3l-0.1-0.3l0.2-0.2l-0.3-0.2l0-0.6l0.6-0.1l0.6,0.6l0,0.3l0.6,0.1l0.2-0.1l0.4,0.4l0.8-0.1l0.7-0.4l1-0.3
		l0.5-0.5l0.9,0.1l-0.1,0.2l0.9,0.1l0.7,0.3l0.5,0.5l0.6,0.4l-0.2,0.2l0.4,0.9l-0.3,0.5l-0.5-0.1L198.2,316z"/>
	<path id="PE" class="st25" d="M211.3,355.3l-0.4,0.9l-0.8,0.4l-1.6-0.9l-0.1-0.7l-3.1-1.6l-2.8-1.8l-1.2-1l-0.7-1.3l0.3-0.5
		l-1.3-2.1l-1.6-3l-1.5-3.2l-0.6-0.7l-0.5-1.2l-1.2-1l-1.1-0.6l0.5-0.7l-0.8-1.5l0.5-1.1l1.3-1l0.2,0.7l-0.5,0.4l0,0.6l0.7-0.1
		l0.6,0.2l0.7,0.8l0.9-0.6l0.3-1.1l1-1.4l1.9-0.6l1.7-1.6l0.5-1l-0.2-1.2l0.4-0.2l1,0.7l0.5,0.7l0.7,0.4l0.9,1.6l1.2,0.2l0.9-0.4
		l0.6,0.3l0.9-0.1l1.2,0.7l-1,1.6l0.5,0l0.8,0.8l-1.4-0.1l-0.2,0.2l-1.3,0.3l-1.8,1.1l-0.1,0.7l-0.4,0.6l0.2,0.9l-1,0.5v0.7
		l-0.4,0.3l0.7,1.4l0.9,1l-0.3,0.7l1,0.1l0.6,0.9l1.4,0l1.3-0.9l-0.1,2.4l0.7,0.2l0.9-0.3l1.4,2.6l-0.3,0.5l-0.1,1.1l0,1.4l-0.6,0.8
		l0.3,0.6l-0.4,0.5l0.7,1.4L211.3,355.3z"/>
	<path id="PG" class="st25" d="M567.2,338l-0.4,0.2l-0.7-0.6l-0.7-1l-0.3-1.2l0.2-0.2l0.2,0.5l0.5,0.4l0.8,1l0.7,0.5L567.2,338z
		 M561.1,335.9l-0.8,0.1l-0.2,0.4l-0.9,0.4l-0.8,0.4h-0.8l-1.3-0.5l-0.9-0.4l0.1-0.5l1.4,0.2l0.9-0.1l0.2-0.8l0.2,0l0.2,0.8l0.9-0.1
		l0.4-0.5l0.9-0.6l-0.2-0.9l0.9,0l0.3,0.3l0,0.9L561.1,335.9z M553.5,338.9l1.4,1l1,1.7l0.9-0.1l-0.1,0.7l1.2,0.3l-0.5,0.3l1.7,0.7
		l-0.2,0.5l-1,0.1l-0.4-0.4l-1.4-0.2l-1.6-0.2l-1.2-1l-0.9-0.9l-0.8-1.4l-2.1-0.7l-1.3,0.5l-1,0.5l0.2,1.2l-1.2,0.5l-0.9-0.3
		l-1.6-0.1l0-5.2l0-5.1l2.7,1.1l2.9,0.9l1.1,0.8l0.9,0.8l0.2,0.9l2.6,1l0.4,0.8l-1.5,0.2L553.5,338.9z M562.9,334.4l-0.5,0.4
		l-0.3-0.9l-0.4-0.6l-0.7-0.5l-0.9-0.7l-1.1-0.5l0.4-0.4l0.9,0.4l0.5,0.3l0.7,0.4l0.6,0.7l0.6,0.5L562.9,334.4z"/>
	<path id="PH" class="st25" d="M520.7,314.1l0.2,1.1l0.1,0.9l-0.5,1.4l-0.6-1.6l-0.7,0.8l0.5,1.2l-0.5,0.7l-1.9-0.9l-0.4-1.1
		l0.5-0.7l-1-0.7l-0.5,0.7l-0.7-0.1l-1.2,0.9l-0.3-0.5l0.6-1.3l1-0.4l0.9-0.6l0.6,0.7l1.2-0.4l0.3-0.7l1.1,0l-0.1-1.2l1.3,0.8
		l0.1,0.8L520.7,314.1z M516.9,311.1l-0.6,0.5l-0.5,1l-0.5,0.5l-1-1.1l0.3-0.4l0.4-0.4l0.2-1l0.9-0.1l-0.3,1.1l1.2-1.5L516.9,311.1z
		 M508.2,312.7l-2.1,1.5l0.8-1.1l1.1-1l0.9-1.1l0.8-1.6l0.3,1.3l-1,0.9L508.2,312.7z M513.6,308.5l0.9,0.5h1l0,0.7l-0.7,0.7l-1,0.5
		l-0.1-0.7l0.1-0.8L513.6,308.5z M519.3,308.1l0.4,1.8l-1.2-0.4l0,0.5l0.4,1l-0.7,0.4l-0.1-1.1l-0.5-0.1l-0.2-1l0.9,0.1l0-0.6
		l-1-1.2l1.5,0L519.3,308.1z M513,306.6l-0.4,1.4l-0.7-0.8l-0.8-1.2l1.4,0.1L513,306.6z M512.7,297.8l1,0.5l0.5-0.4l0.1,0.4
		l-0.3,0.7l0.5,1.2l-0.4,1.4l-0.9,0.5l-0.2,1.3l0.4,1.3l0.8,0.2l0.7-0.2l2,0.9l-0.2,0.9l0.5,0.4l-0.2,0.7l-1.2-0.8l-0.6-0.8
		l-0.4,0.6l-1-1l-1.4,0.2l-0.8-0.4l0.1-0.7l0.5-0.4l-0.5-0.4l-0.2,0.6l-0.8-0.9l-0.2-0.7l-0.1-1.6l0.6,0.5l0.2-2.6l0.5-1.5
		L512.7,297.8z"/>
	<path id="PL" class="st25" d="M344.8,233.6l-0.6-1.6l0.1-0.9l-0.4-1.4l-0.6-0.9l0.4-0.7l-0.4-1.3l1.1-0.8l2.5-1.3l2-0.9l1.6,0.5
		l0.1,0.7l1.5,0l1.9,0.3l2.9,0l0.8,0.3l0.4,0.8l0.1,1.2l0.4,1l0,1l-0.9,0.5l0.5,1.2l0,1.1l0.8,2.2l-0.2,0.7l-0.8,0.3l-1.4,2l0.4,1.1
		l-0.3-0.1l-1.5-0.9l-1.1,0.3l-0.7-0.2l-0.9,0.5l-0.8-0.9l-0.7,0.3l-0.1-0.1l-0.7-1.2l-1.2-0.1l-0.2-0.8l-1.1-0.3l-0.2,0.6l-0.9-0.5
		l0.1-0.7l-1.2-0.2L344.8,233.6z"/>
	<path id="PK" class="st25" d="M439.8,264.5l1.2,0.9l0.5,1.5l2.6,0.8l-1.5,1.6l-1.8,0.3l-2.4-0.5l-0.8,0.8l0.6,1.7l0.5,1.3l1.3,0.9
		l-1.3,1.1l0,1.3l-1.5,1.8l-1,1.8l-1.6,1.9l-1.8-0.1l-1.7,1.9l1,0.8l0.2,1.3l0.9,0.9l0.3,1.5l-3.5,0l-1.1,1.1l-1.2-0.4l-0.5-1.2
		l-1.2-1.3l-2.9,0.3l-2.6,0l-2.2,0.2l0.6-2l2.3-0.9l-0.1-0.8l-0.8-0.3l0-1.6l-1.5-0.8l-0.6-1.1l-0.8-0.9l2.6,0.9l1.6-0.3l0.9,0.2
		l0.3-0.4l1.1,0.2l2.1-0.7l0.1-1.5l0.9-1h1.2l0.2-0.5l1.2-0.2l0.6,0.2l0.6-0.5l-0.1-1.1l0.7-1.1l1-0.5l-0.6-1.3l1.5,0.1l0.4-0.7
		l-0.1-0.7l0.8-0.8l-0.2-1l-0.4-0.8l0.9-0.9l1.7-0.4l1.8-0.2l0.8-0.4L439.8,264.5z"/>
	<path id="PR" class="st25" d="M216.5,297.8l0.8,0.1l0.3,0.3l-0.4,0.4l-1.2,0l-0.9,0.1L215,298l0.2-0.2L216.5,297.8z"/>
	<path id="PS" class="st25" d="M377.2,273.5v1.1l-0.2,0.5l-0.7,0.3l0.1-0.5l0.4-0.3l-0.4-0.2l0.3-1.2L377.2,273.5z"/>
	<path id="PT" class="st25" d="M306.9,254.8l0.6-0.5l0.6-0.3l0.4,1l0.9,0l0.3-0.3l0.9,0.1l0.4,1.1l-0.7,0.6l0,1.6l-0.3,0.3l-0.1,1
		l-0.7,0.2l0.6,1.2l-0.4,1.3l0.5,0.6l-0.2,0.5l-0.6,0.7l0.1,0.7l-0.6,0.5l-0.8-0.3l-0.8,0.2l0.2-1.5l-0.1-1.2l-0.7-0.2l-0.4-0.8
		l0.1-1.3l0.6-0.7l0.1-0.8l0.3-1.2l0-0.9l-0.3-0.8L306.9,254.8z"/>
	<path id="PY" class="st25" d="M222.2,363.1l0.6-2l0-0.9l0.8-1.5l2.8-0.5l1.5,0l1.5,0.9l0,0.5l0.5,0.9l-0.1,2.3l1.7,0.3l0.6-0.3
		l1.1,0.5l0.3,0.5l0.1,1.6l0.2,0.7l0.6,0.1l0.6-0.3l0.6,0.3v0.9l-0.2,1l-0.3,1l-0.3,1.5l-1.4,1.4l-1.3,0.3l-1.8-0.3l-1.6-0.5
		l1.6-2.7l-0.2-0.8l-1.6-0.7l-1.9-1.3l-1.3-0.3L222.2,363.1z"/>
	<path id="QA" class="st25" d="M401.4,287.2l-0.1-1.3l0.4-0.9l0.4-0.2l0.5,0.5l0,1l-0.3,1l-0.4,0.1L401.4,287.2z"/>
	<path id="RO" class="st25" d="M357,241.4l0.7-0.5l1,0.3l1,0l0.7,0.6l0.5-0.4l1.2-0.2l0.4-0.6l0.7,0l0.5,0.2l0.5,0.7l0.5,1l0.9,1.4
		l0.1,1l-0.2,1l0.3,1l0.7,0.4l0.7-0.4l0.7,0.4l0,0.6l-0.8,0.5l-0.5-0.2l-0.4,2.7l-0.9-0.2l-1.1-0.8l-1.9,0.5l-0.8,0.6l-2.3-0.1
		l-1.2-0.3l-0.6,0.2l-0.5-0.9l-0.3-0.4l0.4-0.4l-0.4-0.3l-0.5,0.5l-0.9-0.6l-0.1-0.9l-1-0.5l-0.2-0.7l-0.9-0.9l1.3-0.4l1-1.6
		l0.7-1.6L357,241.4z"/>
	<path id="RS" class="st25" d="M354.1,247.1l1,0.5l0.1,0.9l0.9,0.6l0.5-0.5l0.4,0.3l-0.4,0.4l0.3,0.4l-0.4,0.5l0.1,0.8l0.8,0.9
		l-0.6,0.7l-0.3,0.7l0.2,0.3l-0.3,0.3l-0.7,0l-0.5,0.1l-0.1-0.2l0.2-0.3l0.2-0.5l-0.2,0l-0.3-0.4l-0.3-0.1l-0.2-0.3l-0.3-0.1
		l-0.2-0.3l-0.3,0.1l-0.2,0.7l-0.4,0.2l0.1-0.2l-0.6-0.4l-0.5-0.2l-0.2-0.3l-0.4-0.4l0.4-0.1l0.2-1l-0.8-0.8l0.4-1l-0.6,0l0.6-0.8
		l-0.5-0.6l-0.4-0.9l1.2-0.6l1,0.1l0.9,0.9L354.1,247.1z"/>
	<path id="RU" class="st25" d="M621.3,187.9l-1.6,1.7l-2.6,0.4l0,3.6l-0.6,0.8l-1.5-0.1l-1.2-1.3l-2.1-1.1l-0.4-1.6l-1.6-0.6
		l-1.8,0.5l-0.9-1.3l0.3-1.4l-1.9,0.9l0.7,1.8l-0.9,1.6l0,0l-2,1.6l-2-0.3l1.4,1.9l0.9,2.9l0.7,0.9l0.2,1.4l-0.4,0.9l-2.9-0.7
		l-4.4,2.5l-1.4,0.4l-2.4,2.3l-2.3,2l-0.6,1.4l-2.3-2.2l-4.1,2.5l-0.7-1.2l-1.5,1.3l-2.1-0.4l-0.5,2l-1.9,2.9l0.1,1.2l1.8,0.7
		l-0.2,4.2l-1.5,0.1l-0.7,2.3l0.7,1.2l-2.8,1.4l-0.5,3l-2.4,0.6l-0.5,2.6l-2.3,2.4l-0.6-1.7l-0.7-3.8l-0.9-6l0.8-3.9l1.3-1.7
		l0.1-1.4l2.5-0.7l2.8-3.8l2.7-3.2l2.8-2.6l1.3-4.7l-1.9,0.3l-0.9,2.8l-4,3.6l-1.3-4l-4.1,1.1l-4,5.4l1.3,1.9l-3.5,0.8l-2.4,0.3
		l0.1-2.2l-2.5-0.5l-2,1.5l-4.8-0.5l-5.2,0.9l-5.1,5.8l-6.1,6.6l2.5,0.3l0.8,1.7l1.5,0.6l1-1.3l1.7,0.2l2.3,2.9l0.1,2.2l-1.2,2.5
		l-0.1,3l-0.7,3.9l-2.4,3.4l-0.5,1.6l-2.1,2.6l-2.1,2.6l-1,1.3l-2.1,1.3l-1,0l-1-1l-2.1,1.6l-0.2,0.7l-0.2-0.4l0-1.1l0.8-0.1
		l0.2-2.6l-0.4-1.9l1.4-0.8l1.9,0.4l1.1-2.2l0.5-2.5l0.6-0.9l0.8-2.1l-2.6,0.7l-1.4,0.9h-2.4l-0.6-2.2l-1.9-1.7l-2.7-0.8l-0.6-2.4
		l-0.6-1.5l-0.6-1.1l-1-2.6l-1.4-1l-2.4-0.8l-2.1,0.1l-2,0.5l-1.3,1.3l0.9,0.6l0,1.4l-0.9,0.8l-1.4,2.7l0,1.1l-2.2,1.5l-1.9-0.9
		l-1.9,0.2l-0.8-0.8l-0.9-0.3l-2.3,1.7l-2.1,0.4l-1.5,0.6l-2-0.4l-1.5,0l-1-1.2l-1.5-1.2l-1.6-0.3l-2,0.3l-1.5,0.5l-2.2-1l-0.3-1.9
		l-1.9-0.6l-1.4-0.3l-1.8-1.1l-1.6,2.6l0.6,1.5l-1.5,1.7l-2.3-0.6l-1.6-0.1l-1.1-1.1l-1.6,0l-1.4-0.8l-2.4,1.2l-3,2.1l-1.7,0.4
		l-0.6,0.2l-0.8-1.5l-2,0.3l-0.7-1l-1.1-0.5l-0.8-1.4l-0.9-0.5l-2.3,0.6l-2.2-1.4l-0.8,1.3l-3.5-6.5l-2-2.1l0.6-0.8l-4,2.5l-1.5,0.2
		l0.1-1.5l-2-0.9l-1.6,0.7l-0.5-2.8l-2.8-0.6l-1.4,1.1l-4,1l-0.8,0.7l-5.9,0.9l-0.7,0.9l1.1,1.8l-1.5,0.7l0.3,0.7l-1.5,1.3l2.6,1.7
		l-0.4,1.2l-2.2-0.1l-0.5,0.7l-2-1.3l-2.5,0.1l-1.7,1.1l-1.9-1l-3.5-1.7l-2.5,0.1l-3.3,2.7l-0.2,1.8l-1.6-1.4l-1.3,2.7l0.5,0.5
		l-0.9,1.8l1.3,1.6l1.2-0.1l1,1.6l-0.2,1.2l0.8,0.4l-0.7,1.3l-1.5,0.4l-1.6,2.3l1.4,2.1l-0.2,1.5l1.7,2.5l-0.9,0.9l-0.3,0.5
		l-0.7-0.1l-1.1-1.3l-0.4-0.1l-1-0.5l-0.5-0.9l-1.5-0.4l-1,0.3l-0.3-0.4l-2.2-1l-2.3-0.3l-1.3-0.4l-0.2,0.3l-2-1.8l-1.8-0.8
		l-1.4-1.3l1.1-0.4l1.3-1.9l-0.9-0.9l2.3-0.9l0-0.5l-1.4,0.4l0.1-1l0.8-0.7l1.5-0.2l0.2-0.8l-0.3-1.3l0.6-1.3l0-0.7l-2.3-0.8l-0.9,0
		l-1-1.1l-1.2,0.4l-2-0.9l0-0.5l-0.6-1.1l-1.3-0.1l-0.1-0.8l0.4-0.5l-1-1.5l-1.6,0.2l-0.5-0.1l-0.4,0.6l-0.6-0.1l-0.4-1.7l-0.4-0.9
		l0.3-0.2l1.3,0.1l0.6-0.6l-0.5-0.7l-1.1-0.5l0.1-0.5l-0.6-0.5l-1-1.8l0.3-0.7l-0.2-1.3l-1.5-0.7l-0.8,0.3l-0.2-0.7l-1.7-0.7
		l-0.5-1.7l-0.1-1.4l-0.8-0.7l0.7-0.9l-0.5-2.8l1.1-1.8l-0.2-0.5l1.8-1.7l-1.7-1.5l3.4-4.2l1.5-1.9l0.6-1.7l-2.3-2.4l0.6-2.3
		l-1.4-2.7l1.1-3.2l-1.8-4.5l1.5-3.1l-2.4-2.8l0.2-3l1.3-0.4l2.7-1.8l1.6-1.6l2.6,2.7l4.3,1.1l6,4.9l1.2,2l0.1,2.7l-1.8,2.1l-2.6,1
		l-7.1-3l-1.2,0.5l2.6,2.9l0.1,1.8l0.1,3.8l2,1.1l1.2,0.9l0.2-1.8l-1-1.6l1-1.4l3.8,2.3l1.3-0.9l-1.1-2.7l3.7-3.8l1.5,0.2l1.5,1.4
		l0.9-2.7l-1.3-2.4l0.8-2.5l-1.2-2.6l4.4,1.4l0.9,2.4l-2,0.5l0,2.3l1.2,1.4l2.4-0.9l0.4-2.6l3.3-2l5.5-3.7l1.2,0.2l-1.6,2.6l2,0.4
		l1.1-1.5l3-0.1l2.3-1.8l1.8,2.6l1.8-2.9l-1.7-2.6l0.8-1.5l4.7,1.4l2.2,1.4l5.7,5l1.1-2.2l-1.6-2.3l0-0.9l-1.9-0.4l0.5-2.2l-0.8-3.7
		l0-1.5l2.9-4.5l1-4.7l1.2-1.1l4.2,1.4l0.3,2.9l-1.5,4.1l1,1.6l0.5,3.3l-0.4,6.2l1.7,2.7l-0.7,2.8l-3.1,5.7l1.8,0.6l0.6-1.4l1.7-1
		l0.4-2l1.4-2l-0.9-2.4l0.7-2.9l-1.7-0.4l-0.4-2.5l1.3-4.7l-2-4l2.8-3.4l-0.4-3.7l0.8-0.1l0.8,2.9l-0.6,4.9l1.7,0.9l-0.7-3.6l2.6-2
		l3.3-0.3l2.9,2.9l-1.4-4.3l-0.2-5.8l2.7-1.1l3.8,0.2l3.4-0.7l-1.3-3l1.8-4l1.8-0.2l3.1-3.1l4.2-0.9l0.5-1.8l4.1-0.6l1.3,1.5
		l3.5-3.5l2.9,0.1l0.4-3l1.5-3l3.7-3l2.7,2.4l-2.2,1.8l3.6,1.1l0.4,3.4l1.4-1.7l4.6,0.1l3.6,3.3l1.3,2.4l-0.4,3.3l-1.7,1.8l-4.2,3.3
		l-1.2,1.7l2,0.8l2.3,1.4l1.4-1.1l0.8,3.6l0.7-1.4l2.5-0.9l5.1,0.9l0.4,2.6l6.6,0.8l0.1-4.2l3.4,1l2.5,0l2.6,2.9l0.7,3.4l-0.9,2.2
		l2,3.9l2.5,2l1.5-5.2l2.5,2.3l2.7-1.3l3.1,1.5l1.2-1.4l2.6,0.7l-1.1-4.7l2.1-2.3l14.3,3.4l1.3,3l4.1,3.7l6.4-0.9l3.1,0.8l1.3,2
		l-0.2,3.4l1.9,1.3l2.1-0.9l2.8-0.1l3,0.9l3-0.5l2.7,3.9l2-1.4l-1.3-2.9l0.7-2l5,1.3l3.3-0.3l4.5,2.2l2.2,1.9l3.9,3.3l4.1,4.1
		l-0.1,2.5l1.1,1l-0.4-2.9l4.3,0.6L621.3,187.9z M549.5,238.8l-1.6-4.3l-0.7-2.5l0-2.5l-0.5-2.5l-0.4-1.8l-0.7,0.4l0.6,1.2l-1.5,1.2
		l-0.1,3.5l0.9,2.5l-0.1,3.3l-0.4,1.8l0.2,2.6l-0.2,2.3l0.3,1.9l1-1.8l1.2,1.4l0-1.6l-1.5-2.4l1-3.4L549.5,238.8z M356.4,223.4
		l-1.7-0.5l-2.2,0.9l-0.4,1.2l1.9,0.3l2.9,0l-0.1-0.7l0.2-0.7L356.4,223.4z M605.3,167l2.1-0.3l1.6-1.2l0.1-0.7l-2.3-1.4l-1.3,0
		l-0.2,0.2l-2,2l0.3,1.5L605.3,167z M543.4,151.7l-1.5,2.2l0.3,0.3l3.2,0.6l2.4,0l-0.2-1.4l-2.2-2.1L543.4,151.7z M557.3,146.4
		l1.8-2.4l-4-1.6l-2.9-0.9l-0.4,2l2.9,2.4L557.3,146.4z M543.1,145.4l5.8,0.2l1.2-4.6l-5.7-3.4l-4.2-0.3l-2.1,1.2l-0.9,4.4l3.1,3.9
		L543.1,145.4z M404,160l-1.6,1.1l0.2,2.7l2.9,1.3l0.4,2.2l5.2,0.6l0.9-0.4l-3-4l-0.3-4.2l2.5-5.1l2.4-5.5l4.9-5.7l4.8-3l5.6-3.2
		l1.1-2.1l-1.1-2.7l-3.1,0.9l-2.7,2.5l-5.3,1.3l-5.2,4.2L409,144l0.4,2.7l-3.8,5.1l1.5,0.7l-3.1,4.7L404,160z M487,121.8l0.5-3.2
		l-4-4.7l-1.2-0.6l-1.3,1l-2.9,10.5L487,121.8z M394.5,105.3l1.7,2.2l1.8-1.5l0.2-1.5l1.4-0.7l2.1-1.3l0.6-1.5l-2.3-2.2l-1.5,1.6
		l-0.9,2.3l-0.3-2.6l-2.4,0.1l-3.1,1.8l3.5,0.3L394.5,105.3z M468.5,112.6l2.6,3.2l4.4,2.4l3.4-1l0.4-7.7l-3.6-9l-3.1-5.1l-3.4,2.3
		l-4.1,6.7l2.2,1.8L468.5,112.6z"/>
	<path id="RW" class="st25" d="M369.2,329.1l0.6,0.9l-0.1,0.9l-0.5,0.2l-0.8-0.1l-0.5,0.9l-1-0.1l0.1-0.9l0.2-0.1l0.1-0.9l0.5-0.4
		l0.4,0.2L369.2,329.1z"/>
	<path id="SA" class="st25" d="M388.7,301.3l-0.2-0.7l-0.5-0.5l-0.1-0.7l-0.8-0.6l-0.8-1.4l-0.4-1.4l-1.1-1.1l-0.7-0.3l-1-1.6
		l-0.2-1.2l0.1-1l-0.9-1.9l-0.7-0.7l-0.9-0.4l-0.5-1l0.1-0.4l-0.4-0.9l-0.5-0.4l-0.6-1.3l-1-1.4l-0.8-1.2l-0.8,0l0.2-1l0.1-0.6
		l0.2-0.7l1.8,0.3l0.7-0.6l0.4-0.7l1.2-0.2l0.3-0.6l0.5-0.3l-1.6-1.8l3.2-0.9l0.3-0.3l1.9,0.5l2.4,1.3l4.4,3.7l2.9,0.1l1.4,0.2
		l0.4,0.9l1.1,0l0.6,1.5l0.8,0.4l0.3,0.6l1.1,0.7l0.1,0.7l-0.2,0.6l0.2,0.6l0.5,0.5l0.2,0.6l0.2,0.4l0.5,0.3l0.4-0.1l0.3,0.7
		l0.1,0.4l0.6,1.7l4.7,0.9l0.3-0.4l0.7,1.2l-1.1,3.4l-4.7,1.7l-4.5,0.6l-1.5,0.7l-1.1,1.7l-0.7,0.3l-0.4-0.5l-0.6,0.1l-1.5-0.2
		l-0.3-0.2l-1.8,0l-0.4,0.2l-0.6-0.4l-0.4,0.8l0.2,0.7L388.7,301.3z"/>
	<path id="SB" class="st25" d="M577.1,343.9l0.4,0.5l-1.1,0l-0.6-1l0.9,0.4L577.1,343.9z M575.1,342.9l-0.6,0l-1-0.2l-0.3-0.2
		l0.1-0.6l1,0.2l0.5,0.3L575.1,342.9z M576.4,342.5l-0.2,0.3l-1.2-1.4l-0.3-0.9h0.5l0.6,1.3L576.4,342.5z M573.5,340.5l0.1,0.3
		l-1.2-0.7l-0.9-0.6l-0.6-0.5l0.2-0.2l0.7,0.4l1.3,0.7L573.5,340.5z M569.9,338.9l-0.3,0.1l-0.7-0.4l-0.6-0.6l0.1-0.3l0.9,0.7
		L569.9,338.9z"/>
	<path id="SD" class="st25" d="M374.7,312.4l-0.2,0l0-0.8l-0.2-0.5l-0.8-0.6l-0.2-1.2l0.2-1.2l-0.7-0.1l-0.1,0.4l-1,0.1l0.4,0.5
		l0.1,1l-0.9,0.9l-0.8,1.1l-0.8,0.2l-1.3-0.9l-0.6,0.3l-0.2,0.5l-0.8,0.3l-0.1,0.3h-1.6l-0.2-0.3l-1.1-0.1l-0.6,0.3l-0.4-0.1
		l-0.8-0.9l-0.3-0.4l-1.1,0.2l-0.4,0.7l-0.4,1.4l-0.5,0.3l-0.5,0.2l-0.1-0.1l-0.5-0.5l-0.1-0.5l0.3-0.7v-0.6l-0.9-1l-0.2-0.7l0-0.4
		l-0.6-0.5l0-0.9l-0.3-0.6l-0.6,0.1l0.2-0.6l0.4-0.7l-0.2-0.7l0.5-0.5l-0.3-0.4l0.4-1l0.7-1.2l1.4,0.1l-0.1-6.5l0-0.7l1.8,0v-3.4
		h6.3h6.1h6.3l0.5,1.7l-0.3,0.3l0.2,1.7l0.6,2l0.6,0.4l0.9,0.6l-0.8,0.9l-1.2,0.3l-0.5,0.5l-0.2,1.1l-0.7,2.4l0.2,0.6l-0.3,1.4
		l-0.6,1.6l-1,0.8l-0.7,1.2l-0.2,0.7l-0.7,0.5l-0.5,1.7V312.4z"/>
	<path id="SE" class="st25" d="M356.2,188.9l-1.5,2.6l0.2,2.3l-2.5,2.9l-3,3l-1.2,4.7l1.1,2.3l1.5,1.8l-1.4,3.5l-1.6,0.7l-0.6,5
		l-0.9,2.7l-1.9-0.3l-0.9,2.2l-1.8,0.1l-0.5-2.7l-1.3-3.3l-1.2-4.2l0.7-1.8l1.3-2.1l0.5-3.8l-1-1.7l-0.1-4.5l1-3.3l1.6,0.1l0.5-1.4
		l-0.6-1.3l2.4-5.3l1.6-4.4l1-3l1.5,0l0.4-2.4l3,0.7l0.2-2.9l1-0.2l2.1,2.1l2.5,2.9l0,6.3l0.5,1.5L356.2,188.9z"/>
	<path id="SI" class="st25" d="M342.9,244.6l1.3,0.2l0.8-0.5l1.4-0.1l0.3-0.4l0.3,0l0.3,0.8l-1.3,0.6l-0.2,0.9l-0.5,0.2l0,0.6
		l-0.6,0l-0.5-0.4l-0.3,0.4l-1.1-0.1l0.3-0.2l-0.4-1L342.9,244.6z"/>
	<path id="SJ" class="st25" d="M360.2,125.2l-3.5,3l-2.8-1.7l1.1-1.9l-1-2.4l3.3-1.6l0.6,2.9L360.2,125.2z M349.9,110.2l5.2,6.4
		l-4,3.2l-0.9,5.7l-1.4,1.4l-0.7,5.9l-1.9,0.3l-3.4-4.3l1.4-2.6l-2.4-2.2l-3.1-6.7l-1.2-6.6l4.3-3.2l0.9,3.1l2.2-0.1l0.6-3.1
		l2.3-0.3L349.9,110.2z M361.3,103.8l3.1,3.3l-2.3,4.8l-4.6,1l-4.7-1.4l-0.3-2.4l-2.3-0.2l-1.7-4.2l4.9-2.7l2.3,2.3l1.6-2.9
		L361.3,103.8z"/>
	<path id="SK" class="st25" d="M350.9,237.6l0.1,0.1l0.7-0.3l0.8,0.9l0.9-0.5l0.7,0.2l1.1-0.3l1.5,0.9l-0.4,0.6l-0.3,1l-0.3,0.2
		l-1.7-0.7l-0.5,0.1l-0.4,0.6l-0.7,0.3l-0.2-0.2l-0.8,0.4l-0.6,0.1l-0.1,0.5l-1.3,0.3l-0.6-0.3l-0.8-0.6l-0.2-0.8l0.1-0.3l0.2-0.5
		l0.7,0l0.5-0.2l0-0.2l0.3-0.1l0.1-0.5l0.4-0.1l0.2-0.4L350.9,237.6z"/>
	<path id="SL" class="st25" d="M303.1,316.7l-0.4-0.1l-1.1-0.6l-0.8-0.8l-0.3-0.6l-0.2-1.2l0.8-0.7l0.2-0.4l0.3-0.3l0.4,0l0.4-0.3
		h1.3l0.4,0.6l0.3,0.7l-0.1,0.5l0.3,0.4l0,0.6l0.4-0.1l-0.7,0.7l-0.7,0.9l-0.1,0.5L303.1,316.7z"/>
	<path id="SN" class="st25" d="M294.7,305.8l-0.7-1.3l-0.8-0.6l0.7-0.3l0.8-1.1l0.4-0.8l0.5-0.5l0.8,0.1l0.8-0.4l0.9,0l0.8,0.5
		l1,0.4l1,1.2l1,1.1l0.1,1l0.3,0.9l0.6,0.5l0.1,0.6l-0.1,0.5l-0.2,0.1l-0.9-0.1l-0.1,0.2l-0.3,0l-1.1-0.4l-0.8,0l-2.9-0.1l-0.4,0.2
		l-0.5-0.1l-0.8,0.3l-0.3-1.2l1.4,0l0.4-0.2l0.3,0l0.6-0.4l0.7,0.3l0.7,0l0.7-0.4l-0.3-0.5l-0.5,0.3l-0.5,0l-0.6-0.4l-0.5,0
		l-0.4,0.4L294.7,305.8z"/>
	<path id="SO" class="st25" d="M401.9,308.8l0-0.4l-0.6,0l-0.7,0.6l-0.8,0.2l-0.7,0.2l-0.5,0l-0.9,0.1l-0.6,0.3l-0.8,0.1l-1.4,0.5
		l-1.7,0.2l-1.5,0.4l-0.8,0l-0.7-0.7l-0.3-0.7l-0.5-0.3l-0.6,0.9l-0.3,0.6l0.6,0.9l0.6,0.8l0.6,0.6l5.2,1.9l1.3,0l-4.5,4.7l-2.1,0.1
		l-1.4,1.1l-1,0l-0.4,0.5l-1.4,1.8l0,5.7l0.9,1.3l0.4-0.4l0.4-0.8l1.7-1.9l1.5-1.2l2.4-1.6l1.6-1.3l1.9-2.1l1.3-1.8l1.4-2.3l1-2
		l0.8-1.8l0.4-1.7l0.3-0.6l0-0.8L401.9,308.8z"/>
	<path id="SR" class="st25" d="M230.9,317.9l1.9,0.3l0.2-0.3l1.3-0.1l1.7,0.4l-0.8,1.4l0.1,1.1l0.6,0.9l-0.3,0.7l-0.1,0.7l-0.4,0.7
		l-0.9-0.3l-0.7,0.2l-0.6-0.1l-0.2,0.5l0.3,0.3l-0.1,0.3l-0.9-0.1l-1-1.4l-0.2-0.9l-0.5,0l-0.7-1.1l0.3-0.8l-0.1-0.4l1-0.4
		L230.9,317.9z"/>
	<path id="SS" class="st25" d="M374.7,312.4l0,1.2l-0.2,0.5l-0.8,0l-0.5,0.9l1,0.1l0.8,0.8l0.3,0.6l0.7,0.4l0.9,1.7l-1.1,1l-1,0.9
		l-1,0.7h-1.1l-1.3,0.4l-1-0.4l-0.6,0.4l-1.4-1l-0.4-0.7l-0.9,0.3l-0.7-0.1l-0.4,0.3l-0.7-0.2l-1-1.3l-0.3-0.5l-1.2-0.6l-0.4-0.9
		l-0.7-0.7l-1.1-0.8l0-0.5l-0.9-0.6l-1.1-0.6l0.5-0.2l0.5-0.3l0.4-1.4l0.4-0.7l1.1-0.2l0.3,0.4l0.8,0.9l0.4,0.1l0.6-0.3l1.1,0.1
		l0.2,0.3h1.6l0.1-0.3l0.8-0.3l0.2-0.5l0.6-0.3l1.3,0.9l0.8-0.2l0.8-1.1l0.9-0.9l-0.1-1l-0.4-0.5l1-0.1l0.1-0.4l0.7,0.1l-0.2,1.2
		l0.2,1.2l0.8,0.6l0.2,0.5l0,0.8L374.7,312.4z"/>
	<path id="SV" class="st25" d="M182.5,306.1l-0.2,0.4l-0.9,0l-0.6-0.2l-0.7-0.3l-0.9-0.1l-0.4-0.3l0.1-0.2l0.5-0.4l0.3-0.2l-0.1-0.2
		l0.4-0.1l0.5,0.1l0.3,0.3l0.5,0.3l0.1,0.2l0.7-0.2l0.3,0.1l0.2,0.2L182.5,306.1z"/>
	<path id="SY" class="st25" d="M382.4,271.7l-3.1,2l-1.8-0.7l0,0l0.2-0.3l0-0.8l0.4-1l0.9-0.7l-0.3-0.7l-0.7-0.1l-0.1-1.5l0.4-0.8
		l0.4-0.4l0.4-0.4l0.1-1.1l0.5,0.4l1.7-0.5l0.8,0.4l1.3,0l1.8-0.7l0.9,0l1.8-0.3l-0.8,1.2l-0.9,0.5l0.2,1.4l-0.6,2.3L382.4,271.7z"
		/>
	<path id="SZ" class="st25" d="M371.8,370.9l-0.3,0.8l-0.9,0.2l-0.9-1l0-0.6l0.4-0.7l0.2-0.5l0.5-0.1l0.8,0.3l0.2,0.8L371.8,370.9z"
		/>
	<path id="TD" class="st25" d="M344,307l0.2-0.8l-1,0l0-1l-0.7-0.6l0.7-2.1l2-1.5l0.1-2.1l0.6-3.4l0.3-0.7l-0.7-0.6l0-0.5l-0.6-0.4
		l-0.4-2.6l1.6-0.9l6.3,3.2l6.3,3.2l0.1,6.5l-1.4-0.1l-0.7,1.2l-0.4,1l0.3,0.4l-0.5,0.5l0.2,0.7l-0.4,0.7l-0.2,0.6l0.6-0.1l0.3,0.6
		l0,0.9l0.6,0.5l0,0.4l-1,0.3l-0.8,0.6l-1.1,1.7l-1.5,0.7l-1.5-0.1l-0.4,0.1l0.2,0.6l-0.8,0.6l-0.7,0.6l-2,0.6l-0.4-0.4l-0.3,0
		l-0.3,0.4l-1.3,0.1l0.2-0.4l-0.5-1.1l-0.2-0.7l-0.7-0.3l-0.9-0.9l0.3-0.7l0.7,0.2l0.4-0.1l0.9,0l-0.9-1.4l0.1-1.1l-0.1-1.1L344,307
		z"/>
	<path id="TF" class="st25" d="M430,415l1,0.7l1.5,0.3l0.1,0.5l-0.4,1.1l-2.4,0.2l0-1.3l0.2-1L430,415z"/>
	<path id="TG" class="st25" d="M324.1,317.7l-1.3,0.3l-0.4-0.6l-0.4-1l-0.1-0.8l0.3-1.4l-0.4-0.6l-0.2-1.3v-1.2l-0.7-0.8l0.1-0.5
		l1.4,0l-0.2,0.8l0.5,0.5l0.6,0.6l0.1,0.8l0.3,0.3l-0.1,3.6L324.1,317.7z"/>
	<path id="TH" class="st25" d="M483.1,308.1l-1.4-0.7l-1.4,0l0.2-1.3l-1.4,0l-0.1,1.8l-0.9,2.3l-0.5,1.4l0.1,1.2l1,0.1l0.6,1.4
		l0.3,1.4l0.9,0.9l1,0.2l0.8,0.8l-0.5,0.6l-1,0.2l-0.1-0.8l-1.3-0.7l-0.3,0.3l-0.6-0.6l-0.3-0.8l-0.8-0.9l-0.8-0.7l-0.3,0.9
		l-0.3-0.9l0.2-1l0.5-1.5l0.8-1.6l0.9-1.5l-0.6-1.5l0-0.7l-0.2-0.9l-1.1-1.3l-0.4-0.8l0.5-0.3l0.6-1.4l-0.6-1.1l-1-1.2l-0.8-1.4
		l0.7-0.3l0.7-1.8l1.1-0.1l0.9-0.7l0.9-0.4l0.7,0.5l0.1,1l1.1,0.1l-0.4,1.8l0,1.5l1.7-1l0.5,0.3l0.9,0l0.3-0.6l1.2,0.1l1.2,1.3
		l0.1,1.6l1.3,1.4l-0.1,1.4l-0.5,0.7l-1.5-0.2l-2,0.3l-1,1.3L483.1,308.1z"/>
	<path id="TJ" class="st25" d="M433.3,258.2l-0.6,0.6l-1.7-0.3l-0.2,1.2l1.7-0.2l2,0.7l3-0.3l0.4,1.9l0.5-0.2l1,0.5l-0.1,0.8
		l0.2,1.1h-1.6l-1.1-0.1l-1,0.9l-0.7,0.2l-0.6,0.4l-0.6-0.6l0.2-1.7l-0.5-0.1l0.2-0.6l-0.9-0.5l-0.7,0.7l-0.2,0.8l-0.2,0.3l-0.9,0
		l-0.5,0.9l-0.5-0.4l-1.1,0.6l-0.5-0.2l0.9-2l-0.3-1.5l-1.2-0.5l0.4-0.9l1.3,0.1l0.7-1.1l0.5-1.3l2.1-0.5l-0.3,1l0.2,0.6
		L433.3,258.2z"/>
	<path id="TL" class="st25" d="M518.4,341.3l0.2-0.4l1.4-0.4l1.1-0.1l0.5-0.2l0.6,0.2l-0.6,0.4l-1.6,0.7l-1.3,0.5l0-0.5L518.4,341.3
		z"/>
	<path id="TM" class="st25" d="M417.8,267.4l-0.1-1.6l-1.2-0.1l-1.8-1.7l-1.3-0.2l-1.7-1l-1.1-0.2l-0.7,0.4l-1.1-0.1l-1.1,1.1
		l-1.4,0.4l-0.3-1.4l0.2-2.1l-1.2-0.7l0.4-1.4l-1-0.1l0.3-1.7l1.5,0.5l1.4-0.7l-1.2-1.3l-0.5-1.2l-1.3,0.5l-0.2,1.5L404,255l0.7-0.7
		l1.8-0.4l1.1,0.6l1.1,1.6l0.8-0.1l1.8,0l-0.3-1.1l1.4-0.7l1.3-1.2l2.1,1.1l0.2,1.7l0.6,0.4l1.7-0.1l0.5,0.4l0.8,2.1l1.8,1.4l1,1
		l1.6,1l2.1,0.9l0,1.2l-0.5-0.1l-0.7-0.5l-0.2,0.7l-1.3,0.4l-0.3,1.6l-0.9,0.6l-1.2,0.3l-0.3,0.9l-1.2,0.3L417.8,267.4z"/>
	<path id="TN" class="st25" d="M336.1,277.4l-0.7-3.3l-1-0.7l0-0.5l-1.3-1.1l-0.1-1.4l1-1.1l0.4-1.6l-0.3-1.8l0.3-1l1.7-0.8l1.1,0.2
		l0,1l1.3-0.7l0.1,0.4l-0.8,1l0,0.9l0.5,0.5l-0.2,1.7l-1,1l0.3,1l0.8,0l0.4,0.9l0.6,0.3l-0.1,1.4l-0.8,0.5l-0.5,0.6l-1.1,0.7
		l0.2,0.8l-0.1,0.8L336.1,277.4z"/>
	<path id="TR" class="st25" d="M379.4,255.9l2.3,0.8l1.8-0.3l1.4,0.2l1.9-1.1l1.7-0.1l1.5,1l0.3,0.7l-0.2,1l1.2,0.5l0.6,0.6
		l-1.1,0.6l0.5,2.3l-0.3,0.6l0.9,1.6l-0.8,0.3l-0.6-0.5l-1.8-0.3l-0.7,0.3l-1.8,0.3l-0.9,0l-1.8,0.7l-1.3,0l-0.8-0.4l-1.7,0.5
		l-0.5-0.4l-0.1,1.1l-0.4,0.4l-0.4,0.4l-0.6-0.9l0.6-0.7l-1,0.2l-1.3-0.5l-1.1,1.1l-2.4,0.2l-1.3-1l-1.7-0.1l-0.4,0.8l-1.1,0.2
		l-1.5-1l-1.7,0l-0.9-2l-1.2-1.1l0.8-1.6l-1-1l1.8-2l2.4-0.1l0.7-1.6l3,0.3l1.9-1.4l1.8-0.6l2.6,0L379.4,255.9z M364.1,257.3
		l-1.3,1.1l-0.5-1l0-0.4l0.4-0.2l0.5-1.3l-0.8-0.6l1.6-0.7l1.4,0.3l0.2,0.8l1.4,0.7l-0.3,0.5l-1.9,0.1L364.1,257.3z"/>
	<path id="TT" class="st25" d="M223.7,310.4l0.9-0.2l0.3,0.1l-0.1,1.2l-1.3,0.2l-0.3-0.1l0.5-0.4L223.7,310.4z"/>
	<path id="TW" class="st25" d="M513.4,287.8l-1,2.7l-0.7,1.4l-0.8-1.4l-0.2-1.3l0.9-1.7l1.3-1.3l0.7,0.5L513.4,287.8z"/>
	<path id="TZ" class="st25" d="M374.7,328.8l0.3,0.2l5.7,3.2l0.1,0.9l2.3,1.6l-0.7,1.9l0.1,0.9l1,0.6l0,0.4l-0.4,1l0.1,0.5l-0.1,0.8
		l0.6,1l0.7,1.6l0.6,0.3l-1.3,0.9l-1.7,0.6l-0.9,0l-0.6,0.5l-1.1,0l-0.4,0.2l-1.9-0.5l-1.2,0.1l-0.4-2.2l-0.5-0.7l-0.3-0.4l-1.5-0.3
		l-0.9-0.5l-1-0.3l-0.6-0.3l-0.7-0.4l-0.9-2l-0.9-0.9l-0.3-0.9l0.2-0.8l-0.3-1.4l0.7-0.1l0.6-0.6l0.6-0.8l0.4-0.3l0-0.5l-0.3-0.4
		l-0.1-0.6l0.5-0.2l0.1-0.9l-0.6-0.9l0.6-0.2l1.7,0L374.7,328.8z"/>
	<path id="UA" class="st25" d="M371.3,231.1l0.6,0.1l0.4-0.6l0.5,0.1l1.6-0.2l1,1.4l-0.4,0.5l0.1,0.8l1.3,0.1l0.6,1.1l0,0.5l2,0.9
		l1.2-0.4l1,1.1l0.9,0l2.3,0.8l0,0.7l-0.6,1.3l0.3,1.3l-0.2,0.8l-1.5,0.2l-0.8,0.7l-0.1,1l-1.3,0.2l-1.1,0.7l-1.5,0.1l-1.4,0.9
		l-0.7,0.6l0.8,0.8l0.8,0.5l1.6-0.1l-0.3,0.8l-1.7,0.4l-2.1,1.3l-0.9-0.4l0.3-1l-1.7-0.7l0.3-0.4l1.8-0.9l-0.2-0.5l-0.3,0.2
		l-0.2-0.1l-2.5-0.6l-0.1-0.9l-1.5,0.3l-0.6,1.3l-1.2,1.7l-0.7-0.4l-0.7,0.4l-0.7-0.4l0.4-0.2l0.3-0.8l0.4-0.7l-0.1-0.4l0.3-0.2
		l0.2,0.3l0.9,0.1l0.4-0.2l-0.3-0.2l0.1-0.3l-0.6-0.6l-0.2-1l-0.6-0.4l0.1-0.8l-0.7-0.6l-0.6-0.1l-1.2-0.7l-1,0.2l-0.4,0.3l-0.7,0
		l-0.4,0.6l-1.2,0.2l-0.5,0.4l-0.7-0.6l-1,0l-1-0.3l-0.7,0.5l-0.1-0.6l-0.9-0.6l0.3-1l0.4-0.6l0.3,0.1l-0.4-1.1l1.4-2l0.8-0.3
		l0.2-0.7l-0.8-2.2l0.8-0.1l0.9-0.7l1.2-0.1l1.6,0.2l1.8,0.6l1.2,0.1l0.6,0.4l0.6-0.4l0.4,0.6l1.4-0.1l0.6,0.2l0.1-1.3l0.5-0.6
		L371.3,231.1z"/>
	<path id="UG" class="st25" d="M371.4,328.9l-1.7,0l-0.6,0.2l-0.9,0.5l-0.4-0.2l0-1.2l0.4-0.6l0.1-1.3l0.3-0.7l0.6-0.8l0.6-0.4
		l0.5-0.6l-0.6-0.2l0.1-1.8l0.6-0.4l1,0.4l1.3-0.4h1.1l1-0.7l0.7,1.1l0.2,0.8l0.7,1.8l-0.6,1.1l-0.8,1l-0.5,0.6l0,1.7L371.4,328.9z"
		/>
	<path id="US" class="st25" d="M115,224L115,224l-0.9-1l-1.4-0.9l-0.4-2.5l-2-2.3l-0.9-2.8l-1.5-0.2l-2.5-0.1l-1.9-0.9l-3.3-3.2
		l-1.5-0.6l-2.8-1.1l-2.2,0.3l-3.1-1.5l-1.9-1.4l-1.8,0.7l0.3,2.2l-0.9,0.2l-1.8,0.7l-1.4,1l-1.8,0.7l-0.2-1.8l0.7-3.1l1.7-1
		l-0.4-0.8l-2,1.8l-1.1,2.1l-2.3,2.2l1.2,1.5l-1.5,2.2l-1.7,1.2l-1.6,0.9l-0.4,1.3l-2.5,1.5l-0.5,1.3l-1.8,1.2l-1.1-0.2l-1.5,0.8
		l-1.6,0.9l-1.3,0.9L61,225l-0.2-0.5l1.7-1.3l1.5-0.9l1.7-1.5l2-0.3l0.8-1.2l2.2-1.7l0.4-0.6l1.2-1l0.3-2.3l0.8-1.8l-1.8,0.9
		l-0.5-0.5l-0.9,1.1l-1-1.5l-0.4,1.1l-0.6-1.5l-1.6,1.2h-1l-0.1-1.8l0.3-1.1l-1-1.1l-2.1,0.6l-1.3-1.5l-1.1-0.8l0-1.8l-1.2-1.4
		l0.6-1.9l1.3-1.9l0.6-1.8l1.3-0.3l1.1,0.6l1.3-1.7l1.1,0.3l1.2-1.1l-0.3-1.6l-0.9-0.7l1.2-1.4l-1,0l-1.7,0.8l-0.5,0.8l-1.2-0.8
		l-2.2,0.4l-2.3-0.9l-0.7-1.5l-2-2.2l2.2-1.6l3.5-1.9h1.3l-0.2,2l3.3-0.2l-1.3-2.4l-1.9-1.5l-1.1-2l-1.5-1.8l-2.2-1.3l0.9-2.3
		l2.8-0.1l2-2l0.4-2.2l1.6-2.2l1.5-0.5l3-2.1l1.5,0.3l2.4-2.6l2.4,1l1.1,2.2l0.7-0.9l2.7,0.3l-0.1,1.1l2.4,0.8l1.6-0.5l3.3,1.5
		l3,0.4l1.2,0.6l2.1-0.8l2.4,1.4l1.7,0.6l0,15.6l0,20l1.6,0.1l1.5,0.9l1.1,1.4l1.4,2l1.5-1.7l1.6-1l0.8,1.6l1.1,1.3l1.4,1.4l1,2.1
		l1.6,3.3l2.7,1.8l0,1.8L115,224z M214.1,243.3l-0.7-0.7l-1.1,0.4l-0.5-0.6l-1.2,1.7l-0.5,1.8l-0.6,1l-0.7,0.3l-0.5,0.1l-0.2,0.6
		h-2.9l-2.4,0l-0.7,0.4l-1.6,1.5l0.2,0.3l0.1,0.9l-1.2,0.7l-1.3-0.2l-1.2-0.1l-0.7,0.2l0.1,0.6l0,0.2l-1.4,1.3l-1.2,0.6l-0.8,0.3
		l-0.9,0.6l-1.1,0.3l-0.8-0.1l-1-0.4l0.5-0.8l0.3-0.7l0.7-1.2l-0.1-0.9l-0.3-1.3l-0.6-0.2l-1,1l-0.3,0l-0.1-0.5l0.9-0.9l0.1-1
		l-0.1-1l-1.2-0.9l-1.3-0.5l-0.2,0.9l-0.3,0.2l-0.3,1.1l-0.1-0.7l-0.6,0.5L185,249l-0.4,1.1l-0.1,0.9l0.5,1.3l0,1.4l-0.6,1l-0.3,0.3
		l-0.4,0.2l-0.5,0l-0.1-0.1l-0.4-1.1l0-0.6l0-0.5l-0.2-1.1l0.3-1.2l0.4-1.5l0.8-1.7l-0.2,0l-1.2,1.4l-0.2-0.3l0.6-0.8l0.9-1.4
		l1.1-0.2l1.2-0.5l1.2,0.2l0.1,0l1.4-0.2l-0.8-0.9l-0.4-0.1l-0.5-0.1l-0.3-0.6l-1.5,0.2l-1.4,0.5l-1.1-0.9l-0.9-0.3l0.5-1.2
		l-1.4,0.8l-1.3,0.7l-1.2,0.6l-1-0.8l-1.6,0.5l0-0.3l1.1-1l1.1-0.9l1.6-0.8l-1.9-0.6l-1.3,0.3l-1.5-0.7l-1.6-0.4l-1.1-0.1l-0.5-0.4
		l-0.3-1.3l-0.5,0l0,0.9h-3.3h-5.4h-5.4h-4.7h-4.7h-4.7h-4.8h-1.6h-4.7h-4.5l0.5,2l0.3,1.9l-0.4,0.6l-0.8-2.2l-2.3-0.8l-0.2,0.5
		l0.5,1.1l0.5,2l0.3,3.1l-0.2,2l-0.2,2l-0.6,2l0.5,1.6l0.1,1.8l-0.3,1.7l0.8,1.1l0.2,1.7l1.2,1.7l0.7,0.7l-0.1,0.5l1.3,2.7l1.5,1.9
		l0.2,1.1l0.4,0.3l1.5,0.2l0.6,0.5l0.9,0.1l0.2,0.5l0.7,0.2l1,1.1l0.3,1l1.8-0.1l2-0.2l-0.1,0.4l2.4,0.9l3.6,1.3l3.1,0h1.3l0-0.8
		h2.7l0.6,0.7l0.8,0.6l0.9,0.8l0.5,1l0.4,1l0.8,0.5l1.3,0.5l1-1.4l1.3,0l1.1,0.7l0.8,1.2l0.5,1l0.9,1l0.3,1.2l0.4,0.8l1.2,0.5
		l1.1,0.4l0.6-0.1l-0.3-0.6l-0.1-0.8l0-1.2l0.4-0.8l0.9-0.9l1.6-0.8l1.4-1.3l1.3-0.4l1-0.1l1.1,0.4l1.4-0.2l1.2,1l1.1,0.1l0.6-0.3
		l0.6,0.3l0.3-0.2l-0.3-0.4l0-0.7l-0.3-0.5l0.7-0.3l1.2-0.1l1.4,0.2l1.8-0.2l1,0.5l0.8,0.8l0.3,0.1l1.6-0.8l0.6,0.3l1.2,1.5l0.4,1
		l-0.3,1.2l0.2,0.7l0.7,1.4l0.8,1.5l0.6,0.4l0.2,0.8l0.8,0.2l0.5-0.2l0.4-1.1l0.1-0.7l0.1-1.2l-0.7-2.1l0-0.8l-0.7-1.3l-0.5-1.5
		l-0.3-1.3l0.2-1.3l0.7-1.1l0.9-0.9l1.7-1.2l0.2-0.6l0.8-0.7l0.8-0.1l1-1.1l1.6-0.6l1-1.4l-0.2-1.9l-0.2-0.7l-0.5-0.1l-0.1-1.9
		l-1.1-0.6l1,0.3l-0.3-1.3l0.3-0.9l0.2,1.7l0.8,0.8l-0.5,1.4l0.1,0.1l0.9-1.6l0.5-0.8l0-0.8l-0.4-0.4l-0.3-1.1l0.5,0.5l0.3,0.1
		l0.1,0.5l1.1-1.6l0.3-1.5l-0.5-0.1l0.5-0.6l0,0.3l1,0l2.2-0.6l-0.5-0.4l-2.3,0.4l1.3-0.6l0.9-0.1l0.7-0.1l1.2-0.4l0.8,0l1.1-0.3
		l0.1-0.6l-0.5-0.5l0.2,0.8l-0.7-0.1l-0.5-1.1l0-1.1l0.3-0.5l0.8-1.3l1.7-0.6l1.6-0.8l1.7-1.1l-0.3-0.7l-1-1.3L214.1,243.3z
		 M79.2,214.9l-0.8,0.5l-1.4,1l0.2,1.4l0.8,0.7l1.6-1.1l1.4-1.4l-0.7-0.9L79.2,214.9z M53.5,198.8l1.1-0.7l0.1-0.4l-1.3-0.4V198.8z
		 M58.3,207.5l-1.6,0.5l1,0.9l1,0.6l1-0.5l-0.2-1.2L58.3,207.5z M113.1,225.8l-1.5,0.2l-0.7-0.3l-0.1,0.9l0.3,1.2l0.8,0.8l0.6,1.2
		l1,1.2l0.6,0l-1.4-2.1L113.1,225.8z M74.4,293.8l-0.6-0.2l-0.2,0.1l0,0.1l0.2,0.1l0.3,0.4l0.5-0.1l0.1-0.2L74.4,293.8z M72.7,293.5
		l0.8,0.1l0.1-0.2l-0.8-0.1L72.7,293.5z M76.1,295.3l-0.3-0.1l-0.6-0.3l-0.1,0L75,295l0.1,0.3l-0.3,0.3l-0.1,0.2l0.3,0.6l0,0.5
		l0.4,0.2l0.2-0.3l0.5-0.3l0.6-0.4l0-0.1l-0.4-0.6L76.1,295.3z M71.6,292.4l-0.4,0.2l0.1,0.1l0.2,0.4l0.6,0.1l0.1,0l0.1-0.1
		l-0.5-0.6L71.6,292.4z M69.1,291.5l-0.2,0.2l-0.1,0.1l0.5,0.3l0.2-0.2l0-0.4L69.1,291.5z"/>
	<path id="UY" class="st25" d="M230.1,377.1l1-0.2l1.6,1.4l0.6-0.1l1.6,1.2l1.2,1l0.9,1.3l-0.7,0.9l0.4,1.1l-0.7,1.2l-1.8,1.1
		l-1.2-0.4l-0.9,0.2l-1.5-0.8l-1.1,0.1l-1-1.1l0.1-1.2l0.3-0.4l0-1.9l0.4-1.9L230.1,377.1z"/>
	<path id="UZ" class="st25" d="M426.1,264l0-1.2l-2.1-0.9l-1.6-1l-1-1l-1.8-1.4l-0.8-2.1l-0.5-0.4l-1.7,0.1l-0.6-0.4l-0.2-1.7
		l-2.1-1.1l-1.3,1.2l-1.4,0.7l0.3,1.1l-1.8,0l-0.1-8l4.1-1.3l0.3,0.2l2.4,1.6l1.3,0.8l1.5,2l1.9-0.3l2.7-0.2l1.9,1.6l-0.1,2.1l0.8,0
		l0.3,1.7l2,0.1l0.4,1l0.6,0l0.7-1.5l2.1-1.5l0.9-0.4l0.5,0.2l-1.3,1.4l1.2,0.8l1.1-0.5l1.9,1.1l-2,1.5l-1.2-0.2l-0.7,0.1l-0.2-0.6
		l0.3-1l-2.1,0.5l-0.5,1.3l-0.7,1.1l-1.3-0.1l-0.4,0.9l1.2,0.5l0.3,1.5l-0.9,2L427,264L426.1,264z"/>
	<path id="VE" class="st25" d="M208.5,308.7l0,0.4l-0.9,0.2l0.5,0.7l0,0.8l-0.7,0.9l0.6,1.3l0.7-0.1l0.4-1.1l-0.5-0.6l-0.1-1.2
		l2-0.7l-0.2-0.8l0.6-0.5l0.6,1.1l1.1,0l1,0.9l0.1,0.5l1.4,0l1.7-0.2l0.9,0.7l1.2,0.2l0.9-0.5l0-0.4l2-0.1l1.9,0l-1.3,0.5l0.5,0.8
		l1.3,0.1l1.2,0.8l0.3,1.3l0.8,0l0.6,0.4l-1.3,0.9l-0.1,0.6l0.5,0.6l-0.4,0.3l-1,0.3l0,0.7l-0.4,0.4l1.1,1.2l0.2,0.4l-0.6,0.6
		l-1.8,0.6L222,321l-0.5,0.4l-1.3-0.4l-1.2-0.2l-0.3,0.1l0.7,0.4l-0.1,1.1l0.2,1l1.3,0.1l0.1,0.3l-1.1,0.5l-0.2,0.7l-0.7,0.3
		l-1.2,0.4l-0.3,0.5l-1.2,0.1l-0.9-0.8l-0.5-1.6l-0.4-0.6l-0.6-0.3l0.8-0.8l-0.1-0.4l-0.5-0.5l-0.3-1l0.1-1.1l0.3-0.5l0.3-0.8
		l-0.6-0.3l-0.9,0.2l-1.1-0.1l-0.6,0.2l-1.1-1.4l-0.9-0.2l-2,0.2l-0.4-0.6l-0.4-0.1l-0.1-0.3l0.2-0.6l-0.1-0.6l-0.3-0.3l-0.2-0.7
		l-0.8-0.1l0.4-0.9l0.2-1.1l0.5-0.6l0.6-0.5l0.4-0.8L208.5,308.7z"/>
	<path id="VN" class="st25" d="M491.7,292.7l-2.1,1.4l-1.3,1.6l-0.3,1.2l1.2,1.7l1.5,2.2l1.4,1l1,1.3l0.7,3l-0.2,2.8l-1.3,1.1
		l-1.8,1l-1.3,1.3l-2,1.5l-0.6-1l0.4-1.1l-1.2-0.9l1.4-0.6l1.7-0.1l-0.7-1l2.7-1.2l0.2-1.9l-0.4-1.1l0.3-1.6l-0.4-1.1l-1.2-1.1
		l-1-1.4l-1.3-1.9l-1.9-1l0.5-0.6l1-0.4L486,294l-1.9,0l-0.7-1.5l-0.9-1.3l0.9-0.4l1.3,0l1.5-0.2l1.3-0.9l0.8,0.6l1.4,0.3l-0.3,1
		l0.8,0.7L491.7,292.7z"/>
	<path id="VU" class="st25" d="M586.1,353.5l-0.5,0.2l-0.5-0.7l0.1-0.4L586.1,353.5z M585,351l0.3,1.3l-0.4-0.2l-0.3,0.1l-0.2-0.5
		l0-1.2L585,351z"/>
	<path id="YE" class="st25" d="M405,300.8l-1.1,0.4l-0.3,0.7l0,0.6l-1.6,0.7l-2.5,0.8l-1.4,1.1l-0.7,0.1l-0.5-0.1l-0.9,0.7l-1,0.3
		l-1.3,0.1l-0.4,0.1l-0.3,0.4l-0.4,0.1l-0.2,0.4l-0.8,0l-0.5,0.2l-1.1-0.1l-0.4-0.9l0-0.9l-0.3-0.5l-0.3-1.2l-0.5-0.7l0.3-0.1
		l-0.2-0.7l0.2-0.3l-0.1-0.7l0.7-0.5l-0.2-0.7l0.4-0.8l0.6,0.4l0.4-0.2l1.8,0l0.3,0.2l1.5,0.2l0.6-0.1l0.4,0.5l0.7-0.3l1.1-1.7
		l1.5-0.7l4.5-0.6l1.2,2.7L405,300.8z"/>
	<path id="ZA" class="st25" d="M370.9,375.4l-0.3,0.3l-0.7,0.9l-0.4,0.9l-0.9,1.3l-1.8,1.9l-1.1,1.1l-1.2,0.9l-1.6,0.7l-0.8,0.1
		l-0.2,0.5l-1-0.3l-0.8,0.4l-1.7-0.4l-1,0.2l-0.7-0.1l-1.6,0.7l-1.3,0.3l-1,0.7l-0.7,0l-0.7-0.7l-0.5,0l-0.7-0.9l-0.1,0.3l-0.2-0.5
		l0-1.1l-0.5-1.3l0.5-0.3l0-1.4l-1-1.7l-0.8-1.5v0l-1.1-2.3l0.8-0.9l0.6,0.5l0.3,0.8l0.7,0.1l1,0.3l0.9-0.1l1.4-0.9v-6.5l0.4,0.3
		l0.9,1.6l-0.1,1.1l0.4,0.6l1.1-0.2l0.8-0.8l0.7-0.5l0.4-0.8l0.8-0.4l0.7,0.2l0.8,0.5l1.3,0.1l1-0.4l0.2-0.5l0.3-0.8l0.9-0.1
		l0.5-0.6l0.5-1.1l1.4-1.3l2.2-1.3l0.6,0l0.8,0.3l0.5-0.2l0.8,0.2l0.8,2.4l0.4,1.2l-0.3,1.9l0.1,0.6l-0.8-0.3l-0.5,0.1l-0.1,0.5
		l-0.4,0.7l0,0.6l0.9,1l0.9-0.2l0.3-0.8l1.2,0l-0.4,1.3l-0.2,1.5l-0.4,0.8L370.9,375.4z M366.9,374.8l-0.7-0.6l-0.7,0.4l-0.9,0.7
		l-0.8,1.1l1.2,1.4l0.6-0.2l0.3-0.6l0.9-0.3l0.3-0.6l0.5-0.9L366.9,374.8z"/>
	<path id="ZM" class="st25" d="M372.9,341.9l0.7,0.7l0.4,1.4l-0.3,0.4l-0.3,1.3l0.3,1.3l-0.5,0.6l-0.5,1.5l0.8,0.4l-4.8,1.3l0.2,1.2
		l-1.2,0.2l-0.9,0.6l-0.2,0.6l-0.6,0.1l-1.4,1.4l-0.9,1.1l-0.5,0l-0.5-0.2l-1.8-0.2l-0.3-0.1l0-0.1l-0.6-0.4l-1-0.1l-1.3,0.4l-1-1
		l-1.1-1.3l0.1-5.2l3.3,0l-0.1-0.6l0.2-0.6l-0.3-0.7l0.2-0.8l-0.2-0.5l0.5,0l0.1,0.5l0.7,0l1,0.1l0.5,0.7l1.3,0.2l1-0.5l0.4,0.8
		l1.2,0.2l0.6,0.7l0.6,0.9l1.2,0l-0.1-1.7l-0.4,0.3l-1.1-0.6l-0.4-0.3l0.2-1.6l0.3-1.9l-0.4-0.7l0.5-1l0.4-0.2l2.1-0.3l0.6,0.2
		l0.7,0.4l0.6,0.3l1,0.3L372.9,341.9z"/>
	<path id="ZW" class="st25" d="M370.4,363.1l-0.8-0.2l-0.5,0.2l-0.8-0.3l-0.6,0l-1-0.8l-1.2-0.3l-0.5-1.1l0-0.6l-0.7-0.2l-1.8-1.8
		l-0.5-1l-0.3-0.3l-0.6-1.3l1.8,0.2l0.5,0.2l0.5,0l0.9-1.1l1.4-1.4l0.6-0.1l0.2-0.6l0.9-0.6l1.2-0.2l0.1,0.6l1.3,0l0.7,0.3l0.3,0.4
		l0.8,0.1l0.8,0.5l0,2.1l-0.3,1.1l-0.1,1.2l0.3,0.5l-0.2,1l-0.2,0.2l-0.4,1.2L370.4,363.1z"/>
</g>
<rect x="43.4" y="42.2" class="st28" width="309.2" height="20.1"/>
<text transform="matrix(1 0 0 1 43.447 55.8597)" class="st29 st30">Australias largest animal imports in 2016</text>
<rect x="43.7" y="27.5" class="st28" width="309.2" height="11.5"/>
<text transform="matrix(1 0 0 1 43.7263 36.8899)" class="st31 st32">Map 3: Flow Map</text>
<line class="st22" x1="42.7" y1="439" x2="331.9" y2="439"/>
<rect x="42.7" y="443.1" class="st28" width="372.5" height="24.2"/>
<text transform="matrix(1 0 0 1 42.7243 449.3543)"><tspan x="0" y="0" class="st31 st33">Data Source: World Integrated Trade Solution import and export data</tspan><tspan x="0" y="9.6" class="st31 st33">By Mariel Padilla </tspan></text>
<rect x="76.8" y="352.7" class="st34" width="94.7" height="47.3"/>
<rect x="84.7" y="357.5" class="st28" width="118" height="41.2"/>
<text transform="matrix(1 0 0 1 84.7051 363.7303)"><tspan x="0" y="0" class="st35 st31 st33">$600,000,000 = 13.3 pt stroke</tspan><tspan x="0" y="9.6" class="st35 st31 st33">$300,000,000 = 6.6 pt stroke</tspan><tspan x="0" y="19.2" class="st35 st31 st33">$150,000,000 = 3.3 pt stroke</tspan><tspan x="0" y="28.8" class="st35 st31 st33">$75,000,000 = 1.6 pt stroke</tspan></text>
<g class="st36">
	<g>
		<path class="st37" d="M599.4,389.6c0.4-2.9,0.9-9.6-2.8-16.2c-2.7-5.1-6.5-7.8-9.2-9.8c-3.1-2.2-7.7-5.5-14.5-6.2
			c-7.6-0.8-13.5,2.1-16,3.5"/>
		<g>
			<path class="st38" d="M535.4,373.1c8-9.5,16.9-23,20.8-34.2l3.5,20.4l15.7,13.4C563.9,370.4,547.7,371.1,535.4,373.1z"/>
		</g>
	</g>
</g>
<rect x="598.9" y="394.2" class="st28" width="43.8" height="24.2"/>
<text transform="matrix(1 0 0 1 598.8893 399.5823)" class="st39 st40">New Zealand</text>
<rect x="502.4" y="388.4" class="st28" width="43.8" height="24.2"/>
<text transform="matrix(1 0 0 1 502.3893 393.8323)" class="st39 st40">Australia</text>
<rect x="147.4" y="258.4" class="st28" width="43.8" height="24.2"/>
<text transform="matrix(1 0 0 1 147.3893 263.8322)" class="st39 st40">United States</text>
<g class="st36">
	<g>
		<path class="st41" d="M188.1,269.5c7.6-13.8,21.3-33.8,43.9-48.3c53.2-33.9,113.5-9.6,137.4,0c78.7,31.7,118.1,106.9,132.4,140"/>
		<g>
			<path class="st42" d="M506.1,371.4c-3.8-4.1-9.3-8.7-14.1-11.1l9.2-0.4l6.8-6.3C506.4,358.6,505.9,365.9,506.1,371.4z"/>
		</g>
	</g>
</g>
<g class="st36">
	<g>
		<path class="st43" d="M335.4,220.4c3.5,12.6,38.8,134.4,124.2,156.9c11.6,3.1,27.4,5.2,46.7,1.8"/>
		<g>
			<path class="st42" d="M514.9,377.3c-3.8,2.4-8.3,6-10.9,9.4l1.1-7.4l-3.9-6.3C504.9,375,510.5,376.6,514.9,377.3z"/>
		</g>
	</g>
</g>
<rect x="307.1" y="216.4" class="st28" width="43.8" height="8.3"/>
<text transform="matrix(1 0 0 1 307.0884 221.8161)" class="st39 st40">Denmark</text>
<g class="st36">
	<g>
		<path class="st44" d="M491.4,277.1c3.8,1.4,30.4,11.7,40.1,40.1c4.4,13,3.6,24.9,2,32.8"/>
		<g>
			<path class="st45" d="M531.5,357.7c-0.4-4-1.6-9.1-3.4-12.5l5.5,3.7l6.6-0.7C537.2,350.4,533.8,354.4,531.5,357.7z"/>
		</g>
	</g>
</g>
<rect x="477.5" y="266.8" class="st28" width="43.8" height="24.2"/>
<text transform="matrix(1 0 0 1 477.4551 272.2153)" class="st39 st40">China</text>
<g class="st36">
	<g>
		<path class="st46" d="M493.2,305.1c2.5,0.9,20.6,7.4,27.1,25.5c3.1,8.5,2.4,16.2,1.3,21.3"/>
		<g>
			<path class="st45" d="M520.2,356.4c-0.2-2.4-0.8-5.4-1.8-7.4l3.2,2.3l3.9-0.3C523.7,352.2,521.6,354.5,520.2,356.4z"/>
		</g>
	</g>
</g>
<rect x="478.1" y="296.7" class="st28" width="43.8" height="24.2"/>
<text transform="matrix(1 0 0 1 478.1163 302.1557)" class="st39 st40">Vietnam</text>
</svg>
