<?xml version="1.0" encoding="utf-8"?>
<!-- Generator: Adobe Illustrator 21.1.0, SVG Export Plug-In . SVG Version: 6.00 Build 0)  -->
<svg version="1.1" id="Layer_1" xmlns="http://www.w3.org/2000/svg" xmlns:xlink="http://www.w3.org/1999/xlink" x="0px" y="0px"
	 viewBox="0 0 592 471" style="enable-background:new 0 0 592 471;" xml:space="preserve">
<style type="text/css">
	.st0{fill:#9ECAE1;stroke:#FFFFFF;stroke-width:0.5;}
	.st1{fill:#CCCCCC;stroke:#000000;stroke-width:0.5;}
	.st2{fill:#ECE7F2;stroke:#A3A3A3;stroke-width:0.5;}
	.st3{fill:#D1D1E6;stroke:#A3A3A3;stroke-width:0.5;}
	.st4{fill:#0571B0;stroke:#A3A3A3;stroke-width:0.5;}
	.st5{fill:#083857;stroke:#A3A3A3;stroke-width:0.5;}
	.st6{fill:#3690C0;stroke:#A3A3A3;stroke-width:0.5;}
	.st7{fill:#CCCCCC;stroke:#A3A3A3;}
	.st8{fill:#015A8D;stroke:#A3A3A3;stroke-width:0.5;}
	.st9{fill:#74A9CE;stroke:#A3A3A3;stroke-width:0.5;}
	.st10{fill:#A6BDDB;stroke:#A3A3A3;stroke-width:0.5;}
	.st11{fill:#FEF7FA;stroke:#A3A3A3;}
	.st12{fill:#FEF7FA;stroke:#A3A3A3;stroke-width:0.5;}
	.st13{fill:#FEF7FA;stroke:#FFFFFF;stroke-width:0.5;}
	.st14{fill:#ECE7F2;stroke:#FFFFFF;stroke-width:0.5;}
	.st15{fill:#D1D1E6;stroke:#FFFFFF;stroke-width:0.5;}
	.st16{fill:#A6BDDB;stroke:#FFFFFF;stroke-width:0.5;}
	.st17{fill:#74A9CE;stroke:#FFFFFF;stroke-width:0.5;}
	.st18{fill:#3690C0;stroke:#FFFFFF;stroke-width:0.5;}
	.st19{fill:#0571B0;stroke:#FFFFFF;stroke-width:0.5;}
	.st20{fill:#015A8D;stroke:#FFFFFF;stroke-width:0.5;}
	.st21{fill:#083857;stroke:#FFFFFF;stroke-width:0.5;}
	.st22{fill:none;stroke:#A3A3A3;}
	.st23{fill:#F37475;stroke:#F37475;stroke-width:0.5;stroke-miterlimit:10;}
	.st24{fill:#F37475;stroke:#F9F9FA;stroke-width:0.2;stroke-miterlimit:10;}
	.st25{fill:#CCCCCC;stroke:#FFFFFF;stroke-width:0.5;}
	.st26{fill:#EA96A2;stroke:#ED1C26;stroke-width:0.25;stroke-miterlimit:10;}
	.st27{fill:none;stroke:#EC2028;stroke-width:0.25;stroke-miterlimit:10;}
	.st28{fill:none;stroke:#727373;stroke-width:0.25;stroke-miterlimit:10;}
	.st29{fill:#727373;}
	.st30{opacity:0.75;}
	.st31{fill:none;stroke:#727374;stroke-width:13.65;}
	.st32{fill:#727374;}
	.st33{fill:none;stroke:#737475;stroke-width:6.1;}
	.st34{fill:#737475;}
	.st35{fill:none;stroke:#737475;stroke-width:4.9;}
	.st36{fill:none;stroke:#737476;stroke-width:4.4;}
	.st37{fill:#737476;}
	.st38{fill:none;stroke:#737476;stroke-width:2.6;}
	.st39{fill:#FFFFFF;stroke:#FFFFFF;stroke-width:0.5;}
	.st40{fill:none;stroke:#000000;stroke-width:0.5;}
	.st41{stroke:#000000;stroke-width:2;}
	.st42{fill:none;}
	.st43{font-family:'BerninaSans-CondensedBold';}
	.st44{font-size:7px;}
	.st45{font-size:17.6348px;}
	.st46{font-family:'BerninaSans-CondensedLight';}
	.st47{font-size:12.1417px;}
	.st48{font-family:'BerninaSans-CondensedRegular';}
	.st49{font-size:8px;}
</style>
<rect x="108.7" y="60.7" class="st1" width="401.1" height="376.2"/>
<g>
	<path id="US-AL_1_" class="st25" d="M319.3,279.7l0.5,1.8l0.5,1.8l0.5,1.8l0.5,1.8l0.5,1.8l0.5,1.8l0.5,1.8l0.5,1.8l0.5,1.8
		l0.5,1.8l0.5,1.8l0.5,1.8l0.5,1.8l0.5,1.8l0.5,1.8l0.5,1.8l0.4,0.8l0.4,1.3l2.2,3.7l0.7,1.6l-0.1,0.7l0.3,0.6l0.6,0.4l0,0.6
		l-0.7,0.7l-0.4,0.8l-0.2,1.4v0l-0.4,2.5l0.2,1.5l0.9,1.9l0,0l0.3,0.9l0,3.9l0.6,2.5l0.9,1.5l-3.9,0.5l-3.9,0.5l-3.9,0.4l-3.9,0.4
		l-3.9,0.4l-3.9,0.4l-3.9,0.4l-3.9,0.4l-0.1,1l0.2,1l0.5,0.9l1.9,1.6l0.2,0.4l-0.2,1.4l0.1,1l-0.1,0.5l-0.4,0.5l-0.1,0.5l-0.3,0.2
		l-1.2,1.6l-4.7,0.9l0.2-0.4l1-0.2l1.4-0.6l-0.4-0.8l-0.6-0.8l-0.5-0.1l-0.4-0.5l-0.1-1.6L298,344l-0.8-0.9l-0.2,0.2l-0.4,1.7
		l-0.3,2.2l-0.2,0.7l-1.4,0.2l-1.2,0l-0.6,0.1l-0.4-2.9l-0.3-2.6l-0.3-2.6l-0.3-2.6l-0.3-2.6l-0.3-2.6l-0.3-2.6l-0.3-2.6l0.1-2.6
		l0.1-2.6l0.1-2.6l0.1-2.6l0.1-2.6l0.1-2.6l0.1-2.6l0.1-2.6l0.1-2.6l0.1-2.6l0.1-2.6l0.1-2.6l0.1-2.6l0.1-2.6l0.1-2.6l0.1-2.6l0-0.7
		l0-0.2l0-0.3l-1.1-0.8l-0.2-0.2l-0.2-0.2l0.1,0l1.9-0.1l1.9-0.1l1.9-0.1l1.9-0.2l1.9-0.2l1.9-0.2l1.9-0.2l1.9-0.2l1.9-0.2l1.9-0.2
		l1.9-0.2l1.9-0.2l1.8-0.2l1.8-0.2l1.8-0.2L319.3,279.7z M296.9,349.5l-1.1,0.4l-1.6,0.1l-0.3-0.1l0.6-0.3l1.9-0.4L296.9,349.5z"/>
	<path id="US-AR_1_" class="st25" d="M271.2,270l0,0.3l0.3,0.5l0,0.3l-0.2,0.2l-0.4,0.1l-0.3,0.2l0,0.2l0,0.1l0,0.3l0.1,0.2
		l-0.2,0.3l-1.3,0.9l-0.5,1l0.3,1.2l-0.4,1.3l-1.1,1.3l-0.4,1.4l0.3,1.5l-0.5,1.3l-1.3,1l-0.4,0.6l0,0l0,0.4l0.2,0.3l-0.4,0.7
		l-1.1,0.7l-0.6,0.7l0,0.6l-0.2,0.3l-0.5,0.2l-0.2,1l-0.1,2.2l-0.5,1.3l-0.9,0.4l-0.5,0.5l0,0.7l-0.5,0.8l-1,0.9l-0.3,0.9l0.4,0.8
		l-0.1,0.3l-0.3,0.3l-1.2,0.4l-0.2,0.2l-0.1,0.2l0.3,0.4l0.2,0.6l-0.1,1.1l-0.3,0.4l-0.3,0.4l-0.9,0.8l-0.2,0.6l0.5,0.4l0,0.4
		l-0.5,0.5l0.2,0.5l0.1,0.3l0.5,0.3l0.2,0.9l-0.3,1.1l0.1,0.9l0.6,0.7l0.1,0.3l-0.4,2.5l0.1,0.3l-2.3,0.1l-2.1,0.1l-2.1,0.1
		l-2.1,0.1l-2.1,0.1l-2.1,0.1l-2.1,0.1l-2.1,0.1l-2.1,0.1l-2.1,0.1l-2.1,0.1l-2.1,0.1l-2.1,0.1l-2.1,0.1l-2.1,0.1l-2.1,0.1l-0.1-1.9
		l-0.1-1.9l-0.1-1.9l-0.1-1.9l-0.6-0.3l-1.1-0.1l-0.6,0.1l-0.7-0.1l-0.4,0.3l-0.3,0.1l-0.2-0.1l-0.2-0.3l-0.5-0.2l-0.6-0.7l0-1.5
		l0-1.5l0-1.5l0-1.5l0-1.5l0-1.5l0-1.5l0-1.5l0-1.5l0-1.5l0-1.5l0-1.5l0-1.5l0-1.5l0-1.5l0-1.5l-0.3-2l-0.3-2l-0.3-2l-0.3-2l-0.3-2
		l-0.3-2l-0.3-2l-0.3-2l3.2-0.1l3.2-0.1l3.2-0.1l3.2-0.1l3.2-0.1l3.2-0.1l3.2-0.1l3.2-0.1l3.2-0.1l3.2-0.1l3.2-0.2l3.2-0.2l3.2-0.2
		l3.2-0.2l3.2-0.2l3.2-0.2l0.6,1.1l0.5,0.7l0.1,0.5l-0.1,0.5l-0.8,1.2l-0.7,0.6l-0.4,0.6l-0.5,0.6l-0.8,1.6l1.9-0.1l1.9-0.2l1.9-0.2
		L271.2,270z"/>
	<path id="US-CO_1_" class="st25" d="M134.1,214.1l-0.2,2.6l-0.2,2.6l-0.2,2.6l-0.2,2.6l-0.2,2.6l-0.2,2.6l-0.2,2.6l-0.2,2.6
		l-0.2,2.6l-0.2,2.6l-0.2,2.6l-0.2,2.6l-0.2,2.6l-0.2,2.6l-0.2,2.6l-0.2,2.6l-2.8-0.2l-2.8-0.2l-2.8-0.2l-2.8-0.2l-4.2-0.3l-4.2-0.4
		l-4.3-0.4l-4.2-0.4l-4.2-0.4l-4.2-0.4l-4.2-0.4l-4.2-0.5l-4.2-0.5l-4.2-0.5l-4.2-0.5l-4.2-0.5l-4.2-0.5l-4.2-0.6l-4.2-0.6l-4.2-0.6
		l0.5-3.5l0.5-3.5l0.5-3.5l0.5-3.5l0.5-3.5l0.5-3.5l0.5-3.5l0.5-3.5l0.5-3.5l0.5-3.5l0.5-3.5l0.5-3.5l0.5-3.5l0.5-3.5l0.5-3.5
		l0.5-3.5l3.3,0.5l3.3,0.5l3.3,0.4l3.3,0.4l3.3,0.4l3.3,0.4l3.3,0.4l3.3,0.4l3.3,0.4l3.3,0.4l3.3,0.4l3.3,0.3l3.3,0.3l3.3,0.3
		l3.3,0.3l3.3,0.3l2.7,0.2l2.7,0.2l2.7,0.2l2.7,0.2l2.7,0.2l2.7,0.2l2.7,0.2l2.7,0.2l-0.1,1.8l-0.1,1.8l-0.1,1.8l-0.1,1.8l-0.1,1.8
		l-0.1,1.8l-0.1,1.8L134.1,214.1z"/>
	<path id="US-CT_1_" class="st25" d="M450.6,154.2l0.2,0.7l0.3,1l0.2,0.7l0.3,1l0.3,1.2l0.3,1.1l0.3,0.9l0.1,0.6l0.2,0.9l-0.2,0.4
		l0.1,0.8l-0.9,0.2l-1.4,0.6l-1.8,1l-1.2,0l-1,0.8l-3.7,1.1l-0.9-0.1l-0.8,1.2l-1.5,1l-3.6,3.2l-0.4,0.5l-0.7-0.7l-0.6-0.6l0.7-0.7
		l0.5-0.6l0.5-0.5l0.3-0.3l-0.4-0.4l-0.4-0.4l-0.2-1.3l-0.2-1.3l-0.2-1.3l-0.2-1.3l-0.2-1.3l-0.2-1.3l-0.2-1.3l-0.2-1.3l0.9-0.2
		l0.9-0.2l0.9-0.2l0.9-0.2l0.9-0.2l0.9-0.2l0.9-0.2l0.9-0.2l0.1,0.3l0.4-0.2l0-0.3l1.2-0.3l1.2-0.3l1.2-0.3l1.2-0.3l1.2-0.3l1.2-0.3
		l1.2-0.3l1.2-0.3L450.6,154.2z"/>
	<path id="US-DC_1_" class="st25" d="M406.3,210.2l-0.3-0.3l-0.6-0.2l-0.2-0.1l0.7-1.1l0.7,0.7l0.8,0.8l-0.7,1.3L406.3,210.2z"/>
	<path id="US-DE_1_" class="st25" d="M420.6,193.7l-0.3,0.6l-0.2,1l-0.7,1.3l0.2,0.7l0.3,0.5l0.2,1.1l0.8,0.9l1.5,1.4l0.8,2.5
		l1.3,1.5l1.8,1.7l1.2,0.3l0.2,0.7l-0.2,1.3l-0.5,0.7l0.8-0.3l0.5,0.2l0.6,0.9l0.1,0.7l-1.2,0.3l-2.4,0.6l-2.4,0.6L422,213l0,0l0,0
		l0,0h0l0,0l0,0l0,0l0,0l-0.6-2.2l-0.6-2.1l-0.6-2.2l-0.6-2.1l-0.6-2.2l-0.6-2.2l-0.6-2.1l-0.6-2.2l0.6-1.3l0.3-0.4l0.4-0.3l1.3-0.4
		L420.6,193.7z"/>
	<path id="US-FL_1_" class="st25" d="M376.2,332.8l0.8,1.2l1.7,5.1l0.9,1.7l1.9,4.7l2.6,4.4l3.5,5.3l5.3,6.2l0.7,0.9l-0.4,0.9l0,0.9
		l0.2,1.3l0.4,1.3l0.8,1.5l1.4,2.2l-0.6-0.4l-2-3.2l-0.5-2l-0.3-2.9l-0.3,0.1l-0.1,1l0,1.1l-0.3,0.5l-0.8-1.6l-0.1-0.8l0.4-1
		l-0.2-0.3l-0.9-0.3l-0.3-0.7l0-0.7l-0.5-0.3l-0.4,0.1l0.5,1.7l0.6,1l0.9,2.4l1,1.4l0.7,1.2l7.7,12.8l1.6,1.5l0.7,1.2l1,2.5l0.7,3.4
		l0.2,6.3l0.5,4.3l-0.2-0.1l-0.2-0.4l-0.2,0l-0.4,2.1l-0.7,1.9l0.1,2.8l-0.3,1.4l-1.3,1.7l-0.9,0.1l-2.1,1.5l-1.7,0l-1.8,0.9
		l-1.3,0.1l-0.9-1.2l0-0.6l0.2-0.6l0.5-0.2l1.9,1.1l0.2-0.6l-0.6-0.6l-1.1-0.2l-0.8-0.3l-2-2.8l-1.9-1.9l-0.5-1.4l-2.8-0.4l-2.1-1
		l-1.6-2.1l-1.3-4l-0.9-0.3l-0.4-0.3l0.6-1.6l0.7-1.4l-0.6,0.4l-0.4,0.6l-0.5,1.2l-0.4,0.2l-0.4-0.1l-0.8-2.1l-0.3-2.7l0.5-1.1
		l-1.1,0.1l-1,0.5l0.3,0.9l-0.1,0.5l-0.8,0l-0.6-0.2l-1-0.8l-1.4-1.6l-3-4.5l-0.5-0.6l-0.9-0.6l0.3-0.3l0.6-0.2l1.1-2.4l0.9-1.5
		l0.2-1l-0.1-0.4l-0.6-0.5l-0.6,0.6l-0.3-0.1l-0.9-1l-0.8-0.2l-0.5,0.3l0.7,0.9l0.5,0.3l0,1.4l-0.1,0.5l-0.4,0.5l-0.7-0.1l-0.3,0.4
		l-0.5-0.3l-0.5-0.5l-0.6-0.9l0.4-5.7l0.6-3.7l-0.5-4l0-0.6l-0.3-1.1l-1.8-2.1l-7.3-4.7l-5.9-6l-4.6-1.9l-3.2,1l-0.5,0.6l-0.2,0.7
		l0.3,0.7l-0.3,0.3l-0.9,0.1l-1.2,0.3l-2.9,2.1l-1.1,0.1l-0.9,0.6l-0.7,0.4l-1.9,0.4l-1.6,0.6l-0.7-0.1l-0.6-1l-0.1-1.1l0.5,0.8
		l0.7,0.6l0.2-0.3l0-0.6l-0.7-1l-2-1.2l-2.3-1.8l0.7,0l0.1-0.5l-0.7-0.5l0.2-0.7l0.4-0.8l-0.9,0.2l-0.7,0.6l0,0.6l-0.1,0.5l-0.4,0
		l-0.9-0.5l-4.1-1.2l-3.5-0.6l2.6-0.7l1.5,0.2l-0.2-0.5l-0.4-0.3l-1.2-0.3l-1.4,0.3l-0.9-0.1l-0.9,0.5l-0.9,0.7l-0.9,0.4l-3.5,0.8
		l-2.8,0.8l0.4-0.5l0.5-0.4l1.6-0.7l0.2-1l-0.5-0.9l-0.4,0.3l-0.4,0.8l-0.6-0.5l-0.6,0.1l-0.1,1.2l-0.7,0.9l-0.3,0.8l-2.3,0.9
		l-0.3-0.2l0.6-0.8l-0.1-0.4l-0.5,0.3l0.1-0.5l0.4-0.5l0.1-0.5l-0.1-1l0.2-1.4l-0.2-0.4l-1.9-1.6l-0.5-0.9l-0.2-1l0.1-1l3.9-0.4
		l3.9-0.4l3.9-0.4l3.9-0.4l3.9-0.4l3.9-0.4l3.9-0.5l3.9-0.5l0.6,1.1l1.2,2.2l0.1,0.5l1.2-0.1l2-0.1l2-0.1l2-0.1l2-0.1l2-0.1l2-0.1
		l2-0.1l2-0.1l2-0.1l2-0.1l2-0.1l2-0.2l2-0.2l2-0.2l2-0.2l2-0.2l0.1,0.5l0.4,0.7l0.2,0.8l0.2,0.4l0.4,0.2l0.6,0l0.5-0.6l0.2-1.1
		l-0.1-1.2l-0.4-1.3l-0.1-1.1l0.2-0.7l0.3-0.2l0.3-0.4l0.2-0.1l0.7,0.1l2.7,0.5L376.2,332.8z M336.8,354l-1.2,0.7l-1.4-0.2l0.8-0.2
		l0.6,0.1l1.4-0.9l0.7-0.6l0.9-0.3L336.8,354z M400.7,378.6l0.4,1l-1.6-2.2l-2.1-3.5l-1.3-2.8l0.7,0.7l0.8,1.5L400.7,378.6z
		 M378.3,392.8l0.1,0.8l-0.9-1.3l-0.7-1.5l0.7,0.4L378.3,392.8z M379.1,394.1l-0.4,0.4l-1-0.1l-0.6-0.4l-0.4-0.9l1,0.9l0.3,0.2
		L379.1,394.1z M403.4,409.3l-2.1,3.1l0.2-0.7l0.8-1.6l0.2-0.7l0.6-0.5l0.5-0.9l-0.1-0.9l0.8-0.8l0.3-0.1L403.4,409.3z M400.7,413.2
		l-0.3,0.1l0.4-0.7l0.2,0L400.7,413.2z M398.5,415.1l-0.2,0l0.1-0.2l0.4-0.5l0.2,0.1l0,0.2L398.5,415.1z M395.9,416.8l-0.5,0.4
		l-0.7-0.1l0.6-0.4l2-0.7l-0.7,0.6L395.9,416.8z M392.2,418.3l-0.3,0.4l-0.2-0.1l-0.1-0.4l-0.7-0.9l0-0.3l1.4,0.7l0.1,0.2
		L392.2,418.3z M389.3,419.6l-0.8,0.3l0.6-0.7l0.1-0.9l0.5,0.6l0.1,0.4L389.3,419.6z M386.6,420.8l-0.3,0.1l-0.1-0.2l0.5-0.4l0.4,0
		l0,0.3L386.6,420.8z"/>
	<path id="US-GA_1_" class="st25" d="M380.8,313.4l-0.4,1.3l-1.3,1l-0.4,0l-0.3,0.3l0.3,0.5l0.4,0.3l0,0.4l-0.3,0.5L378,318
		l-0.3,0.6l0.2,0.5l0.3,0.2l0,0.5l-0.8,0.6l-0.1,0.5l0.5,0.1l0.3-0.2l0.3,0.1l-0.4,0.9l-0.4,0.6l-0.3,1l-1,0.4l0.1,0.3l0.6,0.2
		l0.6,0.6l-0.7,1.4l-0.6,0l-0.4-0.2l-0.1,1.1l0.2,0.5l0,1.1l-0.1,1.4l-0.2,0.6l0.2,1l0.3,1l-2.1,0.2l-2.7-0.5l-0.7-0.1l-0.2,0.1
		l-0.3,0.4l-0.3,0.2l-0.2,0.7l0.1,1.1l0.4,1.3l0.1,1.2l-0.2,1.1l-0.5,0.6l-0.6,0l-0.4-0.2l-0.2-0.4l-0.2-0.8l-0.4-0.7l-0.1-0.5
		l-2,0.2l-2,0.2l-2,0.2l-2,0.2l-2,0.2l-2,0.1l-2,0.1l-2,0.1l-2,0.1l-2,0.1l-2,0.1l-2,0.1l-2,0.1l-2,0.1l-2,0.1l-2,0.1l-1.2,0.1
		l-0.1-0.5l-1.2-2.2l-0.6-1.1l-0.9-1.5l-0.6-2.5l0-3.9l-0.3-0.9l-0.9-1.9l-0.2-1.5l0.4-2.5v0l0.2-1.4l0.4-0.8l0.7-0.7l0-0.6
		l-0.6-0.4l-0.3-0.6l0.1-0.7l-0.7-1.6l-2.2-3.7l-0.4-1.3l-0.4-0.8l-0.5-1.8l-0.5-1.8l-0.5-1.8l-0.5-1.8L325,299l-0.5-1.8l-0.5-1.8
		l-0.5-1.8l-0.5-1.8l-0.5-1.8l-0.5-1.8l-0.5-1.8l-0.5-1.8l-0.5-1.8l-0.5-1.8l-0.5-1.8l3.7-0.4l3.7-0.4l3.7-0.4l3.7-0.4l3.5-0.5
		l3.5-0.5l3.5-0.5l3.5-0.5l-0.1,0l-0.4,1l-1.4,2l-0.3,1.4l2.4,1.2l0,0l1.5,1l1,0.4l0.9,0l0.6,0.3l0.5,0.9l3.4,4.5l3.1,2.1l1.3,1.1
		l0.7,1.1l2.7,1.6l1,0.9l0.2,0.8l0.4,0.5l0.6,0.3l0.6,0.6l0.7,1l1.1,0.8l1.6,0.6l1.3,1.7l1.1,2.8l0.9,1.6l1.1,0.5l1.8,2.2l0.7,1.4
		l0.2,1.3l0.9,0.9L380.8,313.4z M376.7,329.2l0,3.5l-0.4-1.2l-0.2-1.2l0.3-0.8L376.7,329.2z"/>
	<path id="US-IA_1_" class="st25" d="M255,179.2l0.7,0.9l1.1,0.8l0.7,0.8l0.2,0.7l0.7,0.8l1.2,0.8l0.7,0.7l0.2,0.6l0,1l-0.2,1.4
		l-0.4,1l-0.6,0.6l-0.4,0.9l-0.2,1.1l-0.9,1.1l-1.5,1l-1.7,0.7l-1.9,0.4l-1.1,0.9l-0.3,1.3l0.2,1l0.7,0.8l0.4,0.9l0.2,0.9l-0.4,1.6
		l-1,2.2l-1.1,1.5l-1.3,0.7l-0.5,1l0.2,1.2l-0.1,0.7l-0.5,0.3l-1-0.7l-0.2-0.5l-0.8-0.5l-0.1-0.3l-0.6-0.3l-0.6-1l-2.7,0.1l-2.7,0.1
		l-2.7,0.1l-2.7,0.1l-2.7,0.1l-2.7,0.1l-2.7,0.1l-2.7,0.1l-2.7,0.1l-2.7,0.1l-2.7,0.1l-2.7,0.1l-2.7,0.1l-2.7,0l-2.7,0l-2.7,0
		l-0.7-1l-0.4-1l0.2-0.5l0-1.6l-0.1-2.7l-0.3-1.5l-0.4-0.3l0-0.5l0.3-0.6l-0.1-0.4l-0.5-0.2l-0.1-0.5l0.2-0.8l-0.1-0.5l-0.4-0.2
		l-0.2-0.3l0.1-0.4l-0.2-0.2l-0.5-0.1l-0.2-0.9l0.1-1.7l-0.2-1.2l-0.5-0.7l-0.2-0.7l0-0.6l-0.5-1l-1-1.4l-0.6-1.8l-0.3-2.2l-0.7-1.2
		l-0.3-0.1l-0.3-1.2l-0.3-0.5l0-0.4l-0.9-1l-0.1-0.4l0.1-0.5l0.6-0.9l0.5-1.6l0.1-1l0.4-0.8l0-0.4l-0.1-0.6l-0.2-0.5l-0.7-0.4
		l-0.1-0.2l-0.1-0.6l0.3-0.4l0.1-0.4l-0.1-0.5l-0.4-0.9l-0.2-0.9l1.5,0l3.3,0h3.3l3.3,0l3.3,0l3.3,0l3.3-0.1l3.3-0.1l3.3-0.1
		l3.3-0.1l3.3-0.1l3.3-0.1l3.3-0.1l3.3-0.1l3.3-0.1l3.3-0.2l3.4-0.2l0.1,0.9l0.2,0.6l0.4,0.5l0.7,0.4l0.1,0.7l-0.4,1.1l-0.1,1.4
		l0.2,1.6l0.4,1.5l0.6,1.3l1.2,0.9l1.8,0.5l1.1,0.9l0.4,1.2L255,179.2z"/>
	<path id="US-IL_1_" class="st25" d="M284.6,177.2l0.2,2.2l0.3,1.8l0.4,0.8l0.4,0.6l0.4,0.3l0.6,1.1l0.7,1.9l0.6,1.3l0.4,0.5
		l0.3,3.7l0.4,4.2l0.4,4.2l0.4,4.2l0.4,4.2l0.4,4.2l0.4,4.2l0.4,4v0.1l-0.5,0.5l-0.3,0.8l0.2,0.8l-0.1,0.6l-0.3,0.4l0.2,0.9l0.8,1.3
		l0.5,1.3l0.3,1.3l0,1l-0.5,0.9l-0.4,2l-0.4,0.8l-0.6,0.3l-0.5,0.8l-0.4,1.2l-0.5,0.6l-0.5,0l-0.4,0.3l-0.2,0.5l0.1,0.5l0.4,0.5
		l-0.1,0.5l-0.5,0.5l0,0.2l0.2,0.1l0,0.2l-0.3,0.2l-0.1,0.7l0.1,1.1l-0.1,0.6l-0.4,0.1l0,0.3l0.7,1.2l-0.3,0.3l-0.5,1.1l0,1.1
		l0.5,1.2l-0.8,1.1l-2.2,0.9l-1.1,0.8l-0.1,0.6l0.2,0.9l0.5,1.1l0.1,0.8l-0.2,0.5l-1.6-0.2l-3-0.8l-1.9,0.2l-0.9,1.2l-0.3,0.9
		l0.2,0.7l-0.9-0.8l-0.6-0.3l-0.1,0l-0.1,0.1l0,0.3l0,0.2l0.1,0.2l0,0.1l-0.1,0l-0.6-0.3l-0.8-0.9l-0.9-1.5l-0.3-1.2l0.4-0.9l-0.1-1
		l-0.5-1l-0.3-1l-0.1-1l-1.2-1.4l-2.4-1.8l-1.7-1.1l-1.1-0.4l-1.3-0.9l-1.5-1.4l-0.8-1.1l-0.1-0.8l0.5-2.1l1.5-4.6l0.2-0.5l0-0.2
		l-0.1-0.2l-0.2-0.2l-0.8-0.5l-1.5-0.4l-1.4-0.2l-1.1,0.6l-1-1l-1-2.7l-2.2-2.8l-3.3-2.9l-1.9-2l-0.6-1.1l-0.5-1.6l-0.5-2.2
		l-0.1-1.8l0.5-2.2l0.5-0.3l0.1-0.7l-0.2-1.2l0.5-1l1.3-0.7l1.1-1.5l1-2.2l0.4-1.6l-0.2-0.9l-0.4-0.9l-0.7-0.8l-0.2-1l0.3-1.3
		l1.1-0.9l1.9-0.4l1.7-0.7l1.5-1l0.9-1.1l0.2-1.1l0.4-0.9l0.6-0.6l0.4-1l0.2-1.4l0-1l-0.2-0.6l-0.7-0.7l-1.2-0.8l-0.7-0.8l-0.2-0.7
		l-0.7-0.8l-1.1-0.8l-0.7-0.9l4.8-0.3l4.7-0.3l4.7-0.3l4.7-0.3l4.7-0.3l4.7-0.4L284.6,177.2z"/>
	<path id="US-IN_1_" class="st25" d="M317.2,185l0.5,4.6l0.5,4.6l0.5,4.6l0.5,4.5l0.5,4.6l0.5,4.6l0.5,4.5l0.6,4.6l-0.2,0.2
		l-0.2,0.6l0.3,0.6l0.1,0.5l-0.3,0.4l0.1,0.3l0.5,0.1l0.2,0.4l0,0.7l-1,0.8l-2,1l-0.4,0.3l-0.4,0.1l-0.2,0l0,0l-0.3-0.1l-0.4-0.3
		l-0.7-0.1l-1.1,0.2l-0.4,0.7l0.4,1.2l-0.3,1l-0.9,0.8l-0.6,0.9l-0.3,1.1l-0.6,0.7l-0.9,0.3l-0.6,1.1l-0.4,1.8l-0.5,1.1l-0.6,0.5
		l-0.9,0L308,238l-0.7-0.6l-0.3-0.6l-0.4-0.4l-0.3-0.2l-0.2,0v0.1l0.1,0.2l-0.1,0.2l-0.7,0.1l-0.3,0.3l0.1,0.5l-0.1,0.4l-0.4,0.2
		l-0.2,0.5l0.1,0.7l-0.2,0.7l-0.5,0.7l-0.8-0.1l-1.2-0.9l-1.1-0.1l-1.1,0.6l-0.8,0.8l-0.5,1l-0.5,0.3l-0.8-0.6l-1.9-0.8l-1-0.1
		l-0.7,0.3l-0.5-0.1l-0.2-0.3l-0.1-0.1l-0.1,0.1l0.1,0.8l-0.1,0.5l-0.3,0.2l-0.2-0.2l-0.2-0.6l-0.4-0.1l-0.6,0.3l-0.6,0l-0.6-0.3
		l-0.2,0.1l-0.1,0.2l0.1,0.7l-0.1,0.5l-0.3,0.4l-0.4,0.1l-0.5-0.1l-0.2,0.2l-0.7-1.2l0-0.3l0.4-0.1l0.1-0.6l-0.1-1.1l0.1-0.7
		l0.3-0.2l0-0.2l-0.2-0.1l0-0.2l0.5-0.5l0.1-0.5l-0.4-0.5l-0.1-0.5l0.2-0.5l0.4-0.3l0.5,0l0.5-0.6l0.4-1.2l0.5-0.8l0.6-0.3l0.4-0.8
		l0.4-2l0.5-0.9l0-1l-0.3-1.3l-0.5-1.3l-0.8-1.3l-0.2-0.9l0.3-0.4l0.1-0.6l-0.2-0.8l0.3-0.8l0.5-0.5v-0.1l-0.4-4l-0.4-4.2l-0.4-4.2
		l-0.4-4.2l-0.4-4.2l-0.4-4.2l-0.4-4.2l-0.3-3.7l0.1,0.1l0.4,0.3l0.3,0.2l0.2,0l0.2,0.3l0.6,0.1l1.1,0l1-0.2l0.9-0.4l2.1-1.5
		l2.6-0.3l3.2-0.3l3.2-0.3l3.2-0.4l3.2-0.4l3.2-0.4l3.2-0.4L317.2,185z"/>
	<path id="US-KS_1_" class="st25" d="M214.9,258.3l-2.6,0l-2.6,0l-2.6,0l-2.6,0l-2.6,0l-2.6,0l-2.6,0l-2.6,0l-2.6,0l-2.6,0l-2.6,0
		l-2.6,0l-2.6,0l-2.6-0.1l-2.6-0.1l-2.6-0.1l-2.6-0.1l-2.6-0.1l-2.6-0.1l-2.6-0.1l-2.6-0.1l-2.6-0.1l-2.6-0.1l-2.6-0.1l-2.6-0.1
		l-2.6-0.1l-2.6-0.1l-2.6-0.1l-2.6-0.2l-2.6-0.2l-2.6-0.2l-2.6-0.2l0.2-2.6l0.2-2.6l0.2-2.6l0.2-2.6l0.2-2.6l0.2-2.6l0.2-2.6
		l0.2-2.6l0.2-2.6l0.2-2.6l0.2-2.6l0.2-2.6l0.2-2.6l0.2-2.6l0.2-2.6l0.2-2.6l2.3,0.2l2.3,0.1l2.3,0.1l2.3,0.1l2.3,0.1l2.3,0.1
		l2.3,0.1l2.3,0.1l2.3,0.1l2.3,0.1l2.3,0.1l2.3,0.1l2.3,0.1l2.3,0.1l2.3,0.1l2.3,0.1l2.3,0.1l2.3,0.1l2.3,0.1l2.3,0.1l2.3,0l2.3,0
		l2.3,0l2.3,0l2.3,0l2.3,0l2.3,0l2.3,0l2.3,0l2.3,0l2.3,0l1.9,0l2.5,1.8l0.7,0l0.8-0.3l0.6,0.4l0.4,1.1l-0.1,0.6l-0.5,0l-0.6,0.7
		l-0.8,1.3l0.2,1.2l1.2,1.2l0.8,1.2l0.4,1.2l0.8,0.9l1.7,1l0,0.5l0,1.8l0,1.8l0,1.8l0,1.8l0,1.8l0,1.8l0,1.8l0,1.8l0,1.8l0,1.8
		l0,1.8l0,1.8l0,1.8l0,1.8l0,1.8L214.9,258.3z"/>
	<path id="US-KY_1_" class="st25" d="M346.8,227.2l0.3,0.3l0.4,2l0,0.4l-0.2,0.9l0.1,0.4l0.4,0.7l1.4,1.4l0.2,0.6l0.6,0.5l0.5,0.9
		l1.6,1.8l2.2,1.3l1.6,0.2l-3.7,4l-1.7,1.5l-1.7,1.3l-0.1,0.2l-0.3,1.1l-1,1.1l-0.6,1.1l-1.6,1.1l-1,1.3l-2.8,1.6l-1.6,0.6l-1.1,0.8
		l-0.1,0l-0.1,0l-0.1,0l-0.1,0l-0.1,0l-0.1,0l-0.1,0l-0.1,0l-3.9,0.4l-3.9,0.4l-3.9,0.4l-3.9,0.3l-3.9,0.3l-3.9,0.3l-3.9,0.3
		l-3.9,0.3L303,258l-3.7,0.4l-3.8,0.4l-3.8,0.4l-0.4-0.4l-1,0l-1.5,0h-0.1l0.6,1.4l0.1,1.3l0,0l-1.8,0.2l-2,0.2l-2,0.2l-2,0.2
		l-2,0.2l-2,0.2l-2,0.1l-2.2,0.2l0.5-1.3l0.5-0.4l0.2-0.1l0.6,0.2l0.3,0.1l0.6-0.5l0.4-1.3l0.2-1.4l0-1.4l-0.4-1.1l-0.2-0.7l0.3-0.9
		l0.9-1.2l1.9-0.2l3,0.8l1.6,0.2l0.2-0.5l-0.1-0.8l-0.5-1.1l-0.2-0.9l0.1-0.6l1.1-0.8l2.2-0.9l0.8-1.1l-0.5-1.2l0-1.1l0.5-1.1
		l0.3-0.3l0.2-0.2l0.5,0.1l0.4-0.1l0.3-0.4l0.1-0.5l-0.1-0.7l0.1-0.2l0.2-0.1l0.6,0.3l0.6,0l0.6-0.3l0.4,0.2l0.2,0.6l0.3,0.2
		l0.3-0.3l0.1-0.5l-0.1-0.8l0.1-0.1l0.1,0.1l0.2,0.2l0.5,0.1l0.7-0.3l1,0.1l1.9,0.8l0.8,0.6l0.5-0.3l0.5-1l0.8-0.8l1.1-0.6l1.1,0.1
		l1.2,0.9l0.8,0.1l0.5-0.7l0.2-0.7l-0.1-0.7l0.2-0.5l0.4-0.2l0.1-0.4l-0.2-0.5l0.3-0.3l0.7-0.1l0.1-0.2l-0.1-0.2v-0.1l0.2,0l0.3,0.2
		l0.4,0.4l0.2,0.6l0.7,0.6l1.2,0.5l0.9,0l0.6-0.5l0.5-1.1l0.4-1.8l0.6-1.1l0.9-0.3l0.6-0.7l0.3-1.1l0.6-0.9l0.9-0.8l0.3-1l-0.4-1.2
		l0.4-0.7l1.1-0.2l0.7,0.1l0.4,0.3l0.3,0.1l0,0l0.2,0l0.4-0.1l0.4-0.3l2-1l1-0.8l0-0.7l-0.2-0.4l-0.5-0.1l-0.1-0.3l0.3-0.4l-0.1-0.5
		l-0.3-0.6l0.2-0.6l0.2-0.2l0.6-0.5l0.6-0.1l0.6,0.4l0.7,0l0.9-0.4l0.9,0.1l0.9,0.5l0.9,1l0.9,1.4l1.4,0.8l1.8,0.1l1.4,0.4l0.9,0.8
		l0.7,0.2l0.7-0.6l0.8-0.4l0.9,0.2l1.2,0.6l1.7-0.4l2.1-1.4l1.3-0.1l0.6,1.1l1.1,1.1L346.8,227.2L346.8,227.2z M273.2,262.8
		l-0.8,0.1l0-0.2l0-0.4l0.1-0.2l0.2,0l0.2,0l0.3,0.3L273.2,262.8z"/>
	<path id="US-LA_1_" class="st25" d="M279.2,351.7l-0.8,0.4l-4.6-1.1l-1.2-1.1l-1-0.2l-1.2-0.1l-1.2,1.5l-0.9,2l1.6,1l1.4,0.4
		l2.2-0.6l1.2-1l1,0l0.5-0.2l0.4-0.5l0.9,0.3l0.1,0.4l-0.6,0.6l-0.7,0.5l-0.4,0.6l1,1l1.4,0.3l0.5-0.2l0.2-1.3l0.8-0.9l1.2,0.1
		l-0.1,0.5l0.2,0.5l0.6,0.8l0,1.2l0.1,0.3l-1.2,0.6l-0.9,0.2l-0.7,0.7l0.4,0.4l-0.7,0.4l-0.5-0.1l-0.2,0.1l-0.1,0.4l-0.4,0.4
		l0.7,1.1l1.2,0.7l0.9,0.9l3.4,1l0.8-0.1l0.9,1.2l0.7,0.4l0.6,0.2l0,0.9l-1.1,0.7l-0.2,0.8l-0.2,0.4l-0.5-0.5l-0.5-0.3l-1.1,1.3
		l-0.6,0.3l0.2-1.3l-0.5-0.5l-0.8-1.2l-1-0.7l-0.7-0.2l-0.6-0.5l-0.7-0.2l-0.6,0.1l-1-0.2l-0.1-0.7l-0.3-0.5l-0.8-0.5l-3.6-0.9
		l0,0.5l0.3,0.3l0.5,0.2l0.6,0.4l0.1,1.3l-0.2,0.6l-0.1,0.8l-0.2,0.8l-0.4,0.7l-0.9,0.5l-0.4-0.3l-0.8-1.7l-1-0.5l-1.5,0l-1,0.5
		l-1,1.8l-0.9,0.3l-3.2-0.7l-3.7-1.2l0.1-0.5l0.6-0.2l1.1,0.1l-0.1-0.5l-1.2-1.5l-0.2-0.7l0.1-0.8l-0.4,0l-0.6,0.7l-2.3-0.5
		l-0.7-0.7l-1.4-1.9l-1.9,0l-0.9-1.2l-1.5,0.6l-0.8,0.6l-0.6,0.9l0.3,0.4l0.7,0.7l-0.3,0.4l-2.2,0.6l-5.1-0.4l-1.5-0.5l-2-1.1
		l-2.8-0.8l-1.3-0.1l-1.3,0.2l-3.8,0.2l-0.9,0.3l-0.7,0.4l-0.5-0.4l-0.2-0.8l0.4-0.1l0.5-0.5l0.4-0.9l0-0.5l-0.3-0.3l0.8-1.4
		l0.2-0.5l-0.2-2.4l-0.4-0.9l0-0.5l0.4-1.3l-0.1-1.2l0.6-1.5l0.5-0.8l0.5-1.6l0.1-1l0.2-0.8l-0.2-0.8l0.4-0.6l-0.3-0.8l-0.1-1.1
		l-0.5-0.4l-0.9-1.6l0-0.7l-0.9-1.5l0-0.5l-0.9-0.8l-0.2-0.5l-0.1-2.1l-0.2-0.6l-0.7-1.2l-1.7-1.7l0-1.8l0-1.8l0-1.8l0-1.8l0-1.8
		l0-1.8l0-1.8l0-1.8l2.1-0.1l2.1-0.1l2.1-0.1l2.1-0.1l2.1-0.1l2.1-0.1l2.1-0.1l2.1-0.1l2.1-0.1l2.1-0.1l2.1-0.1l2.1-0.1l2.1-0.1
		l2.1-0.1l2.1-0.1l2.3-0.1l0.1,0.7l0.6,0.4l0.1,0.7l-0.4,1.1l0,0.7l0.5,0.4v0.4l-0.6,0.5l-0.1,0.5l0.4,0.5l0.2,0.6v0.7l0.6,0.9
		l0.9,0.6l0.6,0.7l0.1,0.4l0.1,0.4l-0.1,0.5l-0.6,0.8l-0.5,0.6l-0.3,0.2l-0.2,0.4v0.8l-0.7,1.1l-1.5,1.3l-1,1.6l-0.4,1.9l-0.5,1.2
		l-0.5,0.5l-0.2,1l0.1,1.5l-0.3,0.8l-0.7,0.2l-0.1,0.8l0.5,1.5l-0.1,0.6l-0.5,0.5l0,0.4l2.9-0.1l2.9-0.2l2.9-0.2l2.9-0.2l2.9-0.2
		l2.9-0.2l2.9-0.2l2.9-0.2l-0.2,1.7l-0.7,2.3l0,0.6l0.3,0.7l0,0.4l0.4,0.6l0.7,0.6l0.7,0.9l0.7,1.6l0.2,0.7l0.5,1l0.3,0.2l0.3,0.1
		L279.2,351.7z M282.9,353l0.1,0.7l-0.6-0.3l-0.9,0l0.4-0.3l0.3-0.2l0.1-0.2l1.1-0.9l-0.3,0.6L282.9,353z M288.1,356.5l-0.3,0.5
		l0.2-2.2l-0.6-1.8l0.6,0.8l0.2,0.9L288.1,356.5z M287.5,357.9l-0.6,0.8l0-0.3l0.4-0.8l0.3-0.3L287.5,357.9z M251.6,363.2l-0.4,0.2
		l-2.1-1.1l-0.2-0.5l1-0.5l0.6,0l1,0.6l0.4,0.2l0.2,0.2l-0.1,0.4L251.6,363.2z"/>
	<path id="US-MA_1_" class="st25" d="M457.3,139.7l0,0.8l0.5,0.6l0.4,0.7l0.7,0.6l0.4,0l0.4-0.2l0.3-0.1l0.3,0.2l0,0.4l-0.5,0.2
		l-0.7,0.9l-0.7,0.5l-0.2,0.9l-0.3,1l-0.8,1.7l0.6,0.3l1.9,0l0.9,0.3l1.9,2.2l-0.2,0.3l0,0.5l1.3,0.3l0.9,1.7l1.1,0.4h1.4l1.5-1
		l1.1-1.2l-0.2-0.6l-1.3-1.2l-0.4-0.6l-0.8-0.3l-0.1,0.4l-0.6-0.4l-0.1-0.3l0.3-0.2l0.5-0.1l0.6,0.1l1.8,1.2l1,2l0.5,1.3l0,0.5
		l-0.4,0l-0.7,0.3l-3.3,1.7l-0.6,0.8l-1.6,1.2l-0.2-0.3l-0.1-0.7l-0.5-1.3l-0.4,0l-2.1,3l-1,0.4l-0.7,0.9l-0.3-0.3l-0.6-1.6l0.2-1.6
		l-0.3,0.1l-0.4,0.7l-0.5-0.5l-0.5-0.2l-0.5-0.2l-0.1-0.5l-0.2-0.8l-0.5,0l-0.3-0.9l-0.2-0.6l-0.8,0.2l-0.6,0.2l-1,0.3l-1,0.3
		l-0.8,0.2l-0.1-0.1l-1.2,0.3l-1.2,0.3l-1.2,0.3l-1.2,0.3l-1.2,0.3l-1.2,0.3l-1.2,0.3l-1.2,0.3l0,0.3l-0.4,0.2l-0.1-0.4l-0.9,0.2
		l-0.9,0.2l-0.9,0.2l-0.9,0.2l-0.9,0.2l-0.9,0.2l-0.9,0.2l-0.9,0.2l-0.4-0.3l0-1.2l0-1.2l0-1.2l0-1.2l0-1.2l0-1.2l0-1.2l0-1.2l1-0.2
		l1-0.2l1-0.2l1-0.2l1-0.2l1-0.2l1-0.2l1-0.2l1.4-0.3l1.4-0.3l1.4-0.3l1.4-0.3l1.4-0.3l1.4-0.3l1.4-0.3l1.4-0.3l0.8-0.6l0.7-1.4
		l0.6-0.4l0.8-0.9l0.5-0.3L457.3,139.7z M466.1,159.2l-2.6,1.5l-0.6-0.3l0.6-0.4l0.6-1.3l0.6-0.3l1.1,0.3L466.1,159.2z M472,159.1
		l-0.7,0.4l-2,0l1.4-0.9l0.2-0.2l0-0.7l-0.1-0.3l1,1.2L472,159.1z"/>
	<path id="US-MD_1_" class="st25" d="M417.1,195.8l0.6,2.2l0.6,2.2l0.6,2.2l0.6,2.2l0.6,2.2l0.6,2.2l0.6,2.2l0.6,2.1l0,0l0,0l0,0
		l0,0l0,0l0,0l0,0l0,0l1.1-0.2l2.4-0.6l2.4-0.6l1.2-0.3l0.1,0.4l0,0.6l-0.2,0.3l-0.1-0.6l-0.2-0.2l-0.2,0.3l-0.1,0.3l0.2,1.2
		l-0.1,0.6l-0.7,0.3l-0.4,1.7l-0.5,1l-0.1,0.6l-1,0.4l-1.6,0.6l-0.3,0.7l-0.9-0.1l-1.2,0.3l0-0.9l0.2-0.8l-0.8-0.6l-0.4,0l-0.5-0.2
		l0.3-0.7l0.1-0.7l-0.3-0.8l0.1-0.6l-0.3,0.2l-0.4,0.7l-0.3,0.3l-0.3-0.5l-0.2,0.2l-0.1,0.4l-0.3,0.3l-0.8-0.4l-1.2-0.4l-0.8-0.9
		l-0.5-0.7l0-1.5l0.7-0.4l1,0l1.2-0.3l-0.2-0.3l-0.4,0.1l-1.5-0.9l-0.6-0.6l-0.7,0l-0.2,0.8l-0.3,0.3l0.1-1.6l0.6-0.2l0.8-0.6
		l-0.4-0.8l-0.6-0.3l-0.9,0.7l-0.1-0.6l0-0.8l0.7-0.2l0.7,0.1l0.3-1.4l-0.1-0.6l-0.7,1l-0.6-1.7l0.5-1.9l0.7-0.9l1.1-0.2l1-0.4
		l-0.7-0.2l-0.7,0l0.4-0.8l0.4-0.2l0.3-0.7l-1,0.3l-0.1-1.1l-0.5,0.3l-0.6,0.2l-0.1,0.5l0.2,0.8l-0.1,0.6l-0.4,0.5l-0.7,0.5
		l-0.2-0.5l-0.3-0.2l0.2,1.2l-0.1,0.4l-0.8-1l-0.1,0.3l0.1,0.3l0,0.6l-0.4,0.4l0.2,0.7l-0.1,0.4l-1.7-0.3l0,0.2l1.2,1.1l0.8,0.3
		l0.2,0.7l-0.4,0.7l-0.9-0.3l-0.1,0.1l0.6,0.8l0.4,0.7l-0.1,0.7l0.2,0.8l0.1,0.7l0,0.7l1,2.8l0.6,0.7l0.6,0.7l0.4,0.7l-0.5,0.2
		l-0.9-0.4l-0.8-0.3l-1.1-1.2l-0.3-0.5l-0.3-0.4l0.3,1l0.5,1.1l3.1,2l0.7,0.9l0.5,0.7l0.1,0.8l-0.8-0.4l-0.7-0.5l-1.7-0.4l-2-0.1
		l-1.4-1.5l0.2,0.7l-0.1,0.7l-0.8-0.6l-0.6-0.6l-0.3-0.7l-0.8,0.2l-0.7,0.8l-0.9,0l-0.3-1.2l0.1-0.7l0.6-1.7l0.7-0.9l0.2-1.1
		l-0.5-1.5l0.4,1.1l0.7-1.3l-0.8-0.8l-0.7-0.7l-0.7,1.1l-0.8-0.2l-1.4-0.9l-2.1-0.4l-0.4-0.4l-0.1-0.5l0.1-0.7l-0.7-0.5l-1.6-0.3
		l-0.7-0.4l-0.2-0.1l-0.2-0.6l-0.3-0.4l-0.3-0.1l-0.1-0.3l0.1-0.4l-0.3-0.4l-0.7-0.3l-0.3-0.3l0.1-0.4l-0.3-0.1l-0.8,0.2l-0.8-0.2
		l-0.9-0.5l-0.9,0.1l-1.4,0.9l-0.8,0.3l-0.3,0.4l-0.1,0.7l-0.3,0.4l-0.8,0.2l-0.1,0l-1,0l-0.8-0.3l-0.2-0.1l0-0.3l-0.2-0.1l-0.2,0
		l-0.2,0.2l-0.1,0.6l-1.4,1.9l-0.9-0.2l-0.3,0.1l-1.9,2.7l-0.6,0.5l-1.2,1.3l-0.3-1.8l-0.3-1.8l-0.3-1.8l-0.3-1.8l2.5-0.5l2.5-0.5
		l2.5-0.5l2.5-0.5l2.5-0.5l2.5-0.5l2.5-0.5l2.5-0.5l2.5-0.5l2.5-0.5l2.5-0.5l2.4-0.5l2.4-0.5l2.4-0.5l2.4-0.5L417.1,195.8z
		 M428.3,217.5l-0.3,0.1l0.2-0.5l0.4-2.5l0.2-0.9l0,1.7l-0.4,1.7L428.3,217.5z"/>
	<path id="US-ME_1_" class="st25" d="M456.5,74.7l0.1,0.3l0.6,0.4l0.7,0.2l0.5,0l0.5-0.2l1.3-1.1l1.6-1l0.8-0.7l0.1-0.4l0.4-0.3
		l0.7-0.1l1.6,0.6l2,1l1.6,0.8l0.7,2l0.7,2.1l0.7,2.2l0.5,1.6l0.7,2.2l0.6,1.7l0.8,2.2l0.4,1.2l0.3,0.3l0.1,0.5l0,0.3l0.1,0.2
		l0.1,0.2l0.1,0.3l-0.1,0.3l0,0.4l0.2,0.6l0.3,0.3l0.3,0.1l0.2-0.1l0.4,0.1l0.5,0.2l0.7,0.1l0.6-0.1l0.4-0.2l0.6,0l0.3,0.4l0.1,0.5
		l-0.2,0.3l-0.3,0.3l0.1,0.4l0.3,0.3l0.3,0.3l0.4,0.5l0.1,0.5l-0.1,0.5l0,0.5l0.3,0.3l0.7,0.3l0.5,0.4l0.6,0.1l0.2-0.3l0.1-0.3
		l0.1-0.3h0.4l0.4,0l0.5,0l0.1,0.4l0.5,0.6l0.6,1.3l-0.1,0.7l0.3,0.8l1-0.1l0.3,0.2l0.1,0.3l-1.3,2.7l-1.8,0.3l-0.7,0.8l-0.9,0.5
		l-0.1,1.1l-0.5,0.4l-0.7,0.2l-0.7-0.1l-0.4,0.3l-0.1,1.9l-0.6,0l0,0.7l-0.2,0.3l-0.3,0.4l-0.6-0.6l-0.4-0.6l-0.4,0l-0.5,0l-0.5,0.2
		l-0.3,0.2l-0.2,0.6l-0.4,0.6l-0.5-0.2l-0.5-0.4l0,0.9l-0.1,1l0.4,1l0,0.7l-0.4,0l-0.6-0.4l-1.2-0.1l-0.8,0.3v-0.6l0.6-1.1l-0.3-0.1
		l-0.4,0.2l-0.2-0.1l0.1-0.8l-0.2-0.8l-0.3,0.4l-0.2,1l-0.9,1l0.4,1.1l-0.3,2.7l0.3,1l-0.4,1l-0.7,1l-1.2,0.2l-0.7,0.9l-0.2,0.8
		l-0.4,0.2l-0.5-0.8l-0.2-0.2l0.1,1.4l-0.3,0.2l-0.4-0.9l-0.3-0.6l-0.3,0.7l0.1,1.5l-0.3,0l-0.3-0.5l-0.3-0.1l0.1,0.6l0.4,0.8l0,0.5
		l-0.4-0.1l-0.4-0.3l-0.4,0.5l-0.4,0.3l-0.1-0.4l-0.1-0.5l-0.9,0.6l-0.9,1.3l-0.5,1.5l0.4,0.1l0.5,0.3l-1,2.4l-1.1,2.2l-0.4,3.3
		l-0.4,0.5l-0.3,0.7l-1.2-1l-0.4-1l-1.2-1l-0.6-0.7l-0.4-0.9l-0.2-1l-0.5-1.5l-0.5-1.5l-0.5-1.5l-0.5-1.5l-0.5-1.5l-0.5-1.5
		l-0.5-1.5l-0.5-1.5l-0.5-1.5l-0.5-1.5l-0.5-1.5l-0.5-1.5l-0.5-1.5l-0.5-1.5l-0.5-1.5l-0.4-1.3l0.2-0.3l0.5-0.6l0.4-0.1l0.5,0.5
		l0.4,0.3l0.3-0.2l0.1-0.6l-0.2-0.8l0.2-0.6l0.4-0.2l0.4-0.1l0.1-0.3l-0.1-0.4l-0.3-0.6l-0.2-0.7l0.7-1.6l1-1.2l0.3-0.6l-0.1-0.9
		l0.4-1.1l0.2-0.6l0-0.5l-0.3-0.5l-0.3-1.1l-0.1-1.3l-0.1-1.5l0.3-1.4l0.7-1.7l-0.2-1.9l-0.3-2l0.7-2.2l0.8-2.5l0.5-1.4l0.8-2.6
		l0.6-1.8l0.3-0.9l0.3-1l1,0l1,0l0.2,1.2L456.5,74.7z M477.1,112.3l-0.5,0.4l-0.7,0.1l0.2,0.7l0,0.3l-0.8-0.2l-0.3-0.2l-0.3-0.9
		l0.3-1.1l0.3-0.5l0.7,0.1l0.8,0.9L477.1,112.3z M473.5,115.5l-0.3,0.4l-0.4,0l-0.2-0.7l0.1-0.3l0.1-0.1l0.3,0.1L473.5,115.5z"/>
	<path id="US-MI_1_" class="st25" d="M266.7,101.5l0,0.2l0.4,0l-0.1,0.1l-0.4,0.2l-1,0.5l-0.7,0.2l-0.4-0.1l-0.1-0.3l0.3-0.4l0-0.2
		l-0.3,0l0.1-0.2l0.4-0.4l3.6-2.4l1.5-0.9l0.8-0.3l0.1,0.1l-0.9,0.9L270,99l0.1,0.2l-0.3,0.4l-2.6,1.7L266.7,101.5z M274.6,111.1
		l-0.1,0.5l0.1,0.3l-1.1,1.3l-0.4,0.8l-0.3,0.2l-0.3-0.5l0-0.4l0.3-0.3l0.2-0.5l0-0.6l-0.1-0.2l-0.3,0.6l0.2,0.1l0.1,0.1l-0.1,0.2
		l-1.4-0.2l-0.4-0.4l0-0.6l0.4-0.8l1.5-1.8l0.7-0.5l2-0.9l1.1-0.3l1.1-0.1l0.8,0.2l0.6,0.4l-0.4,0.4l-2.2,0.5l-0.1,0.1l0.4,0.2
		l0.1,0.2l-0.3,0.5L274.6,111.1z M313.2,117.1l0.3,0.1l0.2,0.3l0.6,0.8l0.3,0.6l0.3,0.9l0.1,0.3l0.1,0.5l-0.3,0.4l-0.1,0.3l0.2,0.2
		l1.2-0.1l0.6,0.2l0.2,0.3l-0.1,0.4l0.1,0.3l0.3,0.3l1,0.4l0.3,0.2l0,0.3l-0.3,0.2l-0.5,0.2l-3.6-0.1l-1.1,0l-0.1,0.2l-0.1,0l-0.2,0
		l-0.3,0l-0.2-0.1l-0.2-0.3l-0.3-0.2l-0.5,0l-0.4,0.3l-0.4,1.1l0.1,0.2l0,0.7l0.2,0.2l0,0.2l-0.1,0.1l-0.3,0l-0.5-0.1l-1.9-1.4
		l-1.4-0.7l-1.6-0.4l-1.3-0.1l-0.9,0.1l-0.7,0.5l-0.5,0.9l-0.9,0.6l-1.2,0.3l-0.7,0.3l-0.1,0.3l-0.4,0.1l-0.8-0.2h-0.8l-0.8,0.2
		l-0.6,0.4l-0.5,1.1l-0.1,0.5l-0.4,0.5l-1.2,0.8l0,0.3l-0.6,0.8l-0.2,0.4l0,0.4h-0.2l-0.5-0.4l-0.1-0.6l0.3-0.8l0.3-0.4l0.3,0
		l0.2-0.4v-0.7l-0.2-0.3l-0.6,0.2l-0.3,0.3l-0.4,0.1l-0.5-0.1l-0.4,0.4l-0.3,1l-0.4,0.7l-0.5,0.3l-0.4-0.3l-0.3-0.9l-0.1-0.7
		l0.1-0.9l-0.1-0.2l-0.2,0.3l-0.3,0.8l-0.3,1.7l-0.2,0.6l-0.4,0.3l-0.5,1l-0.7,1.8l-0.8,1.8l-0.9,1.7l-0.6,0.9l-0.2,0.1l-0.1,0.3
		l0,0.7l-0.5-0.1l-0.5-0.5l-0.3-0.5l-0.1-0.6l0.4-1.5l0-0.2l-0.1-0.1l-0.3-0.1l-0.7,0.3l-0.7,0.1l-0.2-0.1l-0.1-0.2l0-0.4l0.1-0.5
		l0.4-0.9l-0.1-0.8l0.2-0.5l-0.3-0.8l0-0.4l-0.3-0.4l-0.9-0.5l-2-0.6l0.1-0.9l-0.1-0.4l-0.5-0.5l-2.1-0.5l-1.4-0.2l-1.3,0.1l-1-0.2
		l-1.1,0l-0.7-0.3l-0.7-0.3l-0.7-0.3l-0.7-0.3l-1.3-0.2l-1.3-0.3l-1.3-0.3l-1.3-0.3l-1.3-0.3l-1.2-0.3l-1.2-0.3l-1.2-0.3l-0.3-0.6
		l-0.3-0.6l-0.3-0.6l-0.3-0.6l-0.6-0.2l-0.3-0.1l-0.2-0.3l-0.5,0.2l-0.2-0.5l0-0.1l0.6-0.2l1.8-0.9l1.5-1l1.2-1.1l1.6-0.8l1.9-0.4
		l1.4-0.5l0.8-0.6l1-1.1l0.6-0.3l0.8-0.2l0.6-0.4l0.3-0.7l0.7-0.8l1-1l0.6-0.4l0.2,0.2l0.1,0.3l0,0.5l0.3,0.3l0.6,0.2l0.3,0.3l0,0.5
		l0.2,0.4l0.4,0.3l0.2,0.7l-0.1,1.1l0,0.7l0.2,0.3l0.1,0.2l0.2-0.2l0.2-0.4l0.1-0.2l0-0.2l1.5-1.2l0.3-0.1l0.6,0.2l2.5,0.2l1,0.2
		l1.1,0.5l0.4,0.2l1.4,1.9l0.6,0.7l0.4,0.2l0.2,0.3l0.2,0.7l0.2,0.2l1.8,0l0.8-0.2l0.5-0.3l0.6,0.1l0.7,0.6l0.6,0.1l0.6-0.4l0.6,0
		l0.6,0.3l0.3,0.2l0.2,0l0.9-1.1l1.2-1l1.6-1.1l0.9-0.5l0.3,0.1l1.5-0.5l1.4-0.2l1.9,0l1.7-0.4l1.5-0.8l1.3-0.5l1.2-0.2l0.5,0.1
		l-0.2,0.5l-0.1,0.8l0.1,1.1l0,0.7l-0.1,0.3l0,0.3l0.2,0.2l1.2,0l0.7,0.3l0.7-0.1l0.8-0.4l0.6,0l0.5,0.5l0.6,0l0.5-0.5l0.4-0.4
		l0.3-0.2L313.2,117.1z M315.6,118.8l0,0.3l-0.3,0l-0.3-0.2l-0.2-0.3l-0.4-0.8l-0.5-0.6l0.5-0.8l0.3-0.1l0.4,0.1l0.1,0.4l-0.2,0.7
		l0.1,0.7L315.6,118.8z M315.9,120.4l-0.1,0.1l-0.6-0.5l-0.1-0.3l0-0.3l0.2,0l0.3,0.2l0.2,0.3l0.1,0.3L315.9,120.4z M322.4,122.9
		l0.1,0.3l-0.2,0.5l-0.7,0.3l-1.4,0.2l-0.9-0.1l-0.5-0.3l-0.1-0.2l0-0.4l0.2-0.1l0.3,0.2l0.4-0.1l0.5-0.4l0.3-0.3l0-0.2l-0.2-0.3
		l0.1-0.2l0.8,0l0.3,0.2l0.6,0.7L322.4,122.9z M312.4,127l1.3,0l0.1-0.1l0.4,0.3l0.1,0.3l-0.1,0.3L314,128l-0.3,0.1l-0.5-0.2
		l-0.8-0.6L312.4,127z M310.5,127.6l0.7,0.2l1.4,0.7l1.3,0.4h1.2l0.9,0.2l0.6,0.4l0.4,0.5l0.3,0.6l0.6,0.3l0.9,0l0.7,0.2l0.5,0.4
		l2.9,0.7l1.2,0.4l0.7,0.5l0.2,0.3l0,0.4l0.1,0.4l0.6,0.7l0.2,0l0.2,0.3l0.1,0.6l0.2,0.4l0.3,0.2l-0.1,0.1l-0.9-0.3l-0.5,0.2
		l-0.2,0.5l0,0.5l0.2,0.4l1.3,1.1l0.4,1.1l0.3,1.4l-0.1,0.6l0.1,1.2l0.2,1.9l0.1,0.7l-0.3,0.7l-0.8,1l0-0.2l-0.2,0l-0.2,0.2
		l-0.2,0.8l-0.1,1.5l-0.3,0.8l-0.4,0.2l-0.2,0.2l-0.1,0.3l-0.4,0.3l-0.8,0.2l-0.5,0.5l-0.3,1.3l0.1,0.6l-0.1,0.8l0.1,0.6l0.3,0.5
		l0.8,0.4l1.2,0.4l0.7,0l0.4-0.3l0.4-0.9l0.4-0.4l0.6-0.2l0.2-0.4l0.7-1.8l-0.1-0.4l-0.4-0.1l0-0.1l0.4-0.1l0.4-0.3l0.3-0.4l0.5-0.4
		l1.3-0.6l0.7-0.6l0.5-0.2l0.7,0.2l1,0.5l0.9,0.8l0.7,1.1l1.1,3l1.6,4.8l1,2.7l0.4,0.5l0.2,0.3l-0.1,4l-0.3,1.7L338,170l-0.9,1.1
		l-1.1,1.7l-1.3,0.9l-0.7,0.5l-0.1,0.3l-0.2-0.1l-0.3,0.9l-0.2,1.2l0,0.9l0.2,0.5l-0.3,0.3l-0.4,0.7l-0.1,0.2l0.1,0.3l-0.1,0.2
		l-0.3,0l-0.2,0.2l-0.4,0.7l-0.6,1.7l-0.1,0.3l-0.1,0.1l-3.5,0.6l-3.5,0.6l-3.5,0.6l-3.5,0.6l-0.1-0.8l-3.2,0.4l-3.2,0.4l-3.2,0.4
		l-3.2,0.4l-3.2,0.3l-3.2,0.3l-2.6,0.3l0.6-0.5l1-1l0.5-0.9l0.5-1.1l0.4-1.4l1-2.1l0.4-1.3l0.4-1.6l0.2-1.6l0.1-1.7l-0.1-1.7
		l-0.2-1.8l-0.5-1.8l-0.7-1.8l-0.4-0.9l-0.1-0.2l-1.2-2.2l-1.4-3.1l0-0.3l0.8-2v-0.3l-0.3-1.6l-0.3-0.8l-0.6-1l0-0.3l0.9-1.5
		l0.5-1.1l0.4-1.3l0.2-1.5l0-1.7l-0.1-1.1l-0.2-0.5l0-0.4l0.2-0.3l1.1-0.5l0.3-0.7l0-1.2l0.2-0.6l0.4,0l0.3-0.3l0.3-0.5l0.4-0.2
		l0.6,0.1l0.7-0.8l0.8-1.7l0.6-1l0.5-0.3l0.1,0.1l-0.3,0.5l0,0.5l0.2,0.6l0,0.6l-0.1,0.8l0.2,0.2l-0.3,1.3l0.1,0.6l0.3,0.4l0.3-0.2
		l0.2-0.8l0.1-0.4l-0.1,0l0-0.3l0.2-0.7l0.2-0.3l0.2,0l0.1,0.3l0,0.7l-0.4,1.6l-0.1,0.5l0.1,0.1l0.5-1l0.4-1.6l0.3-1.2v-0.6
		l-0.3-1.6l-0.1-0.7l0.1-0.5l0.5-0.6l0.9-0.7l0.9-0.4l0.9-0.2l0.6-0.2l0.3-0.3l-0.2-0.2l-0.7-0.1l-0.5-0.3l-0.4-0.5l-0.2-0.6l0-0.7
		l0.3-0.8l0.6-0.8l0.2-0.5l-0.3-0.3l0.3-0.2l0.9,0l0.6-0.2l0.3-0.3L310.5,127.6z M303,131.2l-0.3,0.1l-0.3-0.1l0-0.7l0.2-1.2
		l0.3-0.6l0.5,0.2l-0.1,0.2l0.2,1.2l-0.1,0.6L303,131.2z M299.6,138.7l-0.1,0.2l-0.3,0l-0.2-0.2l-0.3-0.6l0.1-0.1l0.6,0l0.2,0.2
		L299.6,138.7z"/>
	<path id="US-MN_1_" class="st25" d="M224.1,93.9l1.1-0.2l1,0l1,0l0.5,0.1l1.5,0.6l1,0.5l1.5,0.9l0.8,0.4l0.4,1l0.5,1.3l0.6,0
		l0.4-0.8l1.2-0.2l1.6,0.5l1.5,1.4l2.1,1.2l1.3,0.6l1.3-0.1l1.6-0.7l1.6-1.4l1.2-0.3l0.7,0.1l0.5,1l0.5,0.3l1.3-0.2l2.7,0l2.2-0.4
		l0.5,0.5l0.5,0.9l0.9,0.2l1.2-0.4l1.9,0.1l-0.3,0.2l-0.3,0l-0.3,0.2l-0.4,0.5l-1,0.7l-1.6,1l-1.8,0.9l-3.8,1.6l-2.3,1.6l-1,0.9
		l-3.9,4.6l-2.4,2.5l-3.9,3.5l-0.4,0.4l0,0.4h-0.2l-0.6,0.8l-0.3,0.5l-0.7,0.2l0.1,2l0.1,2l0.1,2l0.1,2l-0.3,0.2l-0.4,0.5l-0.6,0.1
		l-2.6,1.8l-0.4,0.5l-0.4,1.1l-0.8,1.3l-0.2,0.7l0.1,0.9l1.4,0.7l0.5,0.7l0.3,0.8l0,0.7l-0.6,1.5l-0.1,0.6l0.1,1.8l-0.3,0.6l0.3,1.4
		l0,0.5l-0.2,1.6l-0.1,0.5l0.3,0.8l0,0.1l1.3,1.1l1.1,0.6l1,0.2l0.8,0.5l0.6,0.7l0.8,0.5l0.9,0.2l1,0.6l1.5,1.5l0.8,1.3l1.3,0.9
		l2.1,0.9l1.4,0.8l0.7,0.7l0.5,1.9l0.6,4.1l-3.4,0.2l-3.3,0.2l-3.3,0.1l-3.3,0.1l-3.3,0.1l-3.3,0.1l-3.3,0.1l-3.3,0.1l-3.3,0.1
		l-3.3,0.1l-3.3,0.1l-3.3,0l-3.3,0l-3.3,0H198l-3.3,0l0-3.2l0-3.2l0-3.2l0-3.2l0-3.2l0-3.2l0-3.2l0-3.2l-0.8-1.1l-1.7-0.9l-0.4-0.5
		l-0.8-1.3l-0.3-0.6l-0.1-0.4l0.4-0.5l1.5-1.4l0.5-0.6l0.2-0.6l0.4-1.4l-0.1-1.1l0.1-1.7l-0.3-1.3l-0.1-0.6l-0.2-0.8l-1.1-2.1
		l-0.3-1.7l-0.3-0.8l-0.1-2.1l0-0.6l0.2-1.1l-0.5-0.8l-0.1-0.6l-0.2-5l-0.1-0.7l0.1-2.3l-0.8-2.5l-0.4-0.8l-0.2-1l0-0.5l-0.7-1.7
		l-0.4-1.9l0.1-1.6l-0.1-1.2l0.1-0.9l-0.1-1.4l0.2-0.8l0-1.3l-0.9-4.5l1.2,0l4,0l4,0h4l4,0h2.2l0-3l0-2.4l2,0.3l0.6,0.4l0.2,0.2
		L210,85l0.2,2l0.4,1.7l0.9,2v0l0.1,0.8l0.3,0.5l0.5,0.4l2,0.5l3.4,0.6l1.9,0.7l0.5,0.8l0.9,0.3l1.4-0.2l0.9-0.4L224.1,93.9z
		 M224.1,93.9L224.1,93.9L224.1,93.9L224.1,93.9z"/>
	<path id="US-MO_1_" class="st25" d="M248.3,209.7l-0.5,2.2l0.1,1.8l0.5,2.2l0.5,1.6l0.6,1.1l1.9,2l3.3,2.9l2.2,2.8l1,2.7l1,1
		l1.1-0.6l1.4,0.2l1.5,0.4l0.8,0.5l0.2,0.2l0.1,0.2l0,0.2l-0.2,0.5l-1.5,4.6l-0.5,2.1l0.1,0.8l0.8,1.1l1.5,1.4l1.3,0.9l1.1,0.4
		l1.7,1.1l2.4,1.8l1.2,1.4l0.1,1l0.3,1l0.5,1l0.1,1l-0.4,0.9l0.3,1.2l0.9,1.5l0.8,0.9l0.6,0.3l0.1,0l0-0.1l-0.1-0.2l0-0.2l0-0.3
		l0.1-0.1l0.1,0l0.6,0.3l0.9,0.8l0.4,1.1l0,1.4l-0.2,1.4l-0.4,1.3l-0.6,0.5l-0.3-0.1l-0.6-0.2l-0.2,0.1l-0.5,0.4l-0.5,1.3l0,0
		l-0.2,0.1l-0.2-0.1l0-0.1l-0.1-0.4l-0.3-0.3l-0.2,0l-0.2,0l-0.1,0.2l0,0.4l0,0.2l0.3,1l-0.1,0.8L272,265l-0.1,0.4l0.4,0.5l0,0.2
		l-0.1,0.2l-0.4,0.1l-0.3,0.1l-0.2,0.4l0.5,0.7l0,0.9l-0.6,1.1l-0.1,0.4l-2.1,0.2l-1.9,0.2l-1.9,0.2l-1.9,0.1l0.8-1.6l0.5-0.6
		l0.4-0.6l0.7-0.6l0.8-1.2l0.1-0.5l-0.1-0.5l-0.5-0.7l-0.6-1.1l-3.2,0.2l-3.2,0.2l-3.2,0.2l-3.2,0.2l-3.2,0.2l-3.2,0.2l-3.2,0.1
		l-3.2,0.1l-3.2,0.1l-3.2,0.1l-3.2,0.1l-3.2,0.1l-3.2,0.1l-3.2,0.1l-3.2,0.1l-3.2,0.1l0-1.8l0-1.8l0-1.8l0-1.8l0-1.8l0-1.8l0-1.8
		l0-1.8l0-1.8l0-1.8l0-1.8l0-1.8l0-1.8l0-1.8l0-1.8l0-1.8l0-1.8l0-1.8l0-1.8l0-1.8l0-0.5l-1.7-1l-0.8-0.9l-0.4-1.2l-0.8-1.2
		l-1.2-1.2l-0.2-1.2l0.8-1.3l0.6-0.7l0.5,0l0.1-0.6l-0.4-1.1l-0.6-0.4l-0.8,0.3l-0.7,0l-2.5-1.8l-0.2-0.1l-0.8-1.2l-0.3-1.4
		l-0.6-0.9l-0.9-0.4l-0.6-0.9l-0.3-1.5l-0.6-1.5l-0.3-0.4l2.7,0l2.7,0l2.7,0l2.7-0.1l2.7-0.1l2.7-0.1l2.7-0.1l2.7-0.1l2.7-0.1
		l2.7-0.1l2.7-0.1l2.7-0.1l2.7-0.1l2.7-0.1l2.7-0.1l2.7-0.1l0.6,1l0.6,0.3l0.1,0.3l0.8,0.5l0.2,0.5L248.3,209.7z"/>
	<path id="US-MS_1_" class="st25" d="M289.9,282.7l1.1,0.8l0,0.3l0,0.2l0,0.7l-0.1,2.6l-0.1,2.6l-0.1,2.6l-0.1,2.6l-0.1,2.6
		l-0.1,2.6l-0.1,2.6l-0.1,2.6l-0.1,2.6l-0.1,2.6l-0.1,2.6l-0.1,2.6l-0.1,2.6l-0.1,2.6l-0.1,2.6l-0.1,2.6l0.3,2.6l0.3,2.6l0.3,2.6
		l0.3,2.6l0.3,2.6l0.3,2.6l0.3,2.6l0.4,2.9l-3.6,0.5l-1.6-0.6l-0.7-0.1l-0.4,0.1l-1.8,0.8l-2,0.7l-0.5-0.1l-0.7,0l-1.4,1.8l-0.9,0.5
		l-0.3-0.1l-0.3-0.1l-0.3-0.2l-0.5-1l-0.2-0.7l-0.7-1.6l-0.7-0.9l-0.7-0.6l-0.4-0.6l0-0.4l-0.3-0.7l0-0.6l0.7-2.3l0.2-1.7l-2.9,0.2
		l-2.9,0.2l-2.9,0.2l-2.9,0.2l-2.9,0.2l-2.9,0.2l-2.9,0.2l-2.9,0.1l0-0.4l0.5-0.5l0.1-0.6l-0.5-1.5l0.1-0.8l0.7-0.2l0.3-0.8
		l-0.1-1.5l0.2-1l0.5-0.5l0.5-1.2l0.4-1.9l1-1.6l1.5-1.3l0.7-1.1v-0.8l0.2-0.4l0.3-0.2l0.5-0.6l0.6-0.8l0.1-0.5L260,323l-0.1-0.4
		l-0.6-0.7l-0.9-0.6l-0.6-0.9v-0.7l-0.2-0.6l-0.4-0.5l0.1-0.5l0.6-0.5v-0.4l-0.5-0.4l0-0.7l0.4-1.1l-0.1-0.7l-0.6-0.4L257,313
		l-0.1-0.3l0.4-2.5l-0.1-0.3l-0.6-0.7l-0.1-0.9l0.3-1.1l-0.2-0.9l-0.5-0.3l-0.1-0.3l-0.2-0.5l0.5-0.5l0-0.4l-0.5-0.4l0.2-0.6
		l0.9-0.8l0.3-0.4l0.3-0.4l0.1-1.1l-0.2-0.6l-0.3-0.4l0.1-0.2l0.2-0.2l1.2-0.4l0.3-0.3l0.1-0.3l-0.4-0.8l0.3-0.9l1-1l0.5-0.8l0-0.7
		l0.5-0.5l0.9-0.4l0.5-1.3l0.1-2.2l0.2-1l0.5-0.2l0.2-0.3l0-0.6l0.6-0.7l1.1-0.7l0.4-0.7l-0.2-0.3l0-0.4l2.9-0.2l3.1-0.2l3.1-0.2
		l3.1-0.2l3.1-0.2l3.1-0.2l3.1-0.2L289.9,282.7z M291,350.5l-0.1,0.2l-1.1-0.2l-0.7-0.2l-0.1-0.3l1.9,0.3L291,350.5z"/>
	<path id="US-NC_1_" class="st25" d="M424.9,239.8l-0.1,1.1l0.3,0.6l0.7,0.5l1,1.4l1,2l-0.9-0.7l-0.8-0.3l-1.2-0.1l-1.2-0.4l0.3,0.9
		l0.1,1l-0.9-0.1l-0.6-0.2l0.7,0.9l-1.1-0.1l-0.7,0.2l-0.3,1l-0.5,0.7l-0.9,0.4l-1.5-0.5l-0.6-0.9l-0.4-1.1l0.2,1.3l0.5,1.3l0.1,1.1
		l1.3-0.1l1.2-0.4l1.6-0.3l1-0.4l0.6-0.5l1.6-0.1l0.4,1.2l0.1,1.3l0.2,1.4l0.4-0.1l0.4-0.5l-0.3-2.4l1.2-1.2l0.5,0l0.6,0.7l0.3,0.7
		l0.4,1l0,1.7l-1.7,2.4l-1.2,2.1l-0.7,0.5l-1.2,0.1l-1.4-0.2l-0.7,0.1l-0.4,0.3l-0.4-0.5l-0.4-0.9l-0.6-0.2l-0.4,0.1l0,1.1l-1.1,0.6
		l-1.7-0.1l-1.9-0.5l0.9,0.8l4.7,0.9l0.6,0.2l0.6,0.4l-0.4,0.9l-0.3,1l0.1,0.7l-0.1,0.5l-1.5,1.5h-1l-2.8-1.6l1.5,1.6l1,0.6l1.8,0
		l3.1-1.4l1.2,0.5l-0.6,1.5l-0.7,1.1l-1.1,0.3l-1,0.5l-0.2,0.7l-0.7,0.2l-1.1,0.3l-1.7,0.4l-1,0.1l-1.1,1.6l-0.5,0.3l-0.8-0.1
		l-0.5-1l-0.4-0.4l0.4,1.9l0.2,0.5l0.3,0.3l-1.4,1.4l-1.2,1.6l-0.5,0.5l-0.5,0.8l-0.9,2.1l0,1.4l-0.2,1.6l-0.2-0.7l-0.2-1.2
		l-0.6-1.3l0.3,2.5l-0.3,1.2l-4.5,0.8l-1.7,0.9l-2-1.4l-1.9-1.3l-1.9-1.3l-1.9-1.3l-1.8-1.3L392,275l-1.8-1.3l-1.8-1.3l-1.6,0.2
		l-1.6,0.2l-1.6,0.2l-1.6,0.2l-1.6,0.2l-1.6,0.2l-1.6,0.2l-1.6,0.2l-0.2-1.1l-0.2-0.8l-1.2-1.2l-0.7-0.7l-1.2,0.9l-0.1-0.3l-0.1-0.6
		l-0.1-0.2l-0.4-0.1l-1.8,0.2l-1.8,0.2l-1.8,0.2l-1.8,0.2l-1.8,0.2l-1.8,0.2l-1.8,0.2l-1.8,0.2l-0.4-0.1l-0.7,0.6l-2,1l-1,0.8
		l-0.4,0l-1.7,0.9l-1.7,0.9l-0.2,0l-3.5,0.5l-3.5,0.5l-3.5,0.5l-3.5,0.5l0.1-3l0.2-0.7l0.3-0.2l1.2-0.2l0.7-0.4l0.4-1.9l1.3-1.6
		l0.6-0.4l1-0.4l2.4-0.7l2.4-1.7l1.7-1.6l1.4-0.6l0.4-0.5l0.2-0.7l0.1-0.9l0.1-0.2l0.9-0.1l0.5-0.8l0.6-0.5l0.6-0.3l0.4-0.1l0.2,0.2
		l0.2,0.6l0.2,0.2l0.3,0l0.3-0.2l0.4-0.5l1.1-1.4l0.8-0.6l1.2-0.5l1,0.5l0.5-0.3l1.2-2.8l0.6-0.6l0.5-0.3l0.8-0.2l-0.1-0.7l0.1-1.1
		l-0.1-0.7l0.3-1.1l0.2,0.2l4.1-0.6l4.1-0.6l4.1-0.6l4.1-0.7l4.1-0.7l4.1-0.7l4-0.7l4-0.7l4-0.7l4-0.8l4-0.8l4-0.8l4-0.8l4-0.8
		l4-0.8L424.9,239.8z M425.7,239.6l0.3-0.1l2.1,4.2l3.3,4.3l0.5,0.8l-0.7-0.6l-2.4-2.8l-1.4-2.1L425.7,239.6z M430.7,248.5l-0.1,0.3
		l-1.1-1.3l0.9,0.3l0.2,0.4L430.7,248.5z M433.7,256.7l-1.4,0.7l-0.2-0.1l1.6-1.2l-0.1-2.9l-0.2-1.3l-0.8-2.2l-0.1-0.5l0.4,0.7
		l0.7,2l0.3,1.6l0,2.4L433.7,256.7z M431.2,258l-1.8,1.4l-0.2,0l1.2-1L431.2,258z M424.7,267.3l-0.2,0.2l0.7-1.9l1.6-2.6l0.5-0.5
		l-1.3,2.2L424.7,267.3z M424.1,267.3l-0.2,0.1l-0.5-0.1l-0.7-0.2l-0.2-0.2l0.6-0.1L424.1,267.3z"/>
	<path id="US-ND_1_" class="st25" d="M193.8,132.3l-2.3,0l-2.3,0l-2.3,0l-2.3,0l-2.3,0l-2.3-0.1l-2.3-0.1l-2.3-0.1L173,132l-2.3-0.1
		l-2.3-0.1l-2.3-0.1l-2.3-0.1l-2.3-0.1l-2.3-0.1l-2.3-0.1l-2.3-0.1l-2.3-0.1L150,131l-2.3-0.1l-2.3-0.1l-2.3-0.1l-2.3-0.1l-2.3-0.2
		l-2.3-0.2l-2.3-0.2l-2.3-0.2l-2.3-0.2l-2.3-0.2l-2.3-0.2l-2.3-0.2l-2.3-0.2l0.2-2.7l0.2-2.7l0.2-2.7l0.2-2.7l0.2-2.7l0.2-2.7
		l0.2-2.7l0.2-2.7l0.2-2.7l0.2-2.7l0.2-2.7l0.2-2.7l0.2-2.7l0.2-2.7l0.2-2.7l0.2-2.7l1,0.1l4,0.3l4,0.3l4,0.3l4,0.3l4,0.3l4,0.2
		l4,0.2l4,0.2l4,0.2l4,0.2l4,0.2l4,0.1l4,0.1l4,0.1l4,0.1l2.9,0l0.9,4.5l0,1.3l-0.2,0.8l0.1,1.4l-0.1,0.9l0.1,1.2l-0.1,1.6l0.4,1.9
		l0.7,1.7l0,0.5l0.2,1l0.4,0.8l0.8,2.5l-0.1,2.3l0.1,0.7l0.2,5l0.1,0.6l0.5,0.8l-0.2,1.1l0,0.6l0.1,2.1l0.3,0.8l0.3,1.7l1.1,2.1
		l0.2,0.8l0.1,0.6l0.3,1.3l-0.1,1.7L193.8,132.3z"/>
	<path id="US-NE_1_" class="st25" d="M194.2,180.9l0.3,0.1l0.7,1.2l0.3,2.2l0.6,1.8l1,1.4l0.5,1l0,0.6l0.2,0.7l0.5,0.7l0.2,1.2
		l-0.1,1.7l0.2,0.9l0.5,0.1l0.2,0.2l-0.1,0.4l0.2,0.3l0.4,0.2l0.1,0.5l-0.2,0.8l0.1,0.5l0.5,0.2l0.1,0.4l-0.3,0.6l0,0.5l0.4,0.3
		l0.3,1.5l0.1,2.7l0,1.6l-0.2,0.5l0.4,1l0.7,1l0.3,0.4l0.6,1.5l0.3,1.5l0.6,0.9l0.9,0.4l0.6,0.9l0.3,1.4l0.8,1.2l0.2,0.1l-1.9,0
		l-2.3,0l-2.3,0l-2.3,0l-2.3,0l-2.3,0l-2.3,0l-2.3,0l-2.3,0l-2.3,0l-2.3,0l-2.3,0l-2.3-0.1l-2.3-0.1l-2.3-0.1l-2.3-0.1l-2.3-0.1
		l-2.3-0.1l-2.3-0.1l-2.3-0.1l-2.3-0.1l-2.3-0.1l-2.3-0.1l-2.3-0.1L150,215l-2.3-0.1l-2.3-0.1l-2.3-0.1l-2.3-0.1l-2.3-0.1l-2.3-0.1
		l-2.3-0.2l0.1-1.8l0.1-1.8l0.1-1.8l0.1-1.8l0.1-1.8l0.1-1.8l0.1-1.8l0.1-1.8l-2.7-0.2l-2.7-0.2l-2.7-0.2l-2.7-0.2l-2.7-0.2
		l-2.7-0.2l-2.7-0.2l-2.7-0.2l0.3-3.5l0.3-3.5l0.3-3.5l0.3-3.5l0.3-3.5l0.3-3.5l0.3-3.5l0.3-3.5l3.6,0.3l3.6,0.3l3.6,0.3l3.6,0.3
		l3.6,0.3l3.6,0.2l3.6,0.2l3.6,0.2l3.6,0.2l3.6,0.2l3.6,0.2l3.6,0.2l3.6,0.1l3.6,0.1l3.6,0.1l4.1,0.1l3,2.2l1.8,0.7l0.9-0.6l1.9-0.3
		l2.9,0l1.8,0.3l0.8,0.7l1.5,0.8l2.2,0.8l1.3,0.9l0.4,1l0.8,0.6L194.2,180.9z"/>
	<path id="US-NH_1_" class="st25" d="M457.3,136.9l0.1,1.9l0,0.9l-1.2,0.3l-0.5,0.3l-0.8,0.9l-0.6,0.4l-0.7,1.4l-0.8,0.6l-1.4,0.3
		l-1.4,0.3l-1.4,0.3l-1.4,0.3l-1.4,0.3l-1.4,0.3l-1.4,0.3l-1.4,0.3l-0.3-0.4l-0.8-0.7l-0.2-0.3l-0.1-0.4l0-1.2l0.1-0.4l0.1-0.7
		l-0.3-2.6l-0.1-1.6l-0.5-2.7l0-0.8l0.1-0.6l0.1-1.4l0.5-1.2l0.1-1.4l0.3-1.3l-0.1-0.7l0.1-1.5l-0.4-2.6l0.2-0.5l1.2-0.7l0.3-0.4
		l1.1-1.4l0.3-0.6l0.2-0.5l0-0.8l0.1-0.2l-0.1-0.4l-0.9-1.5l-0.2-0.6l0.6-2.2l-0.5-1l0.1-0.3l0.2-2.9l0.5-1.5l1.3,0.1l0.6-0.2
		l0.4-0.6l0.4,1.3l0.5,1.5l0.5,1.5l0.5,1.5l0.5,1.5l0.5,1.5l0.5,1.5l0.5,1.5l0.5,1.5l0.5,1.5l0.5,1.5l0.5,1.5l0.5,1.5l0.5,1.5
		l0.5,1.5l0.5,1.5l0.2,1l0.4,0.9l0.6,0.7l1.2,1l0.4,1L457.3,136.9z"/>
	<path id="US-NJ_1_" class="st25" d="M432.6,173.8l0.1,1.1l-0.5,2.4l-0.3,0.6l-0.4,0.6l-0.3,0.3l-0.3,0.4l-0.3,0.6l-0.1,1.2l0.5,0.9
		l2.1-0.1l0.5-0.4l0.4,0.6l0.4,0.9l0.1,1.1l-0.1,1.2l0.1,1.4l0.3,2.1l0.1,1.9l-0.2-0.6l-0.3-2.3l-0.3,0.3l-0.1,0.6l0.1,3l-0.5,1.7
		l-0.5,1.3l-0.9,0l0.4,0.8l-0.1,0.5l0,1l-0.3,0.7l-0.5,0.1l-0.6,0.6l-0.2,0.4l0.1,0.6l-0.3,0.6l-0.9,3.2l-1.2,1.2l-0.4,0l0.1-1.4
		l-0.1-1.4l-1-0.4l-0.9-0.1l-0.9,0.3l-1.3-0.8l-1.5-0.5l-2.3-1.6l-0.1-0.6l-0.3-0.9l0.2-1.6l0.3-1.2l0.6-0.7l2-1l0.3-1l0.1-0.8
		l0.4-0.6l1-1.1l1.6-1.5l-3.3-2.8l-0.7-0.1l-1.1-1.5l-0.9-0.3l-0.3-0.2l-0.3-1.3l-0.1-0.8l0-0.5l0.6-0.5l0.2-0.8l-0.1-0.4l-0.8-1.1
		l-0.1-0.4l0.8-0.9l0.9-1.7l0.4-1.7l0.2-0.5l0.3-0.4l0.7-0.6l1.2,0.4l1.2,0.4l1.2,0.4l1.2,0.4l1.2,0.4l1.2,0.4l1.2,0.4L432.6,173.8z
		 M434.7,192.3l-0.7,2.4l-0.1-0.4l0.9-2.9L434.7,192.3z"/>
	<path id="US-NM_1_" class="st25" d="M119.8,262.4l-0.5,0l-0.3,3.9l-0.3,3.9l-0.3,3.9l-0.3,3.9l-0.3,3.9l-0.3,3.9l-0.3,3.9l-0.3,3.9
		l-0.3,3.9l-0.3,4l-0.3,4l-0.3,4l-0.3,4l-0.3,4l-0.3,4l-0.3,4l-2.7-0.2l-2.7-0.2l-2.7-0.2l-2.7-0.2l-2.7-0.2l-2.7-0.2l-2.7-0.3
		l-2.7-0.3l-2.7-0.3l-2.7-0.3l-2.7-0.3l-2.7-0.3l-2.7-0.3l-2.7-0.3l-2.7-0.3l-2.7-0.3h-0.1l0.9,2.7l0,0l1.4,0.9l-0.1,0l-2.6-0.3
		l-2.6-0.3l-2.6-0.3l-2.6-0.3l-2.6-0.3l-2.6-0.4l-2.6-0.4l-2.6-0.4l-0.2,1.6l-0.2,1.6l-0.2,1.6l-0.2,1.6l-4.3-0.6l-4.3-0.6l-1.5-0.2
		l0.7-5l0.7-5l0.7-5l0.7-5l0.7-5l0.7-5l0.7-4.9l0.7-4.9l0.7-4.9l0.7-4.9l0.7-4.9l0.7-4.9l0.7-4.9l0.7-4.9l0.7-4.9l0.7-4.9l4.2,0.6
		l4.2,0.6l4.2,0.6l4.2,0.5l4.2,0.5l4.2,0.5l4.2,0.5l4.2,0.5l4.2,0.5l4.2,0.4l4.2,0.4l4.2,0.4l4.2,0.4l4.3,0.4l4.2,0.4l4.2,0.3
		l-0.1,1.8l-0.1,1.8l-0.1,1.8L119.8,262.4z"/>
	<path id="US-NY_1_" class="st25" d="M378.6,110.8L378.6,110.8L378.6,110.8L378.6,110.8z M433.2,148l0,1.2l0,1.2l0,1.2l0,1.2l0,1.2
		l0,1.2l0,1.2l0,1.2l0.4,0.3l0.2,1.3l0.2,1.3l0.2,1.3l0.2,1.3l0.2,1.3l0.2,1.3l0.2,1.3l0.2,1.3l0.4,0.4l0.4,0.4l-0.3,0.3l-0.5,0.5
		l-0.5,0.6l-0.7,0.7l0.6,0.6l0.7,0.7l-0.3,0.5l-0.8,1.5l-0.6,0.8l-0.6,0.4l-0.2,0.6l-0.3,0.4l0.1-1.3l0.2-1.1l-0.1-2l-0.5-1.6
		l-0.6-0.5l-0.6-0.3l0.9,1.4l0.6,1.9l0,0.1l-1.1-0.4l-1.2-0.4l-1.2-0.4l-1.2-0.4l-1.2-0.4l-1.2-0.4l-1.2-0.4l-1.2-0.4l-0.3-0.5
		l-0.5-0.3l-2-0.3l-0.6-0.3l-0.6-0.5l-0.5-0.7l-0.3-0.8l-0.2-0.6l0-0.7l-0.5-0.4l-0.1-0.4l-0.3-0.2l-1.3-0.3l-0.5-0.7l-1-0.5
		l-1.4,0.3l-1.4,0.3l-1.4,0.3l-1.4,0.3l-1.4,0.3l-1.4,0.3l-1.4,0.3l-1.4,0.3l-1.4,0.3l-1.4,0.3l-1.4,0.3l-1.4,0.3l-1.4,0.3l-1.4,0.3
		l-1.4,0.3l-1.4,0.3l-1.4,0.3l-1.4,0.3l-1.4,0.3l-1.4,0.3l-1.4,0.3l-1.4,0.3l-1.4,0.3l-1.4,0.3L379,171l-1.4,0.3l-1.4,0.3l-1.4,0.3
		l-1.4,0.3l-1.4,0.3l-1.4,0.3l-1.4,0.3l-0.3-1.9l-0.3-1.9l0-0.1l0.5-0.4l1.7-1.6l0.8-1.1l0.9-0.9l1-0.8l0.7-0.9l0.5-1.1l0.6-0.8
		l0.7-0.6l0.3-0.6l0-0.5l-0.3-0.7l-0.5-0.8l-0.2-0.7l0.2-0.5l0-0.3l-0.2-0.1l-1.7-0.2l-0.4-2.4l0-0.1l0.1,0l3.5-1.8l2.3-0.8l2.8-0.7
		l3.5-0.2l1.4,0.2l1,0.4l1,0l1-0.5l1.5-0.4l2-0.3l1.1-0.1l0.2,0.2l0.1-0.1l0.1-0.3l0.4-0.4l1.3-0.8l0.2,0.1l0.2-0.3l0.3-0.7l0.6-0.8
		l0.9-1l0.9-0.6l0.9-0.2l0.5-0.3l0.2-0.4l0-0.3l-0.2-0.2l0-0.3l0-0.2l-0.1-0.1l-0.2-0.2l-0.3-1.2l-0.3-0.5l-0.3-0.4l-0.4-0.2l0-0.3
		l0.4-0.5l0,0.3l0.2,0.1l0.2-0.2l0.4-0.8v-0.3l0.3-0.4l0.2-0.5l-0.3,0l-0.7,0.3l-0.2-0.1l0.3-0.7l-0.1-0.3l-0.2-0.1h-0.3l-0.7,0.7
		l-0.2,0.1l-0.1-0.3l-0.6-0.5l0.9-1.3l3.4-3.9l0.3-0.5l0.1-0.4l-0.2-0.3l-0.1-0.1l0-0.1l3-4.7l1.8-2.3l1.6-1.4l1.3-0.8l0.9-0.2
		l0.5-0.2l0.4-0.1l2.3-0.6l4.1-1l4.1-1l2.4-0.6l0.3,0.9l0.1,1.1l0.5,1.1l0.4,2.5l1.1,1.7l0.2,1.3l0.4,1.3l0,0.4l-0.3,0.9l-0.1,0.8
		l0,0.8l0.1,0.5l1,2.1l0.3,1l0.1,0.6l0.1,1.9l0.1,0.5l0.1,0.1l0.1,0l0.3-0.7l0.2-0.1l0.3,0.1l0.8,0.7l0.4,1.6l0.3,1.1l0.3,1.3
		l0.4,1.9l0.3,1.4l0.3,1.3l0.2,1l0,0.7L433.2,148z M399.7,133.9l-0.3,0.2l-0.1-0.1l0-0.2l0.2-0.2l0.4-0.1l0,0.2L399.7,133.9z
		 M399,138.2l-0.1,0.1l-0.1-0.3l0.1-0.2l0.3-0.1l0,0.2L399,138.2z M374.9,157.1l-0.2,0.5l-0.3,0l-0.3-0.1l-0.1-0.3l0-0.4l0.2-0.2
		l0.8,0l0.1,0.1L374.9,157.1z M447.1,170.1l-0.5,1.1l0.7-0.1l0.5-0.4l0.4-0.7l1.1-1l1-0.6l0.3-0.2l0.6,0.4l0.9-0.7l1-0.5l-3.9,3.5
		l-0.9,0.5l-1.1,1l-1.1,0.8l-0.9,0.4l-4,2.8l-0.3,0.1l-0.4-0.1l-3.5,1.8l-1.5,0.5l-1.3,0.6l0.8-1l0-0.3l-0.3-0.1l-0.5,0.2l-0.4,0.9
		l-0.8,0.5l-0.4-0.7l0.2-0.7l0.3-0.7l0.7-1.1l1.1-0.9l0.5-0.7l0.6,0.3l-0.1-0.6l0.3-0.4l0.3-0.3l0.9-0.2l0.5-0.2l0.3-0.3l0.3-0.1
		l1,0l0.9-0.3l0.7-0.6l0.8-0.3l2.1-0.6l2-0.8l0.7-0.7l1.4-1.8l0.9-0.6l-1.2,2L447.1,170.1z M431.3,180.9l-0.5,0.2l0.2-1.4l0.8-0.8
		l0.4,0l0.1,0.5l0,0.4l-0.5,0.8L431.3,180.9z"/>
	<path id="US-OH_1_" class="st25" d="M364.4,193l-1.1,0.8l-0.1,0.6l0.5,0.6l0.4,0.9l0.2,1.1l-0.3,2.6l-0.8,4.1l-0.3,2.5l0.1,1
		l-0.7,1.4l-1.6,1.9l-1.2,1.2l-0.7,0.5l-0.6,0.1l-0.6-0.3l-0.5,0.4l-0.5,1L356,214l-0.5,0.1l-0.4,0.7l-0.2,1.2l-0.3,0.7l-0.3,0.2
		l0.1,0.6l0.4,0.9l0,0.4l-0.2,0l-0.2,0l-0.3,0.3l-0.3,0.6l-0.2,0l-0.1-0.1l-0.2-0.7l-0.4-0.5l-0.6-0.2l-0.7,0.8l-0.7,1.8l-0.3,1.1
		l0.3,0.7l0.2,1.1l-0.2,0.5l-0.5,0.2l-0.3,0.6l-0.1,1.1l-0.7,0.8l-1.2,0.4l-1.3-0.3l-0.1,0l-1.7-1l-1.1-1.1l-0.6-1.1l-1.3,0.1
		l-2.1,1.4l-1.7,0.4l-1.2-0.6l-0.9-0.2l-0.8,0.4l-0.7,0.6l-0.7-0.2l-0.9-0.8l-1.4-0.4l-1.8-0.1l-1.4-0.8l-0.9-1.4l-0.9-1l-0.9-0.5
		l-0.9-0.1l-0.9,0.4l-0.7,0l-0.6-0.4l-0.6,0.1l-0.5,0.5l-0.6-4.6l-0.5-4.5l-0.5-4.6l-0.5-4.6l-0.5-4.5l-0.5-4.6l-0.5-4.6l-0.5-4.6
		l3.5-0.6l3.5-0.6l3.5-0.6l3.5-0.6l0.1-0.1l0,0l0.2,0.2l1,0l0.7,0.2l0.6,0.4l1.9,0.6l0.6,0.4l0.6,0.2l0.6,0l0.3-0.2l0.1-0.4l0.3-0.1
		l0.4,0.3l1.1,0.2l0.1,0.1l-2.7,1.1l-0.6,0.4l0.7,0.1l0.7-0.2l0.7-0.4l0.8-0.1l0.8,0l0.2-0.2l0.1-0.1l1.4,0.7l0.5,0.1l0.5-0.2
		l0.4-0.4l1-0.6l1.6-0.8l1.6-0.5l1.6-0.1l1-0.3l0.8-0.7l1.7-2l2.1-1.7l3.4-2.3l3.4-1.9l0.2,1.2l0.3,1.5l0.3,1.5l0.2,1.5l0.3,1.4
		l0.2,1.5l0.3,1.5l0.2,1.5l0.3,1.5l0.2,1.5l0.3,1.5l0.2,1.4L364.4,193z"/>
	<path id="US-OK_1_" class="st25" d="M215,265.3l0.3,2l0.3,2l0.3,2l0.3,2l0.3,2l0.3,2l0.3,2l0.3,2l0,1.5l0,1.5l0,1.5l0,1.5l0,1.5
		l0,1.5l0,1.5l0,1.5l0,1.5l0,1.5l0,1.5l0,1.5l0,1.5l0,1.5l0,1.5l0,1.5l-2.7-0.7l-0.7-0.4l-1.2-0.5l-1.1-1.1l-2.2-1.3l-0.8-0.3
		l-0.3,0l-0.4,0.7l-1.1,0.5l-0.6,0l-1.1-0.2l-0.2-0.2l-0.2-0.4l-0.5-0.3l-0.3,0.2l-1.6,0.6l-0.2,0.4l-0.9,0l-0.9-0.3l-2.3,0.9
		l-0.8,0.7l-0.8,0.2l-0.4,0.7l-0.3-0.1l-0.9-0.8l-0.9-0.2l-1.2-0.8l0-0.7l-0.1-0.1l-0.2-0.1l-0.3,0.1l-0.5,0.6l-0.3,0.2l-0.3,0
		l-1.2-0.4l-0.5-0.7l-0.2-0.2l-0.3,0l-0.5,0.2l-0.3,0.8l-0.2,0.2l-0.5,0.1l0,0.4l-0.5,1.1l-0.2,0.2l-0.3,0l-0.3-0.3l-0.2-0.4
		l-0.1-0.3l0.2-0.9l-0.1-0.3L185,302l-0.6,0.4l-0.5,0l-0.7,0.4l-0.4,0.1l-0.4-0.1l-0.6-0.7l-1.1-0.4l-0.4-0.8l-0.2-0.2l-0.2-0.1
		l-0.2,0l-0.4,0.2l-1.2,1l-0.6,0.3l-0.5,0.1l-0.4-0.1l-0.3-0.3l0-1.1l-0.3-0.3l-1.1-0.7l-0.2-0.6l-0.1-0.9l-1.4,0.1l-1.7-0.1
		l-0.8,0.7l-0.4,0.1L170,299l-1.3-1.1l-1.4,0.2l-0.8-0.1l-2-0.8l-1.6-0.1l-0.6-0.2l-0.3-0.2l-0.1-1.2l-0.6-1l-0.2-0.3l-1-0.7l-0.2,0
		l-0.1,0.2l-0.3,0.8l-0.3,0l-1.2-0.3l-1.1,0.2l-0.6-0.4l-2-1.9l-0.8-0.5l-0.7-0.2l0.1-1.7l0.1-1.7l0.1-1.7l0.1-1.7l0.1-1.7l0.1-1.7
		l0.1-1.7l0.1-1.7l0.1-1.7l0.1-1.7l0.1-1.7l0.1-1.7l0.1-1.7l0.1-1.7l0.1-1.7l0.1-1.7l-2.1-0.1l-2.1-0.1l-2.1-0.1l-2.1-0.1l-2.1-0.1
		l-2.1-0.1l-2.1-0.1l-2.1-0.1l-2.1-0.1l-2.1-0.1l-2.1-0.1l-2.1-0.1l-2.1-0.2l-2.1-0.2l-2.1-0.2l-2.1-0.2l0.1-1.8l0.1-1.8l0.1-1.8
		l0.1-1.8l2.8,0.2l2.8,0.2l2.8,0.2l2.8,0.2l2.6,0.2l2.6,0.2l2.6,0.2l2.6,0.2l2.6,0.1l2.6,0.1l2.6,0.1l2.6,0.1l2.6,0.1l2.6,0.1
		l2.6,0.1l2.6,0.1l2.6,0.1l2.6,0.1l2.6,0.1l2.6,0.1l2.6,0.1l2.6,0.1l2.6,0.1l2.6,0l2.6,0l2.6,0l2.6,0l2.6,0l2.6,0l2.6,0l2.6,0l2.6,0
		l2.6,0l2.6,0l2.6,0l2.6,0l0,1.8l0,1.8l0,1.8L215,265.3z"/>
	<path id="US-PA_1_" class="st25" d="M423.2,170.8l-0.7,0.6l-0.3,0.4l-0.2,0.5l-0.4,1.7l-0.9,1.7l-0.8,0.9l0.1,0.4l0.8,1.1l0.1,0.4
		l-0.2,0.8l-0.6,0.5l0,0.5l0.1,0.8l0.3,1.3l0.3,0.2l0.9,0.3l1.1,1.5l0.7,0.1l3.3,2.8l-1.6,1.5l-1,1.1l-0.4,0.6L423,192l-1.5,0.8
		l-0.7,0.7l-0.2,0.3l-1-0.2l-1.3,0.4l-0.4,0.3l-0.3,0.4l-0.6,1.3l-2.4,0.6l-2.4,0.5l-2.4,0.5l-2.5,0.5l-2.4,0.5l-2.4,0.5l-2.5,0.5
		l-2.5,0.5l-2.5,0.5l-2.5,0.5l-2.5,0.5l-2.5,0.5l-2.5,0.5l-2.5,0.5l-2.5,0.5l-2.5,0.5l-1.4,0.3l-1.4,0.3l-1.4,0.2l-1.4,0.3l-1.4,0.2
		l-1.4,0.2l-1.4,0.2l-1.4,0.2l-0.3-1.6l-0.3-1.6l-0.3-1.6l-0.3-1.6l-0.3-1.6l-0.3-1.6l-0.3-1.6l-0.3-1.6l-0.3-1.5l-0.2-1.4l-0.3-1.5
		l-0.2-1.5l-0.3-1.5l-0.2-1.5l-0.3-1.5l-0.2-1.5l-0.3-1.4l-0.2-1.5l-0.3-1.5l-0.3-1.5l-0.2-1.2l1.8-1l0.8-0.6l0.8-0.6l0.4-0.3
		l0.5-0.3l2.9-2.4l0,0.1l0.3,1.9l0.3,1.9l1.4-0.3l1.4-0.3l1.4-0.3l1.4-0.3l1.4-0.3l1.4-0.3l1.4-0.3l1.4-0.3l1.4-0.3l1.4-0.3l1.4-0.3
		l1.4-0.3l1.4-0.3l1.4-0.3l1.4-0.3l1.4-0.3l1.4-0.3l1.4-0.3l1.4-0.3l1.4-0.3l1.4-0.3l1.4-0.3l1.4-0.3l1.4-0.3l1.4-0.3l1.4-0.3
		l1.4-0.3l1.4-0.3l1.4-0.3l1.4-0.3l1.4-0.3l1.4-0.3l1,0.5l0.5,0.7l1.3,0.3l0.3,0.2l0.1,0.4l0.5,0.4l0,0.7l0.2,0.6l0.3,0.8l0.5,0.7
		l0.6,0.5l0.6,0.3l2,0.3l0.5,0.3L423.2,170.8z"/>
	<path id="US-RI_1_" class="st25" d="M457.5,156.8l-0.3,0.4l-0.6-0.4l-0.4-0.5l-0.4-0.2l-0.3,0l0.6,1.2l-0.4,1.1l0.5,2.5l-0.5,1.2
		l-2.3,1.3l-0.8,0.1l-0.1-0.8l0.2-0.4l-0.2-0.9l-0.1-0.6l-0.3-0.9l-0.3-1.1l-0.3-1.2l-0.3-1l-0.2-0.7l-0.3-1l-0.2-0.7l0.8-0.2l1-0.3
		l1-0.3l0.6-0.2l0.8-0.2l0.2,0.6l0.3,0.9l0.5,0l0.2,0.8l0.1,0.5l0.5,0.2l0.5,0.2L457.5,156.8z M458.2,159.7l-0.4,0.5l-0.6,0.1
		l0.1-0.6l-0.1-0.8l0.1-0.9l0.1-0.3l0.3-0.3L458.2,159.7z M457,160.2l-0.2,0.3l-0.3-0.6l0-0.8l0.2-0.1l0.2,0.4L457,160.2z"/>
	<path id="US-SC_1_" class="st25" d="M403.2,282.8l-0.1,0.1l-2.7,2.7l-0.7,1.1l-1.9,4l-0.2,2.4l-0.7-0.8l0-0.7l-0.1-0.6l-0.4,1.4
		l0.9,1.7l-0.4,0.8l-1.4,1.6l-0.9,0.4l-1,0.6l-0.1,1.3l-1.2,1.4l-0.7,0.7l-1.6-0.1l0.7,1.1l-0.4,1l-0.8,0.8l-1.1,0.6l-0.7,0.1
		l-0.5,0.3l-0.4,0.6l-1,0.7l-1.2-0.1l-1.3,0.1l-0.7,0.4l1.3,0.3l0.8,0.6l0,1l-0.3,0.4l-0.7,0.6l-0.4,0l-0.3-0.4l-0.4-0.9l-0.3,0.3
		l0,0.5l-0.3,0.2l-1.4-1.4l0.3,1.2l0.5,0.8l0.5,0.4l0.4,0.2l0.2,0.4l-0.6,1.2l-0.3,0.3l-0.7,0.3l-0.3,0.7l0.2,0.5l-2.6-0.7l-0.9-0.9
		l-0.2-1.3l-0.7-1.4l-1.8-2.2l-1.1-0.5l-0.9-1.6l-1.1-2.8l-1.3-1.7l-1.6-0.6l-1.1-0.8l-0.7-1l-0.6-0.6l-0.6-0.2l-0.4-0.5l-0.2-0.8
		l-1-0.9l-2.7-1.6l-0.7-1.1l-1.3-1.1l-3.1-2.1l0,0l-3.4-4.5l0,0l-0.5-0.9l-0.6-0.3l-0.9,0l-1-0.4l-1.5-1l0,0l-2.4-1.2l0.3-1.4l1.4-2
		l0.4-1l0.1,0l0.2,0l1.7-0.9l1.7-0.9l0.4,0l1-0.8l2-1l0.7-0.6l0.4,0.1l1.8-0.2l1.8-0.2l1.8-0.2l1.8-0.2l1.8-0.2l1.8-0.2l1.8-0.2
		l1.8-0.2l0.4,0.1l0.1,0.2l0,0.6l0.1,0.3l1.2-0.9l0.7,0.7l1.2,1.2l0.2,0.8l0.2,1.1l1.6-0.2l1.6-0.2l1.6-0.2l1.6-0.2l1.6-0.2l1.6-0.2
		l1.6-0.2l1.6-0.2l1.8,1.3l1.8,1.3l1.8,1.3l1.8,1.3l1.8,1.3l1.9,1.3l1.9,1.3L403.2,282.8z"/>
	<path id="US-SD_1_" class="st25" d="M193.8,132.3l-0.3,1.4l-0.2,0.6l-0.5,0.6l-1.5,1.4l-0.4,0.5l0.1,0.4l0.3,0.6l0.8,1.3l0.4,0.5
		l1.7,0.9l0.8,1.1l0,3.2l0,3.2l0,3.2l0,3.2l0,3.2l0,3.2l0,3.2l0,3.2l-1.5,0l0.2,0.9l0.4,0.9l0.1,0.5l-0.1,0.4l-0.3,0.4l0.1,0.6
		l0.1,0.2l0.7,0.4l0.2,0.5l0.1,0.6l0,0.4l-0.4,0.8l-0.1,1l-0.5,1.6l-0.6,0.9l-0.1,0.5l0.1,0.4l0.9,1l0,0.4l0.3,0.5l0.3,1.2l-0.8-0.2
		l-0.8-0.6l-0.4-1l-1.3-0.9l-2.2-0.8l-1.5-0.8l-0.8-0.7l-1.8-0.3l-2.9,0l-1.9,0.3l-0.9,0.6l-1.8-0.7l-3-2.2l-4.1-0.1l-3.6-0.1
		l-3.6-0.1l-3.6-0.1l-3.6-0.2l-3.6-0.2l-3.6-0.2l-3.6-0.2l-3.6-0.2l-3.6-0.2l-3.6-0.2l-3.6-0.3l-3.6-0.3l-3.6-0.3l-3.6-0.3l-3.6-0.3
		l0.3-3.5l0.3-3.5l0.3-3.5l0.3-3.5l0.3-3.5l0.3-3.5l0.3-3.5l0.3-3.5l0.1,0l0.1,0l0.1,0l0.1,0l0,0l0,0l0,0l0,0l0.3-3.3l0.3-3.3
		l0.3-3.3l0.3-3.3l2.3,0.2l2.3,0.2l2.3,0.2l2.3,0.2l2.3,0.2l2.3,0.2l2.3,0.2l2.3,0.2l2.3,0.2l2.3,0.1l2.3,0.1l2.3,0.1l2.3,0.1
		l2.3,0.1l2.3,0.1l2.3,0.1l2.3,0.1l2.3,0.1l2.3,0.1l2.3,0.1l2.3,0.1l2.3,0.1l2.3,0.1l2.3,0.1l2.3,0.1l2.3,0.1l2.3,0.1l2.3,0l2.3,0
		l2.3,0l2.3,0L193.8,132.3z"/>
	<path id="US-TN_1_" class="st25" d="M338.8,254.5l2.6-0.3l5.5-0.7l3.9-0.6l3.2-0.5l1.9-0.3l2.4-0.3l0.5-0.4l1.2-0.1l1.6-0.2
		l-0.3,1.1l0.1,0.7l-0.1,1.1l0.1,0.7l-0.8,0.2l-0.4,0.3l-0.6,0.6l-1.2,2.8l-0.5,0.3l-1-0.5l-1.2,0.5l-0.8,0.6l-1.1,1.4l-0.4,0.5
		l-0.3,0.2l-0.3,0l-0.2-0.2l-0.2-0.6l-0.2-0.2l-0.4,0.1l-0.6,0.3l-0.6,0.5l-0.5,0.8l-0.9,0.1l-0.1,0.2l-0.1,0.9l-0.2,0.7l-0.4,0.5
		l-1.4,0.6l-1.7,1.6l-2.4,1.7l-2.4,0.7l-1,0.4l-0.6,0.4l-1.3,1.6l-0.4,1.9L336,274l-1.2,0.2l-0.3,0.2l-0.2,0.7l0,3l-3.7,0.4
		l-3.7,0.4l-3.7,0.4l-3.7,0.4l-1.8,0.2l-1.9,0.2l-1.8,0.2l-1.9,0.2l-1.8,0.2l-1.9,0.2l-1.9,0.2l-1.8,0.2l-1.9,0.2l-1.9,0.2l-1.9,0.2
		l-1.8,0.2l-1.9,0.2l-1.9,0.1l-1.9,0.1l-1.9,0.1l-0.1,0l0.2,0.2l0.2,0.2l-3.1,0.3l-3.1,0.2l-3.1,0.2l-3.1,0.2l-3.1,0.2l-3.1,0.2
		l-3.1,0.2l-2.9,0.2l0,0l0.4-0.6l1.3-1l0.5-1.3l-0.3-1.5l0.4-1.4l1.1-1.3l0.4-1.3l-0.3-1.2l0.5-1l1.3-0.9l0.2-0.3l-0.1-0.2l0-0.3
		l0-0.1l0-0.2l0.3-0.2l0.4-0.1l0.2-0.2l0-0.3l-0.3-0.5l0-0.3l0.1-0.4l0.6-1.1l0-0.9l-0.5-0.7l0.2-0.4l0.3-0.1l0.4-0.1l0.1-0.2l0-0.2
		l-0.4-0.5l0.1-0.4l0.5-0.3l0.1-0.8l-0.3-1l0.8-0.1l0,0.1l0.2,0.1l0.2-0.1l0,0l2.3-0.2l2-0.2l2-0.1l2-0.2l2-0.2l2-0.2l2-0.2l1.8-0.2
		l0,0l-0.1-1.3l-0.6-1.4h0.1l1.5,0l1,0l0.4,0.4l3.7-0.4l3.8-0.4l3.7-0.4l3.7-0.5l3.9-0.3l3.9-0.3l3.9-0.3l3.9-0.3l3.9-0.3l3.9-0.4
		l3.9-0.4l3.9-0.4l0.1,0l0.1,0l0.1,0l0.1,0l0.1,0l0.1,0L338.8,254.5L338.8,254.5z"/>
	<path id="US-TX_1_" class="st25" d="M217.2,305.5l0.6,0.7l0.5,0.2l0.1,0.3l0.2,0.1l0.3-0.1l0.4-0.3l0.7,0.1l0.6-0.1l1.1,0.1
		l0.6,0.3l0.1,1.9l0.1,1.9l0.1,1.9l0.1,1.9l0,1.8l0,1.8l0,1.8l0,1.8l0,1.8l0,1.8l0,1.8l0,1.8l1.7,1.7l0.7,1.2l0.2,0.6l0.1,2.1
		l0.2,0.5l0.9,0.8l0,0.5l0.9,1.5l0,0.7l0.9,1.6l0.5,0.4l0.1,1.1l0.3,0.8l-0.4,0.6l0.2,0.8l-0.2,0.8l-0.1,1l-0.5,1.6l-0.5,0.8
		l-0.6,1.5l0.1,1.2l-0.4,1.3l0,0.5l0.4,0.9l0.2,2.4l-0.2,0.5l-0.8,1.4l-0.6,0l-1.2,2.4l0.8,1.3l0,0.5l-2.6,0.3l-5.9,2.8l-2.3,1.5
		l0.1-0.5l2.8-1.9l-1-0.3l-1.6,0.5l-0.6-0.2l0.7-1.5l-0.2-1.3l-1.1,0l-0.7,1.1l-0.5,0l-0.7-0.5l-0.5,0.2l0.4,2.4l0.7,1l0.6,1.3
		l-1.6,1.6l-1.5,1.3l-0.2,1.3l-1.5,1.7L207,373l-3.4,2.2l-1,0.5l-1.5,1l-2.1,0.8l-2,1.2l-0.7,0.2l1.3-1l1.5-1l-1.3,0.1l-2-0.5
		l-1.2,0l0,0.4l-0.9,0.5l-1-0.8l-0.4-0.5l-0.2-0.4l-0.4-0.1l-0.4,0.2l1.4,3.2l0.6,0.1l0.7,0.3l-0.9,0.7l-0.9,0.6l-1.4,0.4l-1.2-1.2
		l-0.3,1.4l-0.2,1.4l-0.4,0.4l-0.7,0.5l-0.4-0.4l-0.2-0.6l-0.4,0.5l-0.6,0.4l-1,0.1l-0.8,0.2l0,0.6l0.2,0.6l1.4-0.5l-0.5,1.5
		l-1.3,1.5l-1,0.3l-1.6-0.2l-0.4,0.1l-0.3,0.3l1.8,2.4l-1.2,3.6l-0.8,1.3l-0.5,0.2l-0.6,0l-2-1.2l-1.1-0.9l0.9,2.5l2.6,0.8l0.1,0.9
		l0,0.8l-0.5,0.9l-0.5,1.2l0.3,0.9l0.4,2.1l0.3,1l0.3,3l0.4,1.3l2.4,4.8l0.8,0.1l0.1,0.5l-0.1,1l-1.8,0.3l-0.7,0.4l-0.2,0.4
		l-0.1,0.2l-0.2,0l-0.8-0.3l-1.9-1.4l-2.8-0.9l-3.6-0.4l-2.5-0.7l-1.3-1.1l-1.4-0.6l-1.4-0.2l-1.2-0.6l-0.9-0.9l-1.4-0.6l-1.8-0.3
		l-1.2-0.7l-0.8-1.7v0l-0.6-2.8l-0.9-1.8l-1.7-2.2l-0.2-0.3l0,0v-0.4l0.3-1.3l-0.2-0.9l-0.5-0.8l-0.1-0.8l0.3-0.8l0.1-1l-0.2-1.2
		l-1.1-1.3l-2-1.4l-1.6-2l-1.3-2.6l-1.3-1.8l-1.3-1.1l-0.9-1.3l-0.4-1.5l-0.1-0.8l0.2-0.2l-0.8-1.6l-1.7-3l-1-2.2l-0.2-1.4l-1.1-1.7
		l-2-2l-1.1-1.3l-0.2-0.9h0l-3.1-2.7l-0.9-1.6l-0.7-0.5H131l-0.4-0.2V358l-0.3,0l-0.6,0.3l-1.7,0l-2.9-0.4l-2.1-0.6l-1.3-0.7l-0.9,0
		l-0.6,0.8l-1.2,0.5l-1.7,0.1l-1.6,1.4l-1.4,2.7l-0.7,1.8l0.1,0.8l-0.4,0.6l-0.8,0.3l-0.9,0.8l-0.9,1.2l-1,0.5l-1.1-0.1l-2-1.2
		l-2.8-2.2l-2.2-1.4l-1.7-0.6l-1.4-1l-1.2-1.4l-1.1-1l-1.1-0.5l-1.1-1.6l-1.2-2.6l-0.5-2l0.2-2l-1.5-4.6l-0.8-2l-0.7-1l-1.4-1.2
		l-2-1.4l-2.6-2.7l-3.2-4.1l-2.3-2.5l-1.4-0.9l-1.2-1.5l-0.9-2l-0.9-1.3l-0.1-0.1l-1.4-0.9l0,0l-0.9-2.7l0.1,0l2.7,0.3l2.7,0.3
		l2.7,0.3l2.7,0.3l2.7,0.3l2.7,0.3l2.7,0.3l2.7,0.3l2.7,0.3l2.7,0.3l2.7,0.2l2.7,0.2l2.7,0.2l2.7,0.2l2.7,0.2l2.7,0.2l0.3-4l0.3-4
		l0.3-4l0.3-4l0.3-4l0.3-4l0.3-4l0.3-3.9l0.3-3.9l0.3-3.9l0.3-3.9l0.3-3.9l0.3-3.9l0.3-3.9l0.3-3.9l0.3-3.9l0.5,0l2.1,0.2l2.1,0.2
		l2.1,0.2l2.1,0.1l2.1,0.1l2.1,0.1l2.1,0.1l2.1,0.1l2.1,0.1l2.1,0.1l2.1,0.1l2.1,0.1l2.1,0.1l2.1,0.1l2.1,0.1l2.1,0.1l-0.1,1.7
		l-0.1,1.7l-0.1,1.7l-0.1,1.7l-0.1,1.7l-0.1,1.7l-0.1,1.7l-0.1,1.7l-0.1,1.7l-0.1,1.7L153,283l-0.1,1.7l-0.1,1.7l-0.1,1.7l-0.1,1.7
		l-0.1,1.7l0.7,0.2l0.8,0.5l2,1.9l0.6,0.4l1.1-0.2l1.2,0.3l0.3,0l0.3-0.8l0.1-0.2l0.2,0l1,0.7l0.2,0.3l0.6,1l0.1,1.2l0.3,0.2
		l0.6,0.2l1.6,0.1l2,0.8l0.8,0.1l1.4-0.2l1.3,1.1l0.5,0.2l0.4-0.1l0.8-0.7l1.7,0.1l1.4-0.1l0.1,0.9l0.2,0.6l1.1,0.7l0.3,0.3l0,1
		l0.3,0.3l0.5,0.1l0.5-0.1l0.6-0.3l1.2-1l0.4-0.2l0.2,0l0.2,0.1l0.2,0.2l0.4,0.8l1.1,0.4l0.6,0.7l0.4,0.1l0.4-0.1l0.7-0.4l0.5,0
		l0.6-0.4l0.2,0.1l0.1,0.3l-0.2,0.9l0.1,0.3l0.2,0.4l0.3,0.3l0.3,0l0.2-0.2l0.5-1.1l0-0.4l0.5-0.1l0.2-0.2l0.3-0.8l0.5-0.2l0.3,0
		l0.2,0.2l0.5,0.7l1.2,0.4l0.3,0l0.3-0.2l0.5-0.6l0.3-0.1l0.2,0.1l0.1,0.1l0,0.7l1.2,0.8l0.9,0.2l0.9,0.8l0.3,0.1l0.4-0.7l0.8-0.2
		l0.8-0.7l2.3-0.9l0.9,0.3l0.9,0l0.2-0.4l1.7-0.6l0.3-0.2l0.5,0.3l0.2,0.4l0.2,0.2l1.1,0.2l0.6,0l1.1-0.5l0.4-0.7l0.3,0l0.8,0.3
		l2.2,1.3l1.1,1.1l1.2,0.5l0.7,0.4L217.2,305.5z M211.3,369.4l-0.6,0.1l2.7-2.2l0.6-0.7l0.7,0l-1.2,1.2L211.3,369.4z M189.6,383.6
		l-0.5,0.1l0.6-0.8l0.9-0.4l2.1-1.5l0.8-0.1l0.4-0.5l0.2-0.1L194,381l-1.7,0.9L189.6,383.6z M186.4,387.1l-0.3,0l0.6-1.2l0.1-0.5
		l1-1.5l0.5-0.2l0.2,0.6l-1,1L186.4,387.1z M181.9,395.7l-0.4,0.8l0.1-1.2l1.1-2.8l2.2-3.6l0.9-0.6l-2.5,4L181.9,395.7z
		 M184.1,412.1l-0.2,0.7l-1-3.1l-1.6-7.1l0-4l0.3-1.4l0.4,5.7l1.8,7.2L184.1,412.1z"/>
	<path id="US-VA_1_" class="st25" d="M397.5,205.4l0.7,0.4l1.6,0.3l0.7,0.5l-0.1,0.7l0.1,0.5l0.4,0.4l2.1,0.4l1.4,0.9l0.8,0.2
		l0.2,0.1l0.6,0.2l0.3,0.3l0.2,1.6l-0.3,0.9l-0.7,0.8l-0.8,1.3l-0.1,1l0.1,1.9l0.6,0.5l0.5,0.1l1.2-0.7l0.7,0l2,1.9l3,0.3l1.2,0.3
		l1.1,1l1.4,0.4l1.2,0.7l0.2,0.6l-0.2,0.8l0.1,1l-0.3,0.7l-1,0.3l-0.6,0l-4-2.8l-0.5-0.2l-1.6-1.6l-1.6-0.7l-0.4,0.1l2.4,1.4
		l1.1,1.1l1.8,1.5l1.2,0.5l1,1l0.8,0.4l2.1,0.4l-0.6,0.7l1.2,0.2l0.3,0.9l0.1,1l-1.6-0.1l0.1,0.8l0.2,0.4l-0.6,0.5l-1-0.3l-3-2.2
		l0.1,0.4l0.3,0.4l1.8,1.4l1.5,0.8l1.2,0.2l1,0.7l0.4,0.5l0.4,0.8l-0.5,0.7l-0.6,0.4l-0.8-0.4l-0.6-0.5l-1.3-0.7l-0.6-1l-0.8,0.2
		l-3.6-0.7l-2.7,0.4l0.3,0.2l0.4,0.1l2.2-0.1l1,0.5l1.9,0.2l1.1-0.1l0.8,1.6l1.7,0.9l0.4,0.8l1-0.1l1.5-1.2l1.2,0.1l1.7-0.1l0.5,0.6
		l0.6,1.3l0.9,1.4l0.7,1.4l-0.3,0.1l-0.9,0.2l-2.8,0.6l-4,0.8l-4,0.8l-4,0.8l-4,0.8l-4,0.8l-4,0.8l-4,0.7l-4,0.7l-4,0.7l-4.1,0.7
		l-4.1,0.7l-4.1,0.7l-4.1,0.6l-4.1,0.6l-4.1,0.6l-0.2-0.2l-1.6,0.2l-1.2,0.1l-0.5,0.4l-2.4,0.4l-1.9,0.3l-3.2,0.5l-3.9,0.5l-5.4,0.7
		l-2.6,0.3l1.1-0.8l1.6-0.6l2.8-1.6l1-1.3l1.6-1.1l0.6-1.1l1-1.1l0.3-1.1l0.1-0.2l1.7-1.3l1.7-1.5l3.7-4l0.2,0.4l-0.1,0.5l0.4,0.5
		l0.4,0.8l0.5,0.5l0.6,0.3l0.9,0.3l1.1,0.5l0.8,0.1l0.3-0.1l0.8-0.8l0.7-0.5l0.7-0.8l1.5,0.8l0.5-0.1l1.3-0.6l1.2-0.3l0.3-0.2
		l0.4-0.5l-0.1-0.8l0.1-0.2l0.2-0.1l0.2-0.1l0.6,0.2l0.6-0.1l2.2-1.3l0.2,0l0.4,0.4l0.9-0.7l0.5-0.6l0.1-0.8l0.4-0.8l-0.2-0.3
		l-0.4-0.4l0.3-1.1l0.5-1.1l1.8-3.5l0.4-2l0.8-1.4l0.2-1l0.6-1.1l0.2-2l0.2-0.4l0.4-0.1l0.5,0.2l0.4,0.3l0.3,0.5l1.3,0.3l1-0.1
		l0.6-0.5l0.3-0.8l0.3-1.4l0.4-0.9l0.2-1l0.2-0.7l0.5-0.5l1.3-0.2l0.6-0.7l0.4-0.8l0.3-0.3l0.4,0l1-1.3l1.1-2.5l0.1-1.5l0.2-1.1
		l0-1.1l0.2-0.6l1.6,0.8l0.9,0.5l2.1,1.1l1.4,0.7l0.2-1.2L397.5,205.4z M428.1,217.6l0.3-0.1l0,0l-0.7,2.4l-0.4,0.3L428.1,217.6z
		 M423.9,219.8l0.3-0.7l1.6-0.6l1-0.4l-1.2,5.9l0.3,1l-0.4,0.4l-0.7,0.4l-0.6,0.8l-0.3,0.8l-0.1,1.9l-0.4,2.2l-0.7-0.7l-0.3-0.7
		l-0.2-1.9l0.3-3.2l0.6-2.1l0.6-1.1L423.9,219.8z"/>
	<path id="US-VT_1_" class="st25" d="M441.2,146.3l-1,0.2l-1,0.2l-1,0.2l-1,0.2l-1,0.2l-1,0.2l-1,0.2l-1,0.2l-0.5-0.8l0-0.7l-0.2-1
		l-0.3-1.3l-0.3-1.4l-0.4-1.9l-0.3-1.3l-0.3-1.1l-0.4-1.6l-0.8-0.7l-0.3-0.1l-0.2,0.1l-0.3,0.7l-0.1,0l-0.1-0.1l-0.1-0.5l-0.1-1.9
		l-0.1-0.6l-0.3-1l-1-2.1l-0.1-0.5l0-0.8l0.1-0.8l0.3-0.9l0-0.4l-0.4-1.3l-0.2-1.3l-1.1-1.7l-0.4-2.5l-0.5-1.1l-0.1-1.1l-0.3-0.9
		l1.7-0.4l4-1.1l4-1.1l4-1.1l4-1.1l-0.1,0.3l0.5,1l-0.6,2.2l0.2,0.6l0.9,1.5l0.1,0.4l-0.1,0.2l0,0.8l-0.2,0.5l-0.3,0.6l-1.1,1.4
		l-0.3,0.4l-1.2,0.7l-0.2,0.5l0.4,2.6l-0.1,1.5l0.1,0.7l-0.3,1.3l-0.1,1.4l-0.5,1.2l-0.1,1.4l-0.1,0.6l0,0.8l0.5,2.7l0.1,1.6
		l0.3,2.6l-0.1,0.7l-0.1,0.4l0,1.2l0.1,0.4l0.2,0.3l0.8,0.7L441.2,146.3z"/>
	<path id="US-WI_1_" class="st25" d="M253.5,115.3l-0.3,0.2l-0.1-0.1l0.1-0.4l0.1-0.3l0.2-0.1l0.1,0.1l0,0.3L253.5,115.3z
		 M250.8,116.9l-0.1,0.1l-0.4-0.2l-0.1-0.2l0.1-0.2l0.2,0l0.3,0.3L250.8,116.9z M254,121.4l0,0.1l0.2,0.5l0.5-0.2l0.2,0.3l0.3,0.1
		l0.6,0.2l0.3,0.6l0.3,0.6l0.3,0.6l0.3,0.6l1.2,0.3l1.2,0.3l1.2,0.3l1.3,0.3l1.3,0.3l1.3,0.3l1.3,0.3l1.3,0.2l0.7,0.3l0.7,0.3
		l0.7,0.3l0.7,0.3l1.1,0l1,0.2l1.3-0.1l1.4,0.2l2.1,0.5l0.5,0.5l0.1,0.4l-0.1,0.9l2,0.6l0.9,0.5l0.3,0.4l0,0.4l0.3,0.8l-0.2,0.5
		l0.1,0.8l-0.4,0.9l-0.1,0.5l0,0.4l0.1,0.2l0.2,0.1l0.7-0.1l0.7-0.3l0.3,0.1l0.1,0.1l0,0.2l-0.4,1.5l0.1,0.6l0.3,0.5l0.5,0.5
		l0.5,0.1l0,0.4l-0.1,0.7l-0.5,0.6l-1.4,0.8l-0.2,0.5l0,0.4l-0.8,1.7l-0.4,1l-0.2,1.1l0.2,0.7l0.5,0.2l0.4-0.1l0.3-0.5l0.4-0.5
		l0.6-0.4l0.4-0.6l0.5-1.4l0.7-0.9l0.4-0.1l0.1,0l0.7-0.4l0.6,0.1l0.4,0.5l0.4,0.3l0.1,0.3l-0.1,0.8l-0.3,0.9l-0.4,0.9l-0.3,1.3
		l-0.3,1.8l0,1.3l0.3,0.9l-0.2,0.8l-0.6,0.8l-0.5,1l-0.3,1.2l-0.2,1l0,0.8l0.1,0.6l0.3,0.8l0,0.4l-0.6,1.8l-0.2,0.9l0,0.7l-0.1,0.7
		l-0.5,1.4l-0.1,0.8l0,0.7l0.2,1.1l0,0.4l0.1,0.3l0.2,0.2l0,0.4l-0.1,0.5l0.1,0.4l0.3,0.3l0.2,0.5l0.2,0.8l0.3,0.7l0.4,0.5l0.1,0.8
		l-0.1,1l0.1,1.9l0.1,0.6l-1.3,0.1l-4.7,0.4l-4.7,0.3l-4.7,0.3l-4.7,0.3l-4.7,0.3l-4.8,0.3l-0.1-0.1l-0.4-1.2l-1.1-0.9l-1.8-0.5
		l-1.2-0.9l-0.6-1.3l-0.4-1.5l-0.2-1.6l0.1-1.4l0.4-1.1l-0.1-0.7l-0.7-0.4l-0.4-0.5l-0.2-0.6l-0.1-0.9l-0.6-4.1l-0.5-1.9l-0.7-0.7
		l-1.4-0.8l-2.1-0.9l-1.3-0.9l-0.8-1.3l-1.5-1.5l-1-0.6l-0.9-0.2l-0.8-0.5l-0.6-0.7l-0.8-0.5l-1-0.2l-1.1-0.6l-1.3-1.1l0-0.1
		l-0.3-0.8l0.1-0.5l0.2-1.6l0-0.5l-0.3-1.4l0.3-0.6l-0.1-1.8l0.1-0.6l0.6-1.5l0-0.7l-0.3-0.8l-0.5-0.7l-1.4-0.7l-0.1-0.9l0.2-0.7
		l0.8-1.3l0.4-1.1l0.4-0.5l2.6-1.8l0.6-0.1l0.4-0.5l0.3-0.2l-0.1-2l-0.1-2l-0.1-2l-0.1-2l0.7-0.2l0.3-0.5l0.6-0.8h0.2v0l0.3,0.3
		l0.9,0.5l0.7,0l0.8-0.1l3.2-1.1l1.4-0.7l1.3-1.1l0.1,0l0.6,0.2l0.2,0.1l1.7-1.3l0.6-0.2l0.5,0l0.6,0.4l0.1,0.3l-0.2,0.6l-0.5,0.9
		l-0.2,0.7l0,0.6l-0.2,0.6l-0.5,0.9l0.2,0.2l1.5-0.7l0.2-0.2l0-0.1l-0.1-0.2l0.2-0.1l1.2,0.7l0.8,0.4l0.7,0.2L254,121.4z
		 M252.4,116.9l-0.3,0.1l-0.7-0.1v-0.2l0.7-0.3l0.3-0.1l0.1,0.1L252.4,116.9z M250.9,118.9l-0.5,0.2l-0.2,0l0.1-0.3l0.3-0.3l1.2-0.9
		h0.2l0.1,0.2l-0.6,0.4l-0.2,0.2l0,0.2L250.9,118.9z M290.4,136.1l-0.3,0.2l-0.6,0l-0.2-0.3l0.2-0.8l0.1,0.1l0.5,0l0.2,0.1l0.1,0.2
		L290.4,136.1z M289.3,137.8l-0.2,0.2l-0.3-0.1l-0.1,0.3l0.1,0.6l-0.1,0.3l-0.3,0v0.1l0.3,0.3l0.1,0.3l-0.2,0.4l-0.2,0.2l-0.2,0
		l-0.2,0.4l-0.3,0.8l-0.1,0.5l0.1,0.1l-0.1,0.3l-0.8,1.3l-0.3,0.2l-0.4-0.1l-0.3-0.3l-0.2-0.5l-0.1-0.4l0-0.3l0.7-1.2l0.3-0.7
		l0.1-0.8l0.3-0.5l0.5-0.3l0.4-0.5l0.3-0.8l0.4-0.4l0.4,0.1l0.2,0.3L289.3,137.8z"/>
	<path id="US-WV_1_" class="st25" d="M377.8,203.9l0.3,1.8l0.3,1.8l0.3,1.8l0.3,1.8l1.2-1.3l0.6-0.5l1.9-2.7l0.3-0.1l0.9,0.2
		l1.4-1.9l0.1-0.6l0.2-0.2l0.2,0l0.2,0.1l0,0.3l0.2,0.1l0.8,0.3l1,0l0.1,0l0.8-0.2l0.3-0.4l0.1-0.7l0.3-0.4l0.8-0.3l1.4-0.9l0.9-0.1
		l0.9,0.5l0.8,0.2l0.8-0.2l0.3,0.1l-0.1,0.4l0.3,0.3l0.7,0.3l0.3,0.4l-0.1,0.4l0.1,0.3l0.3,0.1l0.3,0.4l0.2,0.6l0.2,0.1l-0.4,1.8
		l-0.2,1.2l-1.4-0.7l-2.1-1.1l-0.9-0.5l-1.6-0.9l-0.2,0.6l0,1.1l-0.2,1.1l-0.1,1.5l-1.1,2.5l-1,1.3l-0.4,0l-0.3,0.3l-0.4,0.8
		l-0.6,0.7l-1.3,0.2l-0.4,0.5l-0.2,0.7l-0.2,1l-0.4,0.9l-0.3,1.4l-0.3,0.8l-0.6,0.5l-1,0.1l-1.3-0.3l-0.3-0.5l-0.4-0.3l-0.5-0.2
		l-0.4,0.2l-0.2,0.4l-0.2,2l-0.6,1.1l-0.1,1L377,226l-0.4,2l-1.8,3.5l-0.5,1.1l-0.3,1.1l0.4,0.4l0.2,0.3l-0.4,0.8l-0.1,0.8l-0.5,0.6
		l-0.9,0.7l-0.4-0.4l-0.2,0l-2.2,1.3l-0.6,0.1l-0.6-0.2l-0.2,0.1l-0.2,0.1l-0.1,0.2l0.1,0.8L368,240l-0.3,0.2l-1.2,0.3l-1.3,0.6
		l-0.5,0.1l-1.5-0.8l-0.7,0.8l-0.7,0.5l-0.8,0.8l-0.3,0.1l-0.8-0.1l-1.1-0.5l-0.9-0.3l-0.6-0.3l-0.5-0.5l-0.4-0.8l-0.4-0.5l0.1-0.5
		l-0.2-0.4l-1.6-0.2l-2.2-1.3l-1.6-1.8l-0.5-0.9l-0.6-0.5l-0.2-0.6l-1.4-1.4l-0.4-0.7l-0.1-0.4l0.3-0.9l0-0.4l-0.4-2l-0.3-0.3
		l1.3,0.3l1.2-0.4l0.7-0.8l0.1-1.1l0.3-0.6l0.5-0.2l0.2-0.5l-0.2-1.1l-0.3-0.7l0.3-1.1l0.7-1.8l0.7-0.8l0.6,0.2l0.4,0.5l0.2,0.7
		l0.1,0.1l0.2,0l0.3-0.6l0.3-0.3l0.2,0l0.2,0l0-0.4l-0.4-0.9l-0.1-0.6l0.3-0.2l0.3-0.7l0.2-1.2l0.4-0.7l0.5-0.1l0.5-0.6l0.5-1
		l0.5-0.4l0.6,0.3l0.6-0.1l0.7-0.5l1.2-1.2l1.6-1.9l0.7-1.4l-0.1-1l0.3-2.5l0.8-4.1l0.3-2.6L364,196l-0.4-0.9l-0.5-0.6l0.1-0.6
		l1.1-0.8l0.3,1.6l0.3,1.6l0.3,1.6l0.3,1.6l0.3,1.6l0.3,1.6l0.3,1.6l0.3,1.6l1.4-0.2l1.4-0.2l1.4-0.2l1.4-0.2l1.4-0.3l1.4-0.2
		l1.4-0.3L377.8,203.9z"/>
	<path id="US-WY_1_" class="st25" d="M116.2,170.3l-0.3,3.5l-0.3,3.5l-0.3,3.5l-0.3,3.5l-0.3,3.5l-0.3,3.5l-0.3,3.5l-0.3,3.5
		l-3.3-0.3l-3.3-0.3l-3.3-0.3l-3.3-0.3l-3.3-0.3l-3.3-0.4l-3.3-0.4l-3.3-0.4l-3.3-0.4l-3.3-0.4l-3.3-0.4l-3.3-0.4l-3.3-0.4l-3.3-0.4
		l-3.3-0.5l-3.3-0.5l-2.6-0.4l-2.6-0.4l-2.6-0.4l-2.6-0.4l-2.6-0.4l-2.6-0.4l-2.6-0.4l-2.6-0.4l0.3-1.7l0.3-1.7l0.3-1.7l0.3-1.7
		l0.3-1.7l0.3-1.7l0.3-1.7l0.3-1.7l0.4-2.2l0.4-2.2l0.4-2.2l0.4-2.2l0.4-2.2L44,162l0.4-2.2l0.4-2.2l0.4-2.2l0.4-2.2l0.4-2.2
		l0.4-2.2l0.4-2.2l0.4-2.2l0.4-2.2l0.4-2.2l0.3-1.8l0.3-1.8l0.3-1.8l0.3-1.8l2.2,0.4l2.2,0.4l2.2,0.4l2.2,0.3l2.2,0.3l2.2,0.3
		l2.2,0.3l2.2,0.3l2.2,0.3l2.2,0.3l2.2,0.3l2.2,0.3l2.2,0.3l2.2,0.3l2.2,0.3l2.2,0.3l2.2,0.3l2.2,0.3l2.2,0.3l2.2,0.3l2.2,0.3
		l2.2,0.2l2.2,0.2l2.2,0.2l2.2,0.2l2.2,0.2l2.2,0.2l2.2,0.2l2.2,0.2l2.2,0.2l2.2,0.2l2.2,0.2l-0.3,3.5l-0.3,3.5l-0.3,3.5l-0.3,3.5
		l-0.3,3.5l-0.3,3.5l-0.3,3.5L116.2,170.3z"/>
</g>
<rect x="38.4" y="47" class="st39" width="69.2" height="404.3"/>
<line class="st40" x1="108.7" y1="60.7" x2="108.7" y2="436.9"/>
<circle class="st41" cx="434.1" cy="176.7" r="0.6"/>
<circle class="st41" cx="304.5" cy="269.2" r="0.6"/>
<circle class="st41" cx="388.5" cy="302" r="0.6"/>
<circle class="st41" cx="324.9" cy="224.1" r="0.6"/>
<circle class="st41" cx="376" cy="317.6" r="0.6"/>
<circle class="st41" cx="284.7" cy="185.5" r="0.6"/>
<g>
	<g>
		<path class="st40" d="M432.5,175.5c-7.8-3.7-36.6-16-68.7,0c-42,21-55.8,73.7-58.8,87.5"/>
		<g>
			<path d="M304.5,266c-0.2-1.5-0.8-3.4-1.5-4.7l2.2,1.3l2.5-0.4C306.5,263.2,305.3,264.7,304.5,266z"/>
		</g>
	</g>
</g>
<g>
	<g>
		<path class="st40" d="M305.5,267.1c16.1-23.1,39.8-29.4,57.9-16.3c16.2,11.7,21.9,34.5,23.6,43.3"/>
		<g>
			<path d="M387.5,297c-0.8-1.3-2-2.9-3.1-3.8l2.5,0.4l2.2-1.3C388.3,293.6,387.8,295.5,387.5,297z"/>
		</g>
	</g>
</g>
<g>
	<g>
		<path class="st40" d="M387.5,300c-6.1-6.8-15-6.9-18.4-3.3c-3.2,3.2-3.2,11.1,2.2,16.8"/>
		<g>
			<path d="M373.5,315.5c-1.4-0.6-3.3-1.1-4.8-1.1l2.2-1.2l1-2.3C372.1,312.3,372.8,314.2,373.5,315.5z"/>
		</g>
	</g>
</g>
<g>
	<g>
		<path class="st40" d="M374.5,318.8c-20,52.7-41.8,40.9-49.1,0c-5.5-31.1-1.7-74.7-0.3-88.6"/>
		<g>
			<path d="M325.4,227.1c0.4,1.5,1.1,3.3,2,4.5l-2.3-1.1l-2.4,0.6C323.7,230.2,324.8,228.5,325.4,227.1z"/>
		</g>
	</g>
</g>
<g>
	<g>
		<path class="st40" d="M325.2,223.7c5.9-14.2,5.7-31.3,0-42.1c-7.4-14-24.2-17-36.4-2.4"/>
		<g>
			<path d="M287,181.5c0.5-1.4,0.9-3.4,0.8-4.8l1.3,2.1l2.4,0.8C290.1,179.9,288.3,180.7,287,181.5z"/>
		</g>
	</g>
</g>
<g>
	<g>
		<path class="st40" d="M285.6,186.6c5.1,4.2,54.8,43.5,108.5,22.4c16-6.3,28-16.2,36.1-24.8"/>
		<g>
			<path d="M432.3,181.9c-0.6,1.4-1.1,3.3-1.2,4.7l-1.1-2.3l-2.3-1C429.1,183.3,431,182.6,432.3,181.9z"/>
		</g>
	</g>
</g>
<rect x="441.5" y="179.3" class="st42" width="65" height="24.2"/>
<text transform="matrix(1 0 0 1 441.4551 184.7085)" class="st43 st44">1. NEW YORK CITY, NY</text>
<rect x="396" y="299.8" class="st42" width="56.5" height="24.2"/>
<text transform="matrix(1 0 0 1 395.9551 305.2085)" class="st43 st44">3. CHARLESTON, SC</text>
<rect x="380.5" y="319.3" class="st42" width="56.5" height="24.2"/>
<text transform="matrix(1 0 0 1 380.4551 324.7085)" class="st43 st44">4. SAVANNAH, GA</text>
<rect x="257.2" y="276.5" class="st42" width="56.5" height="24.2"/>
<text transform="matrix(1 0 0 1 257.248 281.8683)" class="st43 st44">2. NASHVILLE, TN</text>
<rect x="332" y="217.4" class="st42" width="56.5" height="24.2"/>
<text transform="matrix(1 0 0 1 331.9749 222.8057)" class="st43 st44">5. CINCINNATI, OH</text>
<rect x="243" y="176.2" class="st42" width="56.5" height="24.2"/>
<text transform="matrix(1 0 0 1 243.0394 181.5909)" class="st43 st44">6. CHICAGO, IL</text>
<rect x="108" y="38.3" class="st42" width="309.2" height="20.1"/>
<text transform="matrix(1 0 0 1 108.0176 51.9653)" class="st43 st45">Mariels spring break airport adventure</text>
<rect x="108.3" y="23.6" class="st42" width="309.2" height="11.5"/>
<text transform="matrix(1 0 0 1 108.2969 32.9956)" class="st46 st47">Map 4: Annotated Satellite Map</text>
<rect x="442.7" y="189.8" class="st42" width="65" height="24.2"/>
<text transform="matrix(1 0 0 1 442.7078 195.1967)"><tspan x="0" y="0" class="st48 st44">I flew out of La Guardia </tspan><tspan x="0" y="8.4" class="st48 st44">Airport at 7:10 a.m. </tspan></text>
<rect x="257.2" y="285.8" class="st42" width="65" height="37.7"/>
<text transform="matrix(1 0 0 1 257.2078 291.1967)"><tspan x="0" y="0" class="st48 st44">I transferred flights at </tspan><tspan x="0" y="8.4" class="st48 st44">Nashville International </tspan><tspan x="0" y="16.8" class="st48 st44">Airport (BNA), departing </tspan><tspan x="0" y="25.2" class="st48 st44">at 9:25 a.m. </tspan></text>
<rect x="386.9" y="330.6" class="st42" width="82.6" height="45.9"/>
<text transform="matrix(1 0 0 1 386.8589 335.9868)"><tspan x="0" y="0" class="st48 st44">After five days in Hilton Head, </tspan><tspan x="0" y="8.4" class="st48 st44">I drove an hour to </tspan><tspan x="0" y="16.8" class="st48 st44">Savannah/Hilton Head </tspan><tspan x="0" y="25.2" class="st48 st44">International Airport. Flight </tspan><tspan x="0" y="33.6" class="st48 st44">departed at 1:05 p.m.</tspan></text>
<rect x="330.8" y="227.7" class="st42" width="151.2" height="24.2"/>
<text transform="matrix(1 0 0 1 330.7706 233.163)"><tspan x="0" y="0" class="st48 st44">Arrived at Cincinnati/Northern Kentucky International  </tspan><tspan x="0" y="8.4" class="st48 st44">Airport (CVG) and drove home to Indiana. </tspan></text>
<rect x="240.2" y="185.3" class="st42" width="48.1" height="72.6"/>
<text transform="matrix(1 0 0 1 240.2078 190.6967)"><tspan x="0" y="0" class="st48 st44">Spent a night in </tspan><tspan x="0" y="8.4" class="st48 st44">Chicago before </tspan><tspan x="0" y="16.8" class="st48 st44">flying out of </tspan><tspan x="0" y="25.2" class="st48 st44">Midway </tspan><tspan x="0" y="33.6" class="st48 st44">International </tspan><tspan x="0" y="42" class="st48 st44">Airport, departing </tspan><tspan x="0" y="50.4" class="st48 st44">at 6:00 a.m. for </tspan><tspan x="0" y="58.8" class="st48 st44">New York City. </tspan></text>
<line class="st22" x1="109.2" y1="440.6" x2="398.5" y2="440.6"/>
<rect x="109.3" y="444.8" class="st42" width="372.5" height="24.2"/>
<text transform="matrix(1 0 0 1 109.2949 450.96)" class="st46 st49">By Mariel Padilla </text>
</svg>
